<svg width="211.64375mm" height="71.15mm" viewBox="0 0 211.64375 71.15" xmlns="http://www.w3.org/2000/svg"><g id="svgGroup" stroke-linecap="round" fill-rule="evenodd" font-size="9pt" stroke="#000" stroke-width="0.25mm" fill="none" style="stroke:#000;stroke-width:0.25mm;fill:none"><path d="M 100.5125 71.15 L 102.9005 71.15 L 111.1245 71.15 L 113.5125 71.15 L 113.5375 71.15 L 117.1245 71.15 L 119.5375 71.15 A 0.5 0.5 0 0 0 119.55 71.149844 A 0.5 0.5 0 0 0 119.5625 71.15 L 129.0875 71.15 L 132.5625 71.15 L 135.0005 71.15 L 141.0005 71.15 L 142.0875 71.15 A 0.5 0.5 0 0 0 142.5875 70.65 L 142.5875 57.65 A 0.5 0.5 0 0 0 142.0875 57.15 L 141.5005 57.15 L 141.5005 56.65 A 0.5 0.5 0 0 0 141.0005 56.15 L 135.0005 56.15 A 0.5 0.5 0 0 0 134.5005 56.65 L 134.5005 57.15 L 132.5625 57.15 L 129.0875 57.15 L 120.0375 57.15 L 120.0375 56.65 A 0.5 0.5 0 0 0 119.5375 56.15 L 117.1245 56.15 L 113.5375 56.15 L 111.1245 56.15 A 0.5 0.5 0 0 0 110.6245 56.65 L 110.6245 57.15 L 103.4005 57.15 L 103.4005 56.65 A 0.5 0.5 0 0 0 102.9005 56.15 L 100.4875 56.15 L 96.9005 56.15 L 94.4875 56.15 A 0.5 0.5 0 0 0 93.9875 56.65 L 93.9875 57.15 L 84.9375 57.15 L 81.4625 57.15 L 79.5245 57.15 L 79.5245 56.65 A 0.5 0.5 0 0 0 79.0245 56.15 L 73.0245 56.15 A 0.5 0.5 0 0 0 72.5245 56.65 L 72.5245 57.15 L 71.9375 57.15 A 0.5 0.5 0 0 0 71.4375 57.65 L 71.4375 70.65 A 0.5 0.5 0 0 0 71.9375 71.15 L 73.0245 71.15 L 79.0245 71.15 L 81.4625 71.15 L 84.9375 71.15 L 94.4625 71.15 A 0.5 0.5 0 0 0 94.475 71.149844 A 0.5 0.5 0 0 0 94.4875 71.15 L 96.9005 71.15 L 100.4875 71.15 L 100.5125 71.15 Z M 195.2625 13.5 A 0.5 0.5 0 0 0 195.7625 14 L 197.64375 14 L 197.64375 19.05 L 189.7125 19.05 L 188.61875 19.05 L 186.68075 19.05 L 186.68075 18.55 A 0.5 0.5 0 0 0 186.18075 18.05 L 180.18075 18.05 A 0.5 0.5 0 0 0 179.68075 18.55 L 179.68075 19.05 L 176.7125 19.05 A 0.5 0.5 0 0 0 176.2125 19.55 L 176.2125 32.55 A 0.5 0.5 0 0 0 176.7125 33.05 L 180.18075 33.05 L 186.18075 33.05 L 188.61875 33.05 L 189.7125 33.05 L 201.61875 33.05 A 0.5 0.5 0 0 0 202.11875 32.55 L 202.11875 31.963 L 203.55675 31.963 L 203.55675 32.55 A 0.5 0.5 0 0 0 204.05675 33.05 L 210.05675 33.05 A 0.5 0.5 0 0 0 210.55675 32.55 L 210.55675 31.963 L 211.14375 31.963 A 0.5 0.5 0 0 0 211.64375 31.463 L 211.64375 25.463 A 0.5 0.5 0 0 0 211.14375 24.963 L 210.55675 24.963 L 210.55675 23.525 L 211.14375 23.525 A 0.5 0.5 0 0 0 211.64375 23.025 L 211.64375 10.025 A 0.5 0.5 0 0 0 211.14375 9.525 L 209.2625 9.525 L 209.2625 8.087 L 211.14375 8.087 A 0.5 0.5 0 0 0 211.64375 7.587 L 211.64375 1.587 A 0.5 0.5 0 0 0 211.14375 1.087 L 209.2625 1.087 L 209.2625 0.5 A 0.5 0.5 0 0 0 208.7625 0 L 195.7625 0 A 0.5 0.5 0 0 0 195.2625 0.5 L 195.2625 13.5 Z M 43.8375 56.65 A 0.5 0.5 0 0 0 43.3375 56.15 L 37.3375 56.15 A 0.5 0.5 0 0 0 36.8375 56.65 L 36.8375 57.15 L 33.8375 57.15 A 0.5 0.5 0 0 0 33.3375 57.65 L 33.3375 70.65 A 0.5 0.5 0 0 0 33.8375 71.15 L 37.3375 71.15 L 43.3375 71.15 L 46.8375 71.15 A 0.5 0.5 0 0 0 46.85 71.149844 A 0.5 0.5 0 0 0 46.8625 71.15 L 52.8625 71.15 A 0.5 0.5 0 0 0 52.875 71.149844 A 0.5 0.5 0 0 0 52.8875 71.15 L 56.3875 71.15 L 62.3875 71.15 L 65.8875 71.15 A 0.5 0.5 0 0 0 66.3875 70.65 L 66.3875 57.65 A 0.5 0.5 0 0 0 65.8875 57.15 L 62.8875 57.15 L 62.8875 56.65 A 0.5 0.5 0 0 0 62.3875 56.15 L 56.3875 56.15 A 0.5 0.5 0 0 0 55.8875 56.65 L 55.8875 57.15 L 53.3625 57.15 L 53.3625 56.65 A 0.5 0.5 0 0 0 52.8625 56.15 L 46.8625 56.15 A 0.5 0.5 0 0 0 46.3625 56.65 L 46.3625 57.15 L 43.8375 57.15 L 43.8375 56.65 Z M 177.1875 56.65 A 0.5 0.5 0 0 0 176.6875 56.15 L 170.6875 56.15 A 0.5 0.5 0 0 0 170.1875 56.65 L 170.1875 57.15 L 167.6625 57.15 L 167.6625 56.65 A 0.5 0.5 0 0 0 167.1625 56.15 L 161.1625 56.15 A 0.5 0.5 0 0 0 160.6625 56.65 L 160.6625 57.15 L 158.1375 57.15 L 158.1375 56.65 A 0.5 0.5 0 0 0 157.6375 56.15 L 151.6375 56.15 A 0.5 0.5 0 0 0 151.1375 56.65 L 151.1375 57.15 L 148.1375 57.15 A 0.5 0.5 0 0 0 147.6375 57.65 L 147.6375 70.65 A 0.5 0.5 0 0 0 148.1375 71.15 L 151.6375 71.15 L 157.6375 71.15 L 161.1375 71.15 A 0.5 0.5 0 0 0 161.15 71.149844 A 0.5 0.5 0 0 0 161.1625 71.15 L 167.1625 71.15 A 0.5 0.5 0 0 0 167.175 71.149844 A 0.5 0.5 0 0 0 167.1875 71.15 L 170.6875 71.15 L 176.6875 71.15 L 180.1875 71.15 A 0.5 0.5 0 0 0 180.6875 70.65 L 180.6875 57.65 A 0.5 0.5 0 0 0 180.1875 57.15 L 177.1875 57.15 L 177.1875 56.65 Z M 183.35625 51.6 A 0.5 0.5 0 0 0 183.85625 52.1 L 193.38125 52.1 L 196.85625 52.1 L 199.29425 52.1 L 205.29425 52.1 L 206.38125 52.1 A 0.5 0.5 0 0 0 206.88125 51.6 L 206.88125 38.6 A 0.5 0.5 0 0 0 206.38125 38.1 L 205.79425 38.1 L 205.79425 37.6 A 0.5 0.5 0 0 0 205.29425 37.1 L 199.29425 37.1 A 0.5 0.5 0 0 0 198.79425 37.6 L 198.79425 38.1 L 196.85625 38.1 L 193.38125 38.1 L 183.85625 38.1 A 0.5 0.5 0 0 0 183.35625 38.6 L 183.35625 51.6 Z M 166.6875 51.6 A 0.5 0.5 0 0 0 167.1875 52.1 L 175.41825 52.1 L 180.1875 52.1 L 181.41825 52.1 A 0.5 0.5 0 0 0 181.91825 51.6 L 181.91825 37.6 A 0.5 0.5 0 0 0 181.41825 37.1 L 175.41825 37.1 A 0.5 0.5 0 0 0 174.91825 37.6 L 174.91825 38.1 L 167.1875 38.1 A 0.5 0.5 0 0 0 166.6875 38.6 L 166.6875 51.6 Z M 19.05 13.5 A 0.5 0.5 0 0 0 19.55 14 L 32.55 14 A 0.5 0.5 0 0 0 33.05 13.5 L 33.05 0.5 A 0.5 0.5 0 0 0 32.55 0 L 19.55 0 A 0.5 0.5 0 0 0 19.05 0.5 L 19.05 13.5 Z M 38.1 13.5 A 0.5 0.5 0 0 0 38.6 14 L 51.6 14 A 0.5 0.5 0 0 0 52.1 13.5 L 52.1 0.5 A 0.5 0.5 0 0 0 51.6 0 L 38.6 0 A 0.5 0.5 0 0 0 38.1 0.5 L 38.1 13.5 Z M 57.15 13.5 A 0.5 0.5 0 0 0 57.65 14 L 70.65 14 A 0.5 0.5 0 0 0 71.15 13.5 L 71.15 0.5 A 0.5 0.5 0 0 0 70.65 0 L 57.65 0 A 0.5 0.5 0 0 0 57.15 0.5 L 57.15 13.5 Z M 76.2 13.5 A 0.5 0.5 0 0 0 76.7 14 L 89.7 14 A 0.5 0.5 0 0 0 90.2 13.5 L 90.2 0.5 A 0.5 0.5 0 0 0 89.7 0 L 76.7 0 A 0.5 0.5 0 0 0 76.2 0.5 L 76.2 13.5 Z M 95.25 13.5 A 0.5 0.5 0 0 0 95.75 14 L 108.75 14 A 0.5 0.5 0 0 0 109.25 13.5 L 109.25 0.5 A 0.5 0.5 0 0 0 108.75 0 L 95.75 0 A 0.5 0.5 0 0 0 95.25 0.5 L 95.25 13.5 Z M 133.35 13.5 A 0.5 0.5 0 0 0 133.85 14 L 146.85 14 A 0.5 0.5 0 0 0 147.35 13.5 L 147.35 0.5 A 0.5 0.5 0 0 0 146.85 0 L 133.85 0 A 0.5 0.5 0 0 0 133.35 0.5 L 133.35 13.5 Z M 152.4 13.5 A 0.5 0.5 0 0 0 152.9 14 L 165.9 14 A 0.5 0.5 0 0 0 166.4 13.5 L 166.4 0.5 A 0.5 0.5 0 0 0 165.9 0 L 152.9 0 A 0.5 0.5 0 0 0 152.4 0.5 L 152.4 13.5 Z M 171.45 13.5 A 0.5 0.5 0 0 0 171.95 14 L 184.95 14 A 0.5 0.5 0 0 0 185.45 13.5 L 185.45 0.5 A 0.5 0.5 0 0 0 184.95 0 L 171.95 0 A 0.5 0.5 0 0 0 171.45 0.5 L 171.45 13.5 Z M 2.38125 32.55 A 0.5 0.5 0 0 0 2.88125 33.05 L 15.88125 33.05 A 0.5 0.5 0 0 0 16.38125 32.55 L 16.38125 19.55 A 0.5 0.5 0 0 0 15.88125 19.05 L 2.88125 19.05 A 0.5 0.5 0 0 0 2.38125 19.55 L 2.38125 32.55 Z M 23.8125 32.55 A 0.5 0.5 0 0 0 24.3125 33.05 L 37.3125 33.05 A 0.5 0.5 0 0 0 37.8125 32.55 L 37.8125 19.55 A 0.5 0.5 0 0 0 37.3125 19.05 L 24.3125 19.05 A 0.5 0.5 0 0 0 23.8125 19.55 L 23.8125 32.55 Z M 42.8625 32.55 A 0.5 0.5 0 0 0 43.3625 33.05 L 56.3625 33.05 A 0.5 0.5 0 0 0 56.8625 32.55 L 56.8625 19.55 A 0.5 0.5 0 0 0 56.3625 19.05 L 43.3625 19.05 A 0.5 0.5 0 0 0 42.8625 19.55 L 42.8625 32.55 Z M 61.9125 32.55 A 0.5 0.5 0 0 0 62.4125 33.05 L 75.4125 33.05 A 0.5 0.5 0 0 0 75.9125 32.55 L 75.9125 19.55 A 0.5 0.5 0 0 0 75.4125 19.05 L 62.4125 19.05 A 0.5 0.5 0 0 0 61.9125 19.55 L 61.9125 32.55 Z M 80.9625 32.55 A 0.5 0.5 0 0 0 81.4625 33.05 L 94.4625 33.05 A 0.5 0.5 0 0 0 94.9625 32.55 L 94.9625 19.55 A 0.5 0.5 0 0 0 94.4625 19.05 L 81.4625 19.05 A 0.5 0.5 0 0 0 80.9625 19.55 L 80.9625 32.55 Z M 100.0125 32.55 A 0.5 0.5 0 0 0 100.5125 33.05 L 113.5125 33.05 A 0.5 0.5 0 0 0 114.0125 32.55 L 114.0125 19.55 A 0.5 0.5 0 0 0 113.5125 19.05 L 100.5125 19.05 A 0.5 0.5 0 0 0 100.0125 19.55 L 100.0125 32.55 Z M 119.0625 32.55 A 0.5 0.5 0 0 0 119.5625 33.05 L 132.5625 33.05 A 0.5 0.5 0 0 0 133.0625 32.55 L 133.0625 19.55 A 0.5 0.5 0 0 0 132.5625 19.05 L 119.5625 19.05 A 0.5 0.5 0 0 0 119.0625 19.55 L 119.0625 32.55 Z M 138.1125 32.55 A 0.5 0.5 0 0 0 138.6125 33.05 L 151.6125 33.05 A 0.5 0.5 0 0 0 152.1125 32.55 L 152.1125 19.55 A 0.5 0.5 0 0 0 151.6125 19.05 L 138.6125 19.05 A 0.5 0.5 0 0 0 138.1125 19.55 L 138.1125 32.55 Z M 157.1625 32.55 A 0.5 0.5 0 0 0 157.6625 33.05 L 170.6625 33.05 A 0.5 0.5 0 0 0 171.1625 32.55 L 171.1625 19.55 A 0.5 0.5 0 0 0 170.6625 19.05 L 157.6625 19.05 A 0.5 0.5 0 0 0 157.1625 19.55 L 157.1625 32.55 Z M 7.14375 51.6 A 0.5 0.5 0 0 0 7.64375 52.1 L 20.64375 52.1 A 0.5 0.5 0 0 0 21.14375 51.6 L 21.14375 38.6 A 0.5 0.5 0 0 0 20.64375 38.1 L 7.64375 38.1 A 0.5 0.5 0 0 0 7.14375 38.6 L 7.14375 51.6 Z M 33.3375 51.6 A 0.5 0.5 0 0 0 33.8375 52.1 L 46.8375 52.1 A 0.5 0.5 0 0 0 47.3375 51.6 L 47.3375 38.6 A 0.5 0.5 0 0 0 46.8375 38.1 L 33.8375 38.1 A 0.5 0.5 0 0 0 33.3375 38.6 L 33.3375 51.6 Z M 71.4375 51.6 A 0.5 0.5 0 0 0 71.9375 52.1 L 84.9375 52.1 A 0.5 0.5 0 0 0 85.4375 51.6 L 85.4375 38.6 A 0.5 0.5 0 0 0 84.9375 38.1 L 71.9375 38.1 A 0.5 0.5 0 0 0 71.4375 38.6 L 71.4375 51.6 Z M 90.4875 51.6 A 0.5 0.5 0 0 0 90.9875 52.1 L 103.9875 52.1 A 0.5 0.5 0 0 0 104.4875 51.6 L 104.4875 38.6 A 0.5 0.5 0 0 0 103.9875 38.1 L 90.9875 38.1 A 0.5 0.5 0 0 0 90.4875 38.6 L 90.4875 51.6 Z M 109.5375 51.6 A 0.5 0.5 0 0 0 110.0375 52.1 L 123.0375 52.1 A 0.5 0.5 0 0 0 123.5375 51.6 L 123.5375 38.6 A 0.5 0.5 0 0 0 123.0375 38.1 L 110.0375 38.1 A 0.5 0.5 0 0 0 109.5375 38.6 L 109.5375 51.6 Z M 128.5875 51.6 A 0.5 0.5 0 0 0 129.0875 52.1 L 142.0875 52.1 A 0.5 0.5 0 0 0 142.5875 51.6 L 142.5875 38.6 A 0.5 0.5 0 0 0 142.0875 38.1 L 129.0875 38.1 A 0.5 0.5 0 0 0 128.5875 38.6 L 128.5875 51.6 Z M 147.6375 51.6 A 0.5 0.5 0 0 0 148.1375 52.1 L 161.1375 52.1 A 0.5 0.5 0 0 0 161.6375 51.6 L 161.6375 38.6 A 0.5 0.5 0 0 0 161.1375 38.1 L 148.1375 38.1 A 0.5 0.5 0 0 0 147.6375 38.6 L 147.6375 51.6 Z M 14.2875 70.65 A 0.5 0.5 0 0 0 14.7875 71.15 L 27.7875 71.15 A 0.5 0.5 0 0 0 28.2875 70.65 L 28.2875 57.65 A 0.5 0.5 0 0 0 27.7875 57.15 L 14.7875 57.15 A 0.5 0.5 0 0 0 14.2875 57.65 L 14.2875 70.65 Z M 185.7375 70.65 A 0.5 0.5 0 0 0 186.2375 71.15 L 199.2375 71.15 A 0.5 0.5 0 0 0 199.7375 70.65 L 199.7375 57.65 A 0.5 0.5 0 0 0 199.2375 57.15 L 186.2375 57.15 A 0.5 0.5 0 0 0 185.7375 57.65 L 185.7375 70.65 Z M 0 13.5 A 0.5 0.5 0 0 0 0.5 14 L 13.5 14 A 0.5 0.5 0 0 0 14 13.5 L 14 0.5 A 0.5 0.5 0 0 0 13.5 0 L 0.5 0 A 0.5 0.5 0 0 0 0 0.5 L 0 13.5 Z M 52.3875 51.6 A 0.5 0.5 0 0 0 52.8875 52.1 L 65.8875 52.1 A 0.5 0.5 0 0 0 66.3875 51.6 L 66.3875 38.6 A 0.5 0.5 0 0 0 65.8875 38.1 L 52.8875 38.1 A 0.5 0.5 0 0 0 52.3875 38.6 L 52.3875 51.6 Z M 114.3 13.5 A 0.5 0.5 0 0 0 114.8 14 L 127.8 14 A 0.5 0.5 0 0 0 128.3 13.5 L 128.3 0.5 A 0.5 0.5 0 0 0 127.8 0 L 114.8 0 A 0.5 0.5 0 0 0 114.3 0.5 L 114.3 13.5 Z M 202.11875 23.525 L 203.55675 23.525 L 203.55675 24.963 L 202.11875 24.963 L 202.11875 23.525 Z" vector-effect="non-scaling-stroke"/></g></svg>