M48
; DRILL file {KiCad 8.0.0} date 2024-02-25T16:00:02+0100
; FORMAT={-:-/ absolute / inch / decimal}
; #@! TF.CreationDate,2024-02-25T16:00:02+01:00
; #@! TF.GenerationSoftware,Kicad,Pcbnew,8.0.0
; #@! TF.FileFunction,NonPlated,1,2,NPTH
FMAT,2
INCH
; #@! TA.AperFunction,NonPlated,NPTH,ComponentDrill
T1C0.0689
; #@! TA.AperFunction,NonPlated,NPTH,ComponentDrill
T2C0.1200
; #@! TA.AperFunction,NonPlated,NPTH,ComponentDrill
T3C0.1570
%
G90
G05
T1
X1.1125Y-1.1719
X1.2063Y-1.9219
X1.3938Y-2.6719
X1.5125Y-1.1719
X1.6062Y-1.9219
X1.675Y-3.4219
X1.7937Y-2.6719
X1.8625Y-1.1719
X2.05Y-1.9219
X2.075Y-3.4219
X2.2625Y-1.1719
X2.425Y-2.6719
X2.425Y-3.4219
X2.45Y-1.9219
X2.6125Y-1.1719
X2.8Y-1.9219
X2.825Y-2.6719
X2.825Y-3.4219
X3.0125Y-1.1719
X3.175Y-2.6719
X3.175Y-3.4219
X3.2Y-1.9219
X3.3625Y-1.1719
X3.55Y-1.9219
X3.575Y-2.6719
X3.575Y-3.4219
X3.7625Y-1.1719
X3.925Y-2.6719
X3.925Y-3.4219
X3.95Y-1.9219
X4.1125Y-1.1719
X4.3Y-1.9219
X4.3Y-3.4219
X4.325Y-2.6719
X4.325Y-3.4219
X4.5125Y-1.1719
X4.675Y-2.6719
X4.7Y-1.9219
X4.7Y-3.4219
X4.8625Y-1.1719
X5.05Y-1.9219
X5.05Y-3.4219
X5.075Y-2.6719
X5.2625Y-1.1719
X5.425Y-2.6719
X5.45Y-1.9219
X5.45Y-3.4219
X5.6125Y-1.1719
X5.8Y-1.9219
X5.8Y-3.4219
X5.825Y-2.6719
X6.0125Y-1.1719
X6.175Y-2.6719
X6.175Y-3.4219
X6.2Y-1.9219
X6.2Y-3.4219
X6.3625Y-1.1719
X6.55Y-1.9219
X6.575Y-2.6719
X6.575Y-3.4219
X6.7625Y-1.1719
X6.925Y-2.6719
X6.925Y-3.4219
X6.95Y-1.9219
X7.1125Y-1.1719
X7.3Y-1.9219
X7.325Y-2.6719
X7.325Y-3.4219
X7.5125Y-1.1719
X7.675Y-2.6719
X7.675Y-3.4219
X7.7Y-1.9219
X7.8625Y-1.1719
X8.075Y-2.6719
X8.075Y-3.4219
X8.2625Y-1.1719
X8.425Y-3.4219
X8.5187Y-1.9219
X8.7062Y-2.6719
X8.8Y-1.1719
X8.825Y-3.4219
X8.9187Y-1.9219
X9.1062Y-2.6719
X9.2Y-1.1719
T2
X3.375Y-3.6969
X4.0312Y-3.6969
X4.875Y-3.6969
X4.9688Y-3.6969
X5.5312Y-3.6969
X5.625Y-3.6969
X6.4688Y-3.6969
X7.125Y-3.6969
X8.25Y-2.1969
X9.1875Y-2.1969
T3
X1.3125Y-1.1719
X1.4062Y-1.9219
X1.5938Y-2.6719
X1.875Y-3.4219
X2.0625Y-1.1719
X2.25Y-1.9219
X2.625Y-2.6719
X2.625Y-3.0969
X2.625Y-3.4219
X2.8125Y-1.1719
X3.0Y-1.9219
X3.0Y-3.0969
X3.375Y-2.6719
X3.375Y-3.0969
X3.375Y-3.0969
X3.375Y-3.4219
X3.5625Y-1.1719
X3.75Y-1.9219
X4.0312Y-3.0969
X4.125Y-2.6719
X4.125Y-3.4219
X4.3125Y-1.1719
X4.5Y-1.9219
X4.5Y-3.4219
X4.875Y-2.6719
X4.875Y-3.0969
X4.9688Y-3.0969
X5.0625Y-1.1719
X5.25Y-1.9219
X5.25Y-3.4219
X5.5312Y-3.0969
X5.625Y-2.6719
X5.625Y-3.0969
X5.8125Y-1.1719
X6.0Y-1.9219
X6.0Y-3.4219
X6.375Y-2.6719
X6.375Y-3.4219
X6.4688Y-3.0969
X6.5625Y-1.1719
X6.75Y-1.9219
X7.125Y-2.6719
X7.125Y-3.0969
X7.125Y-3.0969
X7.125Y-3.4219
X7.3125Y-1.1719
X7.5Y-1.9219
X7.5Y-3.0969
X7.875Y-2.6719
X7.875Y-3.0969
X7.875Y-3.4219
X8.0625Y-1.1719
X8.25Y-1.5969
X8.625Y-3.4219
X8.7188Y-1.9219
X8.9062Y-2.6719
X9.0Y-1.1719
X9.1875Y-1.5969
M30
