M48
; DRILL file {KiCad 8.0.0} date 2024-02-25T16:00:02+0100
; FORMAT={-:-/ absolute / inch / decimal}
; #@! TF.CreationDate,2024-02-25T16:00:02+01:00
; #@! TF.GenerationSoftware,Kicad,Pcbnew,8.0.0
; #@! TF.FileFunction,Plated,1,2,PTH
FMAT,2
INCH
; #@! TA.AperFunction,Plated,PTH,ViaDrill
T1C0.0157
; #@! TA.AperFunction,Plated,PTH,ComponentDrill
T2C0.0394
; #@! TA.AperFunction,Plated,PTH,ComponentDrill
T3C0.0600
; #@! TA.AperFunction,Plated,PTH,ComponentDrill
T4C0.1200
%
G90
G05
T1
X5.5781Y-2.9631
X5.7012Y-2.0175
X6.1406Y-2.8025
X8.25Y-2.4141
X8.3906Y-1.4941
T2
X4.7625Y-0.8031
X4.7625Y-0.9031
X4.7625Y-1.0031
X4.7625Y-1.1031
X4.7625Y-1.2031
X4.7625Y-1.3031
X4.7625Y-1.4031
X4.8202Y-0.7397
X4.8202Y-1.4665
X5.015Y-0.7656
X5.115Y-0.7656
X5.3048Y-0.7397
X5.3048Y-1.4665
X5.3625Y-0.8031
X5.3625Y-0.9031
X5.3625Y-1.0031
X5.3625Y-1.1031
X5.3625Y-1.2031
X5.3625Y-1.3031
X5.3625Y-1.4031
T3
X1.1625Y-1.0719
X1.2562Y-1.8219
X1.4125Y-0.9719
X1.4437Y-2.5719
X1.5062Y-1.7219
X1.6937Y-2.4719
X1.725Y-3.3219
X1.9125Y-1.0719
X1.975Y-3.2219
X2.1Y-1.8219
X2.1625Y-0.9719
X2.35Y-1.7219
X2.475Y-2.5719
X2.475Y-3.3219
X2.6625Y-1.0719
X2.725Y-2.4719
X2.725Y-3.2219
X2.85Y-1.8219
X2.9125Y-0.9719
X3.1Y-1.7219
X3.225Y-2.5719
X3.225Y-3.3219
X3.4125Y-1.0719
X3.475Y-2.4719
X3.475Y-3.2219
X3.6Y-1.8219
X3.6625Y-0.9719
X3.85Y-1.7219
X3.975Y-2.5719
X3.975Y-3.3219
X4.1625Y-1.0719
X4.225Y-2.4719
X4.225Y-3.2219
X4.35Y-1.8219
X4.35Y-3.3219
X4.4125Y-0.9719
X4.6Y-1.7219
X4.6Y-3.2219
X4.725Y-2.5719
X4.9125Y-1.0719
X4.975Y-2.4719
X5.1Y-1.8219
X5.1Y-3.3219
X5.1625Y-0.9719
X5.35Y-1.7219
X5.35Y-3.2219
X5.475Y-2.5719
X5.6625Y-1.0719
X5.725Y-2.4719
X5.85Y-1.8219
X5.85Y-3.3219
X5.9125Y-0.9719
X6.1Y-1.7219
X6.1Y-3.2219
X6.225Y-2.5719
X6.225Y-3.3219
X6.4125Y-1.0719
X6.475Y-2.4719
X6.475Y-3.2219
X6.6Y-1.8219
X6.6625Y-0.9719
X6.85Y-1.7219
X6.975Y-2.5719
X6.975Y-3.3219
X7.1625Y-1.0719
X7.225Y-2.4719
X7.225Y-3.2219
X7.35Y-2.0219
X7.4125Y-0.9719
X7.6Y-2.1219
X7.725Y-2.5719
X7.725Y-3.3219
X7.9125Y-1.0719
X7.975Y-2.4719
X7.975Y-3.2219
X8.1625Y-0.9719
X8.475Y-3.3219
X8.5687Y-1.8219
X8.725Y-3.2219
X8.7562Y-2.5719
X8.8187Y-1.7219
X8.85Y-1.0719
X9.0062Y-2.4719
X9.1Y-0.9719
T4
X2.625Y-3.6969
X3.0Y-3.6969
X3.375Y-3.6969
X7.125Y-3.6969
X7.5Y-3.6969
X7.875Y-3.6969
M30
