%TF.GenerationSoftware,KiCad,Pcbnew,8.0.0*%
%TF.CreationDate,2024-02-25T16:00:07+01:00*%
%TF.ProjectId,QASS_PCB,51415353-5f50-4434-922e-6b696361645f,rev?*%
%TF.SameCoordinates,Original*%
%TF.FileFunction,Paste,Bot*%
%TF.FilePolarity,Positive*%
%FSLAX46Y46*%
G04 Gerber Fmt 4.6, Leading zero omitted, Abs format (unit mm)*
G04 Created by KiCad (PCBNEW 8.0.0) date 2024-02-25 16:00:07*
%MOMM*%
%LPD*%
G01*
G04 APERTURE LIST*
G04 Aperture macros list*
%AMRoundRect*
0 Rectangle with rounded corners*
0 $1 Rounding radius*
0 $2 $3 $4 $5 $6 $7 $8 $9 X,Y pos of 4 corners*
0 Add a 4 corners polygon primitive as box body*
4,1,4,$2,$3,$4,$5,$6,$7,$8,$9,$2,$3,0*
0 Add four circle primitives for the rounded corners*
1,1,$1+$1,$2,$3*
1,1,$1+$1,$4,$5*
1,1,$1+$1,$6,$7*
1,1,$1+$1,$8,$9*
0 Add four rect primitives between the rounded corners*
20,1,$1+$1,$2,$3,$4,$5,0*
20,1,$1+$1,$4,$5,$6,$7,0*
20,1,$1+$1,$6,$7,$8,$9,0*
20,1,$1+$1,$8,$9,$2,$3,0*%
G04 Aperture macros list end*
%ADD10RoundRect,0.150000X-0.150000X0.587500X-0.150000X-0.587500X0.150000X-0.587500X0.150000X0.587500X0*%
%ADD11RoundRect,0.150000X0.150000X-0.587500X0.150000X0.587500X-0.150000X0.587500X-0.150000X-0.587500X0*%
%ADD12RoundRect,0.400000X1.035000X-0.400000X1.035000X0.400000X-1.035000X0.400000X-1.035000X-0.400000X0*%
%ADD13RoundRect,0.400000X0.400000X-1.035000X0.400000X1.035000X-0.400000X1.035000X-0.400000X-1.035000X0*%
G04 APERTURE END LIST*
D10*
%TO.C,D19*%
X214950000Y-36368750D03*
X216850000Y-36368750D03*
X215900000Y-38243750D03*
%TD*%
%TO.C,D11*%
X94300000Y-69309375D03*
X96200000Y-69309375D03*
X95250000Y-71184375D03*
%TD*%
%TO.C,D2*%
X112159375Y-36368750D03*
X114059375Y-36368750D03*
X113109375Y-38243750D03*
%TD*%
%TO.C,D10*%
X56200000Y-69309375D03*
X58100000Y-69309375D03*
X57150000Y-71184375D03*
%TD*%
%TO.C,D6*%
X84775000Y-49068750D03*
X86675000Y-49068750D03*
X85725000Y-50943750D03*
%TD*%
D11*
%TO.C,D17*%
X168912500Y-77137500D03*
X170812500Y-77137500D03*
X169862500Y-75262500D03*
%TD*%
%TO.C,D14*%
X208600000Y-63246875D03*
X210500000Y-63246875D03*
X209550000Y-61371875D03*
%TD*%
D10*
%TO.C,D3*%
X156098389Y-33774669D03*
X157998389Y-33774669D03*
X157048389Y-35649669D03*
%TD*%
%TO.C,D12*%
X132400000Y-69309375D03*
X134300000Y-69309375D03*
X133350000Y-71184375D03*
%TD*%
D11*
%TO.C,D18*%
X208600000Y-77137500D03*
X210500000Y-77137500D03*
X209550000Y-75262500D03*
%TD*%
D10*
%TO.C,D1*%
X80012500Y-36368750D03*
X81912500Y-36368750D03*
X80962500Y-38243750D03*
%TD*%
%TO.C,D40*%
X41912500Y-36368750D03*
X43812500Y-36368750D03*
X42862500Y-38243750D03*
%TD*%
%TO.C,D13*%
X170500000Y-69309375D03*
X172400000Y-69309375D03*
X171450000Y-71184375D03*
%TD*%
D11*
%TO.C,D16*%
X94300000Y-77534375D03*
X96200000Y-77534375D03*
X95250000Y-75659375D03*
%TD*%
D10*
%TO.C,D7*%
X122875000Y-49068750D03*
X124775000Y-49068750D03*
X123825000Y-50943750D03*
%TD*%
%TO.C,D4*%
X194312500Y-36368750D03*
X196212500Y-36368750D03*
X195262500Y-38243750D03*
%TD*%
D12*
%TO.C,U1*%
X137222500Y-20399375D03*
X137222500Y-22939375D03*
X137222500Y-25479375D03*
X137222500Y-28019375D03*
X137222500Y-30559375D03*
X137222500Y-33099375D03*
X137222500Y-35639375D03*
X119932500Y-35639375D03*
X119932500Y-33099375D03*
X119932500Y-30559375D03*
X119932500Y-28019375D03*
X119932500Y-25479375D03*
X119932500Y-22939375D03*
X119932500Y-20399375D03*
D13*
X134742500Y-38384375D03*
X122432500Y-38384375D03*
X122432500Y-17684375D03*
X134742500Y-17684375D03*
%TD*%
D11*
%TO.C,D15*%
X56200000Y-77534375D03*
X58100000Y-77534375D03*
X57150000Y-75659375D03*
%TD*%
D10*
%TO.C,D5*%
X46675000Y-49068750D03*
X48575000Y-49068750D03*
X47625000Y-50943750D03*
%TD*%
%TO.C,D8*%
X160975000Y-49068750D03*
X162875000Y-49068750D03*
X161925000Y-50943750D03*
%TD*%
D11*
%TO.C,D9*%
X201853125Y-40228125D03*
X203753125Y-40228125D03*
X202803125Y-38353125D03*
%TD*%
M02*
