%TF.GenerationSoftware,KiCad,Pcbnew,8.0.0*%
%TF.CreationDate,2024-02-25T16:00:07+01:00*%
%TF.ProjectId,QASS_PCB,51415353-5f50-4434-922e-6b696361645f,rev?*%
%TF.SameCoordinates,Original*%
%TF.FileFunction,Copper,L2,Bot*%
%TF.FilePolarity,Positive*%
%FSLAX46Y46*%
G04 Gerber Fmt 4.6, Leading zero omitted, Abs format (unit mm)*
G04 Created by KiCad (PCBNEW 8.0.0) date 2024-02-25 16:00:07*
%MOMM*%
%LPD*%
G01*
G04 APERTURE LIST*
G04 Aperture macros list*
%AMRoundRect*
0 Rectangle with rounded corners*
0 $1 Rounding radius*
0 $2 $3 $4 $5 $6 $7 $8 $9 X,Y pos of 4 corners*
0 Add a 4 corners polygon primitive as box body*
4,1,4,$2,$3,$4,$5,$6,$7,$8,$9,$2,$3,0*
0 Add four circle primitives for the rounded corners*
1,1,$1+$1,$2,$3*
1,1,$1+$1,$4,$5*
1,1,$1+$1,$6,$7*
1,1,$1+$1,$8,$9*
0 Add four rect primitives between the rounded corners*
20,1,$1+$1,$2,$3,$4,$5,0*
20,1,$1+$1,$4,$5,$6,$7,0*
20,1,$1+$1,$6,$7,$8,$9,0*
20,1,$1+$1,$8,$9,$2,$3,0*%
G04 Aperture macros list end*
%TA.AperFunction,EtchedComponent*%
%ADD10C,0.010000*%
%TD*%
%TA.AperFunction,EtchedComponent*%
%ADD11C,0.000000*%
%TD*%
%TA.AperFunction,ComponentPad*%
%ADD12C,2.300000*%
%TD*%
%TA.AperFunction,ComponentPad*%
%ADD13C,4.000000*%
%TD*%
%TA.AperFunction,SMDPad,CuDef*%
%ADD14RoundRect,0.150000X-0.150000X0.587500X-0.150000X-0.587500X0.150000X-0.587500X0.150000X0.587500X0*%
%TD*%
%TA.AperFunction,SMDPad,CuDef*%
%ADD15RoundRect,0.150000X0.150000X-0.587500X0.150000X0.587500X-0.150000X0.587500X-0.150000X-0.587500X0*%
%TD*%
%TA.AperFunction,SMDPad,CuDef*%
%ADD16RoundRect,0.400000X1.035000X-0.400000X1.035000X0.400000X-1.035000X0.400000X-1.035000X-0.400000X0*%
%TD*%
%TA.AperFunction,ComponentPad*%
%ADD17C,1.600000*%
%TD*%
%TA.AperFunction,ComponentPad*%
%ADD18RoundRect,0.400000X0.400000X-0.400000X0.400000X0.400000X-0.400000X0.400000X-0.400000X-0.400000X0*%
%TD*%
%TA.AperFunction,SMDPad,CuDef*%
%ADD19RoundRect,0.400000X0.400000X-1.035000X0.400000X1.035000X-0.400000X1.035000X-0.400000X-1.035000X0*%
%TD*%
%TA.AperFunction,ComponentPad*%
%ADD20R,1.700000X1.700000*%
%TD*%
%TA.AperFunction,ViaPad*%
%ADD21C,0.800000*%
%TD*%
%TA.AperFunction,Conductor*%
%ADD22C,0.250000*%
%TD*%
G04 APERTURE END LIST*
D10*
%TO.C,Ref\u002A\u002A*%
X55538060Y-55247693D02*
X55575193Y-55283798D01*
X55716889Y-55396570D01*
X55880660Y-55488975D01*
X56076160Y-55566736D01*
X56095552Y-55573361D01*
X56199291Y-55613367D01*
X56268212Y-55650161D01*
X56308351Y-55686866D01*
X56332563Y-55728634D01*
X56336801Y-55781689D01*
X56302040Y-55824366D01*
X56227410Y-55857531D01*
X56112038Y-55882051D01*
X56107602Y-55882690D01*
X56047336Y-55888809D01*
X55978118Y-55892902D01*
X55974466Y-55892992D01*
X55925936Y-55891670D01*
X55848630Y-55887213D01*
X55750438Y-55880302D01*
X55639248Y-55871621D01*
X55522950Y-55861850D01*
X55409432Y-55851672D01*
X55306584Y-55841769D01*
X55222296Y-55832823D01*
X55164456Y-55825515D01*
X55140954Y-55820529D01*
X55142851Y-55803604D01*
X55158653Y-55754425D01*
X55186183Y-55680988D01*
X55222319Y-55591040D01*
X55263936Y-55492322D01*
X55307910Y-55392581D01*
X55351116Y-55299561D01*
X55428992Y-55137253D01*
X55538060Y-55247693D01*
%TA.AperFunction,EtchedComponent*%
G36*
X55538060Y-55247693D02*
G01*
X55575193Y-55283798D01*
X55716889Y-55396570D01*
X55880660Y-55488975D01*
X56076160Y-55566736D01*
X56095552Y-55573361D01*
X56199291Y-55613367D01*
X56268212Y-55650161D01*
X56308351Y-55686866D01*
X56332563Y-55728634D01*
X56336801Y-55781689D01*
X56302040Y-55824366D01*
X56227410Y-55857531D01*
X56112038Y-55882051D01*
X56107602Y-55882690D01*
X56047336Y-55888809D01*
X55978118Y-55892902D01*
X55974466Y-55892992D01*
X55925936Y-55891670D01*
X55848630Y-55887213D01*
X55750438Y-55880302D01*
X55639248Y-55871621D01*
X55522950Y-55861850D01*
X55409432Y-55851672D01*
X55306584Y-55841769D01*
X55222296Y-55832823D01*
X55164456Y-55825515D01*
X55140954Y-55820529D01*
X55142851Y-55803604D01*
X55158653Y-55754425D01*
X55186183Y-55680988D01*
X55222319Y-55591040D01*
X55263936Y-55492322D01*
X55307910Y-55392581D01*
X55351116Y-55299561D01*
X55428992Y-55137253D01*
X55538060Y-55247693D01*
G37*
%TD.AperFunction*%
X53522661Y-57378250D02*
X53640898Y-57386842D01*
X53770754Y-57404514D01*
X53904553Y-57429357D01*
X54034619Y-57459465D01*
X54153273Y-57492932D01*
X54252840Y-57527850D01*
X54325644Y-57562311D01*
X54364006Y-57594410D01*
X54375000Y-57622346D01*
X54369115Y-57655395D01*
X54339835Y-57695123D01*
X54283061Y-57746894D01*
X54194697Y-57816071D01*
X54004118Y-57941763D01*
X53776458Y-58059485D01*
X53525495Y-58162444D01*
X53260469Y-58247288D01*
X52990620Y-58310665D01*
X52725185Y-58349223D01*
X52697950Y-58351830D01*
X52612428Y-58359844D01*
X52543174Y-58366087D01*
X52503121Y-58369383D01*
X52479010Y-58369217D01*
X52417209Y-58365815D01*
X52332100Y-58359424D01*
X52234567Y-58350797D01*
X52053843Y-58326662D01*
X51813187Y-58271167D01*
X51593610Y-58192519D01*
X51401101Y-58092986D01*
X51241652Y-57974836D01*
X51212600Y-57947022D01*
X51156148Y-57884648D01*
X51104383Y-57818232D01*
X51063378Y-57756502D01*
X51039203Y-57708184D01*
X51037930Y-57682004D01*
X51055354Y-57682852D01*
X51105657Y-57695015D01*
X51180026Y-57717011D01*
X51269901Y-57746460D01*
X51324450Y-57764759D01*
X51422021Y-57794124D01*
X51503512Y-57811514D01*
X51584707Y-57819825D01*
X51681385Y-57821952D01*
X51700069Y-57821862D01*
X51796835Y-57817959D01*
X51893235Y-57807084D01*
X51995801Y-57787588D01*
X52111066Y-57757822D01*
X52245560Y-57716136D01*
X52405818Y-57660881D01*
X52598371Y-57590407D01*
X52649552Y-57571447D01*
X52837493Y-57504734D01*
X52996508Y-57454148D01*
X53134022Y-57417922D01*
X53257455Y-57394288D01*
X53374230Y-57381479D01*
X53491770Y-57377730D01*
X53522661Y-57378250D01*
%TA.AperFunction,EtchedComponent*%
G36*
X53522661Y-57378250D02*
G01*
X53640898Y-57386842D01*
X53770754Y-57404514D01*
X53904553Y-57429357D01*
X54034619Y-57459465D01*
X54153273Y-57492932D01*
X54252840Y-57527850D01*
X54325644Y-57562311D01*
X54364006Y-57594410D01*
X54375000Y-57622346D01*
X54369115Y-57655395D01*
X54339835Y-57695123D01*
X54283061Y-57746894D01*
X54194697Y-57816071D01*
X54004118Y-57941763D01*
X53776458Y-58059485D01*
X53525495Y-58162444D01*
X53260469Y-58247288D01*
X52990620Y-58310665D01*
X52725185Y-58349223D01*
X52697950Y-58351830D01*
X52612428Y-58359844D01*
X52543174Y-58366087D01*
X52503121Y-58369383D01*
X52479010Y-58369217D01*
X52417209Y-58365815D01*
X52332100Y-58359424D01*
X52234567Y-58350797D01*
X52053843Y-58326662D01*
X51813187Y-58271167D01*
X51593610Y-58192519D01*
X51401101Y-58092986D01*
X51241652Y-57974836D01*
X51212600Y-57947022D01*
X51156148Y-57884648D01*
X51104383Y-57818232D01*
X51063378Y-57756502D01*
X51039203Y-57708184D01*
X51037930Y-57682004D01*
X51055354Y-57682852D01*
X51105657Y-57695015D01*
X51180026Y-57717011D01*
X51269901Y-57746460D01*
X51324450Y-57764759D01*
X51422021Y-57794124D01*
X51503512Y-57811514D01*
X51584707Y-57819825D01*
X51681385Y-57821952D01*
X51700069Y-57821862D01*
X51796835Y-57817959D01*
X51893235Y-57807084D01*
X51995801Y-57787588D01*
X52111066Y-57757822D01*
X52245560Y-57716136D01*
X52405818Y-57660881D01*
X52598371Y-57590407D01*
X52649552Y-57571447D01*
X52837493Y-57504734D01*
X52996508Y-57454148D01*
X53134022Y-57417922D01*
X53257455Y-57394288D01*
X53374230Y-57381479D01*
X53491770Y-57377730D01*
X53522661Y-57378250D01*
G37*
%TD.AperFunction*%
X53476788Y-56945604D02*
X53513249Y-56945909D01*
X53632431Y-56948381D01*
X53724722Y-56954029D01*
X53802392Y-56964354D01*
X53877710Y-56980855D01*
X53962945Y-57005032D01*
X53988044Y-57012848D01*
X54097378Y-57051144D01*
X54210912Y-57096572D01*
X54319774Y-57145023D01*
X54415095Y-57192389D01*
X54488003Y-57234562D01*
X54529628Y-57267436D01*
X54557090Y-57305102D01*
X54573657Y-57363315D01*
X54552082Y-57419366D01*
X54545507Y-57427954D01*
X54515594Y-57450618D01*
X54472996Y-57457124D01*
X54411506Y-57446604D01*
X54324922Y-57418188D01*
X54207038Y-57371007D01*
X54041759Y-57309415D01*
X53845073Y-57259413D01*
X53640981Y-57235079D01*
X53414679Y-57233852D01*
X53349082Y-57237011D01*
X53266758Y-57243696D01*
X53187652Y-57254633D01*
X53105706Y-57271501D01*
X53014860Y-57295980D01*
X52909056Y-57329747D01*
X52782237Y-57374482D01*
X52628342Y-57431863D01*
X52441315Y-57503569D01*
X52366190Y-57531798D01*
X52251542Y-57572482D01*
X52144277Y-57608068D01*
X52060315Y-57633140D01*
X52039431Y-57638333D01*
X51934471Y-57656106D01*
X51810772Y-57667025D01*
X51678439Y-57671214D01*
X51547577Y-57668801D01*
X51428292Y-57659911D01*
X51330688Y-57644671D01*
X51264871Y-57623207D01*
X51212564Y-57592034D01*
X51154772Y-57549712D01*
X51112152Y-57510262D01*
X51095538Y-57482676D01*
X51098624Y-57480631D01*
X51132878Y-57475881D01*
X51199057Y-57472180D01*
X51289654Y-57469864D01*
X51397163Y-57469265D01*
X51428473Y-57469328D01*
X51534403Y-57468375D01*
X51626503Y-57464302D01*
X51711388Y-57455467D01*
X51795674Y-57440230D01*
X51885975Y-57416947D01*
X51988905Y-57383977D01*
X52111080Y-57339678D01*
X52259113Y-57282410D01*
X52439621Y-57210529D01*
X52569005Y-57158797D01*
X52726985Y-57096521D01*
X52856247Y-57047580D01*
X52962978Y-57010394D01*
X53053368Y-56983381D01*
X53133605Y-56964962D01*
X53209877Y-56953556D01*
X53288372Y-56947581D01*
X53375280Y-56945457D01*
X53476788Y-56945604D01*
%TA.AperFunction,EtchedComponent*%
G36*
X53476788Y-56945604D02*
G01*
X53513249Y-56945909D01*
X53632431Y-56948381D01*
X53724722Y-56954029D01*
X53802392Y-56964354D01*
X53877710Y-56980855D01*
X53962945Y-57005032D01*
X53988044Y-57012848D01*
X54097378Y-57051144D01*
X54210912Y-57096572D01*
X54319774Y-57145023D01*
X54415095Y-57192389D01*
X54488003Y-57234562D01*
X54529628Y-57267436D01*
X54557090Y-57305102D01*
X54573657Y-57363315D01*
X54552082Y-57419366D01*
X54545507Y-57427954D01*
X54515594Y-57450618D01*
X54472996Y-57457124D01*
X54411506Y-57446604D01*
X54324922Y-57418188D01*
X54207038Y-57371007D01*
X54041759Y-57309415D01*
X53845073Y-57259413D01*
X53640981Y-57235079D01*
X53414679Y-57233852D01*
X53349082Y-57237011D01*
X53266758Y-57243696D01*
X53187652Y-57254633D01*
X53105706Y-57271501D01*
X53014860Y-57295980D01*
X52909056Y-57329747D01*
X52782237Y-57374482D01*
X52628342Y-57431863D01*
X52441315Y-57503569D01*
X52366190Y-57531798D01*
X52251542Y-57572482D01*
X52144277Y-57608068D01*
X52060315Y-57633140D01*
X52039431Y-57638333D01*
X51934471Y-57656106D01*
X51810772Y-57667025D01*
X51678439Y-57671214D01*
X51547577Y-57668801D01*
X51428292Y-57659911D01*
X51330688Y-57644671D01*
X51264871Y-57623207D01*
X51212564Y-57592034D01*
X51154772Y-57549712D01*
X51112152Y-57510262D01*
X51095538Y-57482676D01*
X51098624Y-57480631D01*
X51132878Y-57475881D01*
X51199057Y-57472180D01*
X51289654Y-57469864D01*
X51397163Y-57469265D01*
X51428473Y-57469328D01*
X51534403Y-57468375D01*
X51626503Y-57464302D01*
X51711388Y-57455467D01*
X51795674Y-57440230D01*
X51885975Y-57416947D01*
X51988905Y-57383977D01*
X52111080Y-57339678D01*
X52259113Y-57282410D01*
X52439621Y-57210529D01*
X52569005Y-57158797D01*
X52726985Y-57096521D01*
X52856247Y-57047580D01*
X52962978Y-57010394D01*
X53053368Y-56983381D01*
X53133605Y-56964962D01*
X53209877Y-56953556D01*
X53288372Y-56947581D01*
X53375280Y-56945457D01*
X53476788Y-56945604D01*
G37*
%TD.AperFunction*%
X55350550Y-55207530D02*
X55319619Y-55289850D01*
X55279994Y-55378738D01*
X55258333Y-55423970D01*
X55216555Y-55513119D01*
X55181641Y-55590015D01*
X55159487Y-55641785D01*
X55108957Y-55748777D01*
X55040813Y-55838351D01*
X54955115Y-55896785D01*
X54844865Y-55928628D01*
X54703063Y-55938430D01*
X54663000Y-55938941D01*
X54555420Y-55947383D01*
X54482734Y-55967721D01*
X54440022Y-56001948D01*
X54422366Y-56052054D01*
X54427469Y-56090883D01*
X54456952Y-56143176D01*
X54513919Y-56206576D01*
X54600777Y-56283402D01*
X54719931Y-56375968D01*
X54873788Y-56486591D01*
X55046221Y-56615136D01*
X55218180Y-56761519D01*
X55365573Y-56907484D01*
X55483432Y-57048071D01*
X55566786Y-57178320D01*
X55634887Y-57328996D01*
X55693529Y-57536259D01*
X55710194Y-57739505D01*
X55685058Y-57937605D01*
X55618299Y-58129432D01*
X55510094Y-58313857D01*
X55360621Y-58489754D01*
X55332788Y-58517095D01*
X55247023Y-58595236D01*
X55159520Y-58667792D01*
X55085454Y-58721955D01*
X55009409Y-58768235D01*
X54822840Y-58861760D01*
X54610487Y-58946311D01*
X54383488Y-59018159D01*
X54152980Y-59073574D01*
X53930102Y-59108825D01*
X53802875Y-59120576D01*
X53465693Y-59127376D01*
X53133907Y-59097163D01*
X52802977Y-59029100D01*
X52468361Y-58922349D01*
X52125518Y-58776073D01*
X52094300Y-58760709D01*
X52001096Y-58710211D01*
X51908218Y-58654143D01*
X51823079Y-58597590D01*
X51753090Y-58545640D01*
X51705661Y-58503380D01*
X51688204Y-58475897D01*
X51691023Y-58466611D01*
X51714663Y-58463921D01*
X51723199Y-58467651D01*
X51766605Y-58486703D01*
X51833850Y-58516273D01*
X51914409Y-58551733D01*
X52174322Y-58647748D01*
X52470179Y-58717759D01*
X52774169Y-58752306D01*
X53081028Y-58752010D01*
X53385494Y-58717492D01*
X53682306Y-58649373D01*
X53966202Y-58548274D01*
X54231919Y-58414817D01*
X54474195Y-58249621D01*
X54535504Y-58199378D01*
X54687585Y-58053107D01*
X54798221Y-57908011D01*
X54868011Y-57762960D01*
X54897554Y-57616820D01*
X54887449Y-57468461D01*
X54883488Y-57449301D01*
X54853665Y-57340076D01*
X54810618Y-57235648D01*
X54750818Y-57131103D01*
X54670737Y-57021527D01*
X54566848Y-56902008D01*
X54435623Y-56767632D01*
X54273533Y-56613485D01*
X54246903Y-56588677D01*
X54083867Y-56429816D01*
X53953343Y-56287533D01*
X53852280Y-56156867D01*
X53777625Y-56032857D01*
X53726327Y-55910541D01*
X53695335Y-55784960D01*
X53681596Y-55651151D01*
X53679706Y-55571216D01*
X53690563Y-55396989D01*
X53725271Y-55241864D01*
X53758624Y-55160457D01*
X54695793Y-55160457D01*
X54716005Y-55209033D01*
X54733748Y-55224352D01*
X54778538Y-55239618D01*
X54804684Y-55235123D01*
X54842837Y-55204152D01*
X54859326Y-55155593D01*
X54851218Y-55103512D01*
X54815579Y-55061971D01*
X54772811Y-55051453D01*
X54731724Y-55070549D01*
X54703542Y-55110589D01*
X54695793Y-55160457D01*
X53758624Y-55160457D01*
X53786215Y-55093115D01*
X53792998Y-55079759D01*
X53901346Y-54910201D01*
X54032684Y-54772766D01*
X54182977Y-54669151D01*
X54348193Y-54601058D01*
X54524298Y-54570183D01*
X54707259Y-54578227D01*
X54893043Y-54626887D01*
X54918879Y-54637257D01*
X55028667Y-54695779D01*
X55133790Y-54772606D01*
X55227426Y-54860677D01*
X55302755Y-54952932D01*
X55352955Y-55042312D01*
X55371204Y-55121757D01*
X55368465Y-55143957D01*
X55365185Y-55155593D01*
X55350550Y-55207530D01*
%TA.AperFunction,EtchedComponent*%
G36*
X55350550Y-55207530D02*
G01*
X55319619Y-55289850D01*
X55279994Y-55378738D01*
X55258333Y-55423970D01*
X55216555Y-55513119D01*
X55181641Y-55590015D01*
X55159487Y-55641785D01*
X55108957Y-55748777D01*
X55040813Y-55838351D01*
X54955115Y-55896785D01*
X54844865Y-55928628D01*
X54703063Y-55938430D01*
X54663000Y-55938941D01*
X54555420Y-55947383D01*
X54482734Y-55967721D01*
X54440022Y-56001948D01*
X54422366Y-56052054D01*
X54427469Y-56090883D01*
X54456952Y-56143176D01*
X54513919Y-56206576D01*
X54600777Y-56283402D01*
X54719931Y-56375968D01*
X54873788Y-56486591D01*
X55046221Y-56615136D01*
X55218180Y-56761519D01*
X55365573Y-56907484D01*
X55483432Y-57048071D01*
X55566786Y-57178320D01*
X55634887Y-57328996D01*
X55693529Y-57536259D01*
X55710194Y-57739505D01*
X55685058Y-57937605D01*
X55618299Y-58129432D01*
X55510094Y-58313857D01*
X55360621Y-58489754D01*
X55332788Y-58517095D01*
X55247023Y-58595236D01*
X55159520Y-58667792D01*
X55085454Y-58721955D01*
X55009409Y-58768235D01*
X54822840Y-58861760D01*
X54610487Y-58946311D01*
X54383488Y-59018159D01*
X54152980Y-59073574D01*
X53930102Y-59108825D01*
X53802875Y-59120576D01*
X53465693Y-59127376D01*
X53133907Y-59097163D01*
X52802977Y-59029100D01*
X52468361Y-58922349D01*
X52125518Y-58776073D01*
X52094300Y-58760709D01*
X52001096Y-58710211D01*
X51908218Y-58654143D01*
X51823079Y-58597590D01*
X51753090Y-58545640D01*
X51705661Y-58503380D01*
X51688204Y-58475897D01*
X51691023Y-58466611D01*
X51714663Y-58463921D01*
X51723199Y-58467651D01*
X51766605Y-58486703D01*
X51833850Y-58516273D01*
X51914409Y-58551733D01*
X52174322Y-58647748D01*
X52470179Y-58717759D01*
X52774169Y-58752306D01*
X53081028Y-58752010D01*
X53385494Y-58717492D01*
X53682306Y-58649373D01*
X53966202Y-58548274D01*
X54231919Y-58414817D01*
X54474195Y-58249621D01*
X54535504Y-58199378D01*
X54687585Y-58053107D01*
X54798221Y-57908011D01*
X54868011Y-57762960D01*
X54897554Y-57616820D01*
X54887449Y-57468461D01*
X54883488Y-57449301D01*
X54853665Y-57340076D01*
X54810618Y-57235648D01*
X54750818Y-57131103D01*
X54670737Y-57021527D01*
X54566848Y-56902008D01*
X54435623Y-56767632D01*
X54273533Y-56613485D01*
X54246903Y-56588677D01*
X54083867Y-56429816D01*
X53953343Y-56287533D01*
X53852280Y-56156867D01*
X53777625Y-56032857D01*
X53726327Y-55910541D01*
X53695335Y-55784960D01*
X53681596Y-55651151D01*
X53679706Y-55571216D01*
X53690563Y-55396989D01*
X53725271Y-55241864D01*
X53758624Y-55160457D01*
X54695793Y-55160457D01*
X54716005Y-55209033D01*
X54733748Y-55224352D01*
X54778538Y-55239618D01*
X54804684Y-55235123D01*
X54842837Y-55204152D01*
X54859326Y-55155593D01*
X54851218Y-55103512D01*
X54815579Y-55061971D01*
X54772811Y-55051453D01*
X54731724Y-55070549D01*
X54703542Y-55110589D01*
X54695793Y-55160457D01*
X53758624Y-55160457D01*
X53786215Y-55093115D01*
X53792998Y-55079759D01*
X53901346Y-54910201D01*
X54032684Y-54772766D01*
X54182977Y-54669151D01*
X54348193Y-54601058D01*
X54524298Y-54570183D01*
X54707259Y-54578227D01*
X54893043Y-54626887D01*
X54918879Y-54637257D01*
X55028667Y-54695779D01*
X55133790Y-54772606D01*
X55227426Y-54860677D01*
X55302755Y-54952932D01*
X55352955Y-55042312D01*
X55371204Y-55121757D01*
X55368465Y-55143957D01*
X55365185Y-55155593D01*
X55350550Y-55207530D01*
G37*
%TD.AperFunction*%
X57395843Y-56861891D02*
X57360524Y-57233231D01*
X57286128Y-57601599D01*
X57172153Y-57963971D01*
X57018096Y-58317322D01*
X56917492Y-58504364D01*
X56707377Y-58828083D01*
X56466560Y-59124730D01*
X56197563Y-59392574D01*
X55902906Y-59629886D01*
X55585110Y-59834935D01*
X55246696Y-60005991D01*
X54890185Y-60141322D01*
X54518098Y-60239199D01*
X54132954Y-60297891D01*
X54105063Y-60300493D01*
X53790962Y-60311763D01*
X53462262Y-60293375D01*
X53131467Y-60247032D01*
X52811082Y-60174437D01*
X52513612Y-60077294D01*
X52170210Y-59924493D01*
X51835277Y-59731856D01*
X51526263Y-59507483D01*
X51244793Y-59253404D01*
X50992490Y-58971646D01*
X50770980Y-58664240D01*
X50581885Y-58333213D01*
X50426830Y-57980595D01*
X50307440Y-57608415D01*
X50225338Y-57218702D01*
X50214745Y-57135475D01*
X50203378Y-56974833D01*
X50198877Y-56792153D01*
X50200861Y-56614468D01*
X50442322Y-56614468D01*
X50443457Y-56828008D01*
X50453708Y-57037357D01*
X50472849Y-57230084D01*
X50500653Y-57393759D01*
X50524955Y-57496428D01*
X50636710Y-57856698D01*
X50784023Y-58197360D01*
X50964690Y-58516365D01*
X51176510Y-58811662D01*
X51417277Y-59081199D01*
X51684789Y-59322927D01*
X51976844Y-59534794D01*
X52291237Y-59714750D01*
X52625766Y-59860744D01*
X52978227Y-59970726D01*
X53346418Y-60042643D01*
X53392295Y-60047621D01*
X53491897Y-60054114D01*
X53614805Y-60058787D01*
X53750091Y-60061532D01*
X53886826Y-60062241D01*
X54014084Y-60060805D01*
X54120936Y-60057116D01*
X54196454Y-60051066D01*
X54348271Y-60028012D01*
X54711887Y-59943976D01*
X55059486Y-59822809D01*
X55388747Y-59666634D01*
X55697349Y-59477570D01*
X55982971Y-59257742D01*
X56243291Y-59009269D01*
X56475989Y-58734275D01*
X56678743Y-58434879D01*
X56849233Y-58113206D01*
X56985136Y-57771375D01*
X57084131Y-57411510D01*
X57106176Y-57295277D01*
X57136487Y-57051143D01*
X57150805Y-56791337D01*
X57149004Y-56529524D01*
X57130958Y-56279368D01*
X57096544Y-56054535D01*
X57028224Y-55783685D01*
X56909631Y-55448197D01*
X56757401Y-55122012D01*
X56575801Y-54815286D01*
X56504127Y-54716223D01*
X56390271Y-54578320D01*
X56256907Y-54432005D01*
X56112582Y-54285868D01*
X55965839Y-54148495D01*
X55825226Y-54028475D01*
X55699288Y-53934397D01*
X55529514Y-53826476D01*
X55197275Y-53651602D01*
X54853286Y-53515405D01*
X54500516Y-53418125D01*
X54141935Y-53360001D01*
X53780513Y-53341274D01*
X53419218Y-53362182D01*
X53061020Y-53422967D01*
X52708888Y-53523867D01*
X52365791Y-53665123D01*
X52122914Y-53793087D01*
X51807561Y-53998822D01*
X51520233Y-54234669D01*
X51262599Y-54498421D01*
X51036328Y-54787874D01*
X50843088Y-55100825D01*
X50684549Y-55435067D01*
X50562380Y-55788397D01*
X50478248Y-56158609D01*
X50468299Y-56224539D01*
X50450528Y-56409168D01*
X50442322Y-56614468D01*
X50200861Y-56614468D01*
X50201027Y-56599580D01*
X50209616Y-56409257D01*
X50224431Y-56233330D01*
X50245258Y-56083943D01*
X50268968Y-55963386D01*
X50370276Y-55586451D01*
X50508200Y-55228279D01*
X50680836Y-54890821D01*
X50886279Y-54576034D01*
X51122625Y-54285870D01*
X51387971Y-54022285D01*
X51680413Y-53787231D01*
X51998046Y-53582664D01*
X52338967Y-53410538D01*
X52701271Y-53272805D01*
X53083055Y-53171422D01*
X53150520Y-53157529D01*
X53238860Y-53141311D01*
X53321185Y-53129768D01*
X53407164Y-53122117D01*
X53506464Y-53117577D01*
X53628755Y-53115363D01*
X53783704Y-53114694D01*
X53883967Y-53115013D01*
X54068720Y-53118890D01*
X54227203Y-53128275D01*
X54370205Y-53144574D01*
X54508518Y-53169193D01*
X54652930Y-53203538D01*
X54814231Y-53249017D01*
X55021570Y-53317099D01*
X55380399Y-53468495D01*
X55716961Y-53655888D01*
X56031375Y-53879350D01*
X56323761Y-54138952D01*
X56331954Y-54147061D01*
X56591155Y-54433313D01*
X56815299Y-54740784D01*
X57003885Y-55066452D01*
X57156409Y-55407292D01*
X57272370Y-55760280D01*
X57351264Y-56122391D01*
X57392589Y-56490603D01*
X57395225Y-56791337D01*
X57395843Y-56861891D01*
%TA.AperFunction,EtchedComponent*%
G36*
X57395843Y-56861891D02*
G01*
X57360524Y-57233231D01*
X57286128Y-57601599D01*
X57172153Y-57963971D01*
X57018096Y-58317322D01*
X56917492Y-58504364D01*
X56707377Y-58828083D01*
X56466560Y-59124730D01*
X56197563Y-59392574D01*
X55902906Y-59629886D01*
X55585110Y-59834935D01*
X55246696Y-60005991D01*
X54890185Y-60141322D01*
X54518098Y-60239199D01*
X54132954Y-60297891D01*
X54105063Y-60300493D01*
X53790962Y-60311763D01*
X53462262Y-60293375D01*
X53131467Y-60247032D01*
X52811082Y-60174437D01*
X52513612Y-60077294D01*
X52170210Y-59924493D01*
X51835277Y-59731856D01*
X51526263Y-59507483D01*
X51244793Y-59253404D01*
X50992490Y-58971646D01*
X50770980Y-58664240D01*
X50581885Y-58333213D01*
X50426830Y-57980595D01*
X50307440Y-57608415D01*
X50225338Y-57218702D01*
X50214745Y-57135475D01*
X50203378Y-56974833D01*
X50198877Y-56792153D01*
X50200861Y-56614468D01*
X50442322Y-56614468D01*
X50443457Y-56828008D01*
X50453708Y-57037357D01*
X50472849Y-57230084D01*
X50500653Y-57393759D01*
X50524955Y-57496428D01*
X50636710Y-57856698D01*
X50784023Y-58197360D01*
X50964690Y-58516365D01*
X51176510Y-58811662D01*
X51417277Y-59081199D01*
X51684789Y-59322927D01*
X51976844Y-59534794D01*
X52291237Y-59714750D01*
X52625766Y-59860744D01*
X52978227Y-59970726D01*
X53346418Y-60042643D01*
X53392295Y-60047621D01*
X53491897Y-60054114D01*
X53614805Y-60058787D01*
X53750091Y-60061532D01*
X53886826Y-60062241D01*
X54014084Y-60060805D01*
X54120936Y-60057116D01*
X54196454Y-60051066D01*
X54348271Y-60028012D01*
X54711887Y-59943976D01*
X55059486Y-59822809D01*
X55388747Y-59666634D01*
X55697349Y-59477570D01*
X55982971Y-59257742D01*
X56243291Y-59009269D01*
X56475989Y-58734275D01*
X56678743Y-58434879D01*
X56849233Y-58113206D01*
X56985136Y-57771375D01*
X57084131Y-57411510D01*
X57106176Y-57295277D01*
X57136487Y-57051143D01*
X57150805Y-56791337D01*
X57149004Y-56529524D01*
X57130958Y-56279368D01*
X57096544Y-56054535D01*
X57028224Y-55783685D01*
X56909631Y-55448197D01*
X56757401Y-55122012D01*
X56575801Y-54815286D01*
X56504127Y-54716223D01*
X56390271Y-54578320D01*
X56256907Y-54432005D01*
X56112582Y-54285868D01*
X55965839Y-54148495D01*
X55825226Y-54028475D01*
X55699288Y-53934397D01*
X55529514Y-53826476D01*
X55197275Y-53651602D01*
X54853286Y-53515405D01*
X54500516Y-53418125D01*
X54141935Y-53360001D01*
X53780513Y-53341274D01*
X53419218Y-53362182D01*
X53061020Y-53422967D01*
X52708888Y-53523867D01*
X52365791Y-53665123D01*
X52122914Y-53793087D01*
X51807561Y-53998822D01*
X51520233Y-54234669D01*
X51262599Y-54498421D01*
X51036328Y-54787874D01*
X50843088Y-55100825D01*
X50684549Y-55435067D01*
X50562380Y-55788397D01*
X50478248Y-56158609D01*
X50468299Y-56224539D01*
X50450528Y-56409168D01*
X50442322Y-56614468D01*
X50200861Y-56614468D01*
X50201027Y-56599580D01*
X50209616Y-56409257D01*
X50224431Y-56233330D01*
X50245258Y-56083943D01*
X50268968Y-55963386D01*
X50370276Y-55586451D01*
X50508200Y-55228279D01*
X50680836Y-54890821D01*
X50886279Y-54576034D01*
X51122625Y-54285870D01*
X51387971Y-54022285D01*
X51680413Y-53787231D01*
X51998046Y-53582664D01*
X52338967Y-53410538D01*
X52701271Y-53272805D01*
X53083055Y-53171422D01*
X53150520Y-53157529D01*
X53238860Y-53141311D01*
X53321185Y-53129768D01*
X53407164Y-53122117D01*
X53506464Y-53117577D01*
X53628755Y-53115363D01*
X53783704Y-53114694D01*
X53883967Y-53115013D01*
X54068720Y-53118890D01*
X54227203Y-53128275D01*
X54370205Y-53144574D01*
X54508518Y-53169193D01*
X54652930Y-53203538D01*
X54814231Y-53249017D01*
X55021570Y-53317099D01*
X55380399Y-53468495D01*
X55716961Y-53655888D01*
X56031375Y-53879350D01*
X56323761Y-54138952D01*
X56331954Y-54147061D01*
X56591155Y-54433313D01*
X56815299Y-54740784D01*
X57003885Y-55066452D01*
X57156409Y-55407292D01*
X57272370Y-55760280D01*
X57351264Y-56122391D01*
X57392589Y-56490603D01*
X57395225Y-56791337D01*
X57395843Y-56861891D01*
G37*
%TD.AperFunction*%
D11*
%TA.AperFunction,EtchedComponent*%
%TO.C,REF\u002A\u002A*%
G36*
X63114670Y-55205800D02*
G01*
X63219322Y-55205800D01*
X63219322Y-55519747D01*
X63323973Y-55519747D01*
X63323973Y-55729054D01*
X63428625Y-55729054D01*
X63428625Y-55938350D01*
X63533276Y-55938350D01*
X63533276Y-56147657D01*
X63428625Y-56147657D01*
X63428625Y-56252308D01*
X62382117Y-56252308D01*
X62382117Y-56147646D01*
X62068159Y-56147646D01*
X62068159Y-56042995D01*
X61858852Y-56042995D01*
X61858852Y-55938343D01*
X61754208Y-55938343D01*
X61754208Y-55833698D01*
X61649556Y-55833698D01*
X61649556Y-55729047D01*
X61544905Y-55729047D01*
X61544905Y-55624396D01*
X61440253Y-55624396D01*
X61440253Y-55519744D01*
X61335602Y-55519744D01*
X61335602Y-55415093D01*
X61230957Y-55415093D01*
X61230957Y-55310434D01*
X62382117Y-55310434D01*
X62486761Y-55310434D01*
X62486761Y-55205789D01*
X62696068Y-55205789D01*
X62696068Y-55101138D01*
X62486761Y-55101138D01*
X62486761Y-55205789D01*
X62382117Y-55205789D01*
X62382117Y-55310434D01*
X61230957Y-55310434D01*
X61230957Y-55205797D01*
X61126305Y-55205797D01*
X61126305Y-55101145D01*
X61021654Y-55101145D01*
X61021654Y-54682542D01*
X61335602Y-54682542D01*
X61335602Y-54787187D01*
X61544908Y-54787187D01*
X61544908Y-54891838D01*
X62277469Y-54891838D01*
X62277469Y-54787187D01*
X62486765Y-54787187D01*
X62486765Y-54682542D01*
X63010019Y-54682542D01*
X63010019Y-54787187D01*
X63114670Y-54787187D01*
X63114670Y-55101138D01*
X63114670Y-55205800D01*
G37*
%TD.AperFunction*%
%TA.AperFunction,EtchedComponent*%
G36*
X61021646Y-59391829D02*
G01*
X61126298Y-59391829D01*
X61126298Y-59496481D01*
X61230949Y-59496481D01*
X61230949Y-59601132D01*
X61440252Y-59601132D01*
X61440252Y-59705784D01*
X61649556Y-59705784D01*
X61649556Y-59810435D01*
X61858855Y-59810435D01*
X61858855Y-59915086D01*
X62068158Y-59915086D01*
X62068158Y-60019735D01*
X62277461Y-60019735D01*
X62277461Y-60124386D01*
X62591415Y-60124386D01*
X62591415Y-60229038D01*
X62905366Y-60229038D01*
X62905366Y-60333689D01*
X63323973Y-60333689D01*
X63323973Y-60229038D01*
X63428624Y-60229038D01*
X63428624Y-60019735D01*
X63533276Y-60019735D01*
X63533276Y-60856947D01*
X62800715Y-60856947D01*
X62800715Y-60752295D01*
X62591415Y-60752295D01*
X62591415Y-60647644D01*
X62382112Y-60647644D01*
X62382112Y-60542992D01*
X62172810Y-60542992D01*
X62172810Y-60438341D01*
X61963507Y-60438341D01*
X61963507Y-60333689D01*
X61754204Y-60333689D01*
X61754204Y-60229038D01*
X61649556Y-60229038D01*
X61649556Y-60124386D01*
X61544904Y-60124386D01*
X61544904Y-60019735D01*
X61335601Y-60019735D01*
X61335601Y-59915086D01*
X61230949Y-59915086D01*
X61230949Y-59705784D01*
X61126298Y-59705784D01*
X61126298Y-59601132D01*
X61021646Y-59601132D01*
X61021646Y-59496481D01*
X60916995Y-59496481D01*
X60916995Y-59287178D01*
X61021646Y-59287178D01*
X61021646Y-59391829D01*
G37*
%TD.AperFunction*%
%TA.AperFunction,EtchedComponent*%
G36*
X64265829Y-59601132D02*
G01*
X64370484Y-59601132D01*
X64370484Y-59705784D01*
X64475136Y-59705784D01*
X64475136Y-59810439D01*
X64684442Y-59810439D01*
X64684442Y-59705784D01*
X64789083Y-59705784D01*
X64789083Y-59601132D01*
X65312341Y-59601132D01*
X65312341Y-59705784D01*
X65416992Y-59705784D01*
X65416992Y-60438344D01*
X65626299Y-60438344D01*
X65626299Y-60542988D01*
X65730951Y-60542988D01*
X65730951Y-60752295D01*
X65626299Y-60752295D01*
X65626299Y-60856947D01*
X65521644Y-60856947D01*
X65521644Y-61066243D01*
X65416992Y-61066243D01*
X65416992Y-61170898D01*
X65207697Y-61170898D01*
X65207697Y-61275550D01*
X65103045Y-61275550D01*
X65103045Y-61380201D01*
X64998390Y-61380201D01*
X64998390Y-61484855D01*
X64789083Y-61484855D01*
X64789083Y-61589507D01*
X64056533Y-61589507D01*
X64056533Y-61484855D01*
X63951882Y-61484855D01*
X63951882Y-61380201D01*
X63847227Y-61380201D01*
X63847227Y-61275550D01*
X63742576Y-61275550D01*
X63742576Y-61170898D01*
X63637924Y-61170898D01*
X63637924Y-60019735D01*
X63742576Y-60019735D01*
X63742576Y-59810439D01*
X63847227Y-59810439D01*
X63847227Y-59601132D01*
X64056533Y-59601132D01*
X64056533Y-59496477D01*
X64265829Y-59496477D01*
X64265829Y-59601132D01*
G37*
%TD.AperFunction*%
%TA.AperFunction,EtchedComponent*%
G36*
X61126301Y-59915079D02*
G01*
X61230954Y-59915079D01*
X61230954Y-60019735D01*
X61335597Y-60019735D01*
X61335597Y-60124386D01*
X61544904Y-60124386D01*
X61544904Y-60229038D01*
X61649556Y-60229038D01*
X61649556Y-60333692D01*
X61754207Y-60333692D01*
X61754207Y-60438344D01*
X61963503Y-60438344D01*
X61963503Y-60542988D01*
X62172810Y-60542988D01*
X62172810Y-60647641D01*
X62382117Y-60647641D01*
X62382117Y-60752295D01*
X62486761Y-60752295D01*
X62486761Y-60856947D01*
X62277465Y-60856947D01*
X62277465Y-60961598D01*
X61754207Y-60961598D01*
X61754207Y-60856947D01*
X61649556Y-60856947D01*
X61649556Y-60752295D01*
X61544904Y-60752295D01*
X61544904Y-60647641D01*
X61126301Y-60647641D01*
X61126301Y-60542988D01*
X61021646Y-60542988D01*
X61021646Y-60229038D01*
X60916995Y-60229038D01*
X60916995Y-60124386D01*
X60812344Y-60124386D01*
X60812344Y-59810439D01*
X61021646Y-59810439D01*
X61021646Y-59705784D01*
X61126301Y-59705784D01*
X61126301Y-59915079D01*
G37*
%TD.AperFunction*%
%TA.AperFunction,EtchedComponent*%
G36*
X61126298Y-56461597D02*
G01*
X61021646Y-56461597D01*
X61021646Y-56147643D01*
X60916995Y-56147643D01*
X60916995Y-56252294D01*
X60812344Y-56252294D01*
X60812344Y-56356946D01*
X60707692Y-56356946D01*
X60707692Y-56566249D01*
X60603044Y-56566249D01*
X60603044Y-56775551D01*
X60498392Y-56775551D01*
X60498392Y-57089502D01*
X60393741Y-57089502D01*
X60393741Y-57926715D01*
X60289090Y-57926715D01*
X60289090Y-56984854D01*
X60393741Y-56984854D01*
X60393741Y-56670900D01*
X60498392Y-56670900D01*
X60498392Y-56461597D01*
X60603044Y-56461597D01*
X60603044Y-56252294D01*
X60707692Y-56252294D01*
X60707692Y-56042991D01*
X60812344Y-56042991D01*
X60812344Y-55833691D01*
X60916995Y-55833691D01*
X60916995Y-55624388D01*
X61021646Y-55624388D01*
X61021646Y-55519737D01*
X61126298Y-55519737D01*
X61126298Y-56461597D01*
G37*
%TD.AperFunction*%
%TA.AperFunction,EtchedComponent*%
G36*
X65626299Y-60019735D02*
G01*
X65730947Y-60019735D01*
X65730947Y-60124386D01*
X66044902Y-60124386D01*
X66044902Y-60019735D01*
X66149553Y-60019735D01*
X66149553Y-59915086D01*
X66358856Y-59915086D01*
X66358856Y-59810435D01*
X66463508Y-59810435D01*
X66463508Y-59705784D01*
X66568159Y-59705784D01*
X66568159Y-59915086D01*
X66463508Y-59915086D01*
X66463508Y-60124386D01*
X66358856Y-60124386D01*
X66358856Y-60229038D01*
X66254204Y-60229038D01*
X66254204Y-60333689D01*
X66149553Y-60333689D01*
X66149553Y-60438341D01*
X65730947Y-60438341D01*
X65730947Y-60333689D01*
X65521647Y-60333689D01*
X65521647Y-59705784D01*
X65626299Y-59705784D01*
X65626299Y-60019735D01*
G37*
%TD.AperFunction*%
%TA.AperFunction,EtchedComponent*%
G36*
X66568159Y-60438341D02*
G01*
X66672807Y-60438341D01*
X66672807Y-60542992D01*
X66882110Y-60542992D01*
X66882110Y-60647644D01*
X66672807Y-60647644D01*
X66672807Y-60752295D01*
X66358856Y-60752295D01*
X66358856Y-60856947D01*
X65835598Y-60856947D01*
X65835598Y-60542992D01*
X66254204Y-60542992D01*
X66254204Y-60438341D01*
X66358856Y-60438341D01*
X66358856Y-60333689D01*
X66463508Y-60333689D01*
X66463508Y-60229038D01*
X66568159Y-60229038D01*
X66568159Y-60438341D01*
G37*
%TD.AperFunction*%
%TA.AperFunction,EtchedComponent*%
G36*
X60184438Y-56566249D02*
G01*
X60289090Y-56566249D01*
X60289090Y-56461597D01*
X60393741Y-56461597D01*
X60393741Y-56670900D01*
X60289090Y-56670900D01*
X60289090Y-56984854D01*
X60184438Y-56984854D01*
X60184438Y-56670900D01*
X60079787Y-56670900D01*
X60079787Y-55205783D01*
X60184438Y-55205783D01*
X60184438Y-56566249D01*
G37*
%TD.AperFunction*%
%TA.AperFunction,EtchedComponent*%
G36*
X65940250Y-57926715D02*
G01*
X65730947Y-57926715D01*
X65730947Y-58031363D01*
X65626299Y-58031363D01*
X65626299Y-57926715D01*
X64370484Y-57926715D01*
X64370484Y-57822064D01*
X65940250Y-57822064D01*
X65940250Y-57926715D01*
G37*
%TD.AperFunction*%
%TA.AperFunction,EtchedComponent*%
G36*
X61335601Y-55624388D02*
G01*
X61440252Y-55624388D01*
X61440252Y-55729040D01*
X61335601Y-55729040D01*
X61335601Y-56461597D01*
X61230949Y-56461597D01*
X61230949Y-55519737D01*
X61335601Y-55519737D01*
X61335601Y-55624388D01*
G37*
%TD.AperFunction*%
%TA.AperFunction,EtchedComponent*%
G36*
X67196065Y-58973227D02*
G01*
X67091413Y-58973227D01*
X67091413Y-58868575D01*
X67196065Y-58868575D01*
X67196065Y-58973227D01*
G37*
%TD.AperFunction*%
%TA.AperFunction,EtchedComponent*%
G36*
X67091413Y-59077875D02*
G01*
X66986762Y-59077875D01*
X66986762Y-58973227D01*
X67091413Y-58973227D01*
X67091413Y-59077875D01*
G37*
%TD.AperFunction*%
%TA.AperFunction,EtchedComponent*%
G36*
X66986762Y-59287178D02*
G01*
X66882110Y-59287178D01*
X66882110Y-59077875D01*
X66986762Y-59077875D01*
X66986762Y-59287178D01*
G37*
%TD.AperFunction*%
%TA.AperFunction,EtchedComponent*%
G36*
X66882110Y-59391829D02*
G01*
X66777459Y-59391829D01*
X66777459Y-59287178D01*
X66882110Y-59287178D01*
X66882110Y-59391829D01*
G37*
%TD.AperFunction*%
%TA.AperFunction,EtchedComponent*%
G36*
X66777459Y-59601132D02*
G01*
X66672807Y-59601132D01*
X66672807Y-59391829D01*
X66777459Y-59391829D01*
X66777459Y-59601132D01*
G37*
%TD.AperFunction*%
%TA.AperFunction,EtchedComponent*%
G36*
X66882110Y-57403457D02*
G01*
X66672807Y-57403457D01*
X66672807Y-57298806D01*
X66882110Y-57298806D01*
X66882110Y-57403457D01*
G37*
%TD.AperFunction*%
%TA.AperFunction,EtchedComponent*%
G36*
X66672807Y-59705784D02*
G01*
X66568159Y-59705784D01*
X66568159Y-59601132D01*
X66672807Y-59601132D01*
X66672807Y-59705784D01*
G37*
%TD.AperFunction*%
%TA.AperFunction,EtchedComponent*%
G36*
X66672807Y-57508109D02*
G01*
X66463508Y-57508109D01*
X66463508Y-57403457D01*
X66672807Y-57403457D01*
X66672807Y-57508109D01*
G37*
%TD.AperFunction*%
%TA.AperFunction,EtchedComponent*%
G36*
X66463508Y-57612761D02*
G01*
X66254204Y-57612761D01*
X66254204Y-57508109D01*
X66463508Y-57508109D01*
X66463508Y-57612761D01*
G37*
%TD.AperFunction*%
%TA.AperFunction,EtchedComponent*%
G36*
X66254204Y-57717412D02*
G01*
X66149553Y-57717412D01*
X66149553Y-57612761D01*
X66254204Y-57612761D01*
X66254204Y-57717412D01*
G37*
%TD.AperFunction*%
%TA.AperFunction,EtchedComponent*%
G36*
X66149553Y-57822064D02*
G01*
X65940250Y-57822064D01*
X65940250Y-57717412D01*
X66149553Y-57717412D01*
X66149553Y-57822064D01*
G37*
%TD.AperFunction*%
%TA.AperFunction,EtchedComponent*%
G36*
X65521647Y-59705784D02*
G01*
X65416996Y-59705784D01*
X65416996Y-59601132D01*
X65521647Y-59601132D01*
X65521647Y-59705784D01*
G37*
%TD.AperFunction*%
%TA.AperFunction,EtchedComponent*%
G36*
X64998390Y-56147643D02*
G01*
X64893738Y-56147643D01*
X64893738Y-56042991D01*
X64998390Y-56042991D01*
X64998390Y-56147643D01*
G37*
%TD.AperFunction*%
%TA.AperFunction,EtchedComponent*%
G36*
X64893738Y-56042991D02*
G01*
X64789087Y-56042991D01*
X64789087Y-55938343D01*
X64893738Y-55938343D01*
X64893738Y-56042991D01*
G37*
%TD.AperFunction*%
%TA.AperFunction,EtchedComponent*%
G36*
X64789087Y-59601132D02*
G01*
X64684435Y-59601132D01*
X64684435Y-59496481D01*
X64789087Y-59496481D01*
X64789087Y-59601132D01*
G37*
%TD.AperFunction*%
%TA.AperFunction,EtchedComponent*%
G36*
X64789087Y-55938343D02*
G01*
X64684435Y-55938343D01*
X64684435Y-55833691D01*
X64789087Y-55833691D01*
X64789087Y-55938343D01*
G37*
%TD.AperFunction*%
%TA.AperFunction,EtchedComponent*%
G36*
X64684435Y-59705784D02*
G01*
X64475136Y-59705784D01*
X64475136Y-59601132D01*
X64684435Y-59601132D01*
X64684435Y-59705784D01*
G37*
%TD.AperFunction*%
%TA.AperFunction,EtchedComponent*%
G36*
X64475136Y-59601132D02*
G01*
X64370484Y-59601132D01*
X64370484Y-59496481D01*
X64475136Y-59496481D01*
X64475136Y-59601132D01*
G37*
%TD.AperFunction*%
%TA.AperFunction,EtchedComponent*%
G36*
X65521647Y-58136015D02*
G01*
X64370484Y-58136015D01*
X64370484Y-58031363D01*
X65521647Y-58031363D01*
X65521647Y-58136015D01*
G37*
%TD.AperFunction*%
%TA.AperFunction,EtchedComponent*%
G36*
X64370484Y-59496481D02*
G01*
X64265833Y-59496481D01*
X64265833Y-59391829D01*
X64370484Y-59391829D01*
X64370484Y-59496481D01*
G37*
%TD.AperFunction*%
%TA.AperFunction,EtchedComponent*%
G36*
X64684435Y-55833691D02*
G01*
X64161181Y-55833691D01*
X64161181Y-55729040D01*
X64684435Y-55729040D01*
X64684435Y-55833691D01*
G37*
%TD.AperFunction*%
%TA.AperFunction,EtchedComponent*%
G36*
X64370484Y-58031363D02*
G01*
X63847227Y-58031363D01*
X63847227Y-57926715D01*
X64370484Y-57926715D01*
X64370484Y-58031363D01*
G37*
%TD.AperFunction*%
%TA.AperFunction,EtchedComponent*%
G36*
X63847227Y-59601132D02*
G01*
X63742576Y-59601132D01*
X63742576Y-59496481D01*
X63847227Y-59496481D01*
X63847227Y-59601132D01*
G37*
%TD.AperFunction*%
%TA.AperFunction,EtchedComponent*%
G36*
X63742576Y-59810435D02*
G01*
X63637927Y-59810435D01*
X63637927Y-59601132D01*
X63742576Y-59601132D01*
X63742576Y-59810435D01*
G37*
%TD.AperFunction*%
%TA.AperFunction,EtchedComponent*%
G36*
X63637927Y-60019735D02*
G01*
X63533276Y-60019735D01*
X63533276Y-59810435D01*
X63637927Y-59810435D01*
X63637927Y-60019735D01*
G37*
%TD.AperFunction*%
%TA.AperFunction,EtchedComponent*%
G36*
X63637927Y-55938343D02*
G01*
X63533276Y-55938343D01*
X63533276Y-55729040D01*
X63637927Y-55729040D01*
X63637927Y-55938343D01*
G37*
%TD.AperFunction*%
%TA.AperFunction,EtchedComponent*%
G36*
X63847227Y-57926715D02*
G01*
X63428624Y-57926715D01*
X63428624Y-57822064D01*
X63847227Y-57822064D01*
X63847227Y-57926715D01*
G37*
%TD.AperFunction*%
%TA.AperFunction,EtchedComponent*%
G36*
X63533276Y-55729040D02*
G01*
X63428624Y-55729040D01*
X63428624Y-55519737D01*
X63533276Y-55519737D01*
X63533276Y-55729040D01*
G37*
%TD.AperFunction*%
%TA.AperFunction,EtchedComponent*%
G36*
X63428624Y-55519737D02*
G01*
X63323973Y-55519737D01*
X63323973Y-55205783D01*
X63428624Y-55205783D01*
X63428624Y-55519737D01*
G37*
%TD.AperFunction*%
%TA.AperFunction,EtchedComponent*%
G36*
X63323973Y-55205783D02*
G01*
X63219321Y-55205783D01*
X63219321Y-54787180D01*
X63323973Y-54787180D01*
X63323973Y-55205783D01*
G37*
%TD.AperFunction*%
%TA.AperFunction,EtchedComponent*%
G36*
X63219321Y-54787180D02*
G01*
X63114670Y-54787180D01*
X63114670Y-54682528D01*
X63219321Y-54682528D01*
X63219321Y-54787180D01*
G37*
%TD.AperFunction*%
%TA.AperFunction,EtchedComponent*%
G36*
X63114670Y-54682528D02*
G01*
X63010018Y-54682528D01*
X63010018Y-54577877D01*
X63114670Y-54577877D01*
X63114670Y-54682528D01*
G37*
%TD.AperFunction*%
%TA.AperFunction,EtchedComponent*%
G36*
X63428624Y-57822064D02*
G01*
X62905366Y-57822064D01*
X62905366Y-57717412D01*
X63428624Y-57717412D01*
X63428624Y-57822064D01*
G37*
%TD.AperFunction*%
%TA.AperFunction,EtchedComponent*%
G36*
X62905366Y-57717412D02*
G01*
X62591415Y-57717412D01*
X62591415Y-57612761D01*
X62905366Y-57612761D01*
X62905366Y-57717412D01*
G37*
%TD.AperFunction*%
%TA.AperFunction,EtchedComponent*%
G36*
X62800715Y-53322062D02*
G01*
X62486764Y-53322062D01*
X62486764Y-53217410D01*
X62800715Y-53217410D01*
X62800715Y-53322062D01*
G37*
%TD.AperFunction*%
%TA.AperFunction,EtchedComponent*%
G36*
X62591415Y-57612761D02*
G01*
X62382112Y-57612761D01*
X62382112Y-57508109D01*
X62591415Y-57508109D01*
X62591415Y-57612761D01*
G37*
%TD.AperFunction*%
%TA.AperFunction,EtchedComponent*%
G36*
X63323973Y-56461597D02*
G01*
X62382112Y-56461597D01*
X62382112Y-56356946D01*
X63323973Y-56356946D01*
X63323973Y-56461597D01*
G37*
%TD.AperFunction*%
%TA.AperFunction,EtchedComponent*%
G36*
X62486764Y-53426714D02*
G01*
X62277461Y-53426714D01*
X62277461Y-53322062D01*
X62486764Y-53322062D01*
X62486764Y-53426714D01*
G37*
%TD.AperFunction*%
%TA.AperFunction,EtchedComponent*%
G36*
X62382112Y-57508109D02*
G01*
X62172810Y-57508109D01*
X62172810Y-57403457D01*
X62382112Y-57403457D01*
X62382112Y-57508109D01*
G37*
%TD.AperFunction*%
%TA.AperFunction,EtchedComponent*%
G36*
X62277461Y-53531365D02*
G01*
X62172810Y-53531365D01*
X62172810Y-53426714D01*
X62277461Y-53426714D01*
X62277461Y-53531365D01*
G37*
%TD.AperFunction*%
%TA.AperFunction,EtchedComponent*%
G36*
X62382112Y-56356946D02*
G01*
X62068158Y-56356946D01*
X62068158Y-56252294D01*
X62382112Y-56252294D01*
X62382112Y-56356946D01*
G37*
%TD.AperFunction*%
%TA.AperFunction,EtchedComponent*%
G36*
X62172810Y-53636017D02*
G01*
X62068158Y-53636017D01*
X62068158Y-53531365D01*
X62172810Y-53531365D01*
X62172810Y-53636017D01*
G37*
%TD.AperFunction*%
%TA.AperFunction,EtchedComponent*%
G36*
X62172810Y-57403457D02*
G01*
X61963507Y-57403457D01*
X61963507Y-57298806D01*
X62172810Y-57298806D01*
X62172810Y-57403457D01*
G37*
%TD.AperFunction*%
%TA.AperFunction,EtchedComponent*%
G36*
X62068158Y-54682528D02*
G01*
X61963507Y-54682528D01*
X61963507Y-54473225D01*
X62068158Y-54473225D01*
X62068158Y-54682528D01*
G37*
%TD.AperFunction*%
%TA.AperFunction,EtchedComponent*%
G36*
X62068158Y-53740668D02*
G01*
X61963507Y-53740668D01*
X61963507Y-53636017D01*
X62068158Y-53636017D01*
X62068158Y-53740668D01*
G37*
%TD.AperFunction*%
%TA.AperFunction,EtchedComponent*%
G36*
X62068158Y-56252294D02*
G01*
X61858855Y-56252294D01*
X61858855Y-56147643D01*
X62068158Y-56147643D01*
X62068158Y-56252294D01*
G37*
%TD.AperFunction*%
%TA.AperFunction,EtchedComponent*%
G36*
X61963507Y-53845320D02*
G01*
X61858855Y-53845320D01*
X61858855Y-53740668D01*
X61963507Y-53740668D01*
X61963507Y-53845320D01*
G37*
%TD.AperFunction*%
%TA.AperFunction,EtchedComponent*%
G36*
X61963507Y-57298806D02*
G01*
X61754204Y-57298806D01*
X61754204Y-57194154D01*
X61963507Y-57194154D01*
X61963507Y-57298806D01*
G37*
%TD.AperFunction*%
%TA.AperFunction,EtchedComponent*%
G36*
X61858855Y-56147643D02*
G01*
X61754204Y-56147643D01*
X61754204Y-56042991D01*
X61858855Y-56042991D01*
X61858855Y-56147643D01*
G37*
%TD.AperFunction*%
%TA.AperFunction,EtchedComponent*%
G36*
X61963507Y-54473225D02*
G01*
X61754204Y-54473225D01*
X61754204Y-54368574D01*
X61963507Y-54368574D01*
X61963507Y-54473225D01*
G37*
%TD.AperFunction*%
%TA.AperFunction,EtchedComponent*%
G36*
X61858855Y-53949971D02*
G01*
X61754204Y-53949971D01*
X61754204Y-53845320D01*
X61858855Y-53845320D01*
X61858855Y-53949971D01*
G37*
%TD.AperFunction*%
%TA.AperFunction,EtchedComponent*%
G36*
X61754204Y-57194154D02*
G01*
X61649556Y-57194154D01*
X61649556Y-57089502D01*
X61754204Y-57089502D01*
X61754204Y-57194154D01*
G37*
%TD.AperFunction*%
%TA.AperFunction,EtchedComponent*%
G36*
X61754204Y-56042991D02*
G01*
X61649556Y-56042991D01*
X61649556Y-55938343D01*
X61754204Y-55938343D01*
X61754204Y-56042991D01*
G37*
%TD.AperFunction*%
%TA.AperFunction,EtchedComponent*%
G36*
X61754204Y-54159271D02*
G01*
X61649556Y-54159271D01*
X61649556Y-53949971D01*
X61754204Y-53949971D01*
X61754204Y-54159271D01*
G37*
%TD.AperFunction*%
%TA.AperFunction,EtchedComponent*%
G36*
X61649556Y-57089502D02*
G01*
X61544904Y-57089502D01*
X61544904Y-56984854D01*
X61649556Y-56984854D01*
X61649556Y-57089502D01*
G37*
%TD.AperFunction*%
%TA.AperFunction,EtchedComponent*%
G36*
X61649556Y-56880203D02*
G01*
X61544904Y-56880203D01*
X61544904Y-56775551D01*
X61649556Y-56775551D01*
X61649556Y-56880203D01*
G37*
%TD.AperFunction*%
%TA.AperFunction,EtchedComponent*%
G36*
X61649556Y-55938343D02*
G01*
X61544904Y-55938343D01*
X61544904Y-55833691D01*
X61649556Y-55833691D01*
X61649556Y-55938343D01*
G37*
%TD.AperFunction*%
%TA.AperFunction,EtchedComponent*%
G36*
X61649556Y-54368574D02*
G01*
X61544904Y-54368574D01*
X61544904Y-54159271D01*
X61649556Y-54159271D01*
X61649556Y-54368574D01*
G37*
%TD.AperFunction*%
%TA.AperFunction,EtchedComponent*%
G36*
X61544904Y-56984854D02*
G01*
X61440252Y-56984854D01*
X61440252Y-56880203D01*
X61544904Y-56880203D01*
X61544904Y-56984854D01*
G37*
%TD.AperFunction*%
%TA.AperFunction,EtchedComponent*%
G36*
X61544904Y-56775551D02*
G01*
X61440252Y-56775551D01*
X61440252Y-56670900D01*
X61544904Y-56670900D01*
X61544904Y-56775551D01*
G37*
%TD.AperFunction*%
%TA.AperFunction,EtchedComponent*%
G36*
X61544904Y-55833691D02*
G01*
X61440252Y-55833691D01*
X61440252Y-55729040D01*
X61544904Y-55729040D01*
X61544904Y-55833691D01*
G37*
%TD.AperFunction*%
%TA.AperFunction,EtchedComponent*%
G36*
X61544904Y-54577877D02*
G01*
X61440252Y-54577877D01*
X61440252Y-54368574D01*
X61544904Y-54368574D01*
X61544904Y-54577877D01*
G37*
%TD.AperFunction*%
%TA.AperFunction,EtchedComponent*%
G36*
X61440252Y-56880203D02*
G01*
X61335601Y-56880203D01*
X61335601Y-56775551D01*
X61440252Y-56775551D01*
X61440252Y-56880203D01*
G37*
%TD.AperFunction*%
%TA.AperFunction,EtchedComponent*%
G36*
X61440252Y-56670900D02*
G01*
X61335601Y-56670900D01*
X61335601Y-56461597D01*
X61440252Y-56461597D01*
X61440252Y-56670900D01*
G37*
%TD.AperFunction*%
%TA.AperFunction,EtchedComponent*%
G36*
X61440252Y-54682528D02*
G01*
X61335601Y-54682528D01*
X61335601Y-54577877D01*
X61440252Y-54577877D01*
X61440252Y-54682528D01*
G37*
%TD.AperFunction*%
%TA.AperFunction,EtchedComponent*%
G36*
X61335601Y-56775551D02*
G01*
X61230949Y-56775551D01*
X61230949Y-56670900D01*
X61335601Y-56670900D01*
X61335601Y-56775551D01*
G37*
%TD.AperFunction*%
%TA.AperFunction,EtchedComponent*%
G36*
X61230949Y-56670900D02*
G01*
X61126298Y-56670900D01*
X61126298Y-56461597D01*
X61230949Y-56461597D01*
X61230949Y-56670900D01*
G37*
%TD.AperFunction*%
%TA.AperFunction,EtchedComponent*%
G36*
X60812344Y-55833691D02*
G01*
X60707692Y-55833691D01*
X60707692Y-55624388D01*
X60812344Y-55624388D01*
X60812344Y-55833691D01*
G37*
%TD.AperFunction*%
%TA.AperFunction,EtchedComponent*%
G36*
X60707692Y-56042991D02*
G01*
X60603044Y-56042991D01*
X60603044Y-55833691D01*
X60707692Y-55833691D01*
X60707692Y-56042991D01*
G37*
%TD.AperFunction*%
%TA.AperFunction,EtchedComponent*%
G36*
X60603044Y-56252294D02*
G01*
X60498392Y-56252294D01*
X60498392Y-56042991D01*
X60603044Y-56042991D01*
X60603044Y-56252294D01*
G37*
%TD.AperFunction*%
%TA.AperFunction,EtchedComponent*%
G36*
X60498392Y-56461597D02*
G01*
X60393741Y-56461597D01*
X60393741Y-56252294D01*
X60498392Y-56252294D01*
X60498392Y-56461597D01*
G37*
%TD.AperFunction*%
%TD*%
D12*
%TO.P,MX24,1,1*%
%TO.N,c2*%
X81915000Y-65325625D03*
%TO.P,MX24,2,2*%
%TO.N,Net-(D11-A1)*%
X88265000Y-62785625D03*
%TD*%
%TO.P,MX39,1,1*%
%TO.N,Net-(D18-A2)*%
X215265000Y-84375625D03*
%TO.P,MX39,2,2*%
%TO.N,c7*%
X221615000Y-81835625D03*
%TD*%
%TO.P,MX10,1,1*%
%TO.N,Net-(D4-A2)*%
X200977500Y-27225625D03*
%TO.P,MX10,2,2*%
%TO.N,c6*%
X207327500Y-24685625D03*
%TD*%
%TO.P,MX5,1,1*%
%TO.N,c4*%
X105727500Y-27225625D03*
%TO.P,MX5,2,2*%
%TO.N,Net-(D2-A1)*%
X112077500Y-24685625D03*
%TD*%
%TO.P,MX2,1,1*%
%TO.N,Net-(D40-A2)*%
X48577500Y-27225625D03*
%TO.P,MX2,2,2*%
%TO.N,c1*%
X54927500Y-24685625D03*
%TD*%
%TO.P,MX3,1,1*%
%TO.N,c2*%
X67627500Y-27225625D03*
%TO.P,MX3,2,2*%
%TO.N,Net-(D1-A1)*%
X73977500Y-24685625D03*
%TD*%
%TO.P,MX27,1,1*%
%TO.N,Net-(D12-A2)*%
X139065000Y-65325625D03*
%TO.P,MX27,2,2*%
%TO.N,c5*%
X145415000Y-62785625D03*
%TD*%
%TO.P,MX25,1,1*%
%TO.N,Net-(D11-A2)*%
X100965000Y-65325625D03*
%TO.P,MX25,2,2*%
%TO.N,c3*%
X107315000Y-62785625D03*
%TD*%
%TO.P,MX31,1,1*%
%TO.N,Net-(D14-A2)*%
X222408750Y-65325625D03*
%TO.P,MX31,2,2*%
%TO.N,c1*%
X228758750Y-62785625D03*
%TD*%
%TO.P,MX33,1,1*%
%TO.N,Net-(D15-A2)*%
X62865000Y-84375625D03*
%TO.P,MX33,2,2*%
%TO.N,c1*%
X69215000Y-81835625D03*
%TD*%
%TO.P,MX8,1,1*%
%TO.N,Net-(D3-A2)*%
X162877500Y-27225625D03*
%TO.P,MX8,2,2*%
%TO.N,c7*%
X169227500Y-24685625D03*
%TD*%
%TO.P,MX21,2,2*%
%TO.N,c2*%
X223996250Y-43735625D03*
%TO.P,MX21,1,1*%
%TO.N,Net-(D9-A2)*%
X217646250Y-46275625D03*
%TD*%
%TO.P,MX36,1,1*%
%TO.N,c4*%
X158115000Y-84375625D03*
%TO.P,MX36,2,2*%
%TO.N,Net-(D17-A1)*%
X164465000Y-81835625D03*
%TD*%
%TO.P,MX14,2,2*%
%TO.N,Net-(D6-A1)*%
X78740000Y-43735625D03*
%TO.P,MX14,1,1*%
%TO.N,c2*%
X72390000Y-46275625D03*
%TD*%
%TO.P,MX16,2,2*%
%TO.N,Net-(D7-A1)*%
X116840000Y-43735625D03*
%TO.P,MX16,1,1*%
%TO.N,c4*%
X110490000Y-46275625D03*
%TD*%
%TO.P,MX38,1,1*%
%TO.N,c6*%
X196215000Y-84375625D03*
%TO.P,MX38,2,2*%
%TO.N,Net-(D18-A1)*%
X202565000Y-81835625D03*
%TD*%
%TO.P,MX13,1,1*%
%TO.N,Net-(D5-A2)*%
X53340000Y-46275625D03*
%TO.P,MX13,2,2*%
%TO.N,c1*%
X59690000Y-43735625D03*
%TD*%
%TO.P,MX19,2,2*%
%TO.N,c7*%
X173990000Y-43735625D03*
%TO.P,MX19,1,1*%
%TO.N,Net-(D8-A2)*%
X167640000Y-46275625D03*
%TD*%
%TO.P,MX22,1,1*%
%TO.N,c0*%
X36671250Y-65325625D03*
%TO.P,MX22,2,2*%
%TO.N,Net-(D10-A1)*%
X43021250Y-62785625D03*
%TD*%
%TO.P,MX17,2,2*%
%TO.N,c5*%
X135890000Y-43735625D03*
%TO.P,MX17,1,1*%
%TO.N,Net-(D7-A2)*%
X129540000Y-46275625D03*
%TD*%
%TO.P,MX11,1,1*%
%TO.N,c7*%
X224790000Y-27225625D03*
%TO.P,MX11,2,2*%
%TO.N,Net-(D19-A2)*%
X231140000Y-24685625D03*
%TD*%
%TO.P,MX34,1,1*%
%TO.N,c2*%
X81915000Y-84375625D03*
%TO.P,MX34,2,2*%
%TO.N,Net-(D16-A1)*%
X88265000Y-81835625D03*
%TD*%
%TO.P,MX9,1,1*%
%TO.N,c5*%
X181927500Y-27225625D03*
%TO.P,MX9,2,2*%
%TO.N,Net-(D4-A1)*%
X188277500Y-24685625D03*
%TD*%
%TO.P,MX41,1,1*%
%TO.N,c4*%
X129540000Y-84375625D03*
%TO.P,MX41,2,2*%
%TO.N,Net-(D17-A1)*%
X135890000Y-81835625D03*
%TD*%
%TO.P,MX23,1,1*%
%TO.N,Net-(D10-A2)*%
X62865000Y-65325625D03*
%TO.P,MX23,2,2*%
%TO.N,c1*%
X69215000Y-62785625D03*
%TD*%
%TO.P,MX12,1,1*%
%TO.N,c0*%
X31908750Y-46275625D03*
%TO.P,MX12,2,2*%
%TO.N,Net-(D5-A1)*%
X38258750Y-43735625D03*
%TD*%
%TO.P,MX6,1,1*%
%TO.N,Net-(D2-A2)*%
X124777500Y-27225625D03*
%TO.P,MX6,2,2*%
%TO.N,c5*%
X131127500Y-24685625D03*
%TD*%
%TO.P,MX4,1,1*%
%TO.N,Net-(D1-A2)*%
X86677500Y-27225625D03*
%TO.P,MX4,2,2*%
%TO.N,c3*%
X93027500Y-24685625D03*
%TD*%
%TO.P,MX30,1,1*%
%TO.N,c3*%
X196215000Y-65325625D03*
%TO.P,MX30,2,2*%
%TO.N,Net-(D14-A1)*%
X202565000Y-62785625D03*
%TD*%
%TO.P,MX7,1,1*%
%TO.N,c6*%
X143827500Y-27225625D03*
%TO.P,MX7,2,2*%
%TO.N,Net-(D3-A1)*%
X150177500Y-24685625D03*
%TD*%
%TO.P,MX18,2,2*%
%TO.N,Net-(D8-A1)*%
X154940000Y-43735625D03*
%TO.P,MX18,1,1*%
%TO.N,c6*%
X148590000Y-46275625D03*
%TD*%
%TO.P,MX28,1,1*%
%TO.N,c6*%
X158115000Y-65325625D03*
%TO.P,MX28,2,2*%
%TO.N,Net-(D13-A1)*%
X164465000Y-62785625D03*
%TD*%
%TO.P,MX29,1,1*%
%TO.N,Net-(D13-A2)*%
X177165000Y-65325625D03*
%TO.P,MX29,2,2*%
%TO.N,c7*%
X183515000Y-62785625D03*
%TD*%
%TO.P,MX35,1,1*%
%TO.N,Net-(D16-A2)*%
X100965000Y-84375625D03*
%TO.P,MX35,2,2*%
%TO.N,c3*%
X107315000Y-81835625D03*
%TD*%
%TO.P,MX42,1,1*%
%TO.N,c4*%
X148590000Y-84375625D03*
%TO.P,MX42,2,2*%
%TO.N,Net-(D17-A1)*%
X154940000Y-81835625D03*
%TD*%
%TO.P,MX1,1,1*%
%TO.N,c0*%
X29527500Y-27225625D03*
%TO.P,MX1,2,2*%
%TO.N,Net-(D40-A1)*%
X35877500Y-24685625D03*
%TD*%
%TO.P,MX37,1,1*%
%TO.N,Net-(D17-A2)*%
X177165000Y-84375625D03*
%TO.P,MX37,2,2*%
%TO.N,c5*%
X183515000Y-81835625D03*
%TD*%
%TO.P,MX32,1,1*%
%TO.N,c0*%
X43815000Y-84375625D03*
%TO.P,MX32,2,2*%
%TO.N,Net-(D15-A1)*%
X50165000Y-81835625D03*
%TD*%
%TO.P,MX15,1,1*%
%TO.N,Net-(D6-A2)*%
X91440000Y-46275625D03*
%TO.P,MX15,2,2*%
%TO.N,c3*%
X97790000Y-43735625D03*
%TD*%
%TO.P,MX40,1,1*%
%TO.N,Net-(D16-A2)*%
X110490000Y-84375625D03*
%TO.P,MX40,2,2*%
%TO.N,c3*%
X116840000Y-81835625D03*
%TD*%
D13*
%TO.P,S7,*%
%TO.N,*%
X200025000Y-93900625D03*
X190500000Y-93900625D03*
X76200000Y-93900625D03*
X66675000Y-93900625D03*
%TD*%
D12*
%TO.P,MX26,1,1*%
%TO.N,c4*%
X120015000Y-65325625D03*
%TO.P,MX26,2,2*%
%TO.N,Net-(D12-A1)*%
X126365000Y-62785625D03*
%TD*%
%TO.P,MX20,2,2*%
%TO.N,Net-(D9-A1)*%
X193040000Y-53895625D03*
%TO.P,MX20,1,1*%
%TO.N,c4*%
X186690000Y-51355625D03*
%TD*%
D13*
%TO.P,S6,*%
%TO.N,*%
X180975000Y-93900625D03*
X85725000Y-93900625D03*
%TD*%
D14*
%TO.P,D19,1,A1*%
%TO.N,unconnected-(D19-A1-Pad1)*%
X214950000Y-36368750D03*
%TO.P,D19,2,A2*%
%TO.N,Net-(D19-A2)*%
X216850000Y-36368750D03*
%TO.P,D19,3,K*%
%TO.N,r4*%
X215900000Y-38243750D03*
%TD*%
%TO.P,D11,1,A1*%
%TO.N,Net-(D11-A1)*%
X94300000Y-69309375D03*
%TO.P,D11,2,A2*%
%TO.N,Net-(D11-A2)*%
X96200000Y-69309375D03*
%TO.P,D11,3,K*%
%TO.N,r2*%
X95250000Y-71184375D03*
%TD*%
%TO.P,D2,1,A1*%
%TO.N,Net-(D2-A1)*%
X112159375Y-36368750D03*
%TO.P,D2,2,A2*%
%TO.N,Net-(D2-A2)*%
X114059375Y-36368750D03*
%TO.P,D2,3,K*%
%TO.N,r0*%
X113109375Y-38243750D03*
%TD*%
%TO.P,D10,1,A1*%
%TO.N,Net-(D10-A1)*%
X56200000Y-69309375D03*
%TO.P,D10,2,A2*%
%TO.N,Net-(D10-A2)*%
X58100000Y-69309375D03*
%TO.P,D10,3,K*%
%TO.N,r2*%
X57150000Y-71184375D03*
%TD*%
%TO.P,D6,1,A1*%
%TO.N,Net-(D6-A1)*%
X84775000Y-49068750D03*
%TO.P,D6,2,A2*%
%TO.N,Net-(D6-A2)*%
X86675000Y-49068750D03*
%TO.P,D6,3,K*%
%TO.N,r1*%
X85725000Y-50943750D03*
%TD*%
D15*
%TO.P,D17,1,A1*%
%TO.N,Net-(D17-A1)*%
X168912500Y-77137500D03*
%TO.P,D17,2,A2*%
%TO.N,Net-(D17-A2)*%
X170812500Y-77137500D03*
%TO.P,D17,3,K*%
%TO.N,r3*%
X169862500Y-75262500D03*
%TD*%
%TO.P,D14,1,A1*%
%TO.N,Net-(D14-A1)*%
X208600000Y-63246875D03*
%TO.P,D14,2,A2*%
%TO.N,Net-(D14-A2)*%
X210500000Y-63246875D03*
%TO.P,D14,3,K*%
%TO.N,r4*%
X209550000Y-61371875D03*
%TD*%
D14*
%TO.P,D3,1,A1*%
%TO.N,Net-(D3-A1)*%
X156098389Y-33774669D03*
%TO.P,D3,2,A2*%
%TO.N,Net-(D3-A2)*%
X157998389Y-33774669D03*
%TO.P,D3,3,K*%
%TO.N,r0*%
X157048389Y-35649669D03*
%TD*%
%TO.P,D12,1,A1*%
%TO.N,Net-(D12-A1)*%
X132400000Y-69309375D03*
%TO.P,D12,2,A2*%
%TO.N,Net-(D12-A2)*%
X134300000Y-69309375D03*
%TO.P,D12,3,K*%
%TO.N,r2*%
X133350000Y-71184375D03*
%TD*%
D15*
%TO.P,D18,1,A1*%
%TO.N,Net-(D18-A1)*%
X208600000Y-77137500D03*
%TO.P,D18,2,A2*%
%TO.N,Net-(D18-A2)*%
X210500000Y-77137500D03*
%TO.P,D18,3,K*%
%TO.N,r3*%
X209550000Y-75262500D03*
%TD*%
D14*
%TO.P,D1,1,A1*%
%TO.N,Net-(D1-A1)*%
X80012500Y-36368750D03*
%TO.P,D1,2,A2*%
%TO.N,Net-(D1-A2)*%
X81912500Y-36368750D03*
%TO.P,D1,3,K*%
%TO.N,r0*%
X80962500Y-38243750D03*
%TD*%
%TO.P,D40,1,A1*%
%TO.N,Net-(D40-A1)*%
X41912500Y-36368750D03*
%TO.P,D40,2,A2*%
%TO.N,Net-(D40-A2)*%
X43812500Y-36368750D03*
%TO.P,D40,3,K*%
%TO.N,r0*%
X42862500Y-38243750D03*
%TD*%
%TO.P,D13,1,A1*%
%TO.N,Net-(D13-A1)*%
X170500000Y-69309375D03*
%TO.P,D13,2,A2*%
%TO.N,Net-(D13-A2)*%
X172400000Y-69309375D03*
%TO.P,D13,3,K*%
%TO.N,r2*%
X171450000Y-71184375D03*
%TD*%
D15*
%TO.P,D16,1,A1*%
%TO.N,Net-(D16-A1)*%
X94300000Y-77534375D03*
%TO.P,D16,2,A2*%
%TO.N,Net-(D16-A2)*%
X96200000Y-77534375D03*
%TO.P,D16,3,K*%
%TO.N,r3*%
X95250000Y-75659375D03*
%TD*%
D14*
%TO.P,D7,1,A1*%
%TO.N,Net-(D7-A1)*%
X122875000Y-49068750D03*
%TO.P,D7,2,A2*%
%TO.N,Net-(D7-A2)*%
X124775000Y-49068750D03*
%TO.P,D7,3,K*%
%TO.N,r1*%
X123825000Y-50943750D03*
%TD*%
%TO.P,D4,1,A1*%
%TO.N,Net-(D4-A1)*%
X194312500Y-36368750D03*
%TO.P,D4,2,A2*%
%TO.N,Net-(D4-A2)*%
X196212500Y-36368750D03*
%TO.P,D4,3,K*%
%TO.N,r4*%
X195262500Y-38243750D03*
%TD*%
D16*
%TO.P,U1,1,P3.2*%
%TO.N,c6*%
X137222500Y-20399375D03*
D17*
X136207500Y-20399375D03*
D16*
%TO.P,U1,2,P1.1*%
%TO.N,r0*%
X137222500Y-22939375D03*
D17*
X136207500Y-22939375D03*
D16*
%TO.P,U1,3,P1.2*%
%TO.N,r1*%
X137222500Y-25479375D03*
D17*
X136207500Y-25479375D03*
D16*
%TO.P,U1,4,P1.3*%
%TO.N,c1*%
X137222500Y-28019375D03*
D17*
X136207500Y-28019375D03*
D16*
%TO.P,U1,5,P3.5*%
%TO.N,c2*%
X137222500Y-30559375D03*
D17*
X136207500Y-30559375D03*
D16*
%TO.P,U1,6,P3.4*%
%TO.N,c3*%
X137222500Y-33099375D03*
D17*
X136207500Y-33099375D03*
D16*
%TO.P,U1,7,P3.1*%
%TO.N,r2*%
X137222500Y-35639375D03*
D17*
X136207500Y-35639375D03*
%TO.P,U1,8,RX/CS*%
%TO.N,r4*%
X120967500Y-35639375D03*
D16*
X119932500Y-35639375D03*
D17*
%TO.P,U1,9,P1.7*%
%TO.N,r3*%
X120967500Y-33099375D03*
D16*
X119932500Y-33099375D03*
D17*
%TO.P,U1,10,P1.6*%
%TO.N,c5*%
X120967500Y-30559375D03*
D16*
X119932500Y-30559375D03*
D17*
%TO.P,U1,11,P1.5*%
%TO.N,c4*%
X120967500Y-28019375D03*
D16*
X119932500Y-28019375D03*
D17*
%TO.P,U1,12,3V3*%
%TO.N,unconnected-(U1-3V3-Pad12)*%
X120967500Y-25479375D03*
D16*
X119932500Y-25479375D03*
D18*
%TO.P,U1,13,GND*%
%TO.N,unconnected-(U1-GND-Pad13)*%
X120967500Y-22939375D03*
D16*
X119932500Y-22939375D03*
D17*
%TO.P,U1,14,VCC*%
%TO.N,unconnected-(U1-VCC-Pad14)*%
X120967500Y-20399375D03*
D16*
X119932500Y-20399375D03*
D19*
%TO.P,U1,15,RST*%
%TO.N,unconnected-(U1-RST-Pad15)*%
X134742500Y-38384375D03*
D17*
X134742500Y-37249375D03*
D19*
%TO.P,U1,16,BOOT*%
%TO.N,unconnected-(U1-BOOT-Pad16)*%
X122432500Y-38384375D03*
D17*
X122432500Y-37249375D03*
%TO.P,U1,17,P1.0*%
%TO.N,c0*%
X122432500Y-18789375D03*
D19*
X122432500Y-17684375D03*
D17*
%TO.P,U1,18,P3.3*%
%TO.N,c7*%
X134742500Y-18789375D03*
D19*
X134742500Y-17684375D03*
%TD*%
D15*
%TO.P,D15,1,A1*%
%TO.N,Net-(D15-A1)*%
X56200000Y-77534375D03*
%TO.P,D15,2,A2*%
%TO.N,Net-(D15-A2)*%
X58100000Y-77534375D03*
%TO.P,D15,3,K*%
%TO.N,r3*%
X57150000Y-75659375D03*
%TD*%
D14*
%TO.P,D5,1,A1*%
%TO.N,Net-(D5-A1)*%
X46675000Y-49068750D03*
%TO.P,D5,2,A2*%
%TO.N,Net-(D5-A2)*%
X48575000Y-49068750D03*
%TO.P,D5,3,K*%
%TO.N,r1*%
X47625000Y-50943750D03*
%TD*%
D20*
%TO.P,J1,1,Pin_1*%
%TO.N,c0*%
X129920000Y-19446875D03*
%TO.P,J1,2,Pin_2*%
%TO.N,c7*%
X127380000Y-19446875D03*
%TD*%
D14*
%TO.P,D8,1,A1*%
%TO.N,Net-(D8-A1)*%
X160975000Y-49068750D03*
%TO.P,D8,2,A2*%
%TO.N,Net-(D8-A2)*%
X162875000Y-49068750D03*
%TO.P,D8,3,K*%
%TO.N,r1*%
X161925000Y-50943750D03*
%TD*%
D15*
%TO.P,D9,1,A1*%
%TO.N,Net-(D9-A1)*%
X201853125Y-40228125D03*
%TO.P,D9,2,A2*%
%TO.N,Net-(D9-A2)*%
X203753125Y-40228125D03*
%TO.P,D9,3,K*%
%TO.N,r4*%
X202803125Y-38353125D03*
%TD*%
D21*
%TO.N,r1*%
X144809672Y-51243749D03*
%TO.N,r2*%
X155971875Y-71184375D03*
%TO.N,r3*%
X141684375Y-75262500D03*
%TO.N,r4*%
X213121724Y-37951165D03*
X209549852Y-61317161D03*
%TD*%
D22*
%TO.N,r4*%
X194962499Y-38543747D02*
X194662500Y-38843746D01*
X195149999Y-38356248D02*
X195074999Y-38431248D01*
%TO.N,c2*%
X224363278Y-45620849D02*
G75*
G02*
X224730285Y-46506934I-886078J-886051D01*
G01*
X76313336Y-42362275D02*
G75*
G03*
X76141084Y-42525429I3652364J-4028525D01*
G01*
X223996250Y-44734761D02*
G75*
G03*
X224363253Y-45620874I1253150J-39D01*
G01*
X76141025Y-42525490D02*
G75*
G03*
X75972656Y-42692968I31373875J-31709110D01*
G01*
X224730308Y-48725329D02*
G75*
G02*
X223614089Y-51420090I-3811008J29D01*
G01*
X223614098Y-51420099D02*
G75*
G02*
X220919328Y-52536320I-2694798J2694799D01*
G01*
X76446719Y-42244418D02*
G75*
G03*
X76357262Y-42322450I1988381J-2369782D01*
G01*
%TO.N,r3*%
X170259374Y-75262500D02*
X209550000Y-75262500D01*
%TO.N,r1*%
X48137132Y-51243749D02*
X161412869Y-51243749D01*
%TO.N,c2*%
X77235296Y-41492434D02*
G75*
G02*
X78590110Y-40931244I1354804J-1354766D01*
G01*
X192732288Y-55959353D02*
G75*
G02*
X190699764Y-55117455I12J2874453D01*
G01*
X188371135Y-50556406D02*
G75*
G02*
X189160405Y-52461895I-1905535J-1905494D01*
G01*
X188341862Y-50527131D02*
G75*
G02*
X187523324Y-48550966I1976138J1976131D01*
G01*
X186780930Y-41673627D02*
G75*
G02*
X187523326Y-43465885I-1792230J-1792273D01*
G01*
X76842030Y-41885697D02*
G75*
G02*
X76492195Y-42206258I-3846230J3846297D01*
G01*
X186780930Y-41673627D02*
G75*
G03*
X184988672Y-40931274I-1792230J-1792273D01*
G01*
X192732288Y-55959353D02*
G75*
G03*
X194764823Y-55117467I12J2874453D01*
G01*
X189949695Y-54367384D02*
X190699765Y-55117454D01*
X189949695Y-54367384D02*
G75*
G02*
X189160424Y-52461895I1905505J1905484D01*
G01*
X224730308Y-46506934D02*
X224730308Y-48725329D01*
X199599919Y-52536309D02*
X220919328Y-52536309D01*
X188341862Y-50527131D02*
X188371136Y-50556405D01*
X195752163Y-54130101D02*
X194764810Y-55117454D01*
X187523308Y-43465885D02*
X187523308Y-48550966D01*
X184988672Y-40931250D02*
X78590110Y-40931250D01*
X76313336Y-42362274D02*
X76357262Y-42322450D01*
X199599919Y-52536309D02*
G75*
G03*
X195752145Y-54130083I-19J-5441591D01*
G01*
X77235295Y-41492433D02*
X76842030Y-41885697D01*
X76492196Y-42206260D02*
X76446719Y-42244418D01*
X76141084Y-42525429D02*
X76141024Y-42525489D01*
X75972655Y-42692967D02*
X72390000Y-46275625D01*
%TO.N,r4*%
X194962499Y-38543747D02*
X195074999Y-38431248D01*
%TO.N,c4*%
X172923661Y-41381250D02*
G75*
G02*
X176771436Y-42975023I39J-5441550D01*
G01*
X184608234Y-50811859D02*
G75*
G03*
X185921000Y-51355626I1312766J1312759D01*
G01*
X113790582Y-42975042D02*
G75*
G02*
X117638338Y-41381277I3847718J-3847758D01*
G01*
%TO.N,Net-(D9-A1)*%
X193040000Y-51295213D02*
G75*
G02*
X194633796Y-47447461I5441500J13D01*
G01*
%TO.N,c4*%
X113790582Y-42975042D02*
X110490000Y-46275625D01*
X176771417Y-42975042D02*
X184608234Y-50811859D01*
X117638338Y-41381250D02*
X172923661Y-41381250D01*
%TO.N,Net-(D9-A1)*%
X193040000Y-51295213D02*
X193040000Y-53895625D01*
X194633792Y-47447457D02*
X201853125Y-40228125D01*
%TO.N,Net-(D1-A1)*%
X75571292Y-31927542D02*
X80012500Y-36368750D01*
X73977500Y-28079786D02*
X73977500Y-24685625D01*
X75571292Y-31927542D02*
G75*
G02*
X73977525Y-28079786I3847808J3847742D01*
G01*
%TO.N,Net-(D1-A2)*%
X86003745Y-27401612D02*
X83506292Y-29899064D01*
X81912500Y-33746821D02*
X81912500Y-36368750D01*
X81912500Y-33746821D02*
G75*
G02*
X83506272Y-29899044I5441600J21D01*
G01*
%TO.N,Net-(D2-A1)*%
X112159375Y-24825394D02*
X112159375Y-36368750D01*
%TO.N,Net-(D2-A2)*%
X123232974Y-28272382D02*
X124103745Y-27401612D01*
X116763488Y-30427456D02*
X115203890Y-31987053D01*
X114059375Y-34750160D02*
X114059375Y-36368750D01*
X119439198Y-29319141D02*
X120705877Y-29319141D01*
X123232973Y-28272381D02*
G75*
G02*
X120705877Y-29319127I-2527073J2527081D01*
G01*
X114059375Y-34750160D02*
G75*
G02*
X115203910Y-31987073I3907625J-40D01*
G01*
X116763489Y-30427457D02*
G75*
G02*
X119439198Y-29319150I2675711J-2675743D01*
G01*
%TO.N,Net-(D3-A1)*%
X156098389Y-32190591D02*
X156098389Y-33774669D01*
X154978277Y-29486402D02*
X150177500Y-24685625D01*
X154978277Y-29486402D02*
G75*
G02*
X156098398Y-32190591I-2704177J-2704198D01*
G01*
%TO.N,Net-(D3-A2)*%
X157998389Y-32126530D02*
X157998389Y-33774669D01*
X160676155Y-27800624D02*
X159163799Y-29312980D01*
X160676155Y-27800624D02*
G75*
G02*
X162064327Y-27225645I1388145J-1388176D01*
G01*
X157998389Y-32126530D02*
G75*
G02*
X159163795Y-29312976I3978911J30D01*
G01*
%TO.N,Net-(D4-A1)*%
X192718707Y-29126832D02*
X188277500Y-24685625D01*
X194312500Y-32974588D02*
X194312500Y-36368750D01*
X192718707Y-29126832D02*
G75*
G02*
X194312493Y-32974588I-3847807J-3847768D01*
G01*
%TO.N,Net-(D4-A2)*%
X196212500Y-32583644D02*
X196212500Y-36368750D01*
X197781827Y-28794952D02*
X198776155Y-27800624D01*
X196212500Y-32583644D02*
G75*
G02*
X197781809Y-28794934I5358000J44D01*
G01*
X200164327Y-27225625D02*
G75*
G03*
X198776141Y-27800610I-27J-1963175D01*
G01*
%TO.N,Net-(D5-A1)*%
X42431924Y-44825674D02*
X46675000Y-49068750D01*
X39800312Y-43735625D02*
X38258750Y-43735625D01*
X42431923Y-44825675D02*
G75*
G03*
X39800312Y-43735621I-2631623J-2631625D01*
G01*
%TO.N,Net-(D5-A2)*%
X50670961Y-46972788D02*
X48575000Y-49068750D01*
X52354062Y-46275625D02*
G75*
G03*
X50670978Y-46972805I38J-2380275D01*
G01*
%TO.N,Net-(D6-A1)*%
X79690025Y-43983775D02*
X84775000Y-49068750D01*
%TO.N,Net-(D6-A2)*%
X88770961Y-46972788D02*
X86675000Y-49068750D01*
X90454062Y-46275625D02*
G75*
G03*
X88770978Y-46972805I38J-2380275D01*
G01*
%TO.N,Net-(D7-A1)*%
X117790025Y-43983775D02*
X122875000Y-49068750D01*
%TO.N,Net-(D7-A2)*%
X126870961Y-46972788D02*
X124775000Y-49068750D01*
X126870962Y-46972789D02*
G75*
G02*
X128554062Y-46275602I1683138J-1683111D01*
G01*
%TO.N,Net-(D8-A1)*%
X155890025Y-43983775D02*
X160975000Y-49068750D01*
%TO.N,Net-(D8-A2)*%
X164970961Y-46972788D02*
X162875000Y-49068750D01*
X166654062Y-46275625D02*
G75*
G03*
X164970978Y-46972805I38J-2380275D01*
G01*
%TO.N,Net-(D9-A2)*%
X208206832Y-44681832D02*
X203753125Y-40228125D01*
X212054588Y-46275625D02*
X217646250Y-46275625D01*
X208206832Y-44681832D02*
G75*
G03*
X212054588Y-46275640I3847768J3847732D01*
G01*
%TO.N,Net-(D10-A1)*%
X51270042Y-64379417D02*
X56200000Y-69309375D01*
X47422286Y-62785625D02*
X43021250Y-62785625D01*
X47422286Y-62785625D02*
G75*
G02*
X51270054Y-64379405I14J-5441575D01*
G01*
%TO.N,Net-(D10-A2)*%
X61807536Y-65601838D02*
X58100000Y-69309375D01*
X61807536Y-65601838D02*
G75*
G02*
X62474375Y-65325614I666864J-666862D01*
G01*
%TO.N,r0*%
X118089776Y-34731790D02*
X115096992Y-37724576D01*
X157048389Y-30714852D02*
X157048389Y-35649669D01*
X113109375Y-38243750D02*
X42862500Y-38243750D01*
X136207500Y-22939375D02*
X133107461Y-26039413D01*
X118940779Y-34379293D02*
X127414390Y-34379293D01*
X113109375Y-38243750D02*
X113843597Y-38243750D01*
X153120667Y-24533167D02*
X155454596Y-26867096D01*
X131563980Y-29765707D02*
X131563980Y-30229703D01*
X136207500Y-22939375D02*
X149272911Y-22939375D01*
X131563980Y-29765707D02*
G75*
G02*
X133107469Y-26039421I5269720J7D01*
G01*
X157048389Y-30714852D02*
G75*
G03*
X155454580Y-26867112I-5441589J-48D01*
G01*
X130348592Y-33163905D02*
G75*
G02*
X127414390Y-34379284I-2934192J2934205D01*
G01*
X130348592Y-33163905D02*
G75*
G03*
X131563984Y-30229703I-2934192J2934205D01*
G01*
X153120667Y-24533167D02*
G75*
G03*
X149272911Y-22939360I-3847767J-3847733D01*
G01*
X115096992Y-37724576D02*
G75*
G02*
X113843597Y-38243752I-1253392J1253376D01*
G01*
X118089777Y-34731791D02*
G75*
G02*
X118940779Y-34379281I851023J-851009D01*
G01*
%TO.N,r1*%
X48137132Y-51243749D02*
G75*
G02*
X47774981Y-51093769I-32J512149D01*
G01*
X161775000Y-51093749D02*
G75*
G02*
X161412869Y-51243721I-362100J362149D01*
G01*
%TO.N,r2*%
X155971875Y-71184375D02*
X57150000Y-71184375D01*
X155971875Y-71184375D02*
X171450000Y-71184375D01*
%TO.N,r3*%
X141684375Y-75262500D02*
X57827508Y-75262500D01*
X170259374Y-75262500D02*
X170060937Y-75262500D01*
X170060937Y-75262500D02*
X169862500Y-75262500D01*
X141684375Y-75262500D02*
X170060937Y-75262500D01*
X57348437Y-75460937D02*
X57150000Y-75659375D01*
X57827508Y-75262500D02*
G75*
G03*
X57348435Y-75460935I-8J-677500D01*
G01*
%TO.N,c0*%
X123195151Y-18026724D02*
X122432500Y-18789375D01*
X125036353Y-17264073D02*
X129611160Y-17264073D01*
X130373356Y-18672947D02*
X130373356Y-18026268D01*
X130150114Y-17487315D02*
G75*
G02*
X130373389Y-18026268I-538914J-538985D01*
G01*
X129611160Y-17264073D02*
G75*
G02*
X130150140Y-17487289I40J-762227D01*
G01*
X125036353Y-17264073D02*
G75*
G03*
X123195130Y-18026703I-53J-2603827D01*
G01*
X130373356Y-18672947D02*
G75*
G02*
X130146660Y-19220179I-773956J47D01*
G01*
%TO.N,c1*%
X225609862Y-59636737D02*
X228758750Y-62785625D01*
X72363887Y-59636737D02*
X69215000Y-62785625D01*
X76211643Y-58042945D02*
X221762106Y-58042945D01*
X221762106Y-58042945D02*
G75*
G02*
X225609860Y-59636739I-6J-5441555D01*
G01*
X76211643Y-58042945D02*
G75*
G03*
X72363865Y-59636715I-43J-5441555D01*
G01*
%TO.N,c3*%
X113861643Y-58492945D02*
X187128356Y-58492945D01*
X110013887Y-60086737D02*
X107315000Y-62785625D01*
X190976112Y-60086737D02*
X196215000Y-65325625D01*
X190976112Y-60086737D02*
G75*
G03*
X187128356Y-58492978I-3847712J-3847763D01*
G01*
X113861643Y-58492945D02*
G75*
G03*
X110013865Y-60086715I-43J-5441555D01*
G01*
%TO.N,c5*%
X178110042Y-23408167D02*
X181927500Y-27225625D01*
X132563125Y-23250000D02*
X131127500Y-24685625D01*
X136029030Y-21814375D02*
X174262286Y-21814375D01*
X136029030Y-21814375D02*
G75*
G03*
X132563111Y-23249986I-30J-4901525D01*
G01*
X178110042Y-23408167D02*
G75*
G03*
X174262286Y-21814378I-3847742J-3847733D01*
G01*
%TO.N,c6*%
X200787286Y-20399375D02*
X136207500Y-20399375D01*
X204635042Y-21993167D02*
X207327500Y-24685625D01*
X200787286Y-20399375D02*
G75*
G02*
X204635044Y-21993165I14J-5441525D01*
G01*
%TO.N,c7*%
X127160786Y-21282429D02*
X130486590Y-21282429D01*
X133495973Y-20035902D02*
X134742500Y-18789375D01*
X126652656Y-20579496D02*
X126652656Y-20774298D01*
X126801485Y-21133600D02*
G75*
G02*
X126652662Y-20774298I359315J359300D01*
G01*
X126939230Y-19887644D02*
G75*
G03*
X126652658Y-20579496I691870J-691856D01*
G01*
X126801485Y-21133600D02*
G75*
G03*
X127160786Y-21282438I359315J359300D01*
G01*
X133495973Y-20035902D02*
G75*
G02*
X130486590Y-21282416I-3009373J3009402D01*
G01*
%TO.N,r4*%
X122207699Y-35639375D02*
X120967500Y-35639375D01*
X194662500Y-38843746D02*
X194143750Y-39362500D01*
X126695980Y-38887457D02*
X124324851Y-36516328D01*
X195774630Y-37943750D02*
X215387867Y-37943750D01*
X130543736Y-40481250D02*
X191442848Y-40481250D01*
X194143749Y-39362499D02*
G75*
G02*
X191442848Y-40481284I-2700949J2700899D01*
G01*
X126695981Y-38887456D02*
G75*
G03*
X130543736Y-40481223I3847719J3847756D01*
G01*
X195774630Y-37943750D02*
G75*
G03*
X195412480Y-38093731I-30J-512150D01*
G01*
X215387867Y-37943750D02*
G75*
G02*
X215750020Y-38093730I33J-512150D01*
G01*
X122207699Y-35639375D02*
G75*
G02*
X124324856Y-36516323I1J-2994125D01*
G01*
%TO.N,Net-(D11-A1)*%
X88437799Y-63447174D02*
X94300000Y-69309375D01*
%TO.N,Net-(D11-A2)*%
X99907536Y-65601838D02*
X96200000Y-69309375D01*
X99907536Y-65601838D02*
G75*
G02*
X100574375Y-65325614I666864J-666862D01*
G01*
%TO.N,Net-(D12-A1)*%
X132227200Y-68647825D02*
X126365000Y-62785625D01*
X132400000Y-69065000D02*
G75*
G03*
X132227206Y-68647819I-590000J0D01*
G01*
%TO.N,Net-(D12-A2)*%
X138007536Y-65601838D02*
X134300000Y-69309375D01*
X138674375Y-65325625D02*
G75*
G03*
X138007544Y-65601846I25J-943075D01*
G01*
%TO.N,Net-(D13-A1)*%
X170500000Y-67652671D02*
X170500000Y-69309375D01*
X165877329Y-62785625D02*
X164465000Y-62785625D01*
X169328533Y-64824500D02*
X168288325Y-63784292D01*
X170500000Y-67652671D02*
G75*
G03*
X169328511Y-64824522I-3999600J-29D01*
G01*
X168288325Y-63784292D02*
G75*
G03*
X165877329Y-62785608I-2411025J-2411008D01*
G01*
%TO.N,Net-(D13-A2)*%
X176107536Y-65601838D02*
X172400000Y-69309375D01*
X176774375Y-65325625D02*
G75*
G03*
X176107544Y-65601846I25J-943075D01*
G01*
%TO.N,Net-(D14-A1)*%
X207812596Y-62785625D02*
X202565000Y-62785625D01*
X208369375Y-63016250D02*
X208600000Y-63246875D01*
X207812596Y-62785625D02*
G75*
G02*
X208369371Y-63016254I4J-787375D01*
G01*
%TO.N,Net-(D14-A2)*%
X211539375Y-64286250D02*
X210500000Y-63246875D01*
X214048648Y-65325625D02*
X222408750Y-65325625D01*
X211539375Y-64286250D02*
G75*
G03*
X214048648Y-65325597I2509225J2509250D01*
G01*
%TO.N,Net-(D15-A1)*%
X52511723Y-81222651D02*
X56200000Y-77534375D01*
X51031875Y-81835625D02*
G75*
G03*
X52511737Y-81222665I25J2092825D01*
G01*
%TO.N,Net-(D15-A2)*%
X58100000Y-78572500D02*
X58100000Y-77534375D01*
X58834065Y-80344690D02*
X62865000Y-84375625D01*
X58100000Y-78572500D02*
G75*
G03*
X58834056Y-80344699I2506300J0D01*
G01*
%TO.N,Net-(D16-A1)*%
X90611723Y-81222651D02*
X94300000Y-77534375D01*
X89131875Y-81835625D02*
G75*
G03*
X90611737Y-81222665I25J2092825D01*
G01*
%TO.N,Net-(D16-A2)*%
X100965000Y-84375625D02*
X110490000Y-84375625D01*
X100965000Y-84375625D02*
X96934065Y-80344690D01*
X96200000Y-78572500D02*
X96200000Y-77534375D01*
X96200000Y-78572500D02*
G75*
G03*
X96934056Y-80344699I2506300J0D01*
G01*
%TO.N,Net-(D17-A1)*%
X164487172Y-81829833D02*
X168818099Y-77498906D01*
X164432236Y-81835625D02*
X135890000Y-81835625D01*
%TO.N,Net-(D17-A2)*%
X171125615Y-78336240D02*
X177165000Y-84375625D01*
X170812500Y-77580312D02*
G75*
G03*
X171125630Y-78336225I1069000J12D01*
G01*
%TO.N,Net-(D18-A1)*%
X206790468Y-77610156D02*
X202565000Y-81835625D01*
X207931562Y-77137500D02*
X208600000Y-77137500D01*
X207931562Y-77137500D02*
G75*
G03*
X206790498Y-77610186I38J-1613700D01*
G01*
%TO.N,Net-(D18-A2)*%
X211374381Y-80485006D02*
X215265000Y-84375625D01*
X210500000Y-78374062D02*
X210500000Y-77137500D01*
X211374381Y-80485006D02*
G75*
G02*
X210500019Y-78374062I2110919J2110906D01*
G01*
%TO.N,Net-(D40-A1)*%
X37471292Y-31927542D02*
X41912500Y-36368750D01*
X35877500Y-28079786D02*
X35877500Y-24685625D01*
X37471292Y-31927542D02*
G75*
G02*
X35877525Y-28079786I3847808J3847742D01*
G01*
%TO.N,Net-(D40-A2)*%
X47903745Y-27401612D02*
X45406292Y-29899064D01*
X43812500Y-33746821D02*
X43812500Y-36368750D01*
X43812500Y-33746821D02*
G75*
G02*
X45406272Y-29899044I5441600J21D01*
G01*
%TO.N,Net-(D19-A2)*%
X226625836Y-28427555D02*
X219333285Y-35720106D01*
X226704307Y-28238109D02*
X229944530Y-24997886D01*
X217767321Y-36368750D02*
X216850000Y-36368750D01*
X217767321Y-36368750D02*
G75*
G03*
X219333284Y-35720105I-21J2214650D01*
G01*
X226704308Y-28238110D02*
G75*
G03*
X226665086Y-28332832I94692J-94690D01*
G01*
X229944530Y-24997886D02*
G75*
G02*
X230698396Y-24685607I753870J-753814D01*
G01*
X226625836Y-28427555D02*
G75*
G03*
X226665090Y-28332832I-94736J94755D01*
G01*
%TD*%
M02*
