%TF.GenerationSoftware,KiCad,Pcbnew,8.0.0*%
%TF.CreationDate,2024-02-25T16:00:07+01:00*%
%TF.ProjectId,QASS_PCB,51415353-5f50-4434-922e-6b696361645f,rev?*%
%TF.SameCoordinates,Original*%
%TF.FileFunction,Legend,Top*%
%TF.FilePolarity,Positive*%
%FSLAX46Y46*%
G04 Gerber Fmt 4.6, Leading zero omitted, Abs format (unit mm)*
G04 Created by KiCad (PCBNEW 8.0.0) date 2024-02-25 16:00:07*
%MOMM*%
%LPD*%
G01*
G04 APERTURE LIST*
%ADD10C,0.150000*%
%ADD11C,2.000000*%
%ADD12C,0.010000*%
G04 APERTURE END LIST*
D10*
G36*
X209445777Y-43364172D02*
G01*
X209924423Y-43429580D01*
X210382725Y-43536520D01*
X210818806Y-43683295D01*
X211230788Y-43868207D01*
X211616794Y-44089560D01*
X211974948Y-44345657D01*
X212455847Y-44791234D01*
X212863518Y-45305440D01*
X213091486Y-45683542D01*
X213282216Y-46087904D01*
X213433829Y-46516827D01*
X213544448Y-46968616D01*
X213612197Y-47441573D01*
X213635197Y-47934002D01*
X213604959Y-48487756D01*
X213516117Y-49017707D01*
X213371479Y-49520869D01*
X213173852Y-49994251D01*
X212926046Y-50434867D01*
X212630866Y-50839729D01*
X212291122Y-51205847D01*
X211909621Y-51530234D01*
X213307667Y-52776605D01*
X213320856Y-53218440D01*
X212274520Y-54315335D01*
X211834883Y-54326326D01*
X209742210Y-52424895D01*
X209403926Y-52465448D01*
X208948665Y-52486444D01*
X208695645Y-52480697D01*
X208202969Y-52435472D01*
X207729709Y-52346955D01*
X207277785Y-52217160D01*
X206849116Y-52048104D01*
X206445620Y-51841802D01*
X206069218Y-51600270D01*
X205721828Y-51325524D01*
X205405369Y-51019580D01*
X204992875Y-50506575D01*
X204762141Y-50131452D01*
X204569055Y-49732186D01*
X204415536Y-49310793D01*
X204303504Y-48869287D01*
X204234877Y-48409685D01*
X204211575Y-47934002D01*
X206629579Y-47934002D01*
X206674410Y-48413421D01*
X206803991Y-48859507D01*
X207010956Y-49262831D01*
X207287936Y-49613965D01*
X207627564Y-49903482D01*
X208022473Y-50121952D01*
X208465296Y-50259949D01*
X208948665Y-50308042D01*
X209307362Y-50281084D01*
X209751590Y-50165843D01*
X210150403Y-49968197D01*
X210574223Y-49618911D01*
X210844858Y-49268627D01*
X211046970Y-48865071D01*
X211173452Y-48417208D01*
X211217192Y-47934002D01*
X211173452Y-47438461D01*
X211046970Y-46981329D01*
X210844858Y-46571131D01*
X210574223Y-46216395D01*
X210242177Y-45925646D01*
X209855829Y-45707412D01*
X209422288Y-45570218D01*
X208948665Y-45522592D01*
X208465296Y-45570759D01*
X208022473Y-45709266D01*
X207627564Y-45929124D01*
X207287936Y-46221341D01*
X207010956Y-46576927D01*
X206803991Y-46986893D01*
X206674410Y-47442248D01*
X206629579Y-47934002D01*
X204211575Y-47934002D01*
X204234877Y-47451716D01*
X204303504Y-46986288D01*
X204415536Y-46539683D01*
X204569055Y-46113870D01*
X204762141Y-45710816D01*
X204992875Y-45332488D01*
X205259339Y-44980854D01*
X205559612Y-44657881D01*
X205891776Y-44365537D01*
X206253913Y-44105789D01*
X206644101Y-43880604D01*
X207060423Y-43691950D01*
X207500960Y-43541795D01*
X207963792Y-43432105D01*
X208447000Y-43364848D01*
X208948665Y-43341992D01*
X209445777Y-43364172D01*
G37*
G36*
X219179021Y-43720080D02*
G01*
X222845594Y-51965474D01*
X222605992Y-52345761D01*
X220779300Y-52345761D01*
X220414401Y-52097366D01*
X219908818Y-50798238D01*
X216721449Y-50798238D01*
X216218065Y-52097366D01*
X215853166Y-52345761D01*
X214050654Y-52345761D01*
X213811051Y-51965474D01*
X215154807Y-48984735D01*
X217301770Y-48984735D01*
X219330696Y-48984735D01*
X218321728Y-46601901D01*
X217301770Y-48984735D01*
X215154807Y-48984735D01*
X217528183Y-43720080D01*
X217893082Y-43482676D01*
X218814122Y-43482676D01*
X219179021Y-43720080D01*
G37*
G36*
X226688023Y-52486444D02*
G01*
X227279617Y-52458794D01*
X227820537Y-52376755D01*
X228309140Y-52241698D01*
X228743786Y-52054990D01*
X229122834Y-51818003D01*
X229538909Y-51426173D01*
X229849336Y-50950635D01*
X230010484Y-50541002D01*
X230108377Y-50087478D01*
X230141372Y-49591434D01*
X230103630Y-49104871D01*
X229988221Y-48665242D01*
X229791874Y-48269406D01*
X229511318Y-47914218D01*
X229143280Y-47596538D01*
X228684491Y-47313221D01*
X228278874Y-47121394D01*
X227818989Y-46945803D01*
X227481568Y-46837107D01*
X227043184Y-46699313D01*
X226620000Y-46551428D01*
X226187200Y-46347505D01*
X225945763Y-45976445D01*
X225945036Y-45944644D01*
X226166914Y-45550027D01*
X226605670Y-45416162D01*
X226940814Y-45397296D01*
X227439425Y-45434802D01*
X227881055Y-45526619D01*
X228318563Y-45670030D01*
X228743252Y-45861721D01*
X228919181Y-45957833D01*
X229347827Y-45843527D01*
X230053445Y-44577373D01*
X229952329Y-44148726D01*
X229552439Y-43923409D01*
X229132404Y-43732716D01*
X228690111Y-43578107D01*
X228223447Y-43461042D01*
X227730298Y-43382979D01*
X227208552Y-43345377D01*
X226991372Y-43341992D01*
X226418928Y-43370505D01*
X225888259Y-43454406D01*
X225402537Y-43591238D01*
X224964937Y-43778547D01*
X224578632Y-44013875D01*
X224148834Y-44398099D01*
X223823390Y-44857503D01*
X223609821Y-45386266D01*
X223527588Y-45824853D01*
X223511645Y-46135886D01*
X223547404Y-46615065D01*
X223657996Y-47042157D01*
X223909043Y-47510702D01*
X224206187Y-47839624D01*
X224594321Y-48133372D01*
X225078417Y-48397147D01*
X225507456Y-48578440D01*
X225995367Y-48747995D01*
X226171449Y-48802285D01*
X226596923Y-48932730D01*
X227018185Y-49079010D01*
X227425789Y-49271873D01*
X227719105Y-49612506D01*
X227745350Y-49809054D01*
X227568900Y-50227291D01*
X227148748Y-50409633D01*
X226850689Y-50433339D01*
X226336062Y-50408880D01*
X225872788Y-50334112D01*
X225445913Y-50206947D01*
X225040483Y-50025301D01*
X224641544Y-49787085D01*
X224507423Y-49694749D01*
X224078777Y-49782676D01*
X223272042Y-51125767D01*
X223373159Y-51567603D01*
X223813467Y-51821549D01*
X224283047Y-52037862D01*
X224781547Y-52214327D01*
X225308614Y-52348731D01*
X225750600Y-52424483D01*
X226210463Y-52470765D01*
X226688023Y-52486444D01*
G37*
G36*
X234460807Y-52486444D02*
G01*
X235052402Y-52458794D01*
X235593321Y-52376755D01*
X236081924Y-52241698D01*
X236516570Y-52054990D01*
X236895618Y-51818003D01*
X237311693Y-51426173D01*
X237622120Y-50950635D01*
X237783269Y-50541002D01*
X237881161Y-50087478D01*
X237914157Y-49591434D01*
X237876414Y-49104871D01*
X237761005Y-48665242D01*
X237564658Y-48269406D01*
X237284102Y-47914218D01*
X236916065Y-47596538D01*
X236457275Y-47313221D01*
X236051658Y-47121394D01*
X235591773Y-46945803D01*
X235254352Y-46837107D01*
X234815969Y-46699313D01*
X234392784Y-46551428D01*
X233959985Y-46347505D01*
X233718547Y-45976445D01*
X233717820Y-45944644D01*
X233939699Y-45550027D01*
X234378455Y-45416162D01*
X234713599Y-45397296D01*
X235212209Y-45434802D01*
X235653839Y-45526619D01*
X236091347Y-45670030D01*
X236516036Y-45861721D01*
X236691966Y-45957833D01*
X237120612Y-45843527D01*
X237826229Y-44577373D01*
X237725113Y-44148726D01*
X237325223Y-43923409D01*
X236905189Y-43732716D01*
X236462896Y-43578107D01*
X235996231Y-43461042D01*
X235503083Y-43382979D01*
X234981336Y-43345377D01*
X234764157Y-43341992D01*
X234191713Y-43370505D01*
X233661043Y-43454406D01*
X233175322Y-43591238D01*
X232737722Y-43778547D01*
X232351416Y-44013875D01*
X231921618Y-44398099D01*
X231596174Y-44857503D01*
X231382605Y-45386266D01*
X231300372Y-45824853D01*
X231284429Y-46135886D01*
X231320188Y-46615065D01*
X231430780Y-47042157D01*
X231681828Y-47510702D01*
X231978971Y-47839624D01*
X232367105Y-48133372D01*
X232851201Y-48397147D01*
X233280240Y-48578440D01*
X233768151Y-48747995D01*
X233944234Y-48802285D01*
X234369707Y-48932730D01*
X234790969Y-49079010D01*
X235198573Y-49271873D01*
X235491890Y-49612506D01*
X235518135Y-49809054D01*
X235341684Y-50227291D01*
X234921532Y-50409633D01*
X234623473Y-50433339D01*
X234108846Y-50408880D01*
X233645572Y-50334112D01*
X233218697Y-50206947D01*
X232813267Y-50025301D01*
X232414329Y-49787085D01*
X232280207Y-49694749D01*
X231851561Y-49782676D01*
X231044827Y-51125767D01*
X231145943Y-51567603D01*
X231586252Y-51821549D01*
X232055832Y-52037862D01*
X232554331Y-52214327D01*
X233081399Y-52348731D01*
X233523384Y-52424483D01*
X233983247Y-52470765D01*
X234460807Y-52486444D01*
G37*
D11*
X39141792Y-80985897D02*
G75*
G02*
X42141792Y-77985908I2999992J-3D01*
G01*
X238868968Y-21133601D02*
X217335788Y-21133601D01*
X227558040Y-80985897D02*
X227581480Y-92398773D01*
X203024860Y-58340601D02*
G75*
G02*
X200024899Y-55340601I40J3000001D01*
G01*
X214335788Y-24133601D02*
X214312348Y-36290617D01*
X238868968Y-21133601D02*
G75*
G02*
X241868911Y-24133601I32J-2999911D01*
G01*
X211312348Y-39290617D02*
X203024860Y-39290617D01*
X241845528Y-55340601D02*
G75*
G02*
X238845528Y-58340668I-3000068J1D01*
G01*
X42141792Y-77985897D02*
X224558040Y-77985897D01*
X42165232Y-95398773D02*
G75*
G02*
X39165267Y-92398773I-8J2999957D01*
G01*
X214335788Y-24133601D02*
G75*
G02*
X217335788Y-21133560I3000052J-11D01*
G01*
X241845528Y-55340601D02*
X241868968Y-24133601D01*
X203024860Y-58340601D02*
X238845528Y-58340601D01*
X224581480Y-95398773D02*
X42165232Y-95398773D01*
X227581480Y-92398773D02*
G75*
G02*
X224581480Y-95398740I-2999924J-43D01*
G01*
X200024860Y-42290617D02*
X200024860Y-55340601D01*
X224558040Y-77985897D02*
G75*
G02*
X227558019Y-80985897I-24J-3000003D01*
G01*
X200024860Y-42290617D02*
G75*
G02*
X203024860Y-39290660I2999940J17D01*
G01*
X39165232Y-92398773D02*
X39141792Y-80985897D01*
X214312348Y-36290617D02*
G75*
G02*
X211312348Y-39290548I-2999948J17D01*
G01*
D10*
G36*
X139790858Y-91317625D02*
G01*
X140374842Y-91317625D01*
X140395847Y-91296864D01*
X140395847Y-91249237D01*
X140374842Y-91228232D01*
X139967201Y-91228232D01*
X140008993Y-91194992D01*
X140048439Y-91160993D01*
X140086085Y-91125736D01*
X140121186Y-91090551D01*
X140160507Y-91048886D01*
X140168946Y-91039676D01*
X140206828Y-90996573D01*
X140240216Y-90954952D01*
X140269276Y-90914656D01*
X140301583Y-90862726D01*
X140326894Y-90812513D01*
X140345607Y-90763651D01*
X140358120Y-90715774D01*
X140365647Y-90656754D01*
X140366294Y-90633256D01*
X140363002Y-90581607D01*
X140353251Y-90533618D01*
X140330527Y-90475860D01*
X140297096Y-90425895D01*
X140253402Y-90384458D01*
X140199890Y-90352284D01*
X140153579Y-90334676D01*
X140102182Y-90323002D01*
X140045886Y-90317574D01*
X140026064Y-90317206D01*
X139975572Y-90319353D01*
X139920185Y-90326872D01*
X139870592Y-90338562D01*
X139820224Y-90355743D01*
X139772784Y-90377534D01*
X139764235Y-90405622D01*
X139785240Y-90449097D01*
X139813328Y-90459111D01*
X139858401Y-90438882D01*
X139907462Y-90422949D01*
X139958202Y-90412880D01*
X140008058Y-90408616D01*
X140026064Y-90408308D01*
X140078093Y-90412444D01*
X140135457Y-90428685D01*
X140183478Y-90456256D01*
X140221277Y-90494118D01*
X140247977Y-90541230D01*
X140262701Y-90596553D01*
X140265422Y-90633256D01*
X140262054Y-90683292D01*
X140250387Y-90734712D01*
X140230136Y-90787862D01*
X140207562Y-90831862D01*
X140179166Y-90877368D01*
X140144802Y-90924559D01*
X140104323Y-90973612D01*
X140093230Y-90986187D01*
X140059125Y-91023154D01*
X140014263Y-91068101D01*
X139970617Y-91108298D01*
X139928750Y-91143972D01*
X139889227Y-91175353D01*
X139843977Y-91208891D01*
X139797224Y-91241383D01*
X139783775Y-91250458D01*
X139769853Y-91275859D01*
X139769853Y-91296864D01*
X139790858Y-91317625D01*
G37*
G36*
X141130286Y-90676731D02*
G01*
X141072889Y-90676731D01*
X141051884Y-90697736D01*
X141051884Y-91035280D01*
X141044111Y-91088168D01*
X141022363Y-91139685D01*
X140986524Y-91184903D01*
X140945811Y-91214220D01*
X140895166Y-91232890D01*
X140847452Y-91238246D01*
X140796156Y-91231947D01*
X140743761Y-91208686D01*
X140702566Y-91169854D01*
X140677712Y-91126793D01*
X140662258Y-91075021D01*
X140656943Y-91015496D01*
X140656943Y-90697736D01*
X140635938Y-90676731D01*
X140578541Y-90676731D01*
X140557536Y-90697736D01*
X140557536Y-91033814D01*
X140560445Y-91082908D01*
X140573026Y-91142828D01*
X140594936Y-91195800D01*
X140625498Y-91241152D01*
X140664037Y-91278212D01*
X140709878Y-91306306D01*
X140762345Y-91324763D01*
X140820762Y-91332909D01*
X140836217Y-91333256D01*
X140893775Y-91327642D01*
X140944899Y-91311940D01*
X140989029Y-91287859D01*
X141030927Y-91251456D01*
X141061653Y-91208692D01*
X141064340Y-91296864D01*
X141085345Y-91317625D01*
X141130286Y-91317625D01*
X141151290Y-91296864D01*
X141151290Y-90697736D01*
X141130286Y-90676731D01*
G37*
G36*
X163666858Y-91317625D02*
G01*
X164250842Y-91317625D01*
X164271847Y-91296864D01*
X164271847Y-91249237D01*
X164250842Y-91228232D01*
X163843201Y-91228232D01*
X163884993Y-91194992D01*
X163924439Y-91160993D01*
X163962085Y-91125736D01*
X163997186Y-91090551D01*
X164036507Y-91048886D01*
X164044946Y-91039676D01*
X164082828Y-90996573D01*
X164116216Y-90954952D01*
X164145276Y-90914656D01*
X164177583Y-90862726D01*
X164202894Y-90812513D01*
X164221607Y-90763651D01*
X164234120Y-90715774D01*
X164241647Y-90656754D01*
X164242294Y-90633256D01*
X164239002Y-90581607D01*
X164229251Y-90533618D01*
X164206527Y-90475860D01*
X164173096Y-90425895D01*
X164129402Y-90384458D01*
X164075890Y-90352284D01*
X164029579Y-90334676D01*
X163978182Y-90323002D01*
X163921886Y-90317574D01*
X163902064Y-90317206D01*
X163851572Y-90319353D01*
X163796185Y-90326872D01*
X163746592Y-90338562D01*
X163696224Y-90355743D01*
X163648784Y-90377534D01*
X163640235Y-90405622D01*
X163661240Y-90449097D01*
X163689328Y-90459111D01*
X163734401Y-90438882D01*
X163783462Y-90422949D01*
X163834202Y-90412880D01*
X163884058Y-90408616D01*
X163902064Y-90408308D01*
X163954093Y-90412444D01*
X164011457Y-90428685D01*
X164059478Y-90456256D01*
X164097277Y-90494118D01*
X164123977Y-90541230D01*
X164138701Y-90596553D01*
X164141422Y-90633256D01*
X164138054Y-90683292D01*
X164126387Y-90734712D01*
X164106136Y-90787862D01*
X164083562Y-90831862D01*
X164055166Y-90877368D01*
X164020802Y-90924559D01*
X163980323Y-90973612D01*
X163969230Y-90986187D01*
X163935125Y-91023154D01*
X163890263Y-91068101D01*
X163846617Y-91108298D01*
X163804750Y-91143972D01*
X163765227Y-91175353D01*
X163719977Y-91208891D01*
X163673224Y-91241383D01*
X163659775Y-91250458D01*
X163645853Y-91275859D01*
X163645853Y-91296864D01*
X163666858Y-91317625D01*
G37*
G36*
X165006286Y-90676731D02*
G01*
X164948889Y-90676731D01*
X164927884Y-90697736D01*
X164927884Y-91035280D01*
X164920111Y-91088168D01*
X164898363Y-91139685D01*
X164862524Y-91184903D01*
X164821811Y-91214220D01*
X164771166Y-91232890D01*
X164723452Y-91238246D01*
X164672156Y-91231947D01*
X164619761Y-91208686D01*
X164578566Y-91169854D01*
X164553712Y-91126793D01*
X164538258Y-91075021D01*
X164532943Y-91015496D01*
X164532943Y-90697736D01*
X164511938Y-90676731D01*
X164454541Y-90676731D01*
X164433536Y-90697736D01*
X164433536Y-91033814D01*
X164436445Y-91082908D01*
X164449026Y-91142828D01*
X164470936Y-91195800D01*
X164501498Y-91241152D01*
X164540037Y-91278212D01*
X164585878Y-91306306D01*
X164638345Y-91324763D01*
X164696762Y-91332909D01*
X164712217Y-91333256D01*
X164769775Y-91327642D01*
X164820899Y-91311940D01*
X164865029Y-91287859D01*
X164906927Y-91251456D01*
X164937653Y-91208692D01*
X164940340Y-91296864D01*
X164961345Y-91317625D01*
X165006286Y-91317625D01*
X165027290Y-91296864D01*
X165027290Y-90697736D01*
X165006286Y-90676731D01*
G37*
G36*
X151728858Y-90301625D02*
G01*
X152312842Y-90301625D01*
X152333847Y-90280864D01*
X152333847Y-90233237D01*
X152312842Y-90212232D01*
X151905201Y-90212232D01*
X151946993Y-90178992D01*
X151986439Y-90144993D01*
X152024085Y-90109736D01*
X152059186Y-90074551D01*
X152098507Y-90032886D01*
X152106946Y-90023676D01*
X152144828Y-89980573D01*
X152178216Y-89938952D01*
X152207276Y-89898656D01*
X152239583Y-89846726D01*
X152264894Y-89796513D01*
X152283607Y-89747651D01*
X152296120Y-89699774D01*
X152303647Y-89640754D01*
X152304294Y-89617256D01*
X152301002Y-89565607D01*
X152291251Y-89517618D01*
X152268527Y-89459860D01*
X152235096Y-89409895D01*
X152191402Y-89368458D01*
X152137890Y-89336284D01*
X152091579Y-89318676D01*
X152040182Y-89307002D01*
X151983886Y-89301574D01*
X151964064Y-89301206D01*
X151913572Y-89303353D01*
X151858185Y-89310872D01*
X151808592Y-89322562D01*
X151758224Y-89339743D01*
X151710784Y-89361534D01*
X151702235Y-89389622D01*
X151723240Y-89433097D01*
X151751328Y-89443111D01*
X151796401Y-89422882D01*
X151845462Y-89406949D01*
X151896202Y-89396880D01*
X151946058Y-89392616D01*
X151964064Y-89392308D01*
X152016093Y-89396444D01*
X152073457Y-89412685D01*
X152121478Y-89440256D01*
X152159277Y-89478118D01*
X152185977Y-89525230D01*
X152200701Y-89580553D01*
X152203422Y-89617256D01*
X152200054Y-89667292D01*
X152188387Y-89718712D01*
X152168136Y-89771862D01*
X152145562Y-89815862D01*
X152117166Y-89861368D01*
X152082802Y-89908559D01*
X152042323Y-89957612D01*
X152031230Y-89970187D01*
X151997125Y-90007154D01*
X151952263Y-90052101D01*
X151908617Y-90092298D01*
X151866750Y-90127972D01*
X151827227Y-90159353D01*
X151781977Y-90192891D01*
X151735224Y-90225383D01*
X151721775Y-90234458D01*
X151707853Y-90259859D01*
X151707853Y-90280864D01*
X151728858Y-90301625D01*
G37*
G36*
X153068286Y-89660731D02*
G01*
X153010889Y-89660731D01*
X152989884Y-89681736D01*
X152989884Y-90019280D01*
X152982111Y-90072168D01*
X152960363Y-90123685D01*
X152924524Y-90168903D01*
X152883811Y-90198220D01*
X152833166Y-90216890D01*
X152785452Y-90222246D01*
X152734156Y-90215947D01*
X152681761Y-90192686D01*
X152640566Y-90153854D01*
X152615712Y-90110793D01*
X152600258Y-90059021D01*
X152594943Y-89999496D01*
X152594943Y-89681736D01*
X152573938Y-89660731D01*
X152516541Y-89660731D01*
X152495536Y-89681736D01*
X152495536Y-90017814D01*
X152498445Y-90066908D01*
X152511026Y-90126828D01*
X152532936Y-90179800D01*
X152563498Y-90225152D01*
X152602037Y-90262212D01*
X152647878Y-90290306D01*
X152700345Y-90308763D01*
X152758762Y-90316909D01*
X152774217Y-90317256D01*
X152831775Y-90311642D01*
X152882899Y-90295940D01*
X152927029Y-90271859D01*
X152968927Y-90235456D01*
X152999653Y-90192692D01*
X153002340Y-90280864D01*
X153023345Y-90301625D01*
X153068286Y-90301625D01*
X153089290Y-90280864D01*
X153089290Y-89681736D01*
X153068286Y-89660731D01*
G37*
G36*
X180355161Y-90723626D02*
G01*
X180309000Y-90726557D01*
X180600137Y-90410018D01*
X180609907Y-90383396D01*
X180609907Y-90353842D01*
X180588902Y-90332837D01*
X180035936Y-90332837D01*
X180014931Y-90353842D01*
X180014931Y-90401470D01*
X180035936Y-90422474D01*
X180474108Y-90422474D01*
X180154882Y-90768567D01*
X180150730Y-90796655D01*
X180159034Y-90817659D01*
X180187122Y-90828895D01*
X180237297Y-90814696D01*
X180288242Y-90807284D01*
X180310221Y-90806424D01*
X180364396Y-90810007D01*
X180412249Y-90820659D01*
X180462751Y-90843698D01*
X180502398Y-90877280D01*
X180530648Y-90921126D01*
X180546957Y-90974957D01*
X180551044Y-91025022D01*
X180543892Y-91082008D01*
X180522950Y-91132381D01*
X180488989Y-91174895D01*
X180442781Y-91208301D01*
X180397515Y-91227632D01*
X180345299Y-91239699D01*
X180286529Y-91243863D01*
X180231628Y-91240712D01*
X180183330Y-91232258D01*
X180135137Y-91217690D01*
X180090530Y-91197747D01*
X180068176Y-91185001D01*
X180040088Y-91191839D01*
X180014931Y-91242398D01*
X180023235Y-91270486D01*
X180072307Y-91294086D01*
X180123375Y-91311763D01*
X180176721Y-91324010D01*
X180228265Y-91330768D01*
X180286529Y-91333256D01*
X180349552Y-91329921D01*
X180407046Y-91320147D01*
X180458863Y-91304287D01*
X180504858Y-91282689D01*
X180556875Y-91245573D01*
X180597936Y-91199710D01*
X180627694Y-91145929D01*
X180645803Y-91085062D01*
X180651532Y-91035261D01*
X180651916Y-91017939D01*
X180648695Y-90966658D01*
X180634840Y-90905543D01*
X180610885Y-90852907D01*
X180577731Y-90808951D01*
X180536280Y-90773874D01*
X180487434Y-90747879D01*
X180432094Y-90731163D01*
X180371162Y-90723929D01*
X180355161Y-90723626D01*
G37*
G36*
X181388309Y-90676731D02*
G01*
X181330912Y-90676731D01*
X181309907Y-90697736D01*
X181309907Y-91035280D01*
X181302134Y-91088168D01*
X181280386Y-91139685D01*
X181244547Y-91184903D01*
X181203834Y-91214220D01*
X181153189Y-91232890D01*
X181105475Y-91238246D01*
X181054179Y-91231947D01*
X181001784Y-91208686D01*
X180960589Y-91169854D01*
X180935735Y-91126793D01*
X180920281Y-91075021D01*
X180914966Y-91015496D01*
X180914966Y-90697736D01*
X180893961Y-90676731D01*
X180836564Y-90676731D01*
X180815559Y-90697736D01*
X180815559Y-91033814D01*
X180818468Y-91082908D01*
X180831049Y-91142828D01*
X180852959Y-91195800D01*
X180883521Y-91241152D01*
X180922060Y-91278212D01*
X180967901Y-91306306D01*
X181020368Y-91324763D01*
X181078785Y-91332909D01*
X181094240Y-91333256D01*
X181151798Y-91327642D01*
X181202922Y-91311940D01*
X181247052Y-91287859D01*
X181288950Y-91251456D01*
X181319676Y-91208692D01*
X181322363Y-91296864D01*
X181343368Y-91317625D01*
X181388309Y-91317625D01*
X181409314Y-91296864D01*
X181409314Y-90697736D01*
X181388309Y-90676731D01*
G37*
G36*
X161305161Y-90215626D02*
G01*
X161259000Y-90218557D01*
X161550137Y-89902018D01*
X161559907Y-89875396D01*
X161559907Y-89845842D01*
X161538902Y-89824837D01*
X160985936Y-89824837D01*
X160964931Y-89845842D01*
X160964931Y-89893470D01*
X160985936Y-89914474D01*
X161424108Y-89914474D01*
X161104882Y-90260567D01*
X161100730Y-90288655D01*
X161109034Y-90309659D01*
X161137122Y-90320895D01*
X161187297Y-90306696D01*
X161238242Y-90299284D01*
X161260221Y-90298424D01*
X161314396Y-90302007D01*
X161362249Y-90312659D01*
X161412751Y-90335698D01*
X161452398Y-90369280D01*
X161480648Y-90413126D01*
X161496957Y-90466957D01*
X161501044Y-90517022D01*
X161493892Y-90574008D01*
X161472950Y-90624381D01*
X161438989Y-90666895D01*
X161392781Y-90700301D01*
X161347515Y-90719632D01*
X161295299Y-90731699D01*
X161236529Y-90735863D01*
X161181628Y-90732712D01*
X161133330Y-90724258D01*
X161085137Y-90709690D01*
X161040530Y-90689747D01*
X161018176Y-90677001D01*
X160990088Y-90683839D01*
X160964931Y-90734398D01*
X160973235Y-90762486D01*
X161022307Y-90786086D01*
X161073375Y-90803763D01*
X161126721Y-90816010D01*
X161178265Y-90822768D01*
X161236529Y-90825256D01*
X161299552Y-90821921D01*
X161357046Y-90812147D01*
X161408863Y-90796287D01*
X161454858Y-90774689D01*
X161506875Y-90737573D01*
X161547936Y-90691710D01*
X161577694Y-90637929D01*
X161595803Y-90577062D01*
X161601532Y-90527261D01*
X161601916Y-90509939D01*
X161598695Y-90458658D01*
X161584840Y-90397543D01*
X161560885Y-90344907D01*
X161527731Y-90300951D01*
X161486280Y-90265874D01*
X161437434Y-90239879D01*
X161382094Y-90223163D01*
X161321162Y-90215929D01*
X161305161Y-90215626D01*
G37*
G36*
X162338309Y-90168731D02*
G01*
X162280912Y-90168731D01*
X162259907Y-90189736D01*
X162259907Y-90527280D01*
X162252134Y-90580168D01*
X162230386Y-90631685D01*
X162194547Y-90676903D01*
X162153834Y-90706220D01*
X162103189Y-90724890D01*
X162055475Y-90730246D01*
X162004179Y-90723947D01*
X161951784Y-90700686D01*
X161910589Y-90661854D01*
X161885735Y-90618793D01*
X161870281Y-90567021D01*
X161864966Y-90507496D01*
X161864966Y-90189736D01*
X161843961Y-90168731D01*
X161786564Y-90168731D01*
X161765559Y-90189736D01*
X161765559Y-90525814D01*
X161768468Y-90574908D01*
X161781049Y-90634828D01*
X161802959Y-90687800D01*
X161833521Y-90733152D01*
X161872060Y-90770212D01*
X161917901Y-90798306D01*
X161970368Y-90816763D01*
X162028785Y-90824909D01*
X162044240Y-90825256D01*
X162101798Y-90819642D01*
X162152922Y-90803940D01*
X162197052Y-90779859D01*
X162238950Y-90743456D01*
X162269676Y-90700692D01*
X162272363Y-90788864D01*
X162293368Y-90809625D01*
X162338309Y-90809625D01*
X162359314Y-90788864D01*
X162359314Y-90189736D01*
X162338309Y-90168731D01*
G37*
G36*
X142255161Y-90723626D02*
G01*
X142209000Y-90726557D01*
X142500137Y-90410018D01*
X142509907Y-90383396D01*
X142509907Y-90353842D01*
X142488902Y-90332837D01*
X141935936Y-90332837D01*
X141914931Y-90353842D01*
X141914931Y-90401470D01*
X141935936Y-90422474D01*
X142374108Y-90422474D01*
X142054882Y-90768567D01*
X142050730Y-90796655D01*
X142059034Y-90817659D01*
X142087122Y-90828895D01*
X142137297Y-90814696D01*
X142188242Y-90807284D01*
X142210221Y-90806424D01*
X142264396Y-90810007D01*
X142312249Y-90820659D01*
X142362751Y-90843698D01*
X142402398Y-90877280D01*
X142430648Y-90921126D01*
X142446957Y-90974957D01*
X142451044Y-91025022D01*
X142443892Y-91082008D01*
X142422950Y-91132381D01*
X142388989Y-91174895D01*
X142342781Y-91208301D01*
X142297515Y-91227632D01*
X142245299Y-91239699D01*
X142186529Y-91243863D01*
X142131628Y-91240712D01*
X142083330Y-91232258D01*
X142035137Y-91217690D01*
X141990530Y-91197747D01*
X141968176Y-91185001D01*
X141940088Y-91191839D01*
X141914931Y-91242398D01*
X141923235Y-91270486D01*
X141972307Y-91294086D01*
X142023375Y-91311763D01*
X142076721Y-91324010D01*
X142128265Y-91330768D01*
X142186529Y-91333256D01*
X142249552Y-91329921D01*
X142307046Y-91320147D01*
X142358863Y-91304287D01*
X142404858Y-91282689D01*
X142456875Y-91245573D01*
X142497936Y-91199710D01*
X142527694Y-91145929D01*
X142545803Y-91085062D01*
X142551532Y-91035261D01*
X142551916Y-91017939D01*
X142548695Y-90966658D01*
X142534840Y-90905543D01*
X142510885Y-90852907D01*
X142477731Y-90808951D01*
X142436280Y-90773874D01*
X142387434Y-90747879D01*
X142332094Y-90731163D01*
X142271162Y-90723929D01*
X142255161Y-90723626D01*
G37*
G36*
X143288309Y-90676731D02*
G01*
X143230912Y-90676731D01*
X143209907Y-90697736D01*
X143209907Y-91035280D01*
X143202134Y-91088168D01*
X143180386Y-91139685D01*
X143144547Y-91184903D01*
X143103834Y-91214220D01*
X143053189Y-91232890D01*
X143005475Y-91238246D01*
X142954179Y-91231947D01*
X142901784Y-91208686D01*
X142860589Y-91169854D01*
X142835735Y-91126793D01*
X142820281Y-91075021D01*
X142814966Y-91015496D01*
X142814966Y-90697736D01*
X142793961Y-90676731D01*
X142736564Y-90676731D01*
X142715559Y-90697736D01*
X142715559Y-91033814D01*
X142718468Y-91082908D01*
X142731049Y-91142828D01*
X142752959Y-91195800D01*
X142783521Y-91241152D01*
X142822060Y-91278212D01*
X142867901Y-91306306D01*
X142920368Y-91324763D01*
X142978785Y-91332909D01*
X142994240Y-91333256D01*
X143051798Y-91327642D01*
X143102922Y-91311940D01*
X143147052Y-91287859D01*
X143188950Y-91251456D01*
X143219676Y-91208692D01*
X143222363Y-91296864D01*
X143243368Y-91317625D01*
X143288309Y-91317625D01*
X143309314Y-91296864D01*
X143309314Y-90697736D01*
X143288309Y-90676731D01*
G37*
G36*
X123205161Y-90469626D02*
G01*
X123159000Y-90472557D01*
X123450137Y-90156018D01*
X123459907Y-90129396D01*
X123459907Y-90099842D01*
X123438902Y-90078837D01*
X122885936Y-90078837D01*
X122864931Y-90099842D01*
X122864931Y-90147470D01*
X122885936Y-90168474D01*
X123324108Y-90168474D01*
X123004882Y-90514567D01*
X123000730Y-90542655D01*
X123009034Y-90563659D01*
X123037122Y-90574895D01*
X123087297Y-90560696D01*
X123138242Y-90553284D01*
X123160221Y-90552424D01*
X123214396Y-90556007D01*
X123262249Y-90566659D01*
X123312751Y-90589698D01*
X123352398Y-90623280D01*
X123380648Y-90667126D01*
X123396957Y-90720957D01*
X123401044Y-90771022D01*
X123393892Y-90828008D01*
X123372950Y-90878381D01*
X123338989Y-90920895D01*
X123292781Y-90954301D01*
X123247515Y-90973632D01*
X123195299Y-90985699D01*
X123136529Y-90989863D01*
X123081628Y-90986712D01*
X123033330Y-90978258D01*
X122985137Y-90963690D01*
X122940530Y-90943747D01*
X122918176Y-90931001D01*
X122890088Y-90937839D01*
X122864931Y-90988398D01*
X122873235Y-91016486D01*
X122922307Y-91040086D01*
X122973375Y-91057763D01*
X123026721Y-91070010D01*
X123078265Y-91076768D01*
X123136529Y-91079256D01*
X123199552Y-91075921D01*
X123257046Y-91066147D01*
X123308863Y-91050287D01*
X123354858Y-91028689D01*
X123406875Y-90991573D01*
X123447936Y-90945710D01*
X123477694Y-90891929D01*
X123495803Y-90831062D01*
X123501532Y-90781261D01*
X123501916Y-90763939D01*
X123498695Y-90712658D01*
X123484840Y-90651543D01*
X123460885Y-90598907D01*
X123427731Y-90554951D01*
X123386280Y-90519874D01*
X123337434Y-90493879D01*
X123282094Y-90477163D01*
X123221162Y-90469929D01*
X123205161Y-90469626D01*
G37*
G36*
X124238309Y-90422731D02*
G01*
X124180912Y-90422731D01*
X124159907Y-90443736D01*
X124159907Y-90781280D01*
X124152134Y-90834168D01*
X124130386Y-90885685D01*
X124094547Y-90930903D01*
X124053834Y-90960220D01*
X124003189Y-90978890D01*
X123955475Y-90984246D01*
X123904179Y-90977947D01*
X123851784Y-90954686D01*
X123810589Y-90915854D01*
X123785735Y-90872793D01*
X123770281Y-90821021D01*
X123764966Y-90761496D01*
X123764966Y-90443736D01*
X123743961Y-90422731D01*
X123686564Y-90422731D01*
X123665559Y-90443736D01*
X123665559Y-90779814D01*
X123668468Y-90828908D01*
X123681049Y-90888828D01*
X123702959Y-90941800D01*
X123733521Y-90987152D01*
X123772060Y-91024212D01*
X123817901Y-91052306D01*
X123870368Y-91070763D01*
X123928785Y-91078909D01*
X123944240Y-91079256D01*
X124001798Y-91073642D01*
X124052922Y-91057940D01*
X124097052Y-91033859D01*
X124138950Y-90997456D01*
X124169676Y-90954692D01*
X124172363Y-91042864D01*
X124193368Y-91063625D01*
X124238309Y-91063625D01*
X124259314Y-91042864D01*
X124259314Y-90443736D01*
X124238309Y-90422731D01*
G37*
G36*
X85105161Y-90469626D02*
G01*
X85059000Y-90472557D01*
X85350137Y-90156018D01*
X85359907Y-90129396D01*
X85359907Y-90099842D01*
X85338902Y-90078837D01*
X84785936Y-90078837D01*
X84764931Y-90099842D01*
X84764931Y-90147470D01*
X84785936Y-90168474D01*
X85224108Y-90168474D01*
X84904882Y-90514567D01*
X84900730Y-90542655D01*
X84909034Y-90563659D01*
X84937122Y-90574895D01*
X84987297Y-90560696D01*
X85038242Y-90553284D01*
X85060221Y-90552424D01*
X85114396Y-90556007D01*
X85162249Y-90566659D01*
X85212751Y-90589698D01*
X85252398Y-90623280D01*
X85280648Y-90667126D01*
X85296957Y-90720957D01*
X85301044Y-90771022D01*
X85293892Y-90828008D01*
X85272950Y-90878381D01*
X85238989Y-90920895D01*
X85192781Y-90954301D01*
X85147515Y-90973632D01*
X85095299Y-90985699D01*
X85036529Y-90989863D01*
X84981628Y-90986712D01*
X84933330Y-90978258D01*
X84885137Y-90963690D01*
X84840530Y-90943747D01*
X84818176Y-90931001D01*
X84790088Y-90937839D01*
X84764931Y-90988398D01*
X84773235Y-91016486D01*
X84822307Y-91040086D01*
X84873375Y-91057763D01*
X84926721Y-91070010D01*
X84978265Y-91076768D01*
X85036529Y-91079256D01*
X85099552Y-91075921D01*
X85157046Y-91066147D01*
X85208863Y-91050287D01*
X85254858Y-91028689D01*
X85306875Y-90991573D01*
X85347936Y-90945710D01*
X85377694Y-90891929D01*
X85395803Y-90831062D01*
X85401532Y-90781261D01*
X85401916Y-90763939D01*
X85398695Y-90712658D01*
X85384840Y-90651543D01*
X85360885Y-90598907D01*
X85327731Y-90554951D01*
X85286280Y-90519874D01*
X85237434Y-90493879D01*
X85182094Y-90477163D01*
X85121162Y-90469929D01*
X85105161Y-90469626D01*
G37*
G36*
X86138309Y-90422731D02*
G01*
X86080912Y-90422731D01*
X86059907Y-90443736D01*
X86059907Y-90781280D01*
X86052134Y-90834168D01*
X86030386Y-90885685D01*
X85994547Y-90930903D01*
X85953834Y-90960220D01*
X85903189Y-90978890D01*
X85855475Y-90984246D01*
X85804179Y-90977947D01*
X85751784Y-90954686D01*
X85710589Y-90915854D01*
X85685735Y-90872793D01*
X85670281Y-90821021D01*
X85664966Y-90761496D01*
X85664966Y-90443736D01*
X85643961Y-90422731D01*
X85586564Y-90422731D01*
X85565559Y-90443736D01*
X85565559Y-90779814D01*
X85568468Y-90828908D01*
X85581049Y-90888828D01*
X85602959Y-90941800D01*
X85633521Y-90987152D01*
X85672060Y-91024212D01*
X85717901Y-91052306D01*
X85770368Y-91070763D01*
X85828785Y-91078909D01*
X85844240Y-91079256D01*
X85901798Y-91073642D01*
X85952922Y-91057940D01*
X85997052Y-91033859D01*
X86038950Y-90997456D01*
X86069676Y-90954692D01*
X86072363Y-91042864D01*
X86093368Y-91063625D01*
X86138309Y-91063625D01*
X86159314Y-91042864D01*
X86159314Y-90443736D01*
X86138309Y-90422731D01*
G37*
G36*
X104155161Y-89961626D02*
G01*
X104109000Y-89964557D01*
X104400137Y-89648018D01*
X104409907Y-89621396D01*
X104409907Y-89591842D01*
X104388902Y-89570837D01*
X103835936Y-89570837D01*
X103814931Y-89591842D01*
X103814931Y-89639470D01*
X103835936Y-89660474D01*
X104274108Y-89660474D01*
X103954882Y-90006567D01*
X103950730Y-90034655D01*
X103959034Y-90055659D01*
X103987122Y-90066895D01*
X104037297Y-90052696D01*
X104088242Y-90045284D01*
X104110221Y-90044424D01*
X104164396Y-90048007D01*
X104212249Y-90058659D01*
X104262751Y-90081698D01*
X104302398Y-90115280D01*
X104330648Y-90159126D01*
X104346957Y-90212957D01*
X104351044Y-90263022D01*
X104343892Y-90320008D01*
X104322950Y-90370381D01*
X104288989Y-90412895D01*
X104242781Y-90446301D01*
X104197515Y-90465632D01*
X104145299Y-90477699D01*
X104086529Y-90481863D01*
X104031628Y-90478712D01*
X103983330Y-90470258D01*
X103935137Y-90455690D01*
X103890530Y-90435747D01*
X103868176Y-90423001D01*
X103840088Y-90429839D01*
X103814931Y-90480398D01*
X103823235Y-90508486D01*
X103872307Y-90532086D01*
X103923375Y-90549763D01*
X103976721Y-90562010D01*
X104028265Y-90568768D01*
X104086529Y-90571256D01*
X104149552Y-90567921D01*
X104207046Y-90558147D01*
X104258863Y-90542287D01*
X104304858Y-90520689D01*
X104356875Y-90483573D01*
X104397936Y-90437710D01*
X104427694Y-90383929D01*
X104445803Y-90323062D01*
X104451532Y-90273261D01*
X104451916Y-90255939D01*
X104448695Y-90204658D01*
X104434840Y-90143543D01*
X104410885Y-90090907D01*
X104377731Y-90046951D01*
X104336280Y-90011874D01*
X104287434Y-89985879D01*
X104232094Y-89969163D01*
X104171162Y-89961929D01*
X104155161Y-89961626D01*
G37*
G36*
X105188309Y-89914731D02*
G01*
X105130912Y-89914731D01*
X105109907Y-89935736D01*
X105109907Y-90273280D01*
X105102134Y-90326168D01*
X105080386Y-90377685D01*
X105044547Y-90422903D01*
X105003834Y-90452220D01*
X104953189Y-90470890D01*
X104905475Y-90476246D01*
X104854179Y-90469947D01*
X104801784Y-90446686D01*
X104760589Y-90407854D01*
X104735735Y-90364793D01*
X104720281Y-90313021D01*
X104714966Y-90253496D01*
X104714966Y-89935736D01*
X104693961Y-89914731D01*
X104636564Y-89914731D01*
X104615559Y-89935736D01*
X104615559Y-90271814D01*
X104618468Y-90320908D01*
X104631049Y-90380828D01*
X104652959Y-90433800D01*
X104683521Y-90479152D01*
X104722060Y-90516212D01*
X104767901Y-90544306D01*
X104820368Y-90562763D01*
X104878785Y-90570909D01*
X104894240Y-90571256D01*
X104951798Y-90565642D01*
X105002922Y-90549940D01*
X105047052Y-90525859D01*
X105088950Y-90489456D01*
X105119676Y-90446692D01*
X105122363Y-90534864D01*
X105143368Y-90555625D01*
X105188309Y-90555625D01*
X105209314Y-90534864D01*
X105209314Y-89935736D01*
X105188309Y-89914731D01*
G37*
G36*
X64741208Y-90321725D02*
G01*
X64798922Y-90334948D01*
X64850018Y-90356374D01*
X64893673Y-90385502D01*
X64929061Y-90421832D01*
X64955359Y-90464862D01*
X64971742Y-90514092D01*
X64977387Y-90569020D01*
X64976719Y-90587573D01*
X64966953Y-90639305D01*
X64946187Y-90684764D01*
X64915253Y-90723458D01*
X64874980Y-90754895D01*
X64826200Y-90778581D01*
X64857154Y-90789522D01*
X64904198Y-90814171D01*
X64944641Y-90846674D01*
X64977421Y-90886840D01*
X65001476Y-90934479D01*
X65015743Y-90989401D01*
X65019397Y-91038455D01*
X65016168Y-91085291D01*
X65001987Y-91143182D01*
X64976823Y-91195051D01*
X64941010Y-91240006D01*
X64894878Y-91277159D01*
X64838760Y-91305618D01*
X64790317Y-91320722D01*
X64736584Y-91330060D01*
X64677701Y-91333256D01*
X64637896Y-91331826D01*
X64582511Y-91324494D01*
X64532422Y-91311270D01*
X64474094Y-91285124D01*
X64425703Y-91250061D01*
X64387548Y-91206972D01*
X64359926Y-91156749D01*
X64343134Y-91100279D01*
X64337471Y-91038455D01*
X64435412Y-91038455D01*
X64439732Y-91080387D01*
X64456799Y-91128133D01*
X64485995Y-91169383D01*
X64526425Y-91202732D01*
X64577195Y-91226778D01*
X64624654Y-91238373D01*
X64677701Y-91242398D01*
X64718304Y-91240117D01*
X64767530Y-91230347D01*
X64820544Y-91208330D01*
X64863286Y-91176729D01*
X64894889Y-91136948D01*
X64914486Y-91090389D01*
X64921211Y-91038455D01*
X64918507Y-91001230D01*
X64902671Y-90946425D01*
X64874081Y-90901038D01*
X64834358Y-90865501D01*
X64785122Y-90840243D01*
X64727995Y-90825694D01*
X64677701Y-90822056D01*
X64640005Y-90824108D01*
X64581935Y-90836462D01*
X64531252Y-90859613D01*
X64489624Y-90893129D01*
X64458715Y-90936580D01*
X64440193Y-90989536D01*
X64435412Y-91038455D01*
X64337471Y-91038455D01*
X64338379Y-91013367D01*
X64348286Y-90955585D01*
X64368331Y-90905010D01*
X64397553Y-90861832D01*
X64434991Y-90826241D01*
X64479683Y-90798427D01*
X64530667Y-90778581D01*
X64513483Y-90771577D01*
X64467057Y-90745253D01*
X64429131Y-90711342D01*
X64400750Y-90670338D01*
X64382957Y-90622734D01*
X64376794Y-90569020D01*
X64476200Y-90569020D01*
X64478339Y-90597093D01*
X64494764Y-90646877D01*
X64525864Y-90687173D01*
X64569813Y-90716774D01*
X64624786Y-90734472D01*
X64677701Y-90739257D01*
X64709875Y-90737518D01*
X64758851Y-90727186D01*
X64808548Y-90703386D01*
X64846486Y-90668286D01*
X64870694Y-90623095D01*
X64879201Y-90569020D01*
X64878232Y-90552001D01*
X64860429Y-90497791D01*
X64829110Y-90459546D01*
X64785046Y-90430746D01*
X64730208Y-90413148D01*
X64677701Y-90408308D01*
X64655836Y-90409099D01*
X64605350Y-90417660D01*
X64553848Y-90439188D01*
X64513979Y-90471332D01*
X64484603Y-90519906D01*
X64476200Y-90569020D01*
X64376794Y-90569020D01*
X64382541Y-90514092D01*
X64399184Y-90464862D01*
X64425828Y-90421832D01*
X64461576Y-90385502D01*
X64505534Y-90356374D01*
X64556804Y-90334948D01*
X64614492Y-90321725D01*
X64677701Y-90317206D01*
X64741208Y-90321725D01*
G37*
G36*
X65763605Y-90676731D02*
G01*
X65706207Y-90676731D01*
X65685203Y-90697736D01*
X65685203Y-91035280D01*
X65677429Y-91088168D01*
X65655682Y-91139685D01*
X65619843Y-91184903D01*
X65579130Y-91214220D01*
X65528485Y-91232890D01*
X65480771Y-91238246D01*
X65429474Y-91231947D01*
X65377080Y-91208686D01*
X65335885Y-91169854D01*
X65311031Y-91126793D01*
X65295577Y-91075021D01*
X65290262Y-91015496D01*
X65290262Y-90697736D01*
X65269257Y-90676731D01*
X65211860Y-90676731D01*
X65190855Y-90697736D01*
X65190855Y-91033814D01*
X65193764Y-91082908D01*
X65206345Y-91142828D01*
X65228255Y-91195800D01*
X65258817Y-91241152D01*
X65297356Y-91278212D01*
X65343197Y-91306306D01*
X65395664Y-91324763D01*
X65454081Y-91332909D01*
X65469536Y-91333256D01*
X65527094Y-91327642D01*
X65578218Y-91311940D01*
X65622348Y-91287859D01*
X65664246Y-91251456D01*
X65694972Y-91208692D01*
X65697659Y-91296864D01*
X65718664Y-91317625D01*
X65763605Y-91317625D01*
X65784609Y-91296864D01*
X65784609Y-90697736D01*
X65763605Y-90676731D01*
G37*
G36*
X66320234Y-91480046D02*
G01*
X66345635Y-91442188D01*
X66341239Y-91412879D01*
X66294002Y-91375849D01*
X66248199Y-91335247D01*
X66211735Y-91297474D01*
X66175290Y-91252773D01*
X66140511Y-91200553D01*
X66109045Y-91140224D01*
X66082540Y-91071199D01*
X66068439Y-91020059D01*
X66057763Y-90964617D01*
X66050999Y-90904699D01*
X66048636Y-90840130D01*
X66050969Y-90776046D01*
X66057647Y-90716494D01*
X66068191Y-90661311D01*
X66082120Y-90610335D01*
X66098954Y-90563404D01*
X66128603Y-90500234D01*
X66162087Y-90445250D01*
X66197786Y-90397904D01*
X66234081Y-90357648D01*
X66280598Y-90314054D01*
X66321450Y-90280789D01*
X66338552Y-90267625D01*
X66342704Y-90239537D01*
X66320234Y-90203144D01*
X66292390Y-90196061D01*
X66245636Y-90229156D01*
X66205917Y-90261305D01*
X66164086Y-90300272D01*
X66121832Y-90346538D01*
X66080845Y-90400584D01*
X66042814Y-90462893D01*
X66019937Y-90509261D01*
X65999624Y-90559657D01*
X65982377Y-90614226D01*
X65968697Y-90673109D01*
X65959082Y-90736449D01*
X65954036Y-90804390D01*
X65953381Y-90840130D01*
X65955973Y-90910279D01*
X65963410Y-90975829D01*
X65975185Y-91036913D01*
X65990792Y-91093665D01*
X66009724Y-91146220D01*
X66031473Y-91194712D01*
X66055532Y-91239274D01*
X66094844Y-91299044D01*
X66136504Y-91350728D01*
X66178799Y-91394780D01*
X66220019Y-91431651D01*
X66270350Y-91470426D01*
X66292390Y-91485664D01*
X66320234Y-91480046D01*
G37*
G36*
X66718594Y-90332837D02*
G01*
X66689285Y-90332837D01*
X66662662Y-90338455D01*
X66385447Y-90449341D01*
X66372746Y-90475964D01*
X66388133Y-90516508D01*
X66414756Y-90528964D01*
X66640192Y-90447876D01*
X66640192Y-91296620D01*
X66661197Y-91317625D01*
X66718594Y-91317625D01*
X66739599Y-91296620D01*
X66739599Y-90354086D01*
X66718594Y-90332837D01*
G37*
G36*
X67426813Y-90321893D02*
G01*
X67486615Y-90335869D01*
X67541445Y-90359009D01*
X67590922Y-90391188D01*
X67634666Y-90432280D01*
X67672296Y-90482160D01*
X67703433Y-90540701D01*
X67727695Y-90607778D01*
X67739863Y-90657177D01*
X67748694Y-90710276D01*
X67754075Y-90767040D01*
X67755893Y-90827429D01*
X67754075Y-90887528D01*
X67748694Y-90943972D01*
X67739863Y-90996731D01*
X67727695Y-91045775D01*
X67703433Y-91112305D01*
X67672296Y-91170302D01*
X67634666Y-91219661D01*
X67590922Y-91260278D01*
X67541445Y-91292050D01*
X67486615Y-91314873D01*
X67426813Y-91328643D01*
X67362418Y-91333256D01*
X67297639Y-91328642D01*
X67237385Y-91314863D01*
X67182058Y-91292018D01*
X67132064Y-91260201D01*
X67087804Y-91219510D01*
X67049682Y-91170041D01*
X67018102Y-91111891D01*
X66993466Y-91045156D01*
X66981100Y-90995945D01*
X66972119Y-90942990D01*
X66966643Y-90886320D01*
X66964836Y-90827429D01*
X67068350Y-90827429D01*
X67068701Y-90852829D01*
X67073863Y-90924164D01*
X67084932Y-90988207D01*
X67101577Y-91044967D01*
X67123464Y-91094452D01*
X67150263Y-91136671D01*
X67193059Y-91181674D01*
X67243209Y-91213795D01*
X67299924Y-91233052D01*
X67362418Y-91239467D01*
X67394050Y-91237863D01*
X67453114Y-91225020D01*
X67505960Y-91199299D01*
X67551846Y-91160662D01*
X67590032Y-91109071D01*
X67613171Y-91061856D01*
X67631249Y-91007318D01*
X67643953Y-90945441D01*
X67650970Y-90876211D01*
X67652334Y-90825964D01*
X67651996Y-90800577D01*
X67647000Y-90729183D01*
X67636261Y-90664954D01*
X67620070Y-90607911D01*
X67598719Y-90558075D01*
X67572498Y-90515470D01*
X67530463Y-90469946D01*
X67480979Y-90437366D01*
X67424734Y-90417779D01*
X67362418Y-90411239D01*
X67315037Y-90414780D01*
X67256803Y-90430607D01*
X67204938Y-90459282D01*
X67160229Y-90500977D01*
X67131868Y-90540896D01*
X67108307Y-90588308D01*
X67089878Y-90643285D01*
X67076913Y-90705901D01*
X67069744Y-90776226D01*
X67068350Y-90827429D01*
X66964836Y-90827429D01*
X66964791Y-90825964D01*
X66966643Y-90764906D01*
X66972119Y-90707682D01*
X66981100Y-90654305D01*
X66993466Y-90604790D01*
X67018102Y-90537792D01*
X67049682Y-90479566D01*
X67087804Y-90430162D01*
X67132064Y-90389630D01*
X67182058Y-90358019D01*
X67237385Y-90335378D01*
X67297639Y-90321757D01*
X67362418Y-90317206D01*
X67426813Y-90321893D01*
G37*
G36*
X68504986Y-90676731D02*
G01*
X68447589Y-90676731D01*
X68426584Y-90697736D01*
X68426584Y-91035280D01*
X68418811Y-91088168D01*
X68397063Y-91139685D01*
X68361225Y-91184903D01*
X68320512Y-91214220D01*
X68269866Y-91232890D01*
X68222153Y-91238246D01*
X68170856Y-91231947D01*
X68118462Y-91208686D01*
X68077267Y-91169854D01*
X68052413Y-91126793D01*
X68036959Y-91075021D01*
X68031644Y-91015496D01*
X68031644Y-90697736D01*
X68010639Y-90676731D01*
X67953242Y-90676731D01*
X67932237Y-90697736D01*
X67932237Y-91033814D01*
X67935145Y-91082908D01*
X67947727Y-91142828D01*
X67969637Y-91195800D01*
X68000199Y-91241152D01*
X68038738Y-91278212D01*
X68084579Y-91306306D01*
X68137046Y-91324763D01*
X68195463Y-91332909D01*
X68210918Y-91333256D01*
X68268475Y-91327642D01*
X68319599Y-91311940D01*
X68363729Y-91287859D01*
X68405628Y-91251456D01*
X68436354Y-91208692D01*
X68439041Y-91296864D01*
X68460046Y-91317625D01*
X68504986Y-91317625D01*
X68525991Y-91296864D01*
X68525991Y-90697736D01*
X68504986Y-90676731D01*
G37*
G36*
X68669362Y-91485664D02*
G01*
X68715264Y-91452466D01*
X68754631Y-91420130D01*
X68796310Y-91380916D01*
X68838572Y-91334371D01*
X68879685Y-91280042D01*
X68917920Y-91217476D01*
X68940956Y-91170965D01*
X68961431Y-91120459D01*
X68978832Y-91065822D01*
X68992646Y-91006921D01*
X69002361Y-90943621D01*
X69007465Y-90875788D01*
X69008127Y-90840130D01*
X69005538Y-90770037D01*
X68998108Y-90704564D01*
X68986345Y-90643572D01*
X68970754Y-90586926D01*
X68951841Y-90534487D01*
X68930112Y-90486119D01*
X68906075Y-90441683D01*
X68866797Y-90382102D01*
X68825171Y-90330597D01*
X68782906Y-90286704D01*
X68741710Y-90249960D01*
X68691399Y-90211285D01*
X68669362Y-90196061D01*
X68641274Y-90203144D01*
X68619048Y-90239537D01*
X68623200Y-90269090D01*
X68669755Y-90305700D01*
X68715035Y-90346254D01*
X68751132Y-90384083D01*
X68787239Y-90428866D01*
X68821716Y-90481146D01*
X68852923Y-90541463D01*
X68879220Y-90610358D01*
X68893214Y-90661321D01*
X68903811Y-90716497D01*
X68910526Y-90776047D01*
X68912872Y-90840130D01*
X68910495Y-90904458D01*
X68903693Y-90964197D01*
X68892956Y-91019515D01*
X68878777Y-91070580D01*
X68861647Y-91117562D01*
X68831494Y-91180743D01*
X68797467Y-91235681D01*
X68761224Y-91282942D01*
X68724426Y-91323094D01*
X68688730Y-91356705D01*
X68645718Y-91392325D01*
X68619048Y-91412879D01*
X68614651Y-91442188D01*
X68641274Y-91480046D01*
X68669362Y-91485664D01*
G37*
G36*
X74104265Y-91317625D02*
G01*
X74168745Y-91317625D01*
X74192436Y-91302237D01*
X74595681Y-90400248D01*
X74601299Y-90373626D01*
X74601299Y-90353842D01*
X74580294Y-90332837D01*
X73962848Y-90332837D01*
X73941843Y-90353842D01*
X73941843Y-90405866D01*
X73962848Y-90426871D01*
X74478200Y-90426871D01*
X74088877Y-91292467D01*
X74104265Y-91317625D01*
G37*
G36*
X75292506Y-90676731D02*
G01*
X75235109Y-90676731D01*
X75214104Y-90697736D01*
X75214104Y-91035280D01*
X75206331Y-91088168D01*
X75184583Y-91139685D01*
X75148745Y-91184903D01*
X75108032Y-91214220D01*
X75057386Y-91232890D01*
X75009673Y-91238246D01*
X74958376Y-91231947D01*
X74905982Y-91208686D01*
X74864787Y-91169854D01*
X74839932Y-91126793D01*
X74824479Y-91075021D01*
X74819163Y-91015496D01*
X74819163Y-90697736D01*
X74798159Y-90676731D01*
X74740762Y-90676731D01*
X74719757Y-90697736D01*
X74719757Y-91033814D01*
X74722665Y-91082908D01*
X74735247Y-91142828D01*
X74757157Y-91195800D01*
X74787719Y-91241152D01*
X74826258Y-91278212D01*
X74872099Y-91306306D01*
X74924565Y-91324763D01*
X74982983Y-91332909D01*
X74998438Y-91333256D01*
X75055995Y-91327642D01*
X75107119Y-91311940D01*
X75151249Y-91287859D01*
X75193147Y-91251456D01*
X75223874Y-91208692D01*
X75226561Y-91296864D01*
X75247565Y-91317625D01*
X75292506Y-91317625D01*
X75313511Y-91296864D01*
X75313511Y-90697736D01*
X75292506Y-90676731D01*
G37*
G36*
X75849136Y-91480046D02*
G01*
X75874537Y-91442188D01*
X75870140Y-91412879D01*
X75822904Y-91375849D01*
X75777101Y-91335247D01*
X75740636Y-91297474D01*
X75704191Y-91252773D01*
X75669412Y-91200553D01*
X75637947Y-91140224D01*
X75611441Y-91071199D01*
X75597341Y-91020059D01*
X75586664Y-90964617D01*
X75579901Y-90904699D01*
X75577538Y-90840130D01*
X75579870Y-90776046D01*
X75586549Y-90716494D01*
X75597093Y-90661311D01*
X75611022Y-90610335D01*
X75627856Y-90563404D01*
X75657504Y-90500234D01*
X75690988Y-90445250D01*
X75726688Y-90397904D01*
X75762982Y-90357648D01*
X75809499Y-90314054D01*
X75850352Y-90280789D01*
X75867454Y-90267625D01*
X75871606Y-90239537D01*
X75849136Y-90203144D01*
X75821292Y-90196061D01*
X75774538Y-90229156D01*
X75734819Y-90261305D01*
X75692988Y-90300272D01*
X75650734Y-90346538D01*
X75609747Y-90400584D01*
X75571716Y-90462893D01*
X75548838Y-90509261D01*
X75528526Y-90559657D01*
X75511279Y-90614226D01*
X75497598Y-90673109D01*
X75487984Y-90736449D01*
X75482937Y-90804390D01*
X75482283Y-90840130D01*
X75484875Y-90910279D01*
X75492312Y-90975829D01*
X75504087Y-91036913D01*
X75519694Y-91093665D01*
X75538625Y-91146220D01*
X75560374Y-91194712D01*
X75584434Y-91239274D01*
X75623746Y-91299044D01*
X75665405Y-91350728D01*
X75707701Y-91394780D01*
X75748921Y-91431651D01*
X75799251Y-91470426D01*
X75821292Y-91485664D01*
X75849136Y-91480046D01*
G37*
G36*
X76247496Y-90332837D02*
G01*
X76218187Y-90332837D01*
X76191564Y-90338455D01*
X75914348Y-90449341D01*
X75901648Y-90475964D01*
X75917035Y-90516508D01*
X75943658Y-90528964D01*
X76169094Y-90447876D01*
X76169094Y-91296620D01*
X76190099Y-91317625D01*
X76247496Y-91317625D01*
X76268501Y-91296620D01*
X76268501Y-90354086D01*
X76247496Y-90332837D01*
G37*
G36*
X76955714Y-90321893D02*
G01*
X77015517Y-90335869D01*
X77070347Y-90359009D01*
X77119824Y-90391188D01*
X77163568Y-90432280D01*
X77201198Y-90482160D01*
X77232334Y-90540701D01*
X77256596Y-90607778D01*
X77268764Y-90657177D01*
X77277595Y-90710276D01*
X77282976Y-90767040D01*
X77284795Y-90827429D01*
X77282976Y-90887528D01*
X77277595Y-90943972D01*
X77268764Y-90996731D01*
X77256596Y-91045775D01*
X77232334Y-91112305D01*
X77201198Y-91170302D01*
X77163568Y-91219661D01*
X77119824Y-91260278D01*
X77070347Y-91292050D01*
X77015517Y-91314873D01*
X76955714Y-91328643D01*
X76891320Y-91333256D01*
X76826541Y-91328642D01*
X76766286Y-91314863D01*
X76710960Y-91292018D01*
X76660965Y-91260201D01*
X76616706Y-91219510D01*
X76578584Y-91170041D01*
X76547004Y-91111891D01*
X76522368Y-91045156D01*
X76510002Y-90995945D01*
X76501021Y-90942990D01*
X76495544Y-90886320D01*
X76493737Y-90827429D01*
X76597251Y-90827429D01*
X76597602Y-90852829D01*
X76602765Y-90924164D01*
X76613834Y-90988207D01*
X76630479Y-91044967D01*
X76652366Y-91094452D01*
X76679164Y-91136671D01*
X76721961Y-91181674D01*
X76772110Y-91213795D01*
X76828826Y-91233052D01*
X76891320Y-91239467D01*
X76922952Y-91237863D01*
X76982016Y-91225020D01*
X77034862Y-91199299D01*
X77080748Y-91160662D01*
X77118933Y-91109071D01*
X77142073Y-91061856D01*
X77160151Y-91007318D01*
X77172855Y-90945441D01*
X77179872Y-90876211D01*
X77181236Y-90825964D01*
X77180897Y-90800577D01*
X77175901Y-90729183D01*
X77165163Y-90664954D01*
X77148972Y-90607911D01*
X77127621Y-90558075D01*
X77101399Y-90515470D01*
X77059365Y-90469946D01*
X77009881Y-90437366D01*
X76953636Y-90417779D01*
X76891320Y-90411239D01*
X76843938Y-90414780D01*
X76785704Y-90430607D01*
X76733840Y-90459282D01*
X76689131Y-90500977D01*
X76660770Y-90540896D01*
X76637208Y-90588308D01*
X76618779Y-90643285D01*
X76605814Y-90705901D01*
X76598646Y-90776226D01*
X76597251Y-90827429D01*
X76493737Y-90827429D01*
X76493692Y-90825964D01*
X76495544Y-90764906D01*
X76501021Y-90707682D01*
X76510002Y-90654305D01*
X76522368Y-90604790D01*
X76547004Y-90537792D01*
X76578584Y-90479566D01*
X76616706Y-90430162D01*
X76660965Y-90389630D01*
X76710960Y-90358019D01*
X76766286Y-90335378D01*
X76826541Y-90321757D01*
X76891320Y-90317206D01*
X76955714Y-90321893D01*
G37*
G36*
X78033888Y-90676731D02*
G01*
X77976491Y-90676731D01*
X77955486Y-90697736D01*
X77955486Y-91035280D01*
X77947713Y-91088168D01*
X77925965Y-91139685D01*
X77890126Y-91184903D01*
X77849414Y-91214220D01*
X77798768Y-91232890D01*
X77751055Y-91238246D01*
X77699758Y-91231947D01*
X77647364Y-91208686D01*
X77606169Y-91169854D01*
X77581314Y-91126793D01*
X77565860Y-91075021D01*
X77560545Y-91015496D01*
X77560545Y-90697736D01*
X77539540Y-90676731D01*
X77482143Y-90676731D01*
X77461138Y-90697736D01*
X77461138Y-91033814D01*
X77464047Y-91082908D01*
X77476629Y-91142828D01*
X77498538Y-91195800D01*
X77529100Y-91241152D01*
X77567640Y-91278212D01*
X77613480Y-91306306D01*
X77665947Y-91324763D01*
X77724365Y-91332909D01*
X77739819Y-91333256D01*
X77797377Y-91327642D01*
X77848501Y-91311940D01*
X77892631Y-91287859D01*
X77934529Y-91251456D01*
X77965256Y-91208692D01*
X77967942Y-91296864D01*
X77988947Y-91317625D01*
X78033888Y-91317625D01*
X78054893Y-91296864D01*
X78054893Y-90697736D01*
X78033888Y-90676731D01*
G37*
G36*
X78198263Y-91485664D02*
G01*
X78244165Y-91452466D01*
X78283532Y-91420130D01*
X78325212Y-91380916D01*
X78367474Y-91334371D01*
X78408587Y-91280042D01*
X78446822Y-91217476D01*
X78469857Y-91170965D01*
X78490332Y-91120459D01*
X78507733Y-91065822D01*
X78521548Y-91006921D01*
X78531263Y-90943621D01*
X78536366Y-90875788D01*
X78537028Y-90840130D01*
X78534439Y-90770037D01*
X78527010Y-90704564D01*
X78515246Y-90643572D01*
X78499655Y-90586926D01*
X78480742Y-90534487D01*
X78459014Y-90486119D01*
X78434977Y-90441683D01*
X78395698Y-90382102D01*
X78354073Y-90330597D01*
X78311807Y-90286704D01*
X78270612Y-90249960D01*
X78220301Y-90211285D01*
X78198263Y-90196061D01*
X78170175Y-90203144D01*
X78147949Y-90239537D01*
X78152101Y-90269090D01*
X78198657Y-90305700D01*
X78243937Y-90346254D01*
X78280034Y-90384083D01*
X78316141Y-90428866D01*
X78350618Y-90481146D01*
X78381824Y-90541463D01*
X78408121Y-90610358D01*
X78422115Y-90661321D01*
X78432713Y-90716497D01*
X78439427Y-90776047D01*
X78441773Y-90840130D01*
X78439397Y-90904458D01*
X78432594Y-90964197D01*
X78421858Y-91019515D01*
X78407679Y-91070580D01*
X78390549Y-91117562D01*
X78360396Y-91180743D01*
X78326369Y-91235681D01*
X78290126Y-91282942D01*
X78253327Y-91323094D01*
X78217631Y-91356705D01*
X78174620Y-91392325D01*
X78147949Y-91412879D01*
X78143553Y-91442188D01*
X78170175Y-91480046D01*
X78198263Y-91485664D01*
G37*
G36*
X198345208Y-90067725D02*
G01*
X198402922Y-90080948D01*
X198454018Y-90102374D01*
X198497673Y-90131502D01*
X198533061Y-90167832D01*
X198559359Y-90210862D01*
X198575742Y-90260092D01*
X198581387Y-90315020D01*
X198580719Y-90333573D01*
X198570953Y-90385305D01*
X198550187Y-90430764D01*
X198519253Y-90469458D01*
X198478980Y-90500895D01*
X198430200Y-90524581D01*
X198461154Y-90535522D01*
X198508198Y-90560171D01*
X198548641Y-90592674D01*
X198581421Y-90632840D01*
X198605476Y-90680479D01*
X198619743Y-90735401D01*
X198623397Y-90784455D01*
X198620168Y-90831291D01*
X198605987Y-90889182D01*
X198580823Y-90941051D01*
X198545010Y-90986006D01*
X198498878Y-91023159D01*
X198442760Y-91051618D01*
X198394317Y-91066722D01*
X198340584Y-91076060D01*
X198281701Y-91079256D01*
X198241896Y-91077826D01*
X198186511Y-91070494D01*
X198136422Y-91057270D01*
X198078094Y-91031124D01*
X198029703Y-90996061D01*
X197991548Y-90952972D01*
X197963926Y-90902749D01*
X197947134Y-90846279D01*
X197941471Y-90784455D01*
X198039412Y-90784455D01*
X198043732Y-90826387D01*
X198060799Y-90874133D01*
X198089995Y-90915383D01*
X198130425Y-90948732D01*
X198181195Y-90972778D01*
X198228654Y-90984373D01*
X198281701Y-90988398D01*
X198322304Y-90986117D01*
X198371530Y-90976347D01*
X198424544Y-90954330D01*
X198467286Y-90922729D01*
X198498889Y-90882948D01*
X198518486Y-90836389D01*
X198525211Y-90784455D01*
X198522507Y-90747230D01*
X198506671Y-90692425D01*
X198478081Y-90647038D01*
X198438358Y-90611501D01*
X198389122Y-90586243D01*
X198331995Y-90571694D01*
X198281701Y-90568056D01*
X198244005Y-90570108D01*
X198185935Y-90582462D01*
X198135252Y-90605613D01*
X198093624Y-90639129D01*
X198062715Y-90682580D01*
X198044193Y-90735536D01*
X198039412Y-90784455D01*
X197941471Y-90784455D01*
X197942379Y-90759367D01*
X197952286Y-90701585D01*
X197972331Y-90651010D01*
X198001553Y-90607832D01*
X198038991Y-90572241D01*
X198083683Y-90544427D01*
X198134667Y-90524581D01*
X198117483Y-90517577D01*
X198071057Y-90491253D01*
X198033131Y-90457342D01*
X198004750Y-90416338D01*
X197986957Y-90368734D01*
X197980794Y-90315020D01*
X198080200Y-90315020D01*
X198082339Y-90343093D01*
X198098764Y-90392877D01*
X198129864Y-90433173D01*
X198173813Y-90462774D01*
X198228786Y-90480472D01*
X198281701Y-90485257D01*
X198313875Y-90483518D01*
X198362851Y-90473186D01*
X198412548Y-90449386D01*
X198450486Y-90414286D01*
X198474694Y-90369095D01*
X198483201Y-90315020D01*
X198482232Y-90298001D01*
X198464429Y-90243791D01*
X198433110Y-90205546D01*
X198389046Y-90176746D01*
X198334208Y-90159148D01*
X198281701Y-90154308D01*
X198259836Y-90155099D01*
X198209350Y-90163660D01*
X198157848Y-90185188D01*
X198117979Y-90217332D01*
X198088603Y-90265906D01*
X198080200Y-90315020D01*
X197980794Y-90315020D01*
X197986541Y-90260092D01*
X198003184Y-90210862D01*
X198029828Y-90167832D01*
X198065576Y-90131502D01*
X198109534Y-90102374D01*
X198160804Y-90080948D01*
X198218492Y-90067725D01*
X198281701Y-90063206D01*
X198345208Y-90067725D01*
G37*
G36*
X199367605Y-90422731D02*
G01*
X199310207Y-90422731D01*
X199289203Y-90443736D01*
X199289203Y-90781280D01*
X199281429Y-90834168D01*
X199259682Y-90885685D01*
X199223843Y-90930903D01*
X199183130Y-90960220D01*
X199132485Y-90978890D01*
X199084771Y-90984246D01*
X199033474Y-90977947D01*
X198981080Y-90954686D01*
X198939885Y-90915854D01*
X198915031Y-90872793D01*
X198899577Y-90821021D01*
X198894262Y-90761496D01*
X198894262Y-90443736D01*
X198873257Y-90422731D01*
X198815860Y-90422731D01*
X198794855Y-90443736D01*
X198794855Y-90779814D01*
X198797764Y-90828908D01*
X198810345Y-90888828D01*
X198832255Y-90941800D01*
X198862817Y-90987152D01*
X198901356Y-91024212D01*
X198947197Y-91052306D01*
X198999664Y-91070763D01*
X199058081Y-91078909D01*
X199073536Y-91079256D01*
X199131094Y-91073642D01*
X199182218Y-91057940D01*
X199226348Y-91033859D01*
X199268246Y-90997456D01*
X199298972Y-90954692D01*
X199301659Y-91042864D01*
X199322664Y-91063625D01*
X199367605Y-91063625D01*
X199388609Y-91042864D01*
X199388609Y-90443736D01*
X199367605Y-90422731D01*
G37*
G36*
X199924234Y-91226046D02*
G01*
X199949635Y-91188188D01*
X199945239Y-91158879D01*
X199898002Y-91121849D01*
X199852199Y-91081247D01*
X199815735Y-91043474D01*
X199779290Y-90998773D01*
X199744511Y-90946553D01*
X199713045Y-90886224D01*
X199686540Y-90817199D01*
X199672439Y-90766059D01*
X199661763Y-90710617D01*
X199654999Y-90650699D01*
X199652636Y-90586130D01*
X199654969Y-90522046D01*
X199661647Y-90462494D01*
X199672191Y-90407311D01*
X199686120Y-90356335D01*
X199702954Y-90309404D01*
X199732603Y-90246234D01*
X199766087Y-90191250D01*
X199801786Y-90143904D01*
X199838081Y-90103648D01*
X199884598Y-90060054D01*
X199925450Y-90026789D01*
X199942552Y-90013625D01*
X199946704Y-89985537D01*
X199924234Y-89949144D01*
X199896390Y-89942061D01*
X199849636Y-89975156D01*
X199809917Y-90007305D01*
X199768086Y-90046272D01*
X199725832Y-90092538D01*
X199684845Y-90146584D01*
X199646814Y-90208893D01*
X199623937Y-90255261D01*
X199603624Y-90305657D01*
X199586377Y-90360226D01*
X199572697Y-90419109D01*
X199563082Y-90482449D01*
X199558036Y-90550390D01*
X199557381Y-90586130D01*
X199559973Y-90656279D01*
X199567410Y-90721829D01*
X199579185Y-90782913D01*
X199594792Y-90839665D01*
X199613724Y-90892220D01*
X199635473Y-90940712D01*
X199659532Y-90985274D01*
X199698844Y-91045044D01*
X199740504Y-91096728D01*
X199782799Y-91140780D01*
X199824019Y-91177651D01*
X199874350Y-91216426D01*
X199896390Y-91231664D01*
X199924234Y-91226046D01*
G37*
G36*
X200322594Y-90078837D02*
G01*
X200293285Y-90078837D01*
X200266662Y-90084455D01*
X199989447Y-90195341D01*
X199976746Y-90221964D01*
X199992133Y-90262508D01*
X200018756Y-90274964D01*
X200244192Y-90193876D01*
X200244192Y-91042620D01*
X200265197Y-91063625D01*
X200322594Y-91063625D01*
X200343599Y-91042620D01*
X200343599Y-90100086D01*
X200322594Y-90078837D01*
G37*
G36*
X201030813Y-90067893D02*
G01*
X201090615Y-90081869D01*
X201145445Y-90105009D01*
X201194922Y-90137188D01*
X201238666Y-90178280D01*
X201276296Y-90228160D01*
X201307433Y-90286701D01*
X201331695Y-90353778D01*
X201343863Y-90403177D01*
X201352694Y-90456276D01*
X201358075Y-90513040D01*
X201359893Y-90573429D01*
X201358075Y-90633528D01*
X201352694Y-90689972D01*
X201343863Y-90742731D01*
X201331695Y-90791775D01*
X201307433Y-90858305D01*
X201276296Y-90916302D01*
X201238666Y-90965661D01*
X201194922Y-91006278D01*
X201145445Y-91038050D01*
X201090615Y-91060873D01*
X201030813Y-91074643D01*
X200966418Y-91079256D01*
X200901639Y-91074642D01*
X200841385Y-91060863D01*
X200786058Y-91038018D01*
X200736064Y-91006201D01*
X200691804Y-90965510D01*
X200653682Y-90916041D01*
X200622102Y-90857891D01*
X200597466Y-90791156D01*
X200585100Y-90741945D01*
X200576119Y-90688990D01*
X200570643Y-90632320D01*
X200568836Y-90573429D01*
X200672350Y-90573429D01*
X200672701Y-90598829D01*
X200677863Y-90670164D01*
X200688932Y-90734207D01*
X200705577Y-90790967D01*
X200727464Y-90840452D01*
X200754263Y-90882671D01*
X200797059Y-90927674D01*
X200847209Y-90959795D01*
X200903924Y-90979052D01*
X200966418Y-90985467D01*
X200998050Y-90983863D01*
X201057114Y-90971020D01*
X201109960Y-90945299D01*
X201155846Y-90906662D01*
X201194032Y-90855071D01*
X201217171Y-90807856D01*
X201235249Y-90753318D01*
X201247953Y-90691441D01*
X201254970Y-90622211D01*
X201256334Y-90571964D01*
X201255996Y-90546577D01*
X201251000Y-90475183D01*
X201240261Y-90410954D01*
X201224070Y-90353911D01*
X201202719Y-90304075D01*
X201176498Y-90261470D01*
X201134463Y-90215946D01*
X201084979Y-90183366D01*
X201028734Y-90163779D01*
X200966418Y-90157239D01*
X200919037Y-90160780D01*
X200860803Y-90176607D01*
X200808938Y-90205282D01*
X200764229Y-90246977D01*
X200735868Y-90286896D01*
X200712307Y-90334308D01*
X200693878Y-90389285D01*
X200680913Y-90451901D01*
X200673744Y-90522226D01*
X200672350Y-90573429D01*
X200568836Y-90573429D01*
X200568791Y-90571964D01*
X200570643Y-90510906D01*
X200576119Y-90453682D01*
X200585100Y-90400305D01*
X200597466Y-90350790D01*
X200622102Y-90283792D01*
X200653682Y-90225566D01*
X200691804Y-90176162D01*
X200736064Y-90135630D01*
X200786058Y-90104019D01*
X200841385Y-90081378D01*
X200901639Y-90067757D01*
X200966418Y-90063206D01*
X201030813Y-90067893D01*
G37*
G36*
X202108986Y-90422731D02*
G01*
X202051589Y-90422731D01*
X202030584Y-90443736D01*
X202030584Y-90781280D01*
X202022811Y-90834168D01*
X202001063Y-90885685D01*
X201965225Y-90930903D01*
X201924512Y-90960220D01*
X201873866Y-90978890D01*
X201826153Y-90984246D01*
X201774856Y-90977947D01*
X201722462Y-90954686D01*
X201681267Y-90915854D01*
X201656413Y-90872793D01*
X201640959Y-90821021D01*
X201635644Y-90761496D01*
X201635644Y-90443736D01*
X201614639Y-90422731D01*
X201557242Y-90422731D01*
X201536237Y-90443736D01*
X201536237Y-90779814D01*
X201539145Y-90828908D01*
X201551727Y-90888828D01*
X201573637Y-90941800D01*
X201604199Y-90987152D01*
X201642738Y-91024212D01*
X201688579Y-91052306D01*
X201741046Y-91070763D01*
X201799463Y-91078909D01*
X201814918Y-91079256D01*
X201872475Y-91073642D01*
X201923599Y-91057940D01*
X201967729Y-91033859D01*
X202009628Y-90997456D01*
X202040354Y-90954692D01*
X202043041Y-91042864D01*
X202064046Y-91063625D01*
X202108986Y-91063625D01*
X202129991Y-91042864D01*
X202129991Y-90443736D01*
X202108986Y-90422731D01*
G37*
G36*
X202273362Y-91231664D02*
G01*
X202319264Y-91198466D01*
X202358631Y-91166130D01*
X202400310Y-91126916D01*
X202442572Y-91080371D01*
X202483685Y-91026042D01*
X202521920Y-90963476D01*
X202544956Y-90916965D01*
X202565431Y-90866459D01*
X202582832Y-90811822D01*
X202596646Y-90752921D01*
X202606361Y-90689621D01*
X202611465Y-90621788D01*
X202612127Y-90586130D01*
X202609538Y-90516037D01*
X202602108Y-90450564D01*
X202590345Y-90389572D01*
X202574754Y-90332926D01*
X202555841Y-90280487D01*
X202534112Y-90232119D01*
X202510075Y-90187683D01*
X202470797Y-90128102D01*
X202429171Y-90076597D01*
X202386906Y-90032704D01*
X202345710Y-89995960D01*
X202295399Y-89957285D01*
X202273362Y-89942061D01*
X202245274Y-89949144D01*
X202223048Y-89985537D01*
X202227200Y-90015090D01*
X202273755Y-90051700D01*
X202319035Y-90092254D01*
X202355132Y-90130083D01*
X202391239Y-90174866D01*
X202425716Y-90227146D01*
X202456923Y-90287463D01*
X202483220Y-90356358D01*
X202497214Y-90407321D01*
X202507811Y-90462497D01*
X202514526Y-90522047D01*
X202516872Y-90586130D01*
X202514495Y-90650458D01*
X202507693Y-90710197D01*
X202496956Y-90765515D01*
X202482777Y-90816580D01*
X202465647Y-90863562D01*
X202435494Y-90926743D01*
X202401467Y-90981681D01*
X202365224Y-91028942D01*
X202328426Y-91069094D01*
X202292730Y-91102705D01*
X202249718Y-91138325D01*
X202223048Y-91158879D01*
X202218651Y-91188188D01*
X202245274Y-91226046D01*
X202273362Y-91231664D01*
G37*
G36*
X131873652Y-89581340D02*
G01*
X131901740Y-89626769D01*
X131894657Y-89654368D01*
X131841347Y-89684126D01*
X131786366Y-89717856D01*
X131745011Y-89746057D01*
X131704316Y-89776978D01*
X131664967Y-89810825D01*
X131627650Y-89847807D01*
X131593050Y-89888131D01*
X131561855Y-89932005D01*
X131534748Y-89979638D01*
X131512417Y-90031235D01*
X131523015Y-90018639D01*
X131558728Y-89984852D01*
X131599888Y-89957530D01*
X131645947Y-89937273D01*
X131696352Y-89924680D01*
X131750554Y-89920349D01*
X131803107Y-89923869D01*
X131851890Y-89934158D01*
X131910541Y-89957708D01*
X131961222Y-89991616D01*
X132003209Y-90034921D01*
X132035778Y-90086666D01*
X132058205Y-90145891D01*
X132067934Y-90194642D01*
X132071244Y-90246657D01*
X132070840Y-90264307D01*
X132064895Y-90315162D01*
X132052152Y-90362571D01*
X132025260Y-90419748D01*
X131987897Y-90469177D01*
X131940984Y-90509930D01*
X131885442Y-90541081D01*
X131838678Y-90557584D01*
X131787968Y-90567773D01*
X131733701Y-90571256D01*
X131695731Y-90569548D01*
X131642164Y-90560749D01*
X131592933Y-90544790D01*
X131548345Y-90522033D01*
X131508707Y-90492842D01*
X131474326Y-90457581D01*
X131445509Y-90416613D01*
X131422561Y-90370301D01*
X131405790Y-90319009D01*
X131395502Y-90263100D01*
X131393567Y-90229805D01*
X131491412Y-90229805D01*
X131496022Y-90280964D01*
X131509383Y-90328311D01*
X131537311Y-90380720D01*
X131576425Y-90423912D01*
X131625344Y-90456076D01*
X131682688Y-90475400D01*
X131733701Y-90480398D01*
X131772555Y-90477917D01*
X131830959Y-90463282D01*
X131880535Y-90436580D01*
X131920259Y-90399036D01*
X131949110Y-90351875D01*
X131966063Y-90296321D01*
X131970372Y-90246657D01*
X131967835Y-90209854D01*
X131952859Y-90152983D01*
X131925531Y-90103177D01*
X131887098Y-90062148D01*
X131838806Y-90031607D01*
X131781901Y-90013263D01*
X131731014Y-90008521D01*
X131706146Y-90009736D01*
X131647730Y-90022698D01*
X131596062Y-90048075D01*
X131552869Y-90083671D01*
X131519878Y-90127290D01*
X131498816Y-90176733D01*
X131491412Y-90229805D01*
X131393567Y-90229805D01*
X131392005Y-90202938D01*
X131392738Y-90171974D01*
X131398436Y-90112588D01*
X131409398Y-90056509D01*
X131425173Y-90003640D01*
X131445310Y-89953885D01*
X131469357Y-89907147D01*
X131496863Y-89863330D01*
X131527376Y-89822336D01*
X131560444Y-89784070D01*
X131595617Y-89748434D01*
X131632442Y-89715333D01*
X131670468Y-89684669D01*
X131728772Y-89643033D01*
X131787238Y-89606337D01*
X131844343Y-89574257D01*
X131873652Y-89581340D01*
G37*
G36*
X132793226Y-89914731D02*
G01*
X132735829Y-89914731D01*
X132714824Y-89935736D01*
X132714824Y-90273280D01*
X132707051Y-90326168D01*
X132685303Y-90377685D01*
X132649465Y-90422903D01*
X132608752Y-90452220D01*
X132558106Y-90470890D01*
X132510393Y-90476246D01*
X132459096Y-90469947D01*
X132406702Y-90446686D01*
X132365507Y-90407854D01*
X132340653Y-90364793D01*
X132325199Y-90313021D01*
X132319884Y-90253496D01*
X132319884Y-89935736D01*
X132298879Y-89914731D01*
X132241482Y-89914731D01*
X132220477Y-89935736D01*
X132220477Y-90271814D01*
X132223385Y-90320908D01*
X132235967Y-90380828D01*
X132257877Y-90433800D01*
X132288439Y-90479152D01*
X132326978Y-90516212D01*
X132372819Y-90544306D01*
X132425286Y-90562763D01*
X132483703Y-90570909D01*
X132499158Y-90571256D01*
X132556715Y-90565642D01*
X132607839Y-90549940D01*
X132651969Y-90525859D01*
X132693868Y-90489456D01*
X132724594Y-90446692D01*
X132727281Y-90534864D01*
X132748286Y-90555625D01*
X132793226Y-90555625D01*
X132814231Y-90534864D01*
X132814231Y-89935736D01*
X132793226Y-89914731D01*
G37*
G36*
X133576757Y-90102310D02*
G01*
X133352787Y-90102310D01*
X133352787Y-89867104D01*
X133331782Y-89846099D01*
X133288307Y-89846099D01*
X133267302Y-89867104D01*
X133267302Y-90102310D01*
X133041866Y-90102310D01*
X133020861Y-90123315D01*
X133020861Y-90164103D01*
X133041866Y-90185108D01*
X133267302Y-90185108D01*
X133267302Y-90430084D01*
X133288307Y-90451089D01*
X133331782Y-90451089D01*
X133352787Y-90430084D01*
X133352787Y-90185108D01*
X133576757Y-90185108D01*
X133597762Y-90164103D01*
X133597762Y-90123315D01*
X133576757Y-90102310D01*
G37*
G36*
X134014929Y-89570837D02*
G01*
X133985620Y-89570837D01*
X133958997Y-89576455D01*
X133681782Y-89687341D01*
X133669081Y-89713964D01*
X133684468Y-89754508D01*
X133711091Y-89766964D01*
X133936527Y-89685876D01*
X133936527Y-90534620D01*
X133957532Y-90555625D01*
X134014929Y-90555625D01*
X134035934Y-90534620D01*
X134035934Y-89592086D01*
X134014929Y-89570837D01*
G37*
G36*
X134723148Y-89559893D02*
G01*
X134782950Y-89573869D01*
X134837780Y-89597009D01*
X134887257Y-89629188D01*
X134931001Y-89670280D01*
X134968631Y-89720160D01*
X134999768Y-89778701D01*
X135024030Y-89845778D01*
X135036198Y-89895177D01*
X135045028Y-89948276D01*
X135050410Y-90005040D01*
X135052228Y-90065429D01*
X135050410Y-90125528D01*
X135045028Y-90181972D01*
X135036198Y-90234731D01*
X135024030Y-90283775D01*
X134999768Y-90350305D01*
X134968631Y-90408302D01*
X134931001Y-90457661D01*
X134887257Y-90498278D01*
X134837780Y-90530050D01*
X134782950Y-90552873D01*
X134723148Y-90566643D01*
X134658753Y-90571256D01*
X134593974Y-90566642D01*
X134533720Y-90552863D01*
X134478393Y-90530018D01*
X134428399Y-90498201D01*
X134384139Y-90457510D01*
X134346017Y-90408041D01*
X134314437Y-90349891D01*
X134289801Y-90283156D01*
X134277435Y-90233945D01*
X134268454Y-90180990D01*
X134262978Y-90124320D01*
X134261171Y-90065429D01*
X134364685Y-90065429D01*
X134365035Y-90090829D01*
X134370198Y-90162164D01*
X134381267Y-90226207D01*
X134397912Y-90282967D01*
X134419799Y-90332452D01*
X134446598Y-90374671D01*
X134489394Y-90419674D01*
X134539544Y-90451795D01*
X134596259Y-90471052D01*
X134658753Y-90477467D01*
X134690385Y-90475863D01*
X134749449Y-90463020D01*
X134802295Y-90437299D01*
X134848181Y-90398662D01*
X134886367Y-90347071D01*
X134909506Y-90299856D01*
X134927584Y-90245318D01*
X134940288Y-90183441D01*
X134947305Y-90114211D01*
X134948669Y-90063964D01*
X134948331Y-90038577D01*
X134943335Y-89967183D01*
X134932596Y-89902954D01*
X134916405Y-89845911D01*
X134895054Y-89796075D01*
X134868833Y-89753470D01*
X134826798Y-89707946D01*
X134777314Y-89675366D01*
X134721069Y-89655779D01*
X134658753Y-89649239D01*
X134611371Y-89652780D01*
X134553138Y-89668607D01*
X134501273Y-89697282D01*
X134456564Y-89738977D01*
X134428203Y-89778896D01*
X134404642Y-89826308D01*
X134386212Y-89881285D01*
X134373248Y-89943901D01*
X134366079Y-90014226D01*
X134364685Y-90065429D01*
X134261171Y-90065429D01*
X134261126Y-90063964D01*
X134262978Y-90002906D01*
X134268454Y-89945682D01*
X134277435Y-89892305D01*
X134289801Y-89842790D01*
X134314437Y-89775792D01*
X134346017Y-89717566D01*
X134384139Y-89668162D01*
X134428399Y-89627630D01*
X134478393Y-89596019D01*
X134533720Y-89573378D01*
X134593974Y-89559757D01*
X134658753Y-89555206D01*
X134723148Y-89559893D01*
G37*
G36*
X135801321Y-89914731D02*
G01*
X135743924Y-89914731D01*
X135722919Y-89935736D01*
X135722919Y-90273280D01*
X135715146Y-90326168D01*
X135693398Y-90377685D01*
X135657560Y-90422903D01*
X135616847Y-90452220D01*
X135566201Y-90470890D01*
X135518488Y-90476246D01*
X135467191Y-90469947D01*
X135414797Y-90446686D01*
X135373602Y-90407854D01*
X135348748Y-90364793D01*
X135333294Y-90313021D01*
X135327979Y-90253496D01*
X135327979Y-89935736D01*
X135306974Y-89914731D01*
X135249577Y-89914731D01*
X135228572Y-89935736D01*
X135228572Y-90271814D01*
X135231480Y-90320908D01*
X135244062Y-90380828D01*
X135265972Y-90433800D01*
X135296534Y-90479152D01*
X135335073Y-90516212D01*
X135380914Y-90544306D01*
X135433381Y-90562763D01*
X135491798Y-90570909D01*
X135507253Y-90571256D01*
X135564810Y-90565642D01*
X135615934Y-90549940D01*
X135660064Y-90525859D01*
X135701962Y-90489456D01*
X135732689Y-90446692D01*
X135735376Y-90534864D01*
X135756381Y-90555625D01*
X135801321Y-90555625D01*
X135822326Y-90534864D01*
X135822326Y-89935736D01*
X135801321Y-89914731D01*
G37*
G36*
X188404265Y-91063625D02*
G01*
X188468745Y-91063625D01*
X188492436Y-91048237D01*
X188895681Y-90146248D01*
X188901299Y-90119626D01*
X188901299Y-90099842D01*
X188880294Y-90078837D01*
X188262848Y-90078837D01*
X188241843Y-90099842D01*
X188241843Y-90151866D01*
X188262848Y-90172871D01*
X188778200Y-90172871D01*
X188388877Y-91038467D01*
X188404265Y-91063625D01*
G37*
G36*
X189592506Y-90422731D02*
G01*
X189535109Y-90422731D01*
X189514104Y-90443736D01*
X189514104Y-90781280D01*
X189506331Y-90834168D01*
X189484583Y-90885685D01*
X189448745Y-90930903D01*
X189408032Y-90960220D01*
X189357386Y-90978890D01*
X189309673Y-90984246D01*
X189258376Y-90977947D01*
X189205982Y-90954686D01*
X189164787Y-90915854D01*
X189139932Y-90872793D01*
X189124479Y-90821021D01*
X189119163Y-90761496D01*
X189119163Y-90443736D01*
X189098159Y-90422731D01*
X189040762Y-90422731D01*
X189019757Y-90443736D01*
X189019757Y-90779814D01*
X189022665Y-90828908D01*
X189035247Y-90888828D01*
X189057157Y-90941800D01*
X189087719Y-90987152D01*
X189126258Y-91024212D01*
X189172099Y-91052306D01*
X189224565Y-91070763D01*
X189282983Y-91078909D01*
X189298438Y-91079256D01*
X189355995Y-91073642D01*
X189407119Y-91057940D01*
X189451249Y-91033859D01*
X189493147Y-90997456D01*
X189523874Y-90954692D01*
X189526561Y-91042864D01*
X189547565Y-91063625D01*
X189592506Y-91063625D01*
X189613511Y-91042864D01*
X189613511Y-90443736D01*
X189592506Y-90422731D01*
G37*
G36*
X190149136Y-91226046D02*
G01*
X190174537Y-91188188D01*
X190170140Y-91158879D01*
X190122904Y-91121849D01*
X190077101Y-91081247D01*
X190040636Y-91043474D01*
X190004191Y-90998773D01*
X189969412Y-90946553D01*
X189937947Y-90886224D01*
X189911441Y-90817199D01*
X189897341Y-90766059D01*
X189886664Y-90710617D01*
X189879901Y-90650699D01*
X189877538Y-90586130D01*
X189879870Y-90522046D01*
X189886549Y-90462494D01*
X189897093Y-90407311D01*
X189911022Y-90356335D01*
X189927856Y-90309404D01*
X189957504Y-90246234D01*
X189990988Y-90191250D01*
X190026688Y-90143904D01*
X190062982Y-90103648D01*
X190109499Y-90060054D01*
X190150352Y-90026789D01*
X190167454Y-90013625D01*
X190171606Y-89985537D01*
X190149136Y-89949144D01*
X190121292Y-89942061D01*
X190074538Y-89975156D01*
X190034819Y-90007305D01*
X189992988Y-90046272D01*
X189950734Y-90092538D01*
X189909747Y-90146584D01*
X189871716Y-90208893D01*
X189848838Y-90255261D01*
X189828526Y-90305657D01*
X189811279Y-90360226D01*
X189797598Y-90419109D01*
X189787984Y-90482449D01*
X189782937Y-90550390D01*
X189782283Y-90586130D01*
X189784875Y-90656279D01*
X189792312Y-90721829D01*
X189804087Y-90782913D01*
X189819694Y-90839665D01*
X189838625Y-90892220D01*
X189860374Y-90940712D01*
X189884434Y-90985274D01*
X189923746Y-91045044D01*
X189965405Y-91096728D01*
X190007701Y-91140780D01*
X190048921Y-91177651D01*
X190099251Y-91216426D01*
X190121292Y-91231664D01*
X190149136Y-91226046D01*
G37*
G36*
X190547496Y-90078837D02*
G01*
X190518187Y-90078837D01*
X190491564Y-90084455D01*
X190214348Y-90195341D01*
X190201648Y-90221964D01*
X190217035Y-90262508D01*
X190243658Y-90274964D01*
X190469094Y-90193876D01*
X190469094Y-91042620D01*
X190490099Y-91063625D01*
X190547496Y-91063625D01*
X190568501Y-91042620D01*
X190568501Y-90100086D01*
X190547496Y-90078837D01*
G37*
G36*
X191255714Y-90067893D02*
G01*
X191315517Y-90081869D01*
X191370347Y-90105009D01*
X191419824Y-90137188D01*
X191463568Y-90178280D01*
X191501198Y-90228160D01*
X191532334Y-90286701D01*
X191556596Y-90353778D01*
X191568764Y-90403177D01*
X191577595Y-90456276D01*
X191582976Y-90513040D01*
X191584795Y-90573429D01*
X191582976Y-90633528D01*
X191577595Y-90689972D01*
X191568764Y-90742731D01*
X191556596Y-90791775D01*
X191532334Y-90858305D01*
X191501198Y-90916302D01*
X191463568Y-90965661D01*
X191419824Y-91006278D01*
X191370347Y-91038050D01*
X191315517Y-91060873D01*
X191255714Y-91074643D01*
X191191320Y-91079256D01*
X191126541Y-91074642D01*
X191066286Y-91060863D01*
X191010960Y-91038018D01*
X190960965Y-91006201D01*
X190916706Y-90965510D01*
X190878584Y-90916041D01*
X190847004Y-90857891D01*
X190822368Y-90791156D01*
X190810002Y-90741945D01*
X190801021Y-90688990D01*
X190795544Y-90632320D01*
X190793737Y-90573429D01*
X190897251Y-90573429D01*
X190897602Y-90598829D01*
X190902765Y-90670164D01*
X190913834Y-90734207D01*
X190930479Y-90790967D01*
X190952366Y-90840452D01*
X190979164Y-90882671D01*
X191021961Y-90927674D01*
X191072110Y-90959795D01*
X191128826Y-90979052D01*
X191191320Y-90985467D01*
X191222952Y-90983863D01*
X191282016Y-90971020D01*
X191334862Y-90945299D01*
X191380748Y-90906662D01*
X191418933Y-90855071D01*
X191442073Y-90807856D01*
X191460151Y-90753318D01*
X191472855Y-90691441D01*
X191479872Y-90622211D01*
X191481236Y-90571964D01*
X191480897Y-90546577D01*
X191475901Y-90475183D01*
X191465163Y-90410954D01*
X191448972Y-90353911D01*
X191427621Y-90304075D01*
X191401399Y-90261470D01*
X191359365Y-90215946D01*
X191309881Y-90183366D01*
X191253636Y-90163779D01*
X191191320Y-90157239D01*
X191143938Y-90160780D01*
X191085704Y-90176607D01*
X191033840Y-90205282D01*
X190989131Y-90246977D01*
X190960770Y-90286896D01*
X190937208Y-90334308D01*
X190918779Y-90389285D01*
X190905814Y-90451901D01*
X190898646Y-90522226D01*
X190897251Y-90573429D01*
X190793737Y-90573429D01*
X190793692Y-90571964D01*
X190795544Y-90510906D01*
X190801021Y-90453682D01*
X190810002Y-90400305D01*
X190822368Y-90350790D01*
X190847004Y-90283792D01*
X190878584Y-90225566D01*
X190916706Y-90176162D01*
X190960965Y-90135630D01*
X191010960Y-90104019D01*
X191066286Y-90081378D01*
X191126541Y-90067757D01*
X191191320Y-90063206D01*
X191255714Y-90067893D01*
G37*
G36*
X192333888Y-90422731D02*
G01*
X192276491Y-90422731D01*
X192255486Y-90443736D01*
X192255486Y-90781280D01*
X192247713Y-90834168D01*
X192225965Y-90885685D01*
X192190126Y-90930903D01*
X192149414Y-90960220D01*
X192098768Y-90978890D01*
X192051055Y-90984246D01*
X191999758Y-90977947D01*
X191947364Y-90954686D01*
X191906169Y-90915854D01*
X191881314Y-90872793D01*
X191865860Y-90821021D01*
X191860545Y-90761496D01*
X191860545Y-90443736D01*
X191839540Y-90422731D01*
X191782143Y-90422731D01*
X191761138Y-90443736D01*
X191761138Y-90779814D01*
X191764047Y-90828908D01*
X191776629Y-90888828D01*
X191798538Y-90941800D01*
X191829100Y-90987152D01*
X191867640Y-91024212D01*
X191913480Y-91052306D01*
X191965947Y-91070763D01*
X192024365Y-91078909D01*
X192039819Y-91079256D01*
X192097377Y-91073642D01*
X192148501Y-91057940D01*
X192192631Y-91033859D01*
X192234529Y-90997456D01*
X192265256Y-90954692D01*
X192267942Y-91042864D01*
X192288947Y-91063625D01*
X192333888Y-91063625D01*
X192354893Y-91042864D01*
X192354893Y-90443736D01*
X192333888Y-90422731D01*
G37*
G36*
X192498263Y-91231664D02*
G01*
X192544165Y-91198466D01*
X192583532Y-91166130D01*
X192625212Y-91126916D01*
X192667474Y-91080371D01*
X192708587Y-91026042D01*
X192746822Y-90963476D01*
X192769857Y-90916965D01*
X192790332Y-90866459D01*
X192807733Y-90811822D01*
X192821548Y-90752921D01*
X192831263Y-90689621D01*
X192836366Y-90621788D01*
X192837028Y-90586130D01*
X192834439Y-90516037D01*
X192827010Y-90450564D01*
X192815246Y-90389572D01*
X192799655Y-90332926D01*
X192780742Y-90280487D01*
X192759014Y-90232119D01*
X192734977Y-90187683D01*
X192695698Y-90128102D01*
X192654073Y-90076597D01*
X192611807Y-90032704D01*
X192570612Y-89995960D01*
X192520301Y-89957285D01*
X192498263Y-89942061D01*
X192470175Y-89949144D01*
X192447949Y-89985537D01*
X192452101Y-90015090D01*
X192498657Y-90051700D01*
X192543937Y-90092254D01*
X192580034Y-90130083D01*
X192616141Y-90174866D01*
X192650618Y-90227146D01*
X192681824Y-90287463D01*
X192708121Y-90356358D01*
X192722115Y-90407321D01*
X192732713Y-90462497D01*
X192739427Y-90522047D01*
X192741773Y-90586130D01*
X192739397Y-90650458D01*
X192732594Y-90710197D01*
X192721858Y-90765515D01*
X192707679Y-90816580D01*
X192690549Y-90863562D01*
X192660396Y-90926743D01*
X192626369Y-90981681D01*
X192590126Y-91028942D01*
X192553327Y-91069094D01*
X192517631Y-91102705D01*
X192474620Y-91138325D01*
X192447949Y-91158879D01*
X192443553Y-91188188D01*
X192470175Y-91226046D01*
X192498263Y-91231664D01*
G37*
G36*
X101690858Y-91317625D02*
G01*
X102274842Y-91317625D01*
X102295847Y-91296864D01*
X102295847Y-91249237D01*
X102274842Y-91228232D01*
X101867201Y-91228232D01*
X101908993Y-91194992D01*
X101948439Y-91160993D01*
X101986085Y-91125736D01*
X102021186Y-91090551D01*
X102060507Y-91048886D01*
X102068946Y-91039676D01*
X102106828Y-90996573D01*
X102140216Y-90954952D01*
X102169276Y-90914656D01*
X102201583Y-90862726D01*
X102226894Y-90812513D01*
X102245607Y-90763651D01*
X102258120Y-90715774D01*
X102265647Y-90656754D01*
X102266294Y-90633256D01*
X102263002Y-90581607D01*
X102253251Y-90533618D01*
X102230527Y-90475860D01*
X102197096Y-90425895D01*
X102153402Y-90384458D01*
X102099890Y-90352284D01*
X102053579Y-90334676D01*
X102002182Y-90323002D01*
X101945886Y-90317574D01*
X101926064Y-90317206D01*
X101875572Y-90319353D01*
X101820185Y-90326872D01*
X101770592Y-90338562D01*
X101720224Y-90355743D01*
X101672784Y-90377534D01*
X101664235Y-90405622D01*
X101685240Y-90449097D01*
X101713328Y-90459111D01*
X101758401Y-90438882D01*
X101807462Y-90422949D01*
X101858202Y-90412880D01*
X101908058Y-90408616D01*
X101926064Y-90408308D01*
X101978093Y-90412444D01*
X102035457Y-90428685D01*
X102083478Y-90456256D01*
X102121277Y-90494118D01*
X102147977Y-90541230D01*
X102162701Y-90596553D01*
X102165422Y-90633256D01*
X102162054Y-90683292D01*
X102150387Y-90734712D01*
X102130136Y-90787862D01*
X102107562Y-90831862D01*
X102079166Y-90877368D01*
X102044802Y-90924559D01*
X102004323Y-90973612D01*
X101993230Y-90986187D01*
X101959125Y-91023154D01*
X101914263Y-91068101D01*
X101870617Y-91108298D01*
X101828750Y-91143972D01*
X101789227Y-91175353D01*
X101743977Y-91208891D01*
X101697224Y-91241383D01*
X101683775Y-91250458D01*
X101669853Y-91275859D01*
X101669853Y-91296864D01*
X101690858Y-91317625D01*
G37*
G36*
X103030286Y-90676731D02*
G01*
X102972889Y-90676731D01*
X102951884Y-90697736D01*
X102951884Y-91035280D01*
X102944111Y-91088168D01*
X102922363Y-91139685D01*
X102886524Y-91184903D01*
X102845811Y-91214220D01*
X102795166Y-91232890D01*
X102747452Y-91238246D01*
X102696156Y-91231947D01*
X102643761Y-91208686D01*
X102602566Y-91169854D01*
X102577712Y-91126793D01*
X102562258Y-91075021D01*
X102556943Y-91015496D01*
X102556943Y-90697736D01*
X102535938Y-90676731D01*
X102478541Y-90676731D01*
X102457536Y-90697736D01*
X102457536Y-91033814D01*
X102460445Y-91082908D01*
X102473026Y-91142828D01*
X102494936Y-91195800D01*
X102525498Y-91241152D01*
X102564037Y-91278212D01*
X102609878Y-91306306D01*
X102662345Y-91324763D01*
X102720762Y-91332909D01*
X102736217Y-91333256D01*
X102793775Y-91327642D01*
X102844899Y-91311940D01*
X102889029Y-91287859D01*
X102930927Y-91251456D01*
X102961653Y-91208692D01*
X102964340Y-91296864D01*
X102985345Y-91317625D01*
X103030286Y-91317625D01*
X103051290Y-91296864D01*
X103051290Y-90697736D01*
X103030286Y-90676731D01*
G37*
G36*
X113628858Y-90301625D02*
G01*
X114212842Y-90301625D01*
X114233847Y-90280864D01*
X114233847Y-90233237D01*
X114212842Y-90212232D01*
X113805201Y-90212232D01*
X113846993Y-90178992D01*
X113886439Y-90144993D01*
X113924085Y-90109736D01*
X113959186Y-90074551D01*
X113998507Y-90032886D01*
X114006946Y-90023676D01*
X114044828Y-89980573D01*
X114078216Y-89938952D01*
X114107276Y-89898656D01*
X114139583Y-89846726D01*
X114164894Y-89796513D01*
X114183607Y-89747651D01*
X114196120Y-89699774D01*
X114203647Y-89640754D01*
X114204294Y-89617256D01*
X114201002Y-89565607D01*
X114191251Y-89517618D01*
X114168527Y-89459860D01*
X114135096Y-89409895D01*
X114091402Y-89368458D01*
X114037890Y-89336284D01*
X113991579Y-89318676D01*
X113940182Y-89307002D01*
X113883886Y-89301574D01*
X113864064Y-89301206D01*
X113813572Y-89303353D01*
X113758185Y-89310872D01*
X113708592Y-89322562D01*
X113658224Y-89339743D01*
X113610784Y-89361534D01*
X113602235Y-89389622D01*
X113623240Y-89433097D01*
X113651328Y-89443111D01*
X113696401Y-89422882D01*
X113745462Y-89406949D01*
X113796202Y-89396880D01*
X113846058Y-89392616D01*
X113864064Y-89392308D01*
X113916093Y-89396444D01*
X113973457Y-89412685D01*
X114021478Y-89440256D01*
X114059277Y-89478118D01*
X114085977Y-89525230D01*
X114100701Y-89580553D01*
X114103422Y-89617256D01*
X114100054Y-89667292D01*
X114088387Y-89718712D01*
X114068136Y-89771862D01*
X114045562Y-89815862D01*
X114017166Y-89861368D01*
X113982802Y-89908559D01*
X113942323Y-89957612D01*
X113931230Y-89970187D01*
X113897125Y-90007154D01*
X113852263Y-90052101D01*
X113808617Y-90092298D01*
X113766750Y-90127972D01*
X113727227Y-90159353D01*
X113681977Y-90192891D01*
X113635224Y-90225383D01*
X113621775Y-90234458D01*
X113607853Y-90259859D01*
X113607853Y-90280864D01*
X113628858Y-90301625D01*
G37*
G36*
X114968286Y-89660731D02*
G01*
X114910889Y-89660731D01*
X114889884Y-89681736D01*
X114889884Y-90019280D01*
X114882111Y-90072168D01*
X114860363Y-90123685D01*
X114824524Y-90168903D01*
X114783811Y-90198220D01*
X114733166Y-90216890D01*
X114685452Y-90222246D01*
X114634156Y-90215947D01*
X114581761Y-90192686D01*
X114540566Y-90153854D01*
X114515712Y-90110793D01*
X114500258Y-90059021D01*
X114494943Y-89999496D01*
X114494943Y-89681736D01*
X114473938Y-89660731D01*
X114416541Y-89660731D01*
X114395536Y-89681736D01*
X114395536Y-90017814D01*
X114398445Y-90066908D01*
X114411026Y-90126828D01*
X114432936Y-90179800D01*
X114463498Y-90225152D01*
X114502037Y-90262212D01*
X114547878Y-90290306D01*
X114600345Y-90308763D01*
X114658762Y-90316909D01*
X114674217Y-90317256D01*
X114731775Y-90311642D01*
X114782899Y-90295940D01*
X114827029Y-90271859D01*
X114868927Y-90235456D01*
X114899653Y-90192692D01*
X114902340Y-90280864D01*
X114923345Y-90301625D01*
X114968286Y-90301625D01*
X114989290Y-90280864D01*
X114989290Y-89681736D01*
X114968286Y-89660731D01*
G37*
G36*
X125566858Y-91063625D02*
G01*
X126150842Y-91063625D01*
X126171847Y-91042864D01*
X126171847Y-90995237D01*
X126150842Y-90974232D01*
X125743201Y-90974232D01*
X125784993Y-90940992D01*
X125824439Y-90906993D01*
X125862085Y-90871736D01*
X125897186Y-90836551D01*
X125936507Y-90794886D01*
X125944946Y-90785676D01*
X125982828Y-90742573D01*
X126016216Y-90700952D01*
X126045276Y-90660656D01*
X126077583Y-90608726D01*
X126102894Y-90558513D01*
X126121607Y-90509651D01*
X126134120Y-90461774D01*
X126141647Y-90402754D01*
X126142294Y-90379256D01*
X126139002Y-90327607D01*
X126129251Y-90279618D01*
X126106527Y-90221860D01*
X126073096Y-90171895D01*
X126029402Y-90130458D01*
X125975890Y-90098284D01*
X125929579Y-90080676D01*
X125878182Y-90069002D01*
X125821886Y-90063574D01*
X125802064Y-90063206D01*
X125751572Y-90065353D01*
X125696185Y-90072872D01*
X125646592Y-90084562D01*
X125596224Y-90101743D01*
X125548784Y-90123534D01*
X125540235Y-90151622D01*
X125561240Y-90195097D01*
X125589328Y-90205111D01*
X125634401Y-90184882D01*
X125683462Y-90168949D01*
X125734202Y-90158880D01*
X125784058Y-90154616D01*
X125802064Y-90154308D01*
X125854093Y-90158444D01*
X125911457Y-90174685D01*
X125959478Y-90202256D01*
X125997277Y-90240118D01*
X126023977Y-90287230D01*
X126038701Y-90342553D01*
X126041422Y-90379256D01*
X126038054Y-90429292D01*
X126026387Y-90480712D01*
X126006136Y-90533862D01*
X125983562Y-90577862D01*
X125955166Y-90623368D01*
X125920802Y-90670559D01*
X125880323Y-90719612D01*
X125869230Y-90732187D01*
X125835125Y-90769154D01*
X125790263Y-90814101D01*
X125746617Y-90854298D01*
X125704750Y-90889972D01*
X125665227Y-90921353D01*
X125619977Y-90954891D01*
X125573224Y-90987383D01*
X125559775Y-90996458D01*
X125545853Y-91021859D01*
X125545853Y-91042864D01*
X125566858Y-91063625D01*
G37*
G36*
X126906286Y-90422731D02*
G01*
X126848889Y-90422731D01*
X126827884Y-90443736D01*
X126827884Y-90781280D01*
X126820111Y-90834168D01*
X126798363Y-90885685D01*
X126762524Y-90930903D01*
X126721811Y-90960220D01*
X126671166Y-90978890D01*
X126623452Y-90984246D01*
X126572156Y-90977947D01*
X126519761Y-90954686D01*
X126478566Y-90915854D01*
X126453712Y-90872793D01*
X126438258Y-90821021D01*
X126432943Y-90761496D01*
X126432943Y-90443736D01*
X126411938Y-90422731D01*
X126354541Y-90422731D01*
X126333536Y-90443736D01*
X126333536Y-90779814D01*
X126336445Y-90828908D01*
X126349026Y-90888828D01*
X126370936Y-90941800D01*
X126401498Y-90987152D01*
X126440037Y-91024212D01*
X126485878Y-91052306D01*
X126538345Y-91070763D01*
X126596762Y-91078909D01*
X126612217Y-91079256D01*
X126669775Y-91073642D01*
X126720899Y-91057940D01*
X126765029Y-91033859D01*
X126806927Y-90997456D01*
X126837653Y-90954692D01*
X126840340Y-91042864D01*
X126861345Y-91063625D01*
X126906286Y-91063625D01*
X126927290Y-91042864D01*
X126927290Y-90443736D01*
X126906286Y-90422731D01*
G37*
G36*
X178355652Y-90597340D02*
G01*
X178383740Y-90642769D01*
X178376657Y-90670368D01*
X178323347Y-90700126D01*
X178268366Y-90733856D01*
X178227011Y-90762057D01*
X178186316Y-90792978D01*
X178146967Y-90826825D01*
X178109650Y-90863807D01*
X178075050Y-90904131D01*
X178043855Y-90948005D01*
X178016748Y-90995638D01*
X177994417Y-91047235D01*
X178005015Y-91034639D01*
X178040728Y-91000852D01*
X178081888Y-90973530D01*
X178127947Y-90953273D01*
X178178352Y-90940680D01*
X178232554Y-90936349D01*
X178285107Y-90939869D01*
X178333890Y-90950158D01*
X178392541Y-90973708D01*
X178443222Y-91007616D01*
X178485209Y-91050921D01*
X178517778Y-91102666D01*
X178540205Y-91161891D01*
X178549934Y-91210642D01*
X178553244Y-91262657D01*
X178552840Y-91280307D01*
X178546895Y-91331162D01*
X178534152Y-91378571D01*
X178507260Y-91435748D01*
X178469897Y-91485177D01*
X178422984Y-91525930D01*
X178367442Y-91557081D01*
X178320678Y-91573584D01*
X178269968Y-91583773D01*
X178215701Y-91587256D01*
X178177731Y-91585548D01*
X178124164Y-91576749D01*
X178074933Y-91560790D01*
X178030345Y-91538033D01*
X177990707Y-91508842D01*
X177956326Y-91473581D01*
X177927509Y-91432613D01*
X177904561Y-91386301D01*
X177887790Y-91335009D01*
X177877502Y-91279100D01*
X177875567Y-91245805D01*
X177973412Y-91245805D01*
X177978022Y-91296964D01*
X177991383Y-91344311D01*
X178019311Y-91396720D01*
X178058425Y-91439912D01*
X178107344Y-91472076D01*
X178164688Y-91491400D01*
X178215701Y-91496398D01*
X178254555Y-91493917D01*
X178312959Y-91479282D01*
X178362535Y-91452580D01*
X178402259Y-91415036D01*
X178431110Y-91367875D01*
X178448063Y-91312321D01*
X178452372Y-91262657D01*
X178449835Y-91225854D01*
X178434859Y-91168983D01*
X178407531Y-91119177D01*
X178369098Y-91078148D01*
X178320806Y-91047607D01*
X178263901Y-91029263D01*
X178213014Y-91024521D01*
X178188146Y-91025736D01*
X178129730Y-91038698D01*
X178078062Y-91064075D01*
X178034869Y-91099671D01*
X178001878Y-91143290D01*
X177980816Y-91192733D01*
X177973412Y-91245805D01*
X177875567Y-91245805D01*
X177874005Y-91218938D01*
X177874738Y-91187974D01*
X177880436Y-91128588D01*
X177891398Y-91072509D01*
X177907173Y-91019640D01*
X177927310Y-90969885D01*
X177951357Y-90923147D01*
X177978863Y-90879330D01*
X178009376Y-90838336D01*
X178042444Y-90800070D01*
X178077617Y-90764434D01*
X178114442Y-90731333D01*
X178152468Y-90700669D01*
X178210772Y-90659033D01*
X178269238Y-90622337D01*
X178326343Y-90590257D01*
X178355652Y-90597340D01*
G37*
G36*
X179275226Y-90930731D02*
G01*
X179217829Y-90930731D01*
X179196824Y-90951736D01*
X179196824Y-91289280D01*
X179189051Y-91342168D01*
X179167303Y-91393685D01*
X179131465Y-91438903D01*
X179090752Y-91468220D01*
X179040106Y-91486890D01*
X178992393Y-91492246D01*
X178941096Y-91485947D01*
X178888702Y-91462686D01*
X178847507Y-91423854D01*
X178822653Y-91380793D01*
X178807199Y-91329021D01*
X178801884Y-91269496D01*
X178801884Y-90951736D01*
X178780879Y-90930731D01*
X178723482Y-90930731D01*
X178702477Y-90951736D01*
X178702477Y-91287814D01*
X178705385Y-91336908D01*
X178717967Y-91396828D01*
X178739877Y-91449800D01*
X178770439Y-91495152D01*
X178808978Y-91532212D01*
X178854819Y-91560306D01*
X178907286Y-91578763D01*
X178965703Y-91586909D01*
X178981158Y-91587256D01*
X179038715Y-91581642D01*
X179089839Y-91565940D01*
X179133969Y-91541859D01*
X179175868Y-91505456D01*
X179206594Y-91462692D01*
X179209281Y-91550864D01*
X179230286Y-91571625D01*
X179275226Y-91571625D01*
X179296231Y-91550864D01*
X179296231Y-90951736D01*
X179275226Y-90930731D01*
G37*
G36*
X87677652Y-90343340D02*
G01*
X87705740Y-90388769D01*
X87698657Y-90416368D01*
X87645347Y-90446126D01*
X87590366Y-90479856D01*
X87549011Y-90508057D01*
X87508316Y-90538978D01*
X87468967Y-90572825D01*
X87431650Y-90609807D01*
X87397050Y-90650131D01*
X87365855Y-90694005D01*
X87338748Y-90741638D01*
X87316417Y-90793235D01*
X87327015Y-90780639D01*
X87362728Y-90746852D01*
X87403888Y-90719530D01*
X87449947Y-90699273D01*
X87500352Y-90686680D01*
X87554554Y-90682349D01*
X87607107Y-90685869D01*
X87655890Y-90696158D01*
X87714541Y-90719708D01*
X87765222Y-90753616D01*
X87807209Y-90796921D01*
X87839778Y-90848666D01*
X87862205Y-90907891D01*
X87871934Y-90956642D01*
X87875244Y-91008657D01*
X87874840Y-91026307D01*
X87868895Y-91077162D01*
X87856152Y-91124571D01*
X87829260Y-91181748D01*
X87791897Y-91231177D01*
X87744984Y-91271930D01*
X87689442Y-91303081D01*
X87642678Y-91319584D01*
X87591968Y-91329773D01*
X87537701Y-91333256D01*
X87499731Y-91331548D01*
X87446164Y-91322749D01*
X87396933Y-91306790D01*
X87352345Y-91284033D01*
X87312707Y-91254842D01*
X87278326Y-91219581D01*
X87249509Y-91178613D01*
X87226561Y-91132301D01*
X87209790Y-91081009D01*
X87199502Y-91025100D01*
X87197567Y-90991805D01*
X87295412Y-90991805D01*
X87300022Y-91042964D01*
X87313383Y-91090311D01*
X87341311Y-91142720D01*
X87380425Y-91185912D01*
X87429344Y-91218076D01*
X87486688Y-91237400D01*
X87537701Y-91242398D01*
X87576555Y-91239917D01*
X87634959Y-91225282D01*
X87684535Y-91198580D01*
X87724259Y-91161036D01*
X87753110Y-91113875D01*
X87770063Y-91058321D01*
X87774372Y-91008657D01*
X87771835Y-90971854D01*
X87756859Y-90914983D01*
X87729531Y-90865177D01*
X87691098Y-90824148D01*
X87642806Y-90793607D01*
X87585901Y-90775263D01*
X87535014Y-90770521D01*
X87510146Y-90771736D01*
X87451730Y-90784698D01*
X87400062Y-90810075D01*
X87356869Y-90845671D01*
X87323878Y-90889290D01*
X87302816Y-90938733D01*
X87295412Y-90991805D01*
X87197567Y-90991805D01*
X87196005Y-90964938D01*
X87196738Y-90933974D01*
X87202436Y-90874588D01*
X87213398Y-90818509D01*
X87229173Y-90765640D01*
X87249310Y-90715885D01*
X87273357Y-90669147D01*
X87300863Y-90625330D01*
X87331376Y-90584336D01*
X87364444Y-90546070D01*
X87399617Y-90510434D01*
X87436442Y-90477333D01*
X87474468Y-90446669D01*
X87532772Y-90405033D01*
X87591238Y-90368337D01*
X87648343Y-90336257D01*
X87677652Y-90343340D01*
G37*
G36*
X88597226Y-90676731D02*
G01*
X88539829Y-90676731D01*
X88518824Y-90697736D01*
X88518824Y-91035280D01*
X88511051Y-91088168D01*
X88489303Y-91139685D01*
X88453465Y-91184903D01*
X88412752Y-91214220D01*
X88362106Y-91232890D01*
X88314393Y-91238246D01*
X88263096Y-91231947D01*
X88210702Y-91208686D01*
X88169507Y-91169854D01*
X88144653Y-91126793D01*
X88129199Y-91075021D01*
X88123884Y-91015496D01*
X88123884Y-90697736D01*
X88102879Y-90676731D01*
X88045482Y-90676731D01*
X88024477Y-90697736D01*
X88024477Y-91033814D01*
X88027385Y-91082908D01*
X88039967Y-91142828D01*
X88061877Y-91195800D01*
X88092439Y-91241152D01*
X88130978Y-91278212D01*
X88176819Y-91306306D01*
X88229286Y-91324763D01*
X88287703Y-91332909D01*
X88303158Y-91333256D01*
X88360715Y-91327642D01*
X88411839Y-91311940D01*
X88455969Y-91287859D01*
X88497868Y-91251456D01*
X88528594Y-91208692D01*
X88531281Y-91296864D01*
X88552286Y-91317625D01*
X88597226Y-91317625D01*
X88618231Y-91296864D01*
X88618231Y-90697736D01*
X88597226Y-90676731D01*
G37*
D12*
%TO.C,Ref\u002A\u002A*%
X133044874Y-35713427D02*
X133102999Y-35750409D01*
X133155152Y-35823739D01*
X133200788Y-35926449D01*
X133283554Y-36198866D01*
X133337681Y-36495591D01*
X133363193Y-36809776D01*
X133360114Y-37134575D01*
X133328465Y-37463140D01*
X133268271Y-37788625D01*
X133193602Y-38061132D01*
X133119961Y-38292140D01*
X133216041Y-38516216D01*
X133300078Y-38731528D01*
X133359157Y-38932472D01*
X133397096Y-39135729D01*
X133417710Y-39357982D01*
X133420194Y-39408611D01*
X133432467Y-39695930D01*
X132846192Y-39721774D01*
X132621872Y-39732089D01*
X132435955Y-39741750D01*
X132284522Y-39751207D01*
X132163657Y-39760910D01*
X132069443Y-39771310D01*
X131997962Y-39782859D01*
X131945298Y-39796005D01*
X131907534Y-39811200D01*
X131880752Y-39828895D01*
X131875699Y-39833397D01*
X131833555Y-39897931D01*
X131830411Y-39969794D01*
X131866084Y-40040287D01*
X131880339Y-40055972D01*
X131909522Y-40082617D01*
X131938474Y-40097742D01*
X131978544Y-40103375D01*
X132041083Y-40101545D01*
X132107881Y-40096626D01*
X132244377Y-40086658D01*
X132399699Y-40076658D01*
X132564503Y-40067103D01*
X132729447Y-40058468D01*
X132885187Y-40051227D01*
X133022379Y-40045857D01*
X133131681Y-40042831D01*
X133175375Y-40042340D01*
X133261557Y-40043122D01*
X133313738Y-40047082D01*
X133340232Y-40056102D01*
X133349350Y-40072063D01*
X133350000Y-40081855D01*
X133341762Y-40125025D01*
X133318994Y-40198525D01*
X133284620Y-40294114D01*
X133241559Y-40403552D01*
X133205641Y-40489023D01*
X133163413Y-40586755D01*
X132955081Y-40546635D01*
X132810131Y-40519245D01*
X132658803Y-40491569D01*
X132507619Y-40464711D01*
X132363102Y-40439771D01*
X132231774Y-40417851D01*
X132120160Y-40400051D01*
X132034781Y-40387474D01*
X131982160Y-40381222D01*
X131972564Y-40380731D01*
X131910249Y-40399748D01*
X131858563Y-40448378D01*
X131829030Y-40513911D01*
X131826000Y-40542424D01*
X131828831Y-40581730D01*
X131840267Y-40614507D01*
X131864720Y-40642624D01*
X131906602Y-40667949D01*
X131970327Y-40692351D01*
X132060307Y-40717698D01*
X132180954Y-40745857D01*
X132336682Y-40778698D01*
X132427736Y-40797186D01*
X132594328Y-40831794D01*
X132731986Y-40862517D01*
X132837686Y-40888598D01*
X132908403Y-40909279D01*
X132941111Y-40923803D01*
X132942945Y-40926210D01*
X132932504Y-40953260D01*
X132895852Y-41002114D01*
X132838781Y-41066864D01*
X132767079Y-41141601D01*
X132686539Y-41220415D01*
X132602950Y-41297399D01*
X132522102Y-41366642D01*
X132474925Y-41403824D01*
X132330101Y-41513125D01*
X132341849Y-41640125D01*
X132366370Y-41802532D01*
X132411540Y-41994510D01*
X132475178Y-42209982D01*
X132555103Y-42442869D01*
X132649134Y-42687094D01*
X132755090Y-42936578D01*
X132870789Y-43185243D01*
X132959793Y-43362077D01*
X133012475Y-43465116D01*
X133056409Y-43554651D01*
X133088560Y-43624194D01*
X133105890Y-43667256D01*
X133107674Y-43678089D01*
X133083498Y-43680253D01*
X133026171Y-43677825D01*
X132944560Y-43671354D01*
X132858231Y-43662591D01*
X132733096Y-43651661D01*
X132573966Y-43642324D01*
X132389152Y-43634691D01*
X132186965Y-43628875D01*
X131975718Y-43624987D01*
X131763723Y-43623138D01*
X131559291Y-43623439D01*
X131370734Y-43626001D01*
X131206364Y-43630937D01*
X131074492Y-43638357D01*
X131070837Y-43638642D01*
X130422679Y-43710542D01*
X129781347Y-43823270D01*
X129149873Y-43976103D01*
X128531290Y-44168319D01*
X127993357Y-44372214D01*
X127883036Y-44417262D01*
X127786026Y-44455976D01*
X127709206Y-44485681D01*
X127659458Y-44503703D01*
X127644107Y-44507946D01*
X127625154Y-44491535D01*
X127587197Y-44446806D01*
X127535392Y-44380204D01*
X127474893Y-44298174D01*
X127462146Y-44280404D01*
X127265815Y-43994349D01*
X127092344Y-43716534D01*
X126930985Y-43429458D01*
X126878802Y-43330168D01*
X126817095Y-43206182D01*
X126751585Y-43066182D01*
X126684220Y-42915162D01*
X126616949Y-42758116D01*
X126551718Y-42600037D01*
X126490475Y-42445920D01*
X126435168Y-42300758D01*
X126387745Y-42169545D01*
X126350153Y-42057274D01*
X126324340Y-41968939D01*
X126312254Y-41909535D01*
X126315013Y-41884653D01*
X126344301Y-41872284D01*
X126401744Y-41856783D01*
X126460250Y-41844395D01*
X126521270Y-41832319D01*
X126614637Y-41813128D01*
X126731331Y-41788710D01*
X126862334Y-41760952D01*
X126998626Y-41731741D01*
X126999750Y-41731499D01*
X127150046Y-41698295D01*
X127264064Y-41671034D01*
X127347185Y-41648116D01*
X127404786Y-41627943D01*
X127442248Y-41608916D01*
X127460125Y-41594674D01*
X127500799Y-41529089D01*
X127500844Y-41458696D01*
X127460458Y-41389874D01*
X127453504Y-41382621D01*
X127431355Y-41362652D01*
X127406933Y-41348208D01*
X127375517Y-41339721D01*
X127332380Y-41337622D01*
X127272798Y-41342344D01*
X127192049Y-41354316D01*
X127085406Y-41373972D01*
X126948147Y-41401742D01*
X126775546Y-41438057D01*
X126722100Y-41449420D01*
X126584190Y-41478023D01*
X126459198Y-41502523D01*
X126353362Y-41521814D01*
X126272923Y-41534786D01*
X126224118Y-41540334D01*
X126212981Y-41539803D01*
X126195618Y-41516142D01*
X126169856Y-41459737D01*
X126138937Y-41378548D01*
X126106101Y-41280533D01*
X126101772Y-41266682D01*
X125987925Y-40903090D01*
X125883232Y-40577465D01*
X125786273Y-40286780D01*
X125695628Y-40028013D01*
X125609877Y-39798137D01*
X125527599Y-39594128D01*
X125447375Y-39412961D01*
X125367783Y-39251610D01*
X125287404Y-39107052D01*
X125204817Y-38976261D01*
X125118603Y-38856211D01*
X125027340Y-38743879D01*
X124929610Y-38636239D01*
X124823991Y-38530267D01*
X124811265Y-38518042D01*
X124644050Y-38357213D01*
X124505014Y-38221144D01*
X124391067Y-38106055D01*
X124299121Y-38008167D01*
X124252020Y-37953694D01*
X125212897Y-37953694D01*
X125228052Y-38065171D01*
X125270101Y-38154361D01*
X125327833Y-38217118D01*
X125377050Y-38234458D01*
X125458113Y-38233423D01*
X125565141Y-38214843D01*
X125692255Y-38179549D01*
X125761655Y-38155840D01*
X125903075Y-38096151D01*
X126039696Y-38022862D01*
X126165022Y-37940874D01*
X126272559Y-37855085D01*
X126355810Y-37770395D01*
X126408279Y-37691703D01*
X126420235Y-37659092D01*
X126418204Y-37584868D01*
X126380746Y-37505698D01*
X126313372Y-37427406D01*
X126221594Y-37355818D01*
X126110926Y-37296758D01*
X126058083Y-37276384D01*
X125950858Y-37251869D01*
X125829629Y-37243039D01*
X125711156Y-37249832D01*
X125612194Y-37272187D01*
X125597237Y-37278078D01*
X125468415Y-37356021D01*
X125362017Y-37466625D01*
X125281757Y-37604578D01*
X125231348Y-37764567D01*
X125222962Y-37813482D01*
X125212897Y-37953694D01*
X124252020Y-37953694D01*
X124226086Y-37923702D01*
X124168873Y-37848881D01*
X124124392Y-37779925D01*
X124089555Y-37713055D01*
X124061273Y-37644492D01*
X124036455Y-37570457D01*
X124036354Y-37570130D01*
X124000794Y-37391688D01*
X124000946Y-37351546D01*
X124426993Y-37351546D01*
X124443455Y-37439970D01*
X124497178Y-37526455D01*
X124543412Y-37571821D01*
X124627887Y-37619260D01*
X124717885Y-37624872D01*
X124811854Y-37588568D01*
X124813973Y-37587286D01*
X124874771Y-37528507D01*
X124902013Y-37452395D01*
X124895755Y-37367355D01*
X124856053Y-37281789D01*
X124811590Y-37229143D01*
X124725690Y-37167498D01*
X124638620Y-37145280D01*
X124555072Y-37163039D01*
X124508147Y-37193481D01*
X124448366Y-37267333D01*
X124426993Y-37351546D01*
X124000946Y-37351546D01*
X124001474Y-37212829D01*
X124036435Y-37040520D01*
X124103720Y-36881729D01*
X124201369Y-36743424D01*
X124292809Y-36657754D01*
X124300963Y-36649882D01*
X124880690Y-36649882D01*
X124903851Y-36752924D01*
X124927970Y-36808057D01*
X124987312Y-36887541D01*
X125063163Y-36935967D01*
X125146650Y-36951313D01*
X125228896Y-36931558D01*
X125287128Y-36889836D01*
X125334839Y-36815471D01*
X125349450Y-36729292D01*
X125334941Y-36639911D01*
X125300328Y-36566606D01*
X125760375Y-36566606D01*
X125787998Y-36661202D01*
X125837517Y-36741738D01*
X125885893Y-36784088D01*
X125965197Y-36818944D01*
X126034306Y-36816413D01*
X126097985Y-36780506D01*
X126173211Y-36696884D01*
X126210884Y-36597149D01*
X126209535Y-36487322D01*
X126187319Y-36414045D01*
X126133991Y-36332484D01*
X126057042Y-36286047D01*
X125977662Y-36274375D01*
X125893499Y-36294067D01*
X125822606Y-36347696D01*
X125773897Y-36427090D01*
X125760779Y-36473186D01*
X125760375Y-36566606D01*
X125300328Y-36566606D01*
X125295292Y-36555941D01*
X125234482Y-36485993D01*
X125156490Y-36438681D01*
X125071198Y-36422542D01*
X124985527Y-36439731D01*
X124923742Y-36487325D01*
X124888058Y-36559362D01*
X124880690Y-36649882D01*
X124300963Y-36649882D01*
X124323076Y-36628536D01*
X124341894Y-36590964D01*
X124353543Y-36532833D01*
X124360441Y-36464959D01*
X124393451Y-36289662D01*
X124462779Y-36133754D01*
X124570830Y-35992094D01*
X124591953Y-35970327D01*
X124723943Y-35867221D01*
X124875782Y-35798586D01*
X125040925Y-35765796D01*
X125212823Y-35770224D01*
X125368410Y-35807343D01*
X125483070Y-35846930D01*
X125641603Y-35783450D01*
X125731019Y-35750119D01*
X125802642Y-35731929D01*
X125876481Y-35725473D01*
X125971443Y-35727297D01*
X126075169Y-35735168D01*
X126155540Y-35751335D01*
X126231358Y-35780248D01*
X126265607Y-35796876D01*
X126387179Y-35875678D01*
X126509678Y-35985861D01*
X126624144Y-36117642D01*
X126721618Y-36261239D01*
X126764879Y-36341998D01*
X126818004Y-36458447D01*
X126862467Y-36571744D01*
X126899407Y-36687831D01*
X126929960Y-36812651D01*
X126955263Y-36952146D01*
X126976454Y-37112259D01*
X126994669Y-37298931D01*
X127011047Y-37518107D01*
X127021314Y-37681958D01*
X127052755Y-38112850D01*
X127094709Y-38509412D01*
X127148635Y-38878669D01*
X127215989Y-39227645D01*
X127298231Y-39563364D01*
X127396817Y-39892850D01*
X127513207Y-40223127D01*
X127588939Y-40416569D01*
X127613195Y-40479463D01*
X127621196Y-40513871D01*
X127613647Y-40530094D01*
X127597184Y-40536818D01*
X127567163Y-40543243D01*
X127501439Y-40555991D01*
X127405983Y-40573949D01*
X127286765Y-40596001D01*
X127149758Y-40621035D01*
X127019326Y-40644626D01*
X126867084Y-40672315D01*
X126723256Y-40698998D01*
X126594777Y-40723347D01*
X126488584Y-40744036D01*
X126411610Y-40759736D01*
X126375801Y-40767794D01*
X126283839Y-40804921D01*
X126225231Y-40857910D01*
X126201881Y-40920753D01*
X126215692Y-40987440D01*
X126268567Y-41051961D01*
X126282347Y-41062857D01*
X126298122Y-41073937D01*
X126315118Y-41082015D01*
X126337901Y-41086609D01*
X126371035Y-41087239D01*
X126419086Y-41083423D01*
X126486620Y-41074681D01*
X126578201Y-41060531D01*
X126698396Y-41040493D01*
X126851770Y-41014086D01*
X127015244Y-40985644D01*
X127180832Y-40957008D01*
X127334224Y-40930883D01*
X127470138Y-40908137D01*
X127583290Y-40889638D01*
X127668399Y-40876255D01*
X127720182Y-40868857D01*
X127732897Y-40867650D01*
X127761056Y-40883165D01*
X127804002Y-40930875D01*
X127863276Y-41012707D01*
X127929450Y-41113352D01*
X128117254Y-41394794D01*
X128303999Y-41647382D01*
X128499352Y-41883216D01*
X128712979Y-42114393D01*
X128798458Y-42201042D01*
X128957826Y-42356465D01*
X129100759Y-42486869D01*
X129237359Y-42600214D01*
X129377734Y-42704459D01*
X129531987Y-42807566D01*
X129700745Y-42911807D01*
X129844330Y-42994510D01*
X129959328Y-43052257D01*
X130050148Y-43086618D01*
X130121194Y-43099162D01*
X130176876Y-43091459D01*
X130190009Y-43086035D01*
X130242932Y-43045771D01*
X130276504Y-42999890D01*
X130291996Y-42953241D01*
X130288035Y-42910441D01*
X130260818Y-42867309D01*
X130206539Y-42819660D01*
X130121394Y-42763310D01*
X130001576Y-42694077D01*
X129995083Y-42690467D01*
X129799252Y-42576683D01*
X129625764Y-42465709D01*
X129478318Y-42360296D01*
X129360613Y-42263195D01*
X129276350Y-42177155D01*
X129242956Y-42131285D01*
X129218530Y-42074924D01*
X129227884Y-42037581D01*
X129273316Y-42016827D01*
X129357123Y-42010230D01*
X129357383Y-42010229D01*
X129450776Y-42001766D01*
X129524701Y-41979207D01*
X129569621Y-41945939D01*
X129576734Y-41932367D01*
X129561885Y-41913459D01*
X129513850Y-41880409D01*
X129438010Y-41836528D01*
X129339747Y-41785127D01*
X129327102Y-41778809D01*
X129090771Y-41653293D01*
X128887150Y-41526575D01*
X128706996Y-41391776D01*
X128541068Y-41242014D01*
X128388625Y-41080103D01*
X128300167Y-40975804D01*
X128241931Y-40897958D01*
X128212690Y-40844683D01*
X128211219Y-40814091D01*
X128213596Y-40811056D01*
X128238650Y-40802293D01*
X128297299Y-40788263D01*
X128381396Y-40770742D01*
X128482794Y-40751501D01*
X128508198Y-40746931D01*
X128639628Y-40721636D01*
X128734597Y-40697575D01*
X128798744Y-40671564D01*
X128837709Y-40640416D01*
X128851284Y-40612829D01*
X129427177Y-40612829D01*
X129456423Y-40685186D01*
X129514453Y-40752595D01*
X129594982Y-40808063D01*
X129691725Y-40844593D01*
X129707567Y-40848070D01*
X129809132Y-40855609D01*
X129923482Y-40845295D01*
X130026242Y-40819554D01*
X130037417Y-40815227D01*
X130096780Y-40783569D01*
X130159329Y-40739846D01*
X130167472Y-40733166D01*
X130212948Y-40697932D01*
X130245309Y-40678420D01*
X130250590Y-40677042D01*
X130275296Y-40688237D01*
X130323768Y-40717516D01*
X130382378Y-40756417D01*
X130442974Y-40796015D01*
X130493276Y-40820343D01*
X130548111Y-40833781D01*
X130622308Y-40840707D01*
X130676632Y-40843324D01*
X130835343Y-40839164D01*
X130959757Y-40811619D01*
X131051098Y-40760336D01*
X131084939Y-40725440D01*
X131119542Y-40655889D01*
X131124890Y-40582417D01*
X131104464Y-40515621D01*
X131061740Y-40466095D01*
X131000198Y-40444435D01*
X130992607Y-40444208D01*
X130944037Y-40452670D01*
X130877359Y-40474170D01*
X130842273Y-40488491D01*
X130739389Y-40519343D01*
X130647332Y-40512670D01*
X130557819Y-40467000D01*
X130512404Y-40429966D01*
X130467689Y-40387362D01*
X130442761Y-40351746D01*
X130431890Y-40308232D01*
X130429344Y-40241930D01*
X130429349Y-40214203D01*
X130430830Y-40137835D01*
X130439152Y-40087894D01*
X130460844Y-40048476D01*
X130502437Y-40003675D01*
X130524627Y-39982115D01*
X130596179Y-39903920D01*
X130631309Y-39840350D01*
X130631245Y-39786678D01*
X130597218Y-39738177D01*
X130589775Y-39731497D01*
X130564508Y-39711875D01*
X130536932Y-39698284D01*
X130499151Y-39689624D01*
X130443265Y-39684792D01*
X130361377Y-39682688D01*
X130245590Y-39682209D01*
X130236357Y-39682208D01*
X130118592Y-39682535D01*
X130035419Y-39684287D01*
X129979100Y-39688618D01*
X129941895Y-39696683D01*
X129916064Y-39709639D01*
X129893869Y-39728640D01*
X129888288Y-39734163D01*
X129852875Y-39778080D01*
X129836471Y-39815188D01*
X129836333Y-39817623D01*
X129849972Y-39847106D01*
X129886169Y-39897258D01*
X129937847Y-39958517D01*
X129952750Y-39974872D01*
X130010654Y-40038970D01*
X130045261Y-40085122D01*
X130062557Y-40125957D01*
X130068524Y-40174105D01*
X130069167Y-40220547D01*
X130060141Y-40331086D01*
X130030121Y-40410355D01*
X129974691Y-40466036D01*
X129909321Y-40498668D01*
X129849104Y-40519822D01*
X129807374Y-40524386D01*
X129763604Y-40511432D01*
X129717804Y-40490008D01*
X129613905Y-40452718D01*
X129530351Y-40451183D01*
X129468274Y-40485195D01*
X129433002Y-40542520D01*
X129427177Y-40612829D01*
X128851284Y-40612829D01*
X128857132Y-40600947D01*
X128862654Y-40549972D01*
X128862667Y-40546734D01*
X128847082Y-40487278D01*
X128808291Y-40430781D01*
X128758235Y-40391191D01*
X128720754Y-40380983D01*
X128686022Y-40384278D01*
X128618944Y-40393069D01*
X128528956Y-40406042D01*
X128425495Y-40421886D01*
X128418167Y-40423042D01*
X128309541Y-40439276D01*
X128209205Y-40452615D01*
X128128301Y-40461682D01*
X128077967Y-40465100D01*
X128077872Y-40465100D01*
X128040201Y-40463832D01*
X128014439Y-40454324D01*
X127994068Y-40428522D01*
X127972568Y-40378370D01*
X127945333Y-40301333D01*
X127918563Y-40218308D01*
X127898647Y-40145574D01*
X127889108Y-40096311D01*
X127888753Y-40089667D01*
X127890011Y-40070960D01*
X127896923Y-40057224D01*
X127914525Y-40048300D01*
X127947853Y-40044028D01*
X128001943Y-40044250D01*
X128081830Y-40048805D01*
X128192551Y-40057534D01*
X128339142Y-40070279D01*
X128381853Y-40074062D01*
X128513551Y-40085390D01*
X128609975Y-40092457D01*
X128677976Y-40095213D01*
X128724403Y-40093612D01*
X128756107Y-40087605D01*
X128779938Y-40077144D01*
X128789560Y-40071205D01*
X128841073Y-40015959D01*
X128861068Y-39947009D01*
X128849991Y-39877006D01*
X128808290Y-39818604D01*
X128779989Y-39799653D01*
X128734192Y-39784244D01*
X128655633Y-39768967D01*
X128542315Y-39753579D01*
X128392239Y-39737837D01*
X128203409Y-39721499D01*
X128026583Y-39708087D01*
X127814917Y-39692792D01*
X127808305Y-39523458D01*
X127818317Y-39252409D01*
X127837849Y-39144865D01*
X128473060Y-39144865D01*
X128486621Y-39226064D01*
X128491082Y-39235450D01*
X128531444Y-39294781D01*
X128576802Y-39320765D01*
X128631078Y-39312626D01*
X128698192Y-39269586D01*
X128782063Y-39190869D01*
X128797429Y-39174775D01*
X128882823Y-39089344D01*
X128953341Y-39032984D01*
X129018673Y-39000291D01*
X129088508Y-38985858D01*
X129139891Y-38983708D01*
X129228843Y-38992949D01*
X129308741Y-39024133D01*
X129388629Y-39082448D01*
X129477553Y-39173085D01*
X129485344Y-39181905D01*
X129559540Y-39260694D01*
X129617768Y-39306096D01*
X129666933Y-39320344D01*
X129713940Y-39305672D01*
X129759159Y-39270469D01*
X129801698Y-39213908D01*
X129812197Y-39148323D01*
X129808691Y-39135233D01*
X130881860Y-39135233D01*
X130883090Y-39186943D01*
X130913625Y-39257226D01*
X130968357Y-39305921D01*
X131029930Y-39322375D01*
X131062954Y-39307296D01*
X131115753Y-39266232D01*
X131180673Y-39205441D01*
X131210429Y-39174775D01*
X131296014Y-39089192D01*
X131366708Y-39032750D01*
X131432112Y-39000060D01*
X131501825Y-38985733D01*
X131550833Y-38983708D01*
X131631998Y-38990025D01*
X131701659Y-39012754D01*
X131770210Y-39057564D01*
X131848046Y-39130120D01*
X131878917Y-39162593D01*
X131963384Y-39246644D01*
X132030787Y-39296714D01*
X132086414Y-39314770D01*
X132135556Y-39302780D01*
X132174185Y-39272448D01*
X132215817Y-39212338D01*
X132224614Y-39143608D01*
X132200387Y-39059694D01*
X132166121Y-38992644D01*
X132063980Y-38855612D01*
X131933256Y-38747070D01*
X131848242Y-38700210D01*
X131744716Y-38668498D01*
X131617715Y-38653390D01*
X131482616Y-38654681D01*
X131354797Y-38672162D01*
X131249633Y-38705626D01*
X131243917Y-38708365D01*
X131136639Y-38774290D01*
X131041071Y-38857531D01*
X130962936Y-38950497D01*
X130907957Y-39045595D01*
X130881860Y-39135233D01*
X129808691Y-39135233D01*
X129790473Y-39067218D01*
X129751200Y-38989280D01*
X129653363Y-38858547D01*
X129530764Y-38757825D01*
X129389807Y-38688478D01*
X129236900Y-38651871D01*
X129078446Y-38649366D01*
X128920851Y-38682328D01*
X128770521Y-38752121D01*
X128737704Y-38773487D01*
X128630051Y-38861443D01*
X128547945Y-38956616D01*
X128494559Y-39053070D01*
X128473060Y-39144865D01*
X127837849Y-39144865D01*
X127868518Y-38976013D01*
X127957889Y-38698617D01*
X128049683Y-38493181D01*
X128141819Y-38309571D01*
X128098921Y-38186265D01*
X128001102Y-37849600D01*
X127936982Y-37497212D01*
X127906105Y-37125405D01*
X127908015Y-36730481D01*
X127911387Y-36663946D01*
X127930287Y-36440095D01*
X127959585Y-36241362D01*
X127998297Y-36070247D01*
X128045440Y-35929249D01*
X128100030Y-35820868D01*
X128161084Y-35747605D01*
X128227617Y-35711960D01*
X128285721Y-35712591D01*
X128390209Y-35751938D01*
X128516055Y-35822263D01*
X128659552Y-35920428D01*
X128816990Y-36043298D01*
X128984663Y-36187736D01*
X129158861Y-36350605D01*
X129335877Y-36528768D01*
X129512002Y-36719089D01*
X129615076Y-36837073D01*
X129833633Y-37092855D01*
X129977858Y-37055252D01*
X130066595Y-37035417D01*
X130153565Y-37021336D01*
X130212042Y-37016428D01*
X130302000Y-37015208D01*
X130302000Y-37458330D01*
X130302968Y-37594414D01*
X130305671Y-37718934D01*
X130309807Y-37824639D01*
X130315074Y-37904277D01*
X130321169Y-37950599D01*
X130322742Y-37956007D01*
X130357588Y-38005942D01*
X130398904Y-38035813D01*
X130442723Y-38049063D01*
X130486301Y-38041303D01*
X130531621Y-38019678D01*
X130608917Y-37978292D01*
X130621874Y-37544375D01*
X130625965Y-37409141D01*
X130629819Y-37284936D01*
X130633197Y-37179246D01*
X130635858Y-37099560D01*
X130637564Y-37053365D01*
X130637749Y-37049210D01*
X130640667Y-36987962D01*
X130791469Y-37001978D01*
X130885551Y-37013592D01*
X130999333Y-37031774D01*
X131111393Y-37053030D01*
X131134436Y-37057934D01*
X131222929Y-37076464D01*
X131298258Y-37090807D01*
X131349058Y-37098860D01*
X131361284Y-37099875D01*
X131387080Y-37084377D01*
X131433294Y-37041944D01*
X131493858Y-36978662D01*
X131562704Y-36900619D01*
X131578293Y-36882153D01*
X131724133Y-36715198D01*
X131879626Y-36550143D01*
X132040683Y-36390413D01*
X132203214Y-36239435D01*
X132363130Y-36100636D01*
X132516341Y-35977442D01*
X132658759Y-35873281D01*
X132786292Y-35791578D01*
X132894853Y-35735760D01*
X132977575Y-35709684D01*
X133044874Y-35713427D01*
G36*
X133044874Y-35713427D02*
G01*
X133102999Y-35750409D01*
X133155152Y-35823739D01*
X133200788Y-35926449D01*
X133283554Y-36198866D01*
X133337681Y-36495591D01*
X133363193Y-36809776D01*
X133360114Y-37134575D01*
X133328465Y-37463140D01*
X133268271Y-37788625D01*
X133193602Y-38061132D01*
X133119961Y-38292140D01*
X133216041Y-38516216D01*
X133300078Y-38731528D01*
X133359157Y-38932472D01*
X133397096Y-39135729D01*
X133417710Y-39357982D01*
X133420194Y-39408611D01*
X133432467Y-39695930D01*
X132846192Y-39721774D01*
X132621872Y-39732089D01*
X132435955Y-39741750D01*
X132284522Y-39751207D01*
X132163657Y-39760910D01*
X132069443Y-39771310D01*
X131997962Y-39782859D01*
X131945298Y-39796005D01*
X131907534Y-39811200D01*
X131880752Y-39828895D01*
X131875699Y-39833397D01*
X131833555Y-39897931D01*
X131830411Y-39969794D01*
X131866084Y-40040287D01*
X131880339Y-40055972D01*
X131909522Y-40082617D01*
X131938474Y-40097742D01*
X131978544Y-40103375D01*
X132041083Y-40101545D01*
X132107881Y-40096626D01*
X132244377Y-40086658D01*
X132399699Y-40076658D01*
X132564503Y-40067103D01*
X132729447Y-40058468D01*
X132885187Y-40051227D01*
X133022379Y-40045857D01*
X133131681Y-40042831D01*
X133175375Y-40042340D01*
X133261557Y-40043122D01*
X133313738Y-40047082D01*
X133340232Y-40056102D01*
X133349350Y-40072063D01*
X133350000Y-40081855D01*
X133341762Y-40125025D01*
X133318994Y-40198525D01*
X133284620Y-40294114D01*
X133241559Y-40403552D01*
X133205641Y-40489023D01*
X133163413Y-40586755D01*
X132955081Y-40546635D01*
X132810131Y-40519245D01*
X132658803Y-40491569D01*
X132507619Y-40464711D01*
X132363102Y-40439771D01*
X132231774Y-40417851D01*
X132120160Y-40400051D01*
X132034781Y-40387474D01*
X131982160Y-40381222D01*
X131972564Y-40380731D01*
X131910249Y-40399748D01*
X131858563Y-40448378D01*
X131829030Y-40513911D01*
X131826000Y-40542424D01*
X131828831Y-40581730D01*
X131840267Y-40614507D01*
X131864720Y-40642624D01*
X131906602Y-40667949D01*
X131970327Y-40692351D01*
X132060307Y-40717698D01*
X132180954Y-40745857D01*
X132336682Y-40778698D01*
X132427736Y-40797186D01*
X132594328Y-40831794D01*
X132731986Y-40862517D01*
X132837686Y-40888598D01*
X132908403Y-40909279D01*
X132941111Y-40923803D01*
X132942945Y-40926210D01*
X132932504Y-40953260D01*
X132895852Y-41002114D01*
X132838781Y-41066864D01*
X132767079Y-41141601D01*
X132686539Y-41220415D01*
X132602950Y-41297399D01*
X132522102Y-41366642D01*
X132474925Y-41403824D01*
X132330101Y-41513125D01*
X132341849Y-41640125D01*
X132366370Y-41802532D01*
X132411540Y-41994510D01*
X132475178Y-42209982D01*
X132555103Y-42442869D01*
X132649134Y-42687094D01*
X132755090Y-42936578D01*
X132870789Y-43185243D01*
X132959793Y-43362077D01*
X133012475Y-43465116D01*
X133056409Y-43554651D01*
X133088560Y-43624194D01*
X133105890Y-43667256D01*
X133107674Y-43678089D01*
X133083498Y-43680253D01*
X133026171Y-43677825D01*
X132944560Y-43671354D01*
X132858231Y-43662591D01*
X132733096Y-43651661D01*
X132573966Y-43642324D01*
X132389152Y-43634691D01*
X132186965Y-43628875D01*
X131975718Y-43624987D01*
X131763723Y-43623138D01*
X131559291Y-43623439D01*
X131370734Y-43626001D01*
X131206364Y-43630937D01*
X131074492Y-43638357D01*
X131070837Y-43638642D01*
X130422679Y-43710542D01*
X129781347Y-43823270D01*
X129149873Y-43976103D01*
X128531290Y-44168319D01*
X127993357Y-44372214D01*
X127883036Y-44417262D01*
X127786026Y-44455976D01*
X127709206Y-44485681D01*
X127659458Y-44503703D01*
X127644107Y-44507946D01*
X127625154Y-44491535D01*
X127587197Y-44446806D01*
X127535392Y-44380204D01*
X127474893Y-44298174D01*
X127462146Y-44280404D01*
X127265815Y-43994349D01*
X127092344Y-43716534D01*
X126930985Y-43429458D01*
X126878802Y-43330168D01*
X126817095Y-43206182D01*
X126751585Y-43066182D01*
X126684220Y-42915162D01*
X126616949Y-42758116D01*
X126551718Y-42600037D01*
X126490475Y-42445920D01*
X126435168Y-42300758D01*
X126387745Y-42169545D01*
X126350153Y-42057274D01*
X126324340Y-41968939D01*
X126312254Y-41909535D01*
X126315013Y-41884653D01*
X126344301Y-41872284D01*
X126401744Y-41856783D01*
X126460250Y-41844395D01*
X126521270Y-41832319D01*
X126614637Y-41813128D01*
X126731331Y-41788710D01*
X126862334Y-41760952D01*
X126998626Y-41731741D01*
X126999750Y-41731499D01*
X127150046Y-41698295D01*
X127264064Y-41671034D01*
X127347185Y-41648116D01*
X127404786Y-41627943D01*
X127442248Y-41608916D01*
X127460125Y-41594674D01*
X127500799Y-41529089D01*
X127500844Y-41458696D01*
X127460458Y-41389874D01*
X127453504Y-41382621D01*
X127431355Y-41362652D01*
X127406933Y-41348208D01*
X127375517Y-41339721D01*
X127332380Y-41337622D01*
X127272798Y-41342344D01*
X127192049Y-41354316D01*
X127085406Y-41373972D01*
X126948147Y-41401742D01*
X126775546Y-41438057D01*
X126722100Y-41449420D01*
X126584190Y-41478023D01*
X126459198Y-41502523D01*
X126353362Y-41521814D01*
X126272923Y-41534786D01*
X126224118Y-41540334D01*
X126212981Y-41539803D01*
X126195618Y-41516142D01*
X126169856Y-41459737D01*
X126138937Y-41378548D01*
X126106101Y-41280533D01*
X126101772Y-41266682D01*
X125987925Y-40903090D01*
X125883232Y-40577465D01*
X125786273Y-40286780D01*
X125695628Y-40028013D01*
X125609877Y-39798137D01*
X125527599Y-39594128D01*
X125447375Y-39412961D01*
X125367783Y-39251610D01*
X125287404Y-39107052D01*
X125204817Y-38976261D01*
X125118603Y-38856211D01*
X125027340Y-38743879D01*
X124929610Y-38636239D01*
X124823991Y-38530267D01*
X124811265Y-38518042D01*
X124644050Y-38357213D01*
X124505014Y-38221144D01*
X124391067Y-38106055D01*
X124299121Y-38008167D01*
X124252020Y-37953694D01*
X125212897Y-37953694D01*
X125228052Y-38065171D01*
X125270101Y-38154361D01*
X125327833Y-38217118D01*
X125377050Y-38234458D01*
X125458113Y-38233423D01*
X125565141Y-38214843D01*
X125692255Y-38179549D01*
X125761655Y-38155840D01*
X125903075Y-38096151D01*
X126039696Y-38022862D01*
X126165022Y-37940874D01*
X126272559Y-37855085D01*
X126355810Y-37770395D01*
X126408279Y-37691703D01*
X126420235Y-37659092D01*
X126418204Y-37584868D01*
X126380746Y-37505698D01*
X126313372Y-37427406D01*
X126221594Y-37355818D01*
X126110926Y-37296758D01*
X126058083Y-37276384D01*
X125950858Y-37251869D01*
X125829629Y-37243039D01*
X125711156Y-37249832D01*
X125612194Y-37272187D01*
X125597237Y-37278078D01*
X125468415Y-37356021D01*
X125362017Y-37466625D01*
X125281757Y-37604578D01*
X125231348Y-37764567D01*
X125222962Y-37813482D01*
X125212897Y-37953694D01*
X124252020Y-37953694D01*
X124226086Y-37923702D01*
X124168873Y-37848881D01*
X124124392Y-37779925D01*
X124089555Y-37713055D01*
X124061273Y-37644492D01*
X124036455Y-37570457D01*
X124036354Y-37570130D01*
X124000794Y-37391688D01*
X124000946Y-37351546D01*
X124426993Y-37351546D01*
X124443455Y-37439970D01*
X124497178Y-37526455D01*
X124543412Y-37571821D01*
X124627887Y-37619260D01*
X124717885Y-37624872D01*
X124811854Y-37588568D01*
X124813973Y-37587286D01*
X124874771Y-37528507D01*
X124902013Y-37452395D01*
X124895755Y-37367355D01*
X124856053Y-37281789D01*
X124811590Y-37229143D01*
X124725690Y-37167498D01*
X124638620Y-37145280D01*
X124555072Y-37163039D01*
X124508147Y-37193481D01*
X124448366Y-37267333D01*
X124426993Y-37351546D01*
X124000946Y-37351546D01*
X124001474Y-37212829D01*
X124036435Y-37040520D01*
X124103720Y-36881729D01*
X124201369Y-36743424D01*
X124292809Y-36657754D01*
X124300963Y-36649882D01*
X124880690Y-36649882D01*
X124903851Y-36752924D01*
X124927970Y-36808057D01*
X124987312Y-36887541D01*
X125063163Y-36935967D01*
X125146650Y-36951313D01*
X125228896Y-36931558D01*
X125287128Y-36889836D01*
X125334839Y-36815471D01*
X125349450Y-36729292D01*
X125334941Y-36639911D01*
X125300328Y-36566606D01*
X125760375Y-36566606D01*
X125787998Y-36661202D01*
X125837517Y-36741738D01*
X125885893Y-36784088D01*
X125965197Y-36818944D01*
X126034306Y-36816413D01*
X126097985Y-36780506D01*
X126173211Y-36696884D01*
X126210884Y-36597149D01*
X126209535Y-36487322D01*
X126187319Y-36414045D01*
X126133991Y-36332484D01*
X126057042Y-36286047D01*
X125977662Y-36274375D01*
X125893499Y-36294067D01*
X125822606Y-36347696D01*
X125773897Y-36427090D01*
X125760779Y-36473186D01*
X125760375Y-36566606D01*
X125300328Y-36566606D01*
X125295292Y-36555941D01*
X125234482Y-36485993D01*
X125156490Y-36438681D01*
X125071198Y-36422542D01*
X124985527Y-36439731D01*
X124923742Y-36487325D01*
X124888058Y-36559362D01*
X124880690Y-36649882D01*
X124300963Y-36649882D01*
X124323076Y-36628536D01*
X124341894Y-36590964D01*
X124353543Y-36532833D01*
X124360441Y-36464959D01*
X124393451Y-36289662D01*
X124462779Y-36133754D01*
X124570830Y-35992094D01*
X124591953Y-35970327D01*
X124723943Y-35867221D01*
X124875782Y-35798586D01*
X125040925Y-35765796D01*
X125212823Y-35770224D01*
X125368410Y-35807343D01*
X125483070Y-35846930D01*
X125641603Y-35783450D01*
X125731019Y-35750119D01*
X125802642Y-35731929D01*
X125876481Y-35725473D01*
X125971443Y-35727297D01*
X126075169Y-35735168D01*
X126155540Y-35751335D01*
X126231358Y-35780248D01*
X126265607Y-35796876D01*
X126387179Y-35875678D01*
X126509678Y-35985861D01*
X126624144Y-36117642D01*
X126721618Y-36261239D01*
X126764879Y-36341998D01*
X126818004Y-36458447D01*
X126862467Y-36571744D01*
X126899407Y-36687831D01*
X126929960Y-36812651D01*
X126955263Y-36952146D01*
X126976454Y-37112259D01*
X126994669Y-37298931D01*
X127011047Y-37518107D01*
X127021314Y-37681958D01*
X127052755Y-38112850D01*
X127094709Y-38509412D01*
X127148635Y-38878669D01*
X127215989Y-39227645D01*
X127298231Y-39563364D01*
X127396817Y-39892850D01*
X127513207Y-40223127D01*
X127588939Y-40416569D01*
X127613195Y-40479463D01*
X127621196Y-40513871D01*
X127613647Y-40530094D01*
X127597184Y-40536818D01*
X127567163Y-40543243D01*
X127501439Y-40555991D01*
X127405983Y-40573949D01*
X127286765Y-40596001D01*
X127149758Y-40621035D01*
X127019326Y-40644626D01*
X126867084Y-40672315D01*
X126723256Y-40698998D01*
X126594777Y-40723347D01*
X126488584Y-40744036D01*
X126411610Y-40759736D01*
X126375801Y-40767794D01*
X126283839Y-40804921D01*
X126225231Y-40857910D01*
X126201881Y-40920753D01*
X126215692Y-40987440D01*
X126268567Y-41051961D01*
X126282347Y-41062857D01*
X126298122Y-41073937D01*
X126315118Y-41082015D01*
X126337901Y-41086609D01*
X126371035Y-41087239D01*
X126419086Y-41083423D01*
X126486620Y-41074681D01*
X126578201Y-41060531D01*
X126698396Y-41040493D01*
X126851770Y-41014086D01*
X127015244Y-40985644D01*
X127180832Y-40957008D01*
X127334224Y-40930883D01*
X127470138Y-40908137D01*
X127583290Y-40889638D01*
X127668399Y-40876255D01*
X127720182Y-40868857D01*
X127732897Y-40867650D01*
X127761056Y-40883165D01*
X127804002Y-40930875D01*
X127863276Y-41012707D01*
X127929450Y-41113352D01*
X128117254Y-41394794D01*
X128303999Y-41647382D01*
X128499352Y-41883216D01*
X128712979Y-42114393D01*
X128798458Y-42201042D01*
X128957826Y-42356465D01*
X129100759Y-42486869D01*
X129237359Y-42600214D01*
X129377734Y-42704459D01*
X129531987Y-42807566D01*
X129700745Y-42911807D01*
X129844330Y-42994510D01*
X129959328Y-43052257D01*
X130050148Y-43086618D01*
X130121194Y-43099162D01*
X130176876Y-43091459D01*
X130190009Y-43086035D01*
X130242932Y-43045771D01*
X130276504Y-42999890D01*
X130291996Y-42953241D01*
X130288035Y-42910441D01*
X130260818Y-42867309D01*
X130206539Y-42819660D01*
X130121394Y-42763310D01*
X130001576Y-42694077D01*
X129995083Y-42690467D01*
X129799252Y-42576683D01*
X129625764Y-42465709D01*
X129478318Y-42360296D01*
X129360613Y-42263195D01*
X129276350Y-42177155D01*
X129242956Y-42131285D01*
X129218530Y-42074924D01*
X129227884Y-42037581D01*
X129273316Y-42016827D01*
X129357123Y-42010230D01*
X129357383Y-42010229D01*
X129450776Y-42001766D01*
X129524701Y-41979207D01*
X129569621Y-41945939D01*
X129576734Y-41932367D01*
X129561885Y-41913459D01*
X129513850Y-41880409D01*
X129438010Y-41836528D01*
X129339747Y-41785127D01*
X129327102Y-41778809D01*
X129090771Y-41653293D01*
X128887150Y-41526575D01*
X128706996Y-41391776D01*
X128541068Y-41242014D01*
X128388625Y-41080103D01*
X128300167Y-40975804D01*
X128241931Y-40897958D01*
X128212690Y-40844683D01*
X128211219Y-40814091D01*
X128213596Y-40811056D01*
X128238650Y-40802293D01*
X128297299Y-40788263D01*
X128381396Y-40770742D01*
X128482794Y-40751501D01*
X128508198Y-40746931D01*
X128639628Y-40721636D01*
X128734597Y-40697575D01*
X128798744Y-40671564D01*
X128837709Y-40640416D01*
X128851284Y-40612829D01*
X129427177Y-40612829D01*
X129456423Y-40685186D01*
X129514453Y-40752595D01*
X129594982Y-40808063D01*
X129691725Y-40844593D01*
X129707567Y-40848070D01*
X129809132Y-40855609D01*
X129923482Y-40845295D01*
X130026242Y-40819554D01*
X130037417Y-40815227D01*
X130096780Y-40783569D01*
X130159329Y-40739846D01*
X130167472Y-40733166D01*
X130212948Y-40697932D01*
X130245309Y-40678420D01*
X130250590Y-40677042D01*
X130275296Y-40688237D01*
X130323768Y-40717516D01*
X130382378Y-40756417D01*
X130442974Y-40796015D01*
X130493276Y-40820343D01*
X130548111Y-40833781D01*
X130622308Y-40840707D01*
X130676632Y-40843324D01*
X130835343Y-40839164D01*
X130959757Y-40811619D01*
X131051098Y-40760336D01*
X131084939Y-40725440D01*
X131119542Y-40655889D01*
X131124890Y-40582417D01*
X131104464Y-40515621D01*
X131061740Y-40466095D01*
X131000198Y-40444435D01*
X130992607Y-40444208D01*
X130944037Y-40452670D01*
X130877359Y-40474170D01*
X130842273Y-40488491D01*
X130739389Y-40519343D01*
X130647332Y-40512670D01*
X130557819Y-40467000D01*
X130512404Y-40429966D01*
X130467689Y-40387362D01*
X130442761Y-40351746D01*
X130431890Y-40308232D01*
X130429344Y-40241930D01*
X130429349Y-40214203D01*
X130430830Y-40137835D01*
X130439152Y-40087894D01*
X130460844Y-40048476D01*
X130502437Y-40003675D01*
X130524627Y-39982115D01*
X130596179Y-39903920D01*
X130631309Y-39840350D01*
X130631245Y-39786678D01*
X130597218Y-39738177D01*
X130589775Y-39731497D01*
X130564508Y-39711875D01*
X130536932Y-39698284D01*
X130499151Y-39689624D01*
X130443265Y-39684792D01*
X130361377Y-39682688D01*
X130245590Y-39682209D01*
X130236357Y-39682208D01*
X130118592Y-39682535D01*
X130035419Y-39684287D01*
X129979100Y-39688618D01*
X129941895Y-39696683D01*
X129916064Y-39709639D01*
X129893869Y-39728640D01*
X129888288Y-39734163D01*
X129852875Y-39778080D01*
X129836471Y-39815188D01*
X129836333Y-39817623D01*
X129849972Y-39847106D01*
X129886169Y-39897258D01*
X129937847Y-39958517D01*
X129952750Y-39974872D01*
X130010654Y-40038970D01*
X130045261Y-40085122D01*
X130062557Y-40125957D01*
X130068524Y-40174105D01*
X130069167Y-40220547D01*
X130060141Y-40331086D01*
X130030121Y-40410355D01*
X129974691Y-40466036D01*
X129909321Y-40498668D01*
X129849104Y-40519822D01*
X129807374Y-40524386D01*
X129763604Y-40511432D01*
X129717804Y-40490008D01*
X129613905Y-40452718D01*
X129530351Y-40451183D01*
X129468274Y-40485195D01*
X129433002Y-40542520D01*
X129427177Y-40612829D01*
X128851284Y-40612829D01*
X128857132Y-40600947D01*
X128862654Y-40549972D01*
X128862667Y-40546734D01*
X128847082Y-40487278D01*
X128808291Y-40430781D01*
X128758235Y-40391191D01*
X128720754Y-40380983D01*
X128686022Y-40384278D01*
X128618944Y-40393069D01*
X128528956Y-40406042D01*
X128425495Y-40421886D01*
X128418167Y-40423042D01*
X128309541Y-40439276D01*
X128209205Y-40452615D01*
X128128301Y-40461682D01*
X128077967Y-40465100D01*
X128077872Y-40465100D01*
X128040201Y-40463832D01*
X128014439Y-40454324D01*
X127994068Y-40428522D01*
X127972568Y-40378370D01*
X127945333Y-40301333D01*
X127918563Y-40218308D01*
X127898647Y-40145574D01*
X127889108Y-40096311D01*
X127888753Y-40089667D01*
X127890011Y-40070960D01*
X127896923Y-40057224D01*
X127914525Y-40048300D01*
X127947853Y-40044028D01*
X128001943Y-40044250D01*
X128081830Y-40048805D01*
X128192551Y-40057534D01*
X128339142Y-40070279D01*
X128381853Y-40074062D01*
X128513551Y-40085390D01*
X128609975Y-40092457D01*
X128677976Y-40095213D01*
X128724403Y-40093612D01*
X128756107Y-40087605D01*
X128779938Y-40077144D01*
X128789560Y-40071205D01*
X128841073Y-40015959D01*
X128861068Y-39947009D01*
X128849991Y-39877006D01*
X128808290Y-39818604D01*
X128779989Y-39799653D01*
X128734192Y-39784244D01*
X128655633Y-39768967D01*
X128542315Y-39753579D01*
X128392239Y-39737837D01*
X128203409Y-39721499D01*
X128026583Y-39708087D01*
X127814917Y-39692792D01*
X127808305Y-39523458D01*
X127818317Y-39252409D01*
X127837849Y-39144865D01*
X128473060Y-39144865D01*
X128486621Y-39226064D01*
X128491082Y-39235450D01*
X128531444Y-39294781D01*
X128576802Y-39320765D01*
X128631078Y-39312626D01*
X128698192Y-39269586D01*
X128782063Y-39190869D01*
X128797429Y-39174775D01*
X128882823Y-39089344D01*
X128953341Y-39032984D01*
X129018673Y-39000291D01*
X129088508Y-38985858D01*
X129139891Y-38983708D01*
X129228843Y-38992949D01*
X129308741Y-39024133D01*
X129388629Y-39082448D01*
X129477553Y-39173085D01*
X129485344Y-39181905D01*
X129559540Y-39260694D01*
X129617768Y-39306096D01*
X129666933Y-39320344D01*
X129713940Y-39305672D01*
X129759159Y-39270469D01*
X129801698Y-39213908D01*
X129812197Y-39148323D01*
X129808691Y-39135233D01*
X130881860Y-39135233D01*
X130883090Y-39186943D01*
X130913625Y-39257226D01*
X130968357Y-39305921D01*
X131029930Y-39322375D01*
X131062954Y-39307296D01*
X131115753Y-39266232D01*
X131180673Y-39205441D01*
X131210429Y-39174775D01*
X131296014Y-39089192D01*
X131366708Y-39032750D01*
X131432112Y-39000060D01*
X131501825Y-38985733D01*
X131550833Y-38983708D01*
X131631998Y-38990025D01*
X131701659Y-39012754D01*
X131770210Y-39057564D01*
X131848046Y-39130120D01*
X131878917Y-39162593D01*
X131963384Y-39246644D01*
X132030787Y-39296714D01*
X132086414Y-39314770D01*
X132135556Y-39302780D01*
X132174185Y-39272448D01*
X132215817Y-39212338D01*
X132224614Y-39143608D01*
X132200387Y-39059694D01*
X132166121Y-38992644D01*
X132063980Y-38855612D01*
X131933256Y-38747070D01*
X131848242Y-38700210D01*
X131744716Y-38668498D01*
X131617715Y-38653390D01*
X131482616Y-38654681D01*
X131354797Y-38672162D01*
X131249633Y-38705626D01*
X131243917Y-38708365D01*
X131136639Y-38774290D01*
X131041071Y-38857531D01*
X130962936Y-38950497D01*
X130907957Y-39045595D01*
X130881860Y-39135233D01*
X129808691Y-39135233D01*
X129790473Y-39067218D01*
X129751200Y-38989280D01*
X129653363Y-38858547D01*
X129530764Y-38757825D01*
X129389807Y-38688478D01*
X129236900Y-38651871D01*
X129078446Y-38649366D01*
X128920851Y-38682328D01*
X128770521Y-38752121D01*
X128737704Y-38773487D01*
X128630051Y-38861443D01*
X128547945Y-38956616D01*
X128494559Y-39053070D01*
X128473060Y-39144865D01*
X127837849Y-39144865D01*
X127868518Y-38976013D01*
X127957889Y-38698617D01*
X128049683Y-38493181D01*
X128141819Y-38309571D01*
X128098921Y-38186265D01*
X128001102Y-37849600D01*
X127936982Y-37497212D01*
X127906105Y-37125405D01*
X127908015Y-36730481D01*
X127911387Y-36663946D01*
X127930287Y-36440095D01*
X127959585Y-36241362D01*
X127998297Y-36070247D01*
X128045440Y-35929249D01*
X128100030Y-35820868D01*
X128161084Y-35747605D01*
X128227617Y-35711960D01*
X128285721Y-35712591D01*
X128390209Y-35751938D01*
X128516055Y-35822263D01*
X128659552Y-35920428D01*
X128816990Y-36043298D01*
X128984663Y-36187736D01*
X129158861Y-36350605D01*
X129335877Y-36528768D01*
X129512002Y-36719089D01*
X129615076Y-36837073D01*
X129833633Y-37092855D01*
X129977858Y-37055252D01*
X130066595Y-37035417D01*
X130153565Y-37021336D01*
X130212042Y-37016428D01*
X130302000Y-37015208D01*
X130302000Y-37458330D01*
X130302968Y-37594414D01*
X130305671Y-37718934D01*
X130309807Y-37824639D01*
X130315074Y-37904277D01*
X130321169Y-37950599D01*
X130322742Y-37956007D01*
X130357588Y-38005942D01*
X130398904Y-38035813D01*
X130442723Y-38049063D01*
X130486301Y-38041303D01*
X130531621Y-38019678D01*
X130608917Y-37978292D01*
X130621874Y-37544375D01*
X130625965Y-37409141D01*
X130629819Y-37284936D01*
X130633197Y-37179246D01*
X130635858Y-37099560D01*
X130637564Y-37053365D01*
X130637749Y-37049210D01*
X130640667Y-36987962D01*
X130791469Y-37001978D01*
X130885551Y-37013592D01*
X130999333Y-37031774D01*
X131111393Y-37053030D01*
X131134436Y-37057934D01*
X131222929Y-37076464D01*
X131298258Y-37090807D01*
X131349058Y-37098860D01*
X131361284Y-37099875D01*
X131387080Y-37084377D01*
X131433294Y-37041944D01*
X131493858Y-36978662D01*
X131562704Y-36900619D01*
X131578293Y-36882153D01*
X131724133Y-36715198D01*
X131879626Y-36550143D01*
X132040683Y-36390413D01*
X132203214Y-36239435D01*
X132363130Y-36100636D01*
X132516341Y-35977442D01*
X132658759Y-35873281D01*
X132786292Y-35791578D01*
X132894853Y-35735760D01*
X132977575Y-35709684D01*
X133044874Y-35713427D01*
G37*
%TD*%
M02*
