%TF.GenerationSoftware,KiCad,Pcbnew,8.0.0*%
%TF.CreationDate,2024-02-25T16:00:08+01:00*%
%TF.ProjectId,QASS_PCB,51415353-5f50-4434-922e-6b696361645f,rev?*%
%TF.SameCoordinates,Original*%
%TF.FileFunction,Soldermask,Top*%
%TF.FilePolarity,Negative*%
%FSLAX46Y46*%
G04 Gerber Fmt 4.6, Leading zero omitted, Abs format (unit mm)*
G04 Created by KiCad (PCBNEW 8.0.0) date 2024-02-25 16:00:08*
%MOMM*%
%LPD*%
G01*
G04 APERTURE LIST*
G04 Aperture macros list*
%AMRoundRect*
0 Rectangle with rounded corners*
0 $1 Rounding radius*
0 $2 $3 $4 $5 $6 $7 $8 $9 X,Y pos of 4 corners*
0 Add a 4 corners polygon primitive as box body*
4,1,4,$2,$3,$4,$5,$6,$7,$8,$9,$2,$3,0*
0 Add four circle primitives for the rounded corners*
1,1,$1+$1,$2,$3*
1,1,$1+$1,$4,$5*
1,1,$1+$1,$6,$7*
1,1,$1+$1,$8,$9*
0 Add four rect primitives between the rounded corners*
20,1,$1+$1,$2,$3,$4,$5,0*
20,1,$1+$1,$4,$5,$6,$7,0*
20,1,$1+$1,$6,$7,$8,$9,0*
20,1,$1+$1,$8,$9,$2,$3,0*%
G04 Aperture macros list end*
%ADD10C,1.750000*%
%ADD11C,3.987800*%
%ADD12C,3.048000*%
%ADD13C,2.300000*%
%ADD14C,1.600000*%
%ADD15RoundRect,0.400000X0.400000X-0.400000X0.400000X0.400000X-0.400000X0.400000X-0.400000X-0.400000X0*%
%ADD16R,1.700000X1.700000*%
G04 APERTURE END LIST*
D10*
%TO.C,MX24*%
X80645000Y-67865625D03*
D11*
X85725000Y-67865625D03*
D10*
X90805000Y-67865625D03*
%TD*%
%TO.C,MX39*%
X213995000Y-86915625D03*
D11*
X219075000Y-86915625D03*
D10*
X224155000Y-86915625D03*
%TD*%
%TO.C,MX10*%
X199707500Y-29765625D03*
D11*
X204787500Y-29765625D03*
D10*
X209867500Y-29765625D03*
%TD*%
%TO.C,MX5*%
X104457500Y-29765625D03*
D11*
X109537500Y-29765625D03*
D10*
X114617500Y-29765625D03*
%TD*%
%TO.C,MX2*%
X47307500Y-29765625D03*
D11*
X52387500Y-29765625D03*
D10*
X57467500Y-29765625D03*
%TD*%
%TO.C,MX3*%
X66357500Y-29765625D03*
D11*
X71437500Y-29765625D03*
D10*
X76517500Y-29765625D03*
%TD*%
%TO.C,MX27*%
X137795000Y-67865625D03*
D11*
X142875000Y-67865625D03*
D10*
X147955000Y-67865625D03*
%TD*%
%TO.C,MX25*%
X99695000Y-67865625D03*
D11*
X104775000Y-67865625D03*
D10*
X109855000Y-67865625D03*
%TD*%
%TO.C,MX31*%
X221138750Y-67865625D03*
D11*
X226218750Y-67865625D03*
D10*
X231298750Y-67865625D03*
%TD*%
%TO.C,MX33*%
X61595000Y-86915625D03*
D11*
X66675000Y-86915625D03*
D10*
X71755000Y-86915625D03*
%TD*%
%TO.C,MX8*%
X161607500Y-29765625D03*
D11*
X166687500Y-29765625D03*
D10*
X171767500Y-29765625D03*
%TD*%
%TO.C,MX21*%
X226536250Y-48815625D03*
D11*
X221456250Y-48815625D03*
D10*
X216376250Y-48815625D03*
%TD*%
D12*
%TO.C,S5*%
X164306250Y-93900625D03*
D11*
X164306250Y-78660625D03*
D12*
X140493750Y-93900625D03*
D11*
X140493750Y-78660625D03*
%TD*%
D10*
%TO.C,MX36*%
X156845000Y-86915625D03*
D11*
X161925000Y-86915625D03*
D10*
X167005000Y-86915625D03*
%TD*%
%TO.C,MX14*%
X81280000Y-48815625D03*
D11*
X76200000Y-48815625D03*
D10*
X71120000Y-48815625D03*
%TD*%
%TO.C,MX16*%
X119380000Y-48815625D03*
D11*
X114300000Y-48815625D03*
D10*
X109220000Y-48815625D03*
%TD*%
%TO.C,MX38*%
X194945000Y-86915625D03*
D11*
X200025000Y-86915625D03*
D10*
X205105000Y-86915625D03*
%TD*%
%TO.C,MX13*%
X52070000Y-48815625D03*
D11*
X57150000Y-48815625D03*
D10*
X62230000Y-48815625D03*
%TD*%
%TO.C,MX19*%
X176530000Y-48815625D03*
D11*
X171450000Y-48815625D03*
D10*
X166370000Y-48815625D03*
%TD*%
%TO.C,MX22*%
X35401250Y-67865625D03*
D11*
X40481250Y-67865625D03*
D10*
X45561250Y-67865625D03*
%TD*%
%TO.C,MX17*%
X138430000Y-48815625D03*
D11*
X133350000Y-48815625D03*
D10*
X128270000Y-48815625D03*
%TD*%
%TO.C,MX11*%
X223520000Y-29765625D03*
D11*
X228600000Y-29765625D03*
D10*
X233680000Y-29765625D03*
%TD*%
D12*
%TO.C,S1*%
X233362500Y-55800625D03*
D11*
X233362500Y-40560625D03*
D12*
X209550000Y-55800625D03*
D11*
X209550000Y-40560625D03*
%TD*%
D10*
%TO.C,MX34*%
X80645000Y-86915625D03*
D11*
X85725000Y-86915625D03*
D10*
X90805000Y-86915625D03*
%TD*%
%TO.C,MX9*%
X180657500Y-29765625D03*
D11*
X185737500Y-29765625D03*
D10*
X190817500Y-29765625D03*
%TD*%
%TO.C,MX41*%
X128270000Y-86915625D03*
D11*
X133350000Y-86915625D03*
D10*
X138430000Y-86915625D03*
%TD*%
%TO.C,MX23*%
X61595000Y-67865625D03*
D11*
X66675000Y-67865625D03*
D10*
X71755000Y-67865625D03*
%TD*%
%TO.C,MX12*%
X30638750Y-48815625D03*
D11*
X35718750Y-48815625D03*
D10*
X40798750Y-48815625D03*
%TD*%
%TO.C,MX6*%
X123507500Y-29765625D03*
D11*
X128587500Y-29765625D03*
D10*
X133667500Y-29765625D03*
%TD*%
%TO.C,MX4*%
X85407500Y-29765625D03*
D11*
X90487500Y-29765625D03*
D10*
X95567500Y-29765625D03*
%TD*%
%TO.C,MX30*%
X194945000Y-67865625D03*
D11*
X200025000Y-67865625D03*
D10*
X205105000Y-67865625D03*
%TD*%
%TO.C,MX7*%
X142557500Y-29765625D03*
D11*
X147637500Y-29765625D03*
D10*
X152717500Y-29765625D03*
%TD*%
%TO.C,MX18*%
X157480000Y-48815625D03*
D11*
X152400000Y-48815625D03*
D10*
X147320000Y-48815625D03*
%TD*%
D12*
%TO.C,S2*%
X180975000Y-93900625D03*
D11*
X180975000Y-78660625D03*
D12*
X142875000Y-93900625D03*
D11*
X142875000Y-78660625D03*
%TD*%
D12*
%TO.C,S3*%
X123825000Y-93900625D03*
D11*
X123825000Y-78660625D03*
D12*
X85725000Y-93900625D03*
D11*
X85725000Y-78660625D03*
%TD*%
D10*
%TO.C,MX28*%
X156845000Y-67865625D03*
D11*
X161925000Y-67865625D03*
D10*
X167005000Y-67865625D03*
%TD*%
%TO.C,MX29*%
X175895000Y-67865625D03*
D11*
X180975000Y-67865625D03*
D10*
X186055000Y-67865625D03*
%TD*%
%TO.C,MX35*%
X99695000Y-86915625D03*
D11*
X104775000Y-86915625D03*
D10*
X109855000Y-86915625D03*
%TD*%
%TO.C,MX42*%
X147320000Y-86915625D03*
D11*
X152400000Y-86915625D03*
D10*
X157480000Y-86915625D03*
%TD*%
%TO.C,MX1*%
X28257500Y-29765625D03*
D11*
X33337500Y-29765625D03*
D10*
X38417500Y-29765625D03*
%TD*%
%TO.C,MX37*%
X175895000Y-86915625D03*
D11*
X180975000Y-86915625D03*
D10*
X186055000Y-86915625D03*
%TD*%
%TO.C,MX32*%
X42545000Y-86915625D03*
D11*
X47625000Y-86915625D03*
D10*
X52705000Y-86915625D03*
%TD*%
%TO.C,MX15*%
X90170000Y-48815625D03*
D11*
X95250000Y-48815625D03*
D10*
X100330000Y-48815625D03*
%TD*%
%TO.C,MX40*%
X109220000Y-86915625D03*
D11*
X114300000Y-86915625D03*
D10*
X119380000Y-86915625D03*
%TD*%
D11*
%TO.C,S7*%
X200025000Y-78660625D03*
X190500000Y-78660625D03*
X76200000Y-78660625D03*
X66675000Y-78660625D03*
%TD*%
D10*
%TO.C,MX26*%
X118745000Y-67865625D03*
D11*
X123825000Y-67865625D03*
D10*
X128905000Y-67865625D03*
%TD*%
D13*
%TO.C,MX20*%
X193040000Y-53895625D03*
X186690000Y-51355625D03*
D10*
X195580000Y-48815625D03*
D11*
X190500000Y-48815625D03*
D10*
X185420000Y-48815625D03*
%TD*%
D12*
%TO.C,S4*%
X126206250Y-93900625D03*
D11*
X126206250Y-78660625D03*
D12*
X102393750Y-93900625D03*
D11*
X102393750Y-78660625D03*
%TD*%
%TO.C,S6*%
X180975000Y-78660625D03*
X85725000Y-78660625D03*
%TD*%
D14*
%TO.C,U1*%
X136207500Y-20399375D03*
X136207500Y-22939375D03*
X136207500Y-25479375D03*
X136207500Y-28019375D03*
X136207500Y-30559375D03*
X136207500Y-33099375D03*
X136207500Y-35639375D03*
X120967500Y-35639375D03*
X120967500Y-33099375D03*
X120967500Y-30559375D03*
X120967500Y-28019375D03*
X120967500Y-25479375D03*
D15*
X120967500Y-22939375D03*
D14*
X120967500Y-20399375D03*
X134742500Y-37249375D03*
X122432500Y-37249375D03*
X122432500Y-18789375D03*
X134742500Y-18789375D03*
%TD*%
D16*
%TO.C,J1*%
X129920000Y-19446875D03*
X127380000Y-19446875D03*
%TD*%
M02*
