%TF.GenerationSoftware,KiCad,Pcbnew,8.0.0*%
%TF.CreationDate,2024-02-25T16:00:08+01:00*%
%TF.ProjectId,QASS_PCB,51415353-5f50-4434-922e-6b696361645f,rev?*%
%TF.SameCoordinates,Original*%
%TF.FileFunction,Profile,NP*%
%FSLAX46Y46*%
G04 Gerber Fmt 4.6, Leading zero omitted, Abs format (unit mm)*
G04 Created by KiCad (PCBNEW 8.0.0) date 2024-02-25 16:00:08*
%MOMM*%
%LPD*%
G01*
G04 APERTURE LIST*
%TA.AperFunction,Profile*%
%ADD10C,0.100000*%
%TD*%
G04 APERTURE END LIST*
D10*
X35099996Y-77390585D02*
X26812508Y-77390585D01*
X127545624Y-18157041D02*
X129778044Y-18157041D01*
X129778044Y-20835945D01*
X127545624Y-20835945D01*
X127545624Y-18157041D01*
X26807622Y-20235755D02*
X114143301Y-20093514D01*
X239887324Y-77390585D02*
X231599836Y-77390585D01*
X242887324Y-23663677D02*
X242887324Y-74390585D01*
X143812446Y-20239238D02*
G75*
G02*
X141833117Y-19707924I-173746J3305238D01*
G01*
X119580138Y-16582015D02*
G75*
G02*
X121454224Y-16073427I1773862J-2829285D01*
G01*
X41820696Y-96440569D02*
G75*
G02*
X38099976Y-92571042I380104J4089069D01*
G01*
X224879136Y-96440569D02*
X41820696Y-96440569D01*
X121454223Y-16073449D02*
X135689042Y-16073449D01*
X239166624Y-20091805D02*
G75*
G02*
X242887323Y-23663677I-278202J-4013594D01*
G01*
X23812508Y-23235751D02*
G75*
G02*
X26807622Y-20235755I3000086J-86D01*
G01*
X116012500Y-19436125D02*
X119580138Y-16582015D01*
X116012500Y-19436124D02*
G75*
G02*
X114143301Y-20093519I-1874100J2342624D01*
G01*
X228599836Y-80390585D02*
X228599836Y-92719869D01*
X228599836Y-80390585D02*
G75*
G02*
X231599836Y-77390636I2999964J-15D01*
G01*
X23812508Y-74390585D02*
X23812508Y-23235751D01*
X38099996Y-92571041D02*
X38099996Y-80390585D01*
X143812446Y-20239238D02*
X239166624Y-20091805D01*
X228599836Y-92719869D02*
G75*
G02*
X224879142Y-96440629I-4109336J388569D01*
G01*
X137219444Y-16668761D02*
X141833112Y-19707932D01*
X26812508Y-77390585D02*
G75*
G02*
X23812515Y-74390585I-8J2999985D01*
G01*
X242887324Y-74390585D02*
G75*
G02*
X239887324Y-77390624I-3000024J-15D01*
G01*
X35099996Y-77390585D02*
G75*
G02*
X38100015Y-80390585I4J-3000015D01*
G01*
X135689042Y-16073450D02*
G75*
G02*
X137219462Y-16668737I-245842J-2896950D01*
G01*
M02*
