<?xml version="1.0" encoding="UTF-8" standalone="no"?>
<!-- Created with Inkscape (http://www.inkscape.org/) -->

<svg
   width="210mm"
   height="297mm"
   viewBox="0 0 210 297"
   version="1.1"
   id="svg1"
   inkscape:version="1.3.2 (091e20e, 2023-11-25)"
   sodipodi:docname="Qass logo for Fusion.svg"
   xmlns:inkscape="http://www.inkscape.org/namespaces/inkscape"
   xmlns:sodipodi="http://sodipodi.sourceforge.net/DTD/sodipodi-0.dtd"
   xmlns="http://www.w3.org/2000/svg"
   xmlns:svg="http://www.w3.org/2000/svg">
  <sodipodi:namedview
     id="namedview1"
     pagecolor="#505050"
     bordercolor="#eeeeee"
     borderopacity="1"
     inkscape:showpageshadow="0"
     inkscape:pageopacity="0"
     inkscape:pagecheckerboard="0"
     inkscape:deskcolor="#d1d1d1"
     inkscape:document-units="mm"
     inkscape:zoom="0.44097222"
     inkscape:cx="396.85039"
     inkscape:cy="197.29134"
     inkscape:window-width="2800"
     inkscape:window-height="1417"
     inkscape:window-x="0"
     inkscape:window-y="25"
     inkscape:window-maximized="0"
     inkscape:current-layer="layer1" />
  <defs
     id="defs1">
    <rect
       x="154.20472"
       y="265.32283"
       width="521.5748"
       height="219.9685"
       id="rect1" />
  </defs>
  <g
     inkscape:label="Layer 1"
     inkscape:groupmode="layer"
     id="layer1">
    <path
       d="M -13.00406,12.838242 -16.542581,9.68226 c 2.709679,-2.0402287 4.367365,-5.2599671 4.367365,-9.0216409 0,-6.6945033 -5.036817,-11.5400481 -11.858833,-11.5400481 -6.885776,0 -11.98635,5.0049378 -11.98635,11.5400481 0,6.4394767 5.100574,11.4444139 11.98635,11.4444139 0.701328,0 1.370777,-0.06376 2.008348,-0.159392 l 5.291847,4.813665 c 0.382542,0.350665 0.765085,0.318785 1.115751,-0.03188 l 2.645923,-2.773437 c 0.350663,-0.382545 0.350663,-0.765088 -0.03188,-1.11575 z M -29.899711,0.6606191 c 0,-3.3791286 2.48653,-6.0250519 5.865662,-6.0250519 3.315372,0 5.738145,2.6140436 5.738145,6.0250519 0,3.3153747 -2.422773,5.9294183 -5.738145,5.9294183 -3.379132,0 -5.865662,-2.6459233 -5.865662,-5.9294183 z M 10.069665,10.893647 0.7929977,-9.9868279 C 0.6017251,-10.40125 0.3148189,-10.59252 -0.1314829,-10.59252 h -2.3271348 c -0.4463018,0 -0.733208,0.19127 -0.9244806,0.6056921 L -12.787281,10.893647 c -0.25503,0.573815 0,0.924478 0.605694,0.924478 h 4.5586361 c 0.4463018,0 0.7650877,-0.19127 0.9244806,-0.605692 l 1.2751435,-3.1559796 h 8.0652831 l 1.2751435,3.1559796 c 0.1593929,0.414422 0.4781788,0.605692 0.9244779,0.605692 H 9.463973 c 0.605692,0 0.860721,-0.350663 0.605692,-0.924478 z M -1.3747468,-2.6228732 1.1755402,3.4659353 H -3.9569134 Z M 18.734287,12.105033 c 5.546876,0 8.734735,-2.677802 8.734735,-7.3001976 0,-3.4110082 -2.008352,-5.4831164 -6.726383,-6.8857732 -3.283495,-0.9882372 -3.889187,-1.3707798 -3.889187,-2.2315011 0,-0.9244806 0.860721,-1.3707797 2.518407,-1.3707797 1.657689,0 3.442888,0.5100584 5.004941,1.4026567 0.478178,0.2550293 0.828841,0.1912726 1.08387,-0.2869062 l 1.785202,-3.1878587 c 0.255027,-0.4144222 0.159393,-0.8288443 -0.255029,-1.0838709 -2.103988,-1.3070233 -4.526759,-2.0402313 -7.491468,-2.0402313 -5.323723,0 -8.798491,2.7734367 -8.798491,7.0451689 0,3.37912868 1.880838,5.2280873 6.726383,6.6626237 3.155979,0.9244806 3.984823,1.3707798 3.984823,2.5184099 0,0.9882347 -0.796964,1.5620498 -2.26338,1.5620498 -2.454651,0 -4.112337,-0.5738151 -5.929416,-1.8489586 C 12.772992,4.7410788 12.39045,4.8367151 12.13542,5.2830143 L 10.095192,8.6621455 C 9.840163,9.0765677 9.935799,9.49099 10.350221,9.777896 c 2.295258,1.466416 5.100574,2.327137 8.384066,2.327137 z m 18.610776,0 c 5.546873,0 8.734732,-2.677802 8.734732,-7.3001976 0,-3.4110082 -2.008349,-5.4831164 -6.72638,-6.8857732 -3.283495,-0.9882372 -3.889188,-1.3707798 -3.889188,-2.2315011 0,-0.9244806 0.860722,-1.3707797 2.518408,-1.3707797 1.657686,0 3.442888,0.5100584 5.004937,1.4026567 0.478179,0.2550293 0.828845,0.1912726 1.083874,-0.2869062 l 1.785199,-3.1878587 c 0.255029,-0.4144222 0.159393,-0.8288443 -0.255029,-1.0838709 -2.103985,-1.3070233 -4.526759,-2.0402313 -7.491468,-2.0402313 -5.323723,0 -8.798488,2.7734367 -8.798488,7.0451689 0,3.37912868 1.880835,5.2280873 6.72638,6.6626237 3.155982,0.9244806 3.984823,1.3707798 3.984823,2.5184099 0,0.9882347 -0.796964,1.5620498 -2.263378,1.5620498 -2.45465,0 -4.112339,-0.5738151 -5.929418,-1.8489586 -0.446299,-0.3187859 -0.828842,-0.2231496 -1.083871,0.2231496 l -2.040231,3.3791312 c -0.255027,0.4144222 -0.159393,0.8288445 0.255029,1.1157505 2.295258,1.466416 5.100574,2.327137 8.384069,2.327137 z"
       id="text1"
       style="font-weight:900;font-size:120.486px;font-family:Boston;-inkscape-font-specification:'Boston, Heavy';letter-spacing:-4px;white-space:pre;stroke-width:4.79999;stroke-linecap:round"
       aria-label="QASS" />
  </g>
</svg>
