ISO-10303-21;
HEADER;
/* Generated by software containing ST-Developer
 * from STEP Tools, Inc. (www.steptools.com) 
 */

FILE_DESCRIPTION(
/* description */ (''),
/* implementation_level */ '2;1');

FILE_NAME(
/* name */ 'Bottom Row 1u.step',
/* time_stamp */ '2026-03-26T18:08:24+01:00',
/* author */ (''),
/* organization */ (''),
/* preprocessor_version */ 'ST-DEVELOPER v20.1',
/* originating_system */ 'Autodesk Translation Framework v14.24.0.0',
/* authorisation */ '');

FILE_SCHEMA (('AUTOMOTIVE_DESIGN { 1 0 10303 214 3 1 1 }'));
ENDSEC;

DATA;
#10=MECHANICAL_DESIGN_GEOMETRIC_PRESENTATION_REPRESENTATION('',(#13),#1361);
#11=SHAPE_REPRESENTATION_RELATIONSHIP('SRR','None',#1367,#12);
#12=ADVANCED_BREP_SHAPE_REPRESENTATION('',(#14),#1360);
#13=STYLED_ITEM('',(#1377),#14);
#14=MANIFOLD_SOLID_BREP('K\X\F6rper1',#826);
#15=FACE_BOUND('',#89,.T.);
#16=FACE_BOUND('',#109,.T.);
#17=FACE_BOUND('',#119,.T.);
#18=FACE_BOUND('',#129,.T.);
#19=B_SPLINE_CURVE_WITH_KNOTS('',3,(#1120,#1121,#1122,#1123,#1124,#1125),
 .UNSPECIFIED.,.F.,.F.,(4,2,4),(0.,0.742037644594092,1.48405050388567),
 .UNSPECIFIED.);
#20=B_SPLINE_CURVE_WITH_KNOTS('',3,(#1129,#1130,#1131,#1132,#1133,#1134,
#1135),.UNSPECIFIED.,.F.,.F.,(4,3,4),(-1.48405050388567,-0.742798233689731,
0.),.UNSPECIFIED.);
#21=B_SPLINE_CURVE_WITH_KNOTS('',3,(#1161,#1162,#1163,#1164,#1165,#1166,
#1167),.UNSPECIFIED.,.F.,.F.,(4,3,4),(0.,0.742763919622673,1.48707689128455),
 .UNSPECIFIED.);
#22=B_SPLINE_CURVE_WITH_KNOTS('',3,(#1168,#1169,#1170,#1171,#1172,#1173,
#1174),.UNSPECIFIED.,.F.,.F.,(4,3,4),(-1.48707689128455,-0.742763919622673,
0.),.UNSPECIFIED.);
#23=B_SPLINE_SURFACE_WITH_KNOTS('',3,1,((#1106,#1107),(#1108,#1109),(#1110,
#1111),(#1112,#1113),(#1114,#1115),(#1116,#1117)),.UNSPECIFIED.,.F.,.F.,
 .F.,(4,2,4),(2,2),(-1.48707707434429,-0.74276447948573,-9.99915057970374E-7),
(0.,1.0463766399337),.UNSPECIFIED.);
#24=B_SPLINE_SURFACE_WITH_KNOTS('',3,1,((#1149,#1150),(#1151,#1152),(#1153,
#1154),(#1155,#1156),(#1157,#1158),(#1159,#1160)),.UNSPECIFIED.,.F.,.F.,
 .F.,(4,2,4),(2,2),(-1.48405277599044,-0.742799838438566,-1.00003698050827E-6),
(0.,1.0463766399337),.UNSPECIFIED.);
#25=CIRCLE('',#831,6.29583778632342);
#26=CIRCLE('',#832,6.29583778632342);
#27=CIRCLE('',#855,2.8);
#28=CIRCLE('',#864,2.8);
#29=CIRCLE('',#871,9.);
#30=CIRCLE('',#872,9.);
#31=CYLINDRICAL_SURFACE('',#830,6.29583778632342);
#32=CYLINDRICAL_SURFACE('',#863,2.8);
#33=CYLINDRICAL_SURFACE('',#870,9.);
#34=FACE_OUTER_BOUND('',#81,.T.);
#35=FACE_OUTER_BOUND('',#82,.T.);
#36=FACE_OUTER_BOUND('',#83,.T.);
#37=FACE_OUTER_BOUND('',#84,.T.);
#38=FACE_OUTER_BOUND('',#85,.T.);
#39=FACE_OUTER_BOUND('',#86,.T.);
#40=FACE_OUTER_BOUND('',#87,.T.);
#41=FACE_OUTER_BOUND('',#88,.T.);
#42=FACE_OUTER_BOUND('',#90,.T.);
#43=FACE_OUTER_BOUND('',#91,.T.);
#44=FACE_OUTER_BOUND('',#92,.T.);
#45=FACE_OUTER_BOUND('',#93,.T.);
#46=FACE_OUTER_BOUND('',#94,.T.);
#47=FACE_OUTER_BOUND('',#95,.T.);
#48=FACE_OUTER_BOUND('',#96,.T.);
#49=FACE_OUTER_BOUND('',#97,.T.);
#50=FACE_OUTER_BOUND('',#98,.T.);
#51=FACE_OUTER_BOUND('',#99,.T.);
#52=FACE_OUTER_BOUND('',#100,.T.);
#53=FACE_OUTER_BOUND('',#101,.T.);
#54=FACE_OUTER_BOUND('',#102,.T.);
#55=FACE_OUTER_BOUND('',#103,.T.);
#56=FACE_OUTER_BOUND('',#104,.T.);
#57=FACE_OUTER_BOUND('',#105,.T.);
#58=FACE_OUTER_BOUND('',#106,.T.);
#59=FACE_OUTER_BOUND('',#107,.T.);
#60=FACE_OUTER_BOUND('',#108,.T.);
#61=FACE_OUTER_BOUND('',#110,.T.);
#62=FACE_OUTER_BOUND('',#111,.T.);
#63=FACE_OUTER_BOUND('',#112,.T.);
#64=FACE_OUTER_BOUND('',#113,.T.);
#65=FACE_OUTER_BOUND('',#114,.T.);
#66=FACE_OUTER_BOUND('',#115,.T.);
#67=FACE_OUTER_BOUND('',#116,.T.);
#68=FACE_OUTER_BOUND('',#117,.T.);
#69=FACE_OUTER_BOUND('',#118,.T.);
#70=FACE_OUTER_BOUND('',#120,.T.);
#71=FACE_OUTER_BOUND('',#121,.T.);
#72=FACE_OUTER_BOUND('',#122,.T.);
#73=FACE_OUTER_BOUND('',#123,.T.);
#74=FACE_OUTER_BOUND('',#124,.T.);
#75=FACE_OUTER_BOUND('',#125,.T.);
#76=FACE_OUTER_BOUND('',#126,.T.);
#77=FACE_OUTER_BOUND('',#127,.T.);
#78=FACE_OUTER_BOUND('',#128,.T.);
#79=FACE_OUTER_BOUND('',#130,.T.);
#80=FACE_OUTER_BOUND('',#131,.T.);
#81=EDGE_LOOP('',(#515,#516,#517,#518));
#82=EDGE_LOOP('',(#519,#520,#521,#522));
#83=EDGE_LOOP('',(#523,#524,#525,#526));
#84=EDGE_LOOP('',(#527,#528,#529,#530));
#85=EDGE_LOOP('',(#531,#532,#533,#534));
#86=EDGE_LOOP('',(#535,#536,#537,#538));
#87=EDGE_LOOP('',(#539,#540,#541,#542));
#88=EDGE_LOOP('',(#543,#544,#545,#546));
#89=EDGE_LOOP('',(#547,#548,#549,#550));
#90=EDGE_LOOP('',(#551,#552,#553,#554));
#91=EDGE_LOOP('',(#555,#556,#557,#558));
#92=EDGE_LOOP('',(#559,#560,#561,#562));
#93=EDGE_LOOP('',(#563,#564,#565,#566));
#94=EDGE_LOOP('',(#567,#568,#569,#570));
#95=EDGE_LOOP('',(#571,#572,#573,#574));
#96=EDGE_LOOP('',(#575,#576,#577,#578));
#97=EDGE_LOOP('',(#579,#580,#581,#582));
#98=EDGE_LOOP('',(#583,#584,#585,#586));
#99=EDGE_LOOP('',(#587,#588,#589,#590));
#100=EDGE_LOOP('',(#591,#592,#593,#594));
#101=EDGE_LOOP('',(#595,#596,#597,#598));
#102=EDGE_LOOP('',(#599,#600,#601,#602));
#103=EDGE_LOOP('',(#603,#604,#605,#606));
#104=EDGE_LOOP('',(#607,#608,#609,#610));
#105=EDGE_LOOP('',(#611,#612,#613,#614));
#106=EDGE_LOOP('',(#615,#616,#617,#618));
#107=EDGE_LOOP('',(#619,#620,#621,#622));
#108=EDGE_LOOP('',(#623));
#109=EDGE_LOOP('',(#624,#625,#626,#627,#628,#629,#630,#631,#632,#633,#634,
#635));
#110=EDGE_LOOP('',(#636,#637,#638,#639,#640,#641,#642,#643,#644,#645,#646,
#647));
#111=EDGE_LOOP('',(#648,#649,#650,#651));
#112=EDGE_LOOP('',(#652,#653,#654,#655));
#113=EDGE_LOOP('',(#656,#657,#658,#659));
#114=EDGE_LOOP('',(#660,#661,#662,#663));
#115=EDGE_LOOP('',(#664,#665,#666,#667));
#116=EDGE_LOOP('',(#668,#669,#670,#671));
#117=EDGE_LOOP('',(#672,#673,#674,#675));
#118=EDGE_LOOP('',(#676,#677,#678,#679));
#119=EDGE_LOOP('',(#680));
#120=EDGE_LOOP('',(#681,#682,#683,#684));
#121=EDGE_LOOP('',(#685,#686,#687,#688));
#122=EDGE_LOOP('',(#689,#690,#691,#692));
#123=EDGE_LOOP('',(#693,#694,#695,#696));
#124=EDGE_LOOP('',(#697,#698,#699,#700));
#125=EDGE_LOOP('',(#701,#702,#703,#704));
#126=EDGE_LOOP('',(#705,#706,#707,#708));
#127=EDGE_LOOP('',(#709,#710,#711,#712));
#128=EDGE_LOOP('',(#713,#714,#715,#716));
#129=EDGE_LOOP('',(#717,#718,#719,#720));
#130=EDGE_LOOP('',(#721,#722,#723,#724,#725,#726,#727,#728));
#131=EDGE_LOOP('',(#729,#730,#731,#732,#733,#734,#735,#736));
#132=LINE('',#1088,#233);
#133=LINE('',#1090,#234);
#134=LINE('',#1092,#235);
#135=LINE('',#1093,#236);
#136=LINE('',#1097,#237);
#137=LINE('',#1099,#238);
#138=LINE('',#1101,#239);
#139=LINE('',#1102,#240);
#140=LINE('',#1127,#241);
#141=LINE('',#1136,#242);
#142=LINE('',#1139,#243);
#143=LINE('',#1141,#244);
#144=LINE('',#1142,#245);
#145=LINE('',#1145,#246);
#146=LINE('',#1147,#247);
#147=LINE('',#1148,#248);
#148=LINE('',#1178,#249);
#149=LINE('',#1180,#250);
#150=LINE('',#1182,#251);
#151=LINE('',#1183,#252);
#152=LINE('',#1187,#253);
#153=LINE('',#1189,#254);
#154=LINE('',#1191,#255);
#155=LINE('',#1192,#256);
#156=LINE('',#1196,#257);
#157=LINE('',#1198,#258);
#158=LINE('',#1200,#259);
#159=LINE('',#1201,#260);
#160=LINE('',#1204,#261);
#161=LINE('',#1206,#262);
#162=LINE('',#1207,#263);
#163=LINE('',#1210,#264);
#164=LINE('',#1212,#265);
#165=LINE('',#1213,#266);
#166=LINE('',#1216,#267);
#167=LINE('',#1218,#268);
#168=LINE('',#1219,#269);
#169=LINE('',#1222,#270);
#170=LINE('',#1224,#271);
#171=LINE('',#1225,#272);
#172=LINE('',#1228,#273);
#173=LINE('',#1230,#274);
#174=LINE('',#1231,#275);
#175=LINE('',#1234,#276);
#176=LINE('',#1236,#277);
#177=LINE('',#1237,#278);
#178=LINE('',#1239,#279);
#179=LINE('',#1240,#280);
#180=LINE('',#1243,#281);
#181=LINE('',#1245,#282);
#182=LINE('',#1246,#283);
#183=LINE('',#1249,#284);
#184=LINE('',#1251,#285);
#185=LINE('',#1252,#286);
#186=LINE('',#1254,#287);
#187=LINE('',#1255,#288);
#188=LINE('',#1258,#289);
#189=LINE('',#1260,#290);
#190=LINE('',#1261,#291);
#191=LINE('',#1264,#292);
#192=LINE('',#1265,#293);
#193=LINE('',#1268,#294);
#194=LINE('',#1269,#295);
#195=LINE('',#1272,#296);
#196=LINE('',#1273,#297);
#197=LINE('',#1276,#298);
#198=LINE('',#1277,#299);
#199=LINE('',#1280,#300);
#200=LINE('',#1281,#301);
#201=LINE('',#1287,#302);
#202=LINE('',#1289,#303);
#203=LINE('',#1291,#304);
#204=LINE('',#1293,#305);
#205=LINE('',#1295,#306);
#206=LINE('',#1296,#307);
#207=LINE('',#1298,#308);
#208=LINE('',#1299,#309);
#209=LINE('',#1301,#310);
#210=LINE('',#1303,#311);
#211=LINE('',#1306,#312);
#212=LINE('',#1311,#313);
#213=LINE('',#1315,#314);
#214=LINE('',#1317,#315);
#215=LINE('',#1319,#316);
#216=LINE('',#1320,#317);
#217=LINE('',#1322,#318);
#218=LINE('',#1323,#319);
#219=LINE('',#1325,#320);
#220=LINE('',#1327,#321);
#221=LINE('',#1334,#322);
#222=LINE('',#1337,#323);
#223=LINE('',#1339,#324);
#224=LINE('',#1340,#325);
#225=LINE('',#1343,#326);
#226=LINE('',#1345,#327);
#227=LINE('',#1346,#328);
#228=LINE('',#1349,#329);
#229=LINE('',#1351,#330);
#230=LINE('',#1352,#331);
#231=LINE('',#1354,#332);
#232=LINE('',#1355,#333);
#233=VECTOR('',#883,10.);
#234=VECTOR('',#884,10.);
#235=VECTOR('',#885,10.);
#236=VECTOR('',#886,10.);
#237=VECTOR('',#889,10.);
#238=VECTOR('',#890,10.);
#239=VECTOR('',#891,10.);
#240=VECTOR('',#892,10.);
#241=VECTOR('',#899,10.);
#242=VECTOR('',#900,10.);
#243=VECTOR('',#903,10.);
#244=VECTOR('',#904,10.);
#245=VECTOR('',#905,10.);
#246=VECTOR('',#908,10.);
#247=VECTOR('',#909,10.);
#248=VECTOR('',#910,10.);
#249=VECTOR('',#913,10.);
#250=VECTOR('',#914,10.);
#251=VECTOR('',#915,10.);
#252=VECTOR('',#916,10.);
#253=VECTOR('',#919,10.);
#254=VECTOR('',#920,10.);
#255=VECTOR('',#921,10.);
#256=VECTOR('',#922,10.);
#257=VECTOR('',#925,10.);
#258=VECTOR('',#926,10.);
#259=VECTOR('',#927,10.);
#260=VECTOR('',#928,10.);
#261=VECTOR('',#931,10.);
#262=VECTOR('',#932,10.);
#263=VECTOR('',#933,10.);
#264=VECTOR('',#936,10.);
#265=VECTOR('',#937,10.);
#266=VECTOR('',#938,10.);
#267=VECTOR('',#941,10.);
#268=VECTOR('',#942,10.);
#269=VECTOR('',#943,10.);
#270=VECTOR('',#946,10.);
#271=VECTOR('',#947,10.);
#272=VECTOR('',#948,10.);
#273=VECTOR('',#951,10.);
#274=VECTOR('',#952,10.);
#275=VECTOR('',#953,10.);
#276=VECTOR('',#956,10.);
#277=VECTOR('',#957,10.);
#278=VECTOR('',#958,10.);
#279=VECTOR('',#961,10.);
#280=VECTOR('',#962,10.);
#281=VECTOR('',#965,10.);
#282=VECTOR('',#966,10.);
#283=VECTOR('',#967,10.);
#284=VECTOR('',#970,10.);
#285=VECTOR('',#971,10.);
#286=VECTOR('',#972,10.);
#287=VECTOR('',#975,10.);
#288=VECTOR('',#976,10.);
#289=VECTOR('',#979,10.);
#290=VECTOR('',#980,10.);
#291=VECTOR('',#981,10.);
#292=VECTOR('',#984,10.);
#293=VECTOR('',#985,10.);
#294=VECTOR('',#988,10.);
#295=VECTOR('',#989,10.);
#296=VECTOR('',#992,10.);
#297=VECTOR('',#993,10.);
#298=VECTOR('',#996,10.);
#299=VECTOR('',#997,10.);
#300=VECTOR('',#1000,10.);
#301=VECTOR('',#1001,10.);
#302=VECTOR('',#1008,10.);
#303=VECTOR('',#1009,10.);
#304=VECTOR('',#1010,10.);
#305=VECTOR('',#1011,10.);
#306=VECTOR('',#1012,10.);
#307=VECTOR('',#1013,10.);
#308=VECTOR('',#1016,10.);
#309=VECTOR('',#1017,10.);
#310=VECTOR('',#1020,10.);
#311=VECTOR('',#1023,10.);
#312=VECTOR('',#1028,10.);
#313=VECTOR('',#1035,2.8);
#314=VECTOR('',#1038,10.);
#315=VECTOR('',#1039,10.);
#316=VECTOR('',#1040,10.);
#317=VECTOR('',#1041,10.);
#318=VECTOR('',#1044,10.);
#319=VECTOR('',#1045,10.);
#320=VECTOR('',#1048,10.);
#321=VECTOR('',#1051,10.);
#322=VECTOR('',#1060,10.);
#323=VECTOR('',#1063,10.);
#324=VECTOR('',#1064,10.);
#325=VECTOR('',#1065,10.);
#326=VECTOR('',#1068,10.);
#327=VECTOR('',#1069,10.);
#328=VECTOR('',#1070,10.);
#329=VECTOR('',#1073,10.);
#330=VECTOR('',#1074,10.);
#331=VECTOR('',#1075,10.);
#332=VECTOR('',#1078,10.);
#333=VECTOR('',#1079,10.);
#334=VERTEX_POINT('',#1086);
#335=VERTEX_POINT('',#1087);
#336=VERTEX_POINT('',#1089);
#337=VERTEX_POINT('',#1091);
#338=VERTEX_POINT('',#1095);
#339=VERTEX_POINT('',#1096);
#340=VERTEX_POINT('',#1098);
#341=VERTEX_POINT('',#1100);
#342=VERTEX_POINT('',#1118);
#343=VERTEX_POINT('',#1119);
#344=VERTEX_POINT('',#1126);
#345=VERTEX_POINT('',#1128);
#346=VERTEX_POINT('',#1138);
#347=VERTEX_POINT('',#1140);
#348=VERTEX_POINT('',#1144);
#349=VERTEX_POINT('',#1146);
#350=VERTEX_POINT('',#1176);
#351=VERTEX_POINT('',#1177);
#352=VERTEX_POINT('',#1179);
#353=VERTEX_POINT('',#1181);
#354=VERTEX_POINT('',#1185);
#355=VERTEX_POINT('',#1186);
#356=VERTEX_POINT('',#1188);
#357=VERTEX_POINT('',#1190);
#358=VERTEX_POINT('',#1194);
#359=VERTEX_POINT('',#1195);
#360=VERTEX_POINT('',#1197);
#361=VERTEX_POINT('',#1199);
#362=VERTEX_POINT('',#1203);
#363=VERTEX_POINT('',#1205);
#364=VERTEX_POINT('',#1209);
#365=VERTEX_POINT('',#1211);
#366=VERTEX_POINT('',#1215);
#367=VERTEX_POINT('',#1217);
#368=VERTEX_POINT('',#1221);
#369=VERTEX_POINT('',#1223);
#370=VERTEX_POINT('',#1227);
#371=VERTEX_POINT('',#1229);
#372=VERTEX_POINT('',#1233);
#373=VERTEX_POINT('',#1235);
#374=VERTEX_POINT('',#1242);
#375=VERTEX_POINT('',#1244);
#376=VERTEX_POINT('',#1248);
#377=VERTEX_POINT('',#1250);
#378=VERTEX_POINT('',#1257);
#379=VERTEX_POINT('',#1259);
#380=VERTEX_POINT('',#1263);
#381=VERTEX_POINT('',#1267);
#382=VERTEX_POINT('',#1271);
#383=VERTEX_POINT('',#1275);
#384=VERTEX_POINT('',#1279);
#385=VERTEX_POINT('',#1283);
#386=VERTEX_POINT('',#1286);
#387=VERTEX_POINT('',#1288);
#388=VERTEX_POINT('',#1290);
#389=VERTEX_POINT('',#1292);
#390=VERTEX_POINT('',#1294);
#391=VERTEX_POINT('',#1309);
#392=VERTEX_POINT('',#1313);
#393=VERTEX_POINT('',#1314);
#394=VERTEX_POINT('',#1316);
#395=VERTEX_POINT('',#1318);
#396=VERTEX_POINT('',#1330);
#397=VERTEX_POINT('',#1332);
#398=VERTEX_POINT('',#1336);
#399=VERTEX_POINT('',#1338);
#400=VERTEX_POINT('',#1342);
#401=VERTEX_POINT('',#1344);
#402=VERTEX_POINT('',#1348);
#403=VERTEX_POINT('',#1350);
#404=EDGE_CURVE('',#334,#335,#132,.F.);
#405=EDGE_CURVE('',#336,#335,#133,.T.);
#406=EDGE_CURVE('',#337,#336,#134,.T.);
#407=EDGE_CURVE('',#337,#334,#135,.T.);
#408=EDGE_CURVE('',#338,#339,#136,.T.);
#409=EDGE_CURVE('',#340,#338,#137,.T.);
#410=EDGE_CURVE('',#340,#341,#138,.T.);
#411=EDGE_CURVE('',#339,#341,#139,.T.);
#412=EDGE_CURVE('',#341,#336,#25,.T.);
#413=EDGE_CURVE('',#340,#337,#26,.T.);
#414=EDGE_CURVE('',#342,#343,#19,.T.);
#415=EDGE_CURVE('',#344,#343,#140,.T.);
#416=EDGE_CURVE('',#345,#344,#20,.F.);
#417=EDGE_CURVE('',#345,#342,#141,.T.);
#418=EDGE_CURVE('',#346,#342,#142,.T.);
#419=EDGE_CURVE('',#347,#345,#143,.F.);
#420=EDGE_CURVE('',#347,#346,#144,.T.);
#421=EDGE_CURVE('',#343,#348,#145,.T.);
#422=EDGE_CURVE('',#349,#348,#146,.T.);
#423=EDGE_CURVE('',#344,#349,#147,.F.);
#424=EDGE_CURVE('',#348,#346,#21,.T.);
#425=EDGE_CURVE('',#349,#347,#22,.F.);
#426=EDGE_CURVE('',#350,#351,#148,.T.);
#427=EDGE_CURVE('',#351,#352,#149,.T.);
#428=EDGE_CURVE('',#352,#353,#150,.T.);
#429=EDGE_CURVE('',#353,#350,#151,.T.);
#430=EDGE_CURVE('',#354,#355,#152,.T.);
#431=EDGE_CURVE('',#355,#356,#153,.T.);
#432=EDGE_CURVE('',#356,#357,#154,.F.);
#433=EDGE_CURVE('',#354,#357,#155,.T.);
#434=EDGE_CURVE('',#358,#359,#156,.T.);
#435=EDGE_CURVE('',#359,#360,#157,.T.);
#436=EDGE_CURVE('',#360,#361,#158,.F.);
#437=EDGE_CURVE('',#361,#358,#159,.T.);
#438=EDGE_CURVE('',#359,#362,#160,.T.);
#439=EDGE_CURVE('',#362,#363,#161,.T.);
#440=EDGE_CURVE('',#363,#360,#162,.F.);
#441=EDGE_CURVE('',#362,#364,#163,.T.);
#442=EDGE_CURVE('',#364,#365,#164,.T.);
#443=EDGE_CURVE('',#365,#363,#165,.F.);
#444=EDGE_CURVE('',#366,#365,#166,.F.);
#445=EDGE_CURVE('',#364,#367,#167,.T.);
#446=EDGE_CURVE('',#367,#366,#168,.T.);
#447=EDGE_CURVE('',#368,#366,#169,.F.);
#448=EDGE_CURVE('',#367,#369,#170,.T.);
#449=EDGE_CURVE('',#369,#368,#171,.T.);
#450=EDGE_CURVE('',#370,#368,#172,.F.);
#451=EDGE_CURVE('',#369,#371,#173,.T.);
#452=EDGE_CURVE('',#371,#370,#174,.T.);
#453=EDGE_CURVE('',#372,#370,#175,.F.);
#454=EDGE_CURVE('',#371,#373,#176,.T.);
#455=EDGE_CURVE('',#373,#372,#177,.T.);
#456=EDGE_CURVE('',#355,#358,#178,.T.);
#457=EDGE_CURVE('',#361,#356,#179,.F.);
#458=EDGE_CURVE('',#374,#372,#180,.F.);
#459=EDGE_CURVE('',#373,#375,#181,.T.);
#460=EDGE_CURVE('',#375,#374,#182,.T.);
#461=EDGE_CURVE('',#376,#374,#183,.F.);
#462=EDGE_CURVE('',#375,#377,#184,.T.);
#463=EDGE_CURVE('',#377,#376,#185,.T.);
#464=EDGE_CURVE('',#357,#376,#186,.F.);
#465=EDGE_CURVE('',#377,#354,#187,.T.);
#466=EDGE_CURVE('',#374,#378,#188,.T.);
#467=EDGE_CURVE('',#378,#379,#189,.F.);
#468=EDGE_CURVE('',#372,#379,#190,.T.);
#469=EDGE_CURVE('',#376,#380,#191,.F.);
#470=EDGE_CURVE('',#380,#378,#192,.F.);
#471=EDGE_CURVE('',#357,#381,#193,.F.);
#472=EDGE_CURVE('',#381,#380,#194,.F.);
#473=EDGE_CURVE('',#356,#382,#195,.T.);
#474=EDGE_CURVE('',#382,#381,#196,.F.);
#475=EDGE_CURVE('',#361,#383,#197,.F.);
#476=EDGE_CURVE('',#383,#382,#198,.F.);
#477=EDGE_CURVE('',#360,#384,#199,.T.);
#478=EDGE_CURVE('',#384,#383,#200,.F.);
#479=EDGE_CURVE('',#385,#385,#27,.T.);
#480=EDGE_CURVE('',#386,#384,#201,.F.);
#481=EDGE_CURVE('',#387,#386,#202,.F.);
#482=EDGE_CURVE('',#388,#387,#203,.F.);
#483=EDGE_CURVE('',#389,#388,#204,.F.);
#484=EDGE_CURVE('',#390,#389,#205,.F.);
#485=EDGE_CURVE('',#379,#390,#206,.F.);
#486=EDGE_CURVE('',#368,#389,#207,.T.);
#487=EDGE_CURVE('',#366,#388,#208,.T.);
#488=EDGE_CURVE('',#365,#387,#209,.F.);
#489=EDGE_CURVE('',#363,#386,#210,.T.);
#490=EDGE_CURVE('',#370,#390,#211,.F.);
#491=EDGE_CURVE('',#391,#391,#28,.T.);
#492=EDGE_CURVE('',#391,#385,#212,.T.);
#493=EDGE_CURVE('',#392,#393,#213,.T.);
#494=EDGE_CURVE('',#394,#392,#214,.T.);
#495=EDGE_CURVE('',#395,#394,#215,.T.);
#496=EDGE_CURVE('',#393,#395,#216,.T.);
#497=EDGE_CURVE('',#350,#392,#217,.T.);
#498=EDGE_CURVE('',#351,#393,#218,.T.);
#499=EDGE_CURVE('',#352,#395,#219,.T.);
#500=EDGE_CURVE('',#353,#394,#220,.T.);
#501=EDGE_CURVE('',#396,#338,#29,.T.);
#502=EDGE_CURVE('',#397,#339,#30,.T.);
#503=EDGE_CURVE('',#396,#397,#221,.T.);
#504=EDGE_CURVE('',#398,#396,#222,.T.);
#505=EDGE_CURVE('',#399,#397,#223,.T.);
#506=EDGE_CURVE('',#398,#399,#224,.T.);
#507=EDGE_CURVE('',#400,#398,#225,.T.);
#508=EDGE_CURVE('',#401,#399,#226,.T.);
#509=EDGE_CURVE('',#400,#401,#227,.T.);
#510=EDGE_CURVE('',#402,#401,#228,.T.);
#511=EDGE_CURVE('',#403,#402,#229,.T.);
#512=EDGE_CURVE('',#403,#400,#230,.T.);
#513=EDGE_CURVE('',#334,#403,#231,.F.);
#514=EDGE_CURVE('',#335,#402,#232,.F.);
#515=ORIENTED_EDGE('',*,*,#404,.T.);
#516=ORIENTED_EDGE('',*,*,#405,.F.);
#517=ORIENTED_EDGE('',*,*,#406,.F.);
#518=ORIENTED_EDGE('',*,*,#407,.T.);
#519=ORIENTED_EDGE('',*,*,#408,.F.);
#520=ORIENTED_EDGE('',*,*,#409,.F.);
#521=ORIENTED_EDGE('',*,*,#410,.T.);
#522=ORIENTED_EDGE('',*,*,#411,.F.);
#523=ORIENTED_EDGE('',*,*,#406,.T.);
#524=ORIENTED_EDGE('',*,*,#412,.F.);
#525=ORIENTED_EDGE('',*,*,#410,.F.);
#526=ORIENTED_EDGE('',*,*,#413,.T.);
#527=ORIENTED_EDGE('',*,*,#414,.T.);
#528=ORIENTED_EDGE('',*,*,#415,.F.);
#529=ORIENTED_EDGE('',*,*,#416,.F.);
#530=ORIENTED_EDGE('',*,*,#417,.T.);
#531=ORIENTED_EDGE('',*,*,#418,.T.);
#532=ORIENTED_EDGE('',*,*,#417,.F.);
#533=ORIENTED_EDGE('',*,*,#419,.F.);
#534=ORIENTED_EDGE('',*,*,#420,.T.);
#535=ORIENTED_EDGE('',*,*,#421,.T.);
#536=ORIENTED_EDGE('',*,*,#422,.F.);
#537=ORIENTED_EDGE('',*,*,#423,.F.);
#538=ORIENTED_EDGE('',*,*,#415,.T.);
#539=ORIENTED_EDGE('',*,*,#424,.T.);
#540=ORIENTED_EDGE('',*,*,#420,.F.);
#541=ORIENTED_EDGE('',*,*,#425,.F.);
#542=ORIENTED_EDGE('',*,*,#422,.T.);
#543=ORIENTED_EDGE('',*,*,#424,.F.);
#544=ORIENTED_EDGE('',*,*,#421,.F.);
#545=ORIENTED_EDGE('',*,*,#414,.F.);
#546=ORIENTED_EDGE('',*,*,#418,.F.);
#547=ORIENTED_EDGE('',*,*,#426,.T.);
#548=ORIENTED_EDGE('',*,*,#427,.T.);
#549=ORIENTED_EDGE('',*,*,#428,.T.);
#550=ORIENTED_EDGE('',*,*,#429,.T.);
#551=ORIENTED_EDGE('',*,*,#430,.T.);
#552=ORIENTED_EDGE('',*,*,#431,.T.);
#553=ORIENTED_EDGE('',*,*,#432,.T.);
#554=ORIENTED_EDGE('',*,*,#433,.F.);
#555=ORIENTED_EDGE('',*,*,#434,.T.);
#556=ORIENTED_EDGE('',*,*,#435,.T.);
#557=ORIENTED_EDGE('',*,*,#436,.T.);
#558=ORIENTED_EDGE('',*,*,#437,.T.);
#559=ORIENTED_EDGE('',*,*,#438,.T.);
#560=ORIENTED_EDGE('',*,*,#439,.T.);
#561=ORIENTED_EDGE('',*,*,#440,.T.);
#562=ORIENTED_EDGE('',*,*,#435,.F.);
#563=ORIENTED_EDGE('',*,*,#441,.T.);
#564=ORIENTED_EDGE('',*,*,#442,.T.);
#565=ORIENTED_EDGE('',*,*,#443,.T.);
#566=ORIENTED_EDGE('',*,*,#439,.F.);
#567=ORIENTED_EDGE('',*,*,#444,.T.);
#568=ORIENTED_EDGE('',*,*,#442,.F.);
#569=ORIENTED_EDGE('',*,*,#445,.T.);
#570=ORIENTED_EDGE('',*,*,#446,.T.);
#571=ORIENTED_EDGE('',*,*,#447,.T.);
#572=ORIENTED_EDGE('',*,*,#446,.F.);
#573=ORIENTED_EDGE('',*,*,#448,.T.);
#574=ORIENTED_EDGE('',*,*,#449,.T.);
#575=ORIENTED_EDGE('',*,*,#450,.T.);
#576=ORIENTED_EDGE('',*,*,#449,.F.);
#577=ORIENTED_EDGE('',*,*,#451,.T.);
#578=ORIENTED_EDGE('',*,*,#452,.T.);
#579=ORIENTED_EDGE('',*,*,#453,.T.);
#580=ORIENTED_EDGE('',*,*,#452,.F.);
#581=ORIENTED_EDGE('',*,*,#454,.T.);
#582=ORIENTED_EDGE('',*,*,#455,.T.);
#583=ORIENTED_EDGE('',*,*,#456,.T.);
#584=ORIENTED_EDGE('',*,*,#437,.F.);
#585=ORIENTED_EDGE('',*,*,#457,.T.);
#586=ORIENTED_EDGE('',*,*,#431,.F.);
#587=ORIENTED_EDGE('',*,*,#458,.T.);
#588=ORIENTED_EDGE('',*,*,#455,.F.);
#589=ORIENTED_EDGE('',*,*,#459,.T.);
#590=ORIENTED_EDGE('',*,*,#460,.T.);
#591=ORIENTED_EDGE('',*,*,#461,.T.);
#592=ORIENTED_EDGE('',*,*,#460,.F.);
#593=ORIENTED_EDGE('',*,*,#462,.T.);
#594=ORIENTED_EDGE('',*,*,#463,.T.);
#595=ORIENTED_EDGE('',*,*,#464,.T.);
#596=ORIENTED_EDGE('',*,*,#463,.F.);
#597=ORIENTED_EDGE('',*,*,#465,.T.);
#598=ORIENTED_EDGE('',*,*,#433,.T.);
#599=ORIENTED_EDGE('',*,*,#458,.F.);
#600=ORIENTED_EDGE('',*,*,#466,.T.);
#601=ORIENTED_EDGE('',*,*,#467,.T.);
#602=ORIENTED_EDGE('',*,*,#468,.F.);
#603=ORIENTED_EDGE('',*,*,#461,.F.);
#604=ORIENTED_EDGE('',*,*,#469,.T.);
#605=ORIENTED_EDGE('',*,*,#470,.T.);
#606=ORIENTED_EDGE('',*,*,#466,.F.);
#607=ORIENTED_EDGE('',*,*,#464,.F.);
#608=ORIENTED_EDGE('',*,*,#471,.T.);
#609=ORIENTED_EDGE('',*,*,#472,.T.);
#610=ORIENTED_EDGE('',*,*,#469,.F.);
#611=ORIENTED_EDGE('',*,*,#432,.F.);
#612=ORIENTED_EDGE('',*,*,#473,.T.);
#613=ORIENTED_EDGE('',*,*,#474,.T.);
#614=ORIENTED_EDGE('',*,*,#471,.F.);
#615=ORIENTED_EDGE('',*,*,#457,.F.);
#616=ORIENTED_EDGE('',*,*,#475,.T.);
#617=ORIENTED_EDGE('',*,*,#476,.T.);
#618=ORIENTED_EDGE('',*,*,#473,.F.);
#619=ORIENTED_EDGE('',*,*,#436,.F.);
#620=ORIENTED_EDGE('',*,*,#477,.T.);
#621=ORIENTED_EDGE('',*,*,#478,.T.);
#622=ORIENTED_EDGE('',*,*,#475,.F.);
#623=ORIENTED_EDGE('',*,*,#479,.F.);
#624=ORIENTED_EDGE('',*,*,#434,.F.);
#625=ORIENTED_EDGE('',*,*,#456,.F.);
#626=ORIENTED_EDGE('',*,*,#430,.F.);
#627=ORIENTED_EDGE('',*,*,#465,.F.);
#628=ORIENTED_EDGE('',*,*,#462,.F.);
#629=ORIENTED_EDGE('',*,*,#459,.F.);
#630=ORIENTED_EDGE('',*,*,#454,.F.);
#631=ORIENTED_EDGE('',*,*,#451,.F.);
#632=ORIENTED_EDGE('',*,*,#448,.F.);
#633=ORIENTED_EDGE('',*,*,#445,.F.);
#634=ORIENTED_EDGE('',*,*,#441,.F.);
#635=ORIENTED_EDGE('',*,*,#438,.F.);
#636=ORIENTED_EDGE('',*,*,#474,.F.);
#637=ORIENTED_EDGE('',*,*,#476,.F.);
#638=ORIENTED_EDGE('',*,*,#478,.F.);
#639=ORIENTED_EDGE('',*,*,#480,.F.);
#640=ORIENTED_EDGE('',*,*,#481,.F.);
#641=ORIENTED_EDGE('',*,*,#482,.F.);
#642=ORIENTED_EDGE('',*,*,#483,.F.);
#643=ORIENTED_EDGE('',*,*,#484,.F.);
#644=ORIENTED_EDGE('',*,*,#485,.F.);
#645=ORIENTED_EDGE('',*,*,#467,.F.);
#646=ORIENTED_EDGE('',*,*,#470,.F.);
#647=ORIENTED_EDGE('',*,*,#472,.F.);
#648=ORIENTED_EDGE('',*,*,#447,.F.);
#649=ORIENTED_EDGE('',*,*,#486,.T.);
#650=ORIENTED_EDGE('',*,*,#483,.T.);
#651=ORIENTED_EDGE('',*,*,#487,.F.);
#652=ORIENTED_EDGE('',*,*,#444,.F.);
#653=ORIENTED_EDGE('',*,*,#487,.T.);
#654=ORIENTED_EDGE('',*,*,#482,.T.);
#655=ORIENTED_EDGE('',*,*,#488,.F.);
#656=ORIENTED_EDGE('',*,*,#443,.F.);
#657=ORIENTED_EDGE('',*,*,#488,.T.);
#658=ORIENTED_EDGE('',*,*,#481,.T.);
#659=ORIENTED_EDGE('',*,*,#489,.F.);
#660=ORIENTED_EDGE('',*,*,#440,.F.);
#661=ORIENTED_EDGE('',*,*,#489,.T.);
#662=ORIENTED_EDGE('',*,*,#480,.T.);
#663=ORIENTED_EDGE('',*,*,#477,.F.);
#664=ORIENTED_EDGE('',*,*,#453,.F.);
#665=ORIENTED_EDGE('',*,*,#468,.T.);
#666=ORIENTED_EDGE('',*,*,#485,.T.);
#667=ORIENTED_EDGE('',*,*,#490,.F.);
#668=ORIENTED_EDGE('',*,*,#450,.F.);
#669=ORIENTED_EDGE('',*,*,#490,.T.);
#670=ORIENTED_EDGE('',*,*,#484,.T.);
#671=ORIENTED_EDGE('',*,*,#486,.F.);
#672=ORIENTED_EDGE('',*,*,#491,.F.);
#673=ORIENTED_EDGE('',*,*,#492,.T.);
#674=ORIENTED_EDGE('',*,*,#479,.T.);
#675=ORIENTED_EDGE('',*,*,#492,.F.);
#676=ORIENTED_EDGE('',*,*,#493,.F.);
#677=ORIENTED_EDGE('',*,*,#494,.F.);
#678=ORIENTED_EDGE('',*,*,#495,.F.);
#679=ORIENTED_EDGE('',*,*,#496,.F.);
#680=ORIENTED_EDGE('',*,*,#491,.T.);
#681=ORIENTED_EDGE('',*,*,#426,.F.);
#682=ORIENTED_EDGE('',*,*,#497,.T.);
#683=ORIENTED_EDGE('',*,*,#493,.T.);
#684=ORIENTED_EDGE('',*,*,#498,.F.);
#685=ORIENTED_EDGE('',*,*,#427,.F.);
#686=ORIENTED_EDGE('',*,*,#498,.T.);
#687=ORIENTED_EDGE('',*,*,#496,.T.);
#688=ORIENTED_EDGE('',*,*,#499,.F.);
#689=ORIENTED_EDGE('',*,*,#428,.F.);
#690=ORIENTED_EDGE('',*,*,#499,.T.);
#691=ORIENTED_EDGE('',*,*,#495,.T.);
#692=ORIENTED_EDGE('',*,*,#500,.F.);
#693=ORIENTED_EDGE('',*,*,#429,.F.);
#694=ORIENTED_EDGE('',*,*,#500,.T.);
#695=ORIENTED_EDGE('',*,*,#494,.T.);
#696=ORIENTED_EDGE('',*,*,#497,.F.);
#697=ORIENTED_EDGE('',*,*,#501,.T.);
#698=ORIENTED_EDGE('',*,*,#408,.T.);
#699=ORIENTED_EDGE('',*,*,#502,.F.);
#700=ORIENTED_EDGE('',*,*,#503,.F.);
#701=ORIENTED_EDGE('',*,*,#504,.T.);
#702=ORIENTED_EDGE('',*,*,#503,.T.);
#703=ORIENTED_EDGE('',*,*,#505,.F.);
#704=ORIENTED_EDGE('',*,*,#506,.F.);
#705=ORIENTED_EDGE('',*,*,#507,.T.);
#706=ORIENTED_EDGE('',*,*,#506,.T.);
#707=ORIENTED_EDGE('',*,*,#508,.F.);
#708=ORIENTED_EDGE('',*,*,#509,.F.);
#709=ORIENTED_EDGE('',*,*,#510,.F.);
#710=ORIENTED_EDGE('',*,*,#511,.F.);
#711=ORIENTED_EDGE('',*,*,#512,.T.);
#712=ORIENTED_EDGE('',*,*,#509,.T.);
#713=ORIENTED_EDGE('',*,*,#513,.T.);
#714=ORIENTED_EDGE('',*,*,#511,.T.);
#715=ORIENTED_EDGE('',*,*,#514,.F.);
#716=ORIENTED_EDGE('',*,*,#404,.F.);
#717=ORIENTED_EDGE('',*,*,#416,.T.);
#718=ORIENTED_EDGE('',*,*,#423,.T.);
#719=ORIENTED_EDGE('',*,*,#425,.T.);
#720=ORIENTED_EDGE('',*,*,#419,.T.);
#721=ORIENTED_EDGE('',*,*,#405,.T.);
#722=ORIENTED_EDGE('',*,*,#514,.T.);
#723=ORIENTED_EDGE('',*,*,#510,.T.);
#724=ORIENTED_EDGE('',*,*,#508,.T.);
#725=ORIENTED_EDGE('',*,*,#505,.T.);
#726=ORIENTED_EDGE('',*,*,#502,.T.);
#727=ORIENTED_EDGE('',*,*,#411,.T.);
#728=ORIENTED_EDGE('',*,*,#412,.T.);
#729=ORIENTED_EDGE('',*,*,#407,.F.);
#730=ORIENTED_EDGE('',*,*,#413,.F.);
#731=ORIENTED_EDGE('',*,*,#409,.T.);
#732=ORIENTED_EDGE('',*,*,#501,.F.);
#733=ORIENTED_EDGE('',*,*,#504,.F.);
#734=ORIENTED_EDGE('',*,*,#507,.F.);
#735=ORIENTED_EDGE('',*,*,#512,.F.);
#736=ORIENTED_EDGE('',*,*,#513,.F.);
#737=PLANE('',#828);
#738=PLANE('',#829);
#739=PLANE('',#833);
#740=PLANE('',#834);
#741=PLANE('',#835);
#742=PLANE('',#836);
#743=PLANE('',#837);
#744=PLANE('',#838);
#745=PLANE('',#839);
#746=PLANE('',#840);
#747=PLANE('',#841);
#748=PLANE('',#842);
#749=PLANE('',#843);
#750=PLANE('',#844);
#751=PLANE('',#845);
#752=PLANE('',#846);
#753=PLANE('',#847);
#754=PLANE('',#848);
#755=PLANE('',#849);
#756=PLANE('',#850);
#757=PLANE('',#851);
#758=PLANE('',#852);
#759=PLANE('',#853);
#760=PLANE('',#854);
#761=PLANE('',#856);
#762=PLANE('',#857);
#763=PLANE('',#858);
#764=PLANE('',#859);
#765=PLANE('',#860);
#766=PLANE('',#861);
#767=PLANE('',#862);
#768=PLANE('',#865);
#769=PLANE('',#866);
#770=PLANE('',#867);
#771=PLANE('',#868);
#772=PLANE('',#869);
#773=PLANE('',#873);
#774=PLANE('',#874);
#775=PLANE('',#875);
#776=PLANE('',#876);
#777=PLANE('',#877);
#778=PLANE('',#878);
#779=ADVANCED_FACE('',(#34),#737,.T.);
#780=ADVANCED_FACE('',(#35),#738,.T.);
#781=ADVANCED_FACE('',(#36),#31,.T.);
#782=ADVANCED_FACE('',(#37),#23,.F.);
#783=ADVANCED_FACE('',(#38),#739,.F.);
#784=ADVANCED_FACE('',(#39),#740,.F.);
#785=ADVANCED_FACE('',(#40),#24,.F.);
#786=ADVANCED_FACE('',(#41,#15),#741,.F.);
#787=ADVANCED_FACE('',(#42),#742,.T.);
#788=ADVANCED_FACE('',(#43),#743,.T.);
#789=ADVANCED_FACE('',(#44),#744,.T.);
#790=ADVANCED_FACE('',(#45),#745,.T.);
#791=ADVANCED_FACE('',(#46),#746,.T.);
#792=ADVANCED_FACE('',(#47),#747,.T.);
#793=ADVANCED_FACE('',(#48),#748,.T.);
#794=ADVANCED_FACE('',(#49),#749,.T.);
#795=ADVANCED_FACE('',(#50),#750,.T.);
#796=ADVANCED_FACE('',(#51),#751,.T.);
#797=ADVANCED_FACE('',(#52),#752,.T.);
#798=ADVANCED_FACE('',(#53),#753,.T.);
#799=ADVANCED_FACE('',(#54),#754,.T.);
#800=ADVANCED_FACE('',(#55),#755,.T.);
#801=ADVANCED_FACE('',(#56),#756,.T.);
#802=ADVANCED_FACE('',(#57),#757,.T.);
#803=ADVANCED_FACE('',(#58),#758,.T.);
#804=ADVANCED_FACE('',(#59),#759,.T.);
#805=ADVANCED_FACE('',(#60,#16),#760,.F.);
#806=ADVANCED_FACE('',(#61),#761,.T.);
#807=ADVANCED_FACE('',(#62),#762,.T.);
#808=ADVANCED_FACE('',(#63),#763,.T.);
#809=ADVANCED_FACE('',(#64),#764,.T.);
#810=ADVANCED_FACE('',(#65),#765,.T.);
#811=ADVANCED_FACE('',(#66),#766,.T.);
#812=ADVANCED_FACE('',(#67),#767,.T.);
#813=ADVANCED_FACE('',(#68),#32,.T.);
#814=ADVANCED_FACE('',(#69,#17),#768,.F.);
#815=ADVANCED_FACE('',(#70),#769,.F.);
#816=ADVANCED_FACE('',(#71),#770,.F.);
#817=ADVANCED_FACE('',(#72),#771,.F.);
#818=ADVANCED_FACE('',(#73),#772,.F.);
#819=ADVANCED_FACE('',(#74),#33,.T.);
#820=ADVANCED_FACE('',(#75),#773,.T.);
#821=ADVANCED_FACE('',(#76),#774,.T.);
#822=ADVANCED_FACE('',(#77),#775,.T.);
#823=ADVANCED_FACE('',(#78,#18),#776,.T.);
#824=ADVANCED_FACE('',(#79),#777,.T.);
#825=ADVANCED_FACE('',(#80),#778,.F.);
#826=CLOSED_SHELL('',(#779,#780,#781,#782,#783,#784,#785,#786,#787,#788,
#789,#790,#791,#792,#793,#794,#795,#796,#797,#798,#799,#800,#801,#802,#803,
#804,#805,#806,#807,#808,#809,#810,#811,#812,#813,#814,#815,#816,#817,#818,
#819,#820,#821,#822,#823,#824,#825));
#827=AXIS2_PLACEMENT_3D('',#1084,#879,#880);
#828=AXIS2_PLACEMENT_3D('',#1085,#881,#882);
#829=AXIS2_PLACEMENT_3D('',#1094,#887,#888);
#830=AXIS2_PLACEMENT_3D('',#1103,#893,#894);
#831=AXIS2_PLACEMENT_3D('',#1104,#895,#896);
#832=AXIS2_PLACEMENT_3D('',#1105,#897,#898);
#833=AXIS2_PLACEMENT_3D('',#1137,#901,#902);
#834=AXIS2_PLACEMENT_3D('',#1143,#906,#907);
#835=AXIS2_PLACEMENT_3D('',#1175,#911,#912);
#836=AXIS2_PLACEMENT_3D('',#1184,#917,#918);
#837=AXIS2_PLACEMENT_3D('',#1193,#923,#924);
#838=AXIS2_PLACEMENT_3D('',#1202,#929,#930);
#839=AXIS2_PLACEMENT_3D('',#1208,#934,#935);
#840=AXIS2_PLACEMENT_3D('',#1214,#939,#940);
#841=AXIS2_PLACEMENT_3D('',#1220,#944,#945);
#842=AXIS2_PLACEMENT_3D('',#1226,#949,#950);
#843=AXIS2_PLACEMENT_3D('',#1232,#954,#955);
#844=AXIS2_PLACEMENT_3D('',#1238,#959,#960);
#845=AXIS2_PLACEMENT_3D('',#1241,#963,#964);
#846=AXIS2_PLACEMENT_3D('',#1247,#968,#969);
#847=AXIS2_PLACEMENT_3D('',#1253,#973,#974);
#848=AXIS2_PLACEMENT_3D('',#1256,#977,#978);
#849=AXIS2_PLACEMENT_3D('',#1262,#982,#983);
#850=AXIS2_PLACEMENT_3D('',#1266,#986,#987);
#851=AXIS2_PLACEMENT_3D('',#1270,#990,#991);
#852=AXIS2_PLACEMENT_3D('',#1274,#994,#995);
#853=AXIS2_PLACEMENT_3D('',#1278,#998,#999);
#854=AXIS2_PLACEMENT_3D('',#1282,#1002,#1003);
#855=AXIS2_PLACEMENT_3D('',#1284,#1004,#1005);
#856=AXIS2_PLACEMENT_3D('',#1285,#1006,#1007);
#857=AXIS2_PLACEMENT_3D('',#1297,#1014,#1015);
#858=AXIS2_PLACEMENT_3D('',#1300,#1018,#1019);
#859=AXIS2_PLACEMENT_3D('',#1302,#1021,#1022);
#860=AXIS2_PLACEMENT_3D('',#1304,#1024,#1025);
#861=AXIS2_PLACEMENT_3D('',#1305,#1026,#1027);
#862=AXIS2_PLACEMENT_3D('',#1307,#1029,#1030);
#863=AXIS2_PLACEMENT_3D('',#1308,#1031,#1032);
#864=AXIS2_PLACEMENT_3D('',#1310,#1033,#1034);
#865=AXIS2_PLACEMENT_3D('',#1312,#1036,#1037);
#866=AXIS2_PLACEMENT_3D('',#1321,#1042,#1043);
#867=AXIS2_PLACEMENT_3D('',#1324,#1046,#1047);
#868=AXIS2_PLACEMENT_3D('',#1326,#1049,#1050);
#869=AXIS2_PLACEMENT_3D('',#1328,#1052,#1053);
#870=AXIS2_PLACEMENT_3D('',#1329,#1054,#1055);
#871=AXIS2_PLACEMENT_3D('',#1331,#1056,#1057);
#872=AXIS2_PLACEMENT_3D('',#1333,#1058,#1059);
#873=AXIS2_PLACEMENT_3D('',#1335,#1061,#1062);
#874=AXIS2_PLACEMENT_3D('',#1341,#1066,#1067);
#875=AXIS2_PLACEMENT_3D('',#1347,#1071,#1072);
#876=AXIS2_PLACEMENT_3D('',#1353,#1076,#1077);
#877=AXIS2_PLACEMENT_3D('',#1356,#1080,#1081);
#878=AXIS2_PLACEMENT_3D('',#1357,#1082,#1083);
#879=DIRECTION('axis',(0.,0.,1.));
#880=DIRECTION('refdir',(1.,0.,0.));
#881=DIRECTION('center_axis',(0.,-0.997564050259823,0.0697564737441438));
#882=DIRECTION('ref_axis',(0.,-0.0697564737441438,-0.997564050259823));
#883=DIRECTION('',(-1.,0.,0.));
#884=DIRECTION('',(0.,-0.0697564737441438,-0.997564050259823));
#885=DIRECTION('',(1.,0.,0.));
#886=DIRECTION('',(0.,-0.0697564737441438,-0.997564050259823));
#887=DIRECTION('center_axis',(0.,0.,-1.));
#888=DIRECTION('ref_axis',(0.,1.,0.));
#889=DIRECTION('',(1.,0.,0.));
#890=DIRECTION('',(0.,-1.,0.));
#891=DIRECTION('',(1.,0.,0.));
#892=DIRECTION('',(0.,1.,0.));
#893=DIRECTION('center_axis',(1.,0.,0.));
#894=DIRECTION('ref_axis',(0.,-0.665881666000832,0.746057375061701));
#895=DIRECTION('center_axis',(1.,0.,0.));
#896=DIRECTION('ref_axis',(0.,-0.665881666000832,0.746057375061701));
#897=DIRECTION('center_axis',(1.,0.,0.));
#898=DIRECTION('ref_axis',(0.,-0.665881666000832,0.746057375061701));
#899=DIRECTION('',(0.,0.,1.));
#900=DIRECTION('',(0.,0.,1.));
#901=DIRECTION('center_axis',(0.,-1.,0.));
#902=DIRECTION('ref_axis',(1.,0.,0.));
#903=DIRECTION('',(1.,0.,5.42101086242752E-20));
#904=DIRECTION('',(-1.,0.,0.));
#905=DIRECTION('',(0.,0.,1.));
#906=DIRECTION('center_axis',(-3.00880192823759E-16,1.,0.));
#907=DIRECTION('ref_axis',(-1.,-3.00880192823759E-16,0.));
#908=DIRECTION('',(-1.,-3.00880192823759E-16,-5.4210108624247E-20));
#909=DIRECTION('',(0.,0.,1.));
#910=DIRECTION('',(1.,3.00880192823759E-16,0.));
#911=DIRECTION('center_axis',(-5.42101086242752E-20,9.36750677027475E-17,
1.));
#912=DIRECTION('ref_axis',(1.,2.64697796016968E-23,5.42101086242752E-20));
#913=DIRECTION('',(1.,2.64697796016968E-23,5.42101086242752E-20));
#914=DIRECTION('',(-2.64697796016917E-23,1.,-9.36750677027475E-17));
#915=DIRECTION('',(-1.,-2.64697796016968E-23,-5.42101086242752E-20));
#916=DIRECTION('',(2.64697796016917E-23,-1.,9.36750677027475E-17));
#917=DIRECTION('center_axis',(3.83510523777372E-20,-0.707106781186548,-0.707106781186547));
#918=DIRECTION('ref_axis',(1.,2.64697796016968E-23,5.42101086242752E-20));
#919=DIRECTION('',(1.,2.64697796016968E-23,5.42101086242752E-20));
#920=DIRECTION('',(-0.577350269189626,-0.577350269189626,0.577350269189626));
#921=DIRECTION('',(1.,2.64697796016968E-23,5.42101086242752E-20));
#922=DIRECTION('',(-0.577350269189626,-0.577350269189626,0.577350269189626));
#923=DIRECTION('center_axis',(3.83136184564315E-20,0.707106781186547,-0.707106781186548));
#924=DIRECTION('ref_axis',(-1.,-2.64697796016968E-23,-5.42101086242752E-20));
#925=DIRECTION('',(-1.,-2.64697796016968E-23,-5.42101086242752E-20));
#926=DIRECTION('',(-0.577350269189626,0.577350269189626,0.577350269189626));
#927=DIRECTION('',(-1.,-2.64697796016968E-23,-5.42101086242752E-20));
#928=DIRECTION('',(0.577350269189626,-0.577350269189626,-0.577350269189626));
#929=DIRECTION('center_axis',(-0.707106781186548,-6.62382943176824E-17,
-0.707106781186548));
#930=DIRECTION('ref_axis',(2.64697796016917E-23,-1.,9.36750677027475E-17));
#931=DIRECTION('',(2.64697796016917E-23,-1.,9.36750677027475E-17));
#932=DIRECTION('',(-0.577350269189626,0.577350269189626,0.577350269189626));
#933=DIRECTION('',(2.64697796016917E-23,-1.,9.36750677027475E-17));
#934=DIRECTION('center_axis',(3.83136184564315E-20,0.707106781186547,-0.707106781186548));
#935=DIRECTION('ref_axis',(-1.,-2.64697796016968E-23,-5.42101086242752E-20));
#936=DIRECTION('',(-1.,-2.64697796016968E-23,-5.42101086242752E-20));
#937=DIRECTION('',(0.577350269189626,0.577350269189626,0.577350269189626));
#938=DIRECTION('',(-1.,-2.64697796016968E-23,-5.42101086242752E-20));
#939=DIRECTION('center_axis',(0.707106781186548,-6.62382568837611E-17,-0.707106781186548));
#940=DIRECTION('ref_axis',(-2.64697796016917E-23,1.,-9.36750677027475E-17));
#941=DIRECTION('',(-2.64697796016917E-23,1.,-9.36750677027475E-17));
#942=DIRECTION('',(-2.64697796016917E-23,1.,-9.36750677027475E-17));
#943=DIRECTION('',(0.577350269189626,0.577350269189626,0.577350269189626));
#944=DIRECTION('center_axis',(3.83136184564315E-20,0.707106781186547,-0.707106781186548));
#945=DIRECTION('ref_axis',(-1.,-2.64697796016968E-23,-5.42101086242752E-20));
#946=DIRECTION('',(-1.,-2.64697796016968E-23,-5.42101086242752E-20));
#947=DIRECTION('',(-1.,-2.64697796016968E-23,-5.42101086242752E-20));
#948=DIRECTION('',(0.577350269189626,0.577350269189626,0.577350269189626));
#949=DIRECTION('center_axis',(0.707106781186548,-6.62382568837611E-17,-0.707106781186548));
#950=DIRECTION('ref_axis',(-2.64697796016917E-23,1.,-9.36750677027475E-17));
#951=DIRECTION('',(-2.64697796016917E-23,1.,-9.36750677027475E-17));
#952=DIRECTION('',(-2.64697796016917E-23,1.,-9.36750677027475E-17));
#953=DIRECTION('',(0.577350269189626,-0.577350269189626,0.577350269189626));
#954=DIRECTION('center_axis',(3.83510523777372E-20,-0.707106781186548,-0.707106781186547));
#955=DIRECTION('ref_axis',(1.,2.64697796016968E-23,5.42101086242752E-20));
#956=DIRECTION('',(1.,2.64697796016968E-23,5.42101086242752E-20));
#957=DIRECTION('',(1.,2.64697796016968E-23,5.42101086242752E-20));
#958=DIRECTION('',(0.577350269189626,-0.577350269189626,0.577350269189626));
#959=DIRECTION('center_axis',(-0.707106781186548,-6.62382943176824E-17,
-0.707106781186548));
#960=DIRECTION('ref_axis',(2.64697796016917E-23,-1.,9.36750677027475E-17));
#961=DIRECTION('',(2.64697796016917E-23,-1.,9.36750677027475E-17));
#962=DIRECTION('',(2.64697796016917E-23,-1.,9.36750677027475E-17));
#963=DIRECTION('center_axis',(0.707106781186548,-6.62382568837611E-17,-0.707106781186548));
#964=DIRECTION('ref_axis',(-2.64697796016917E-23,1.,-9.36750677027475E-17));
#965=DIRECTION('',(-2.64697796016917E-23,1.,-9.36750677027475E-17));
#966=DIRECTION('',(-2.64697796016917E-23,1.,-9.36750677027475E-17));
#967=DIRECTION('',(0.577350269189626,-0.577350269189626,0.577350269189626));
#968=DIRECTION('center_axis',(3.83510523777372E-20,-0.707106781186548,-0.707106781186547));
#969=DIRECTION('ref_axis',(1.,2.64697796016968E-23,5.42101086242752E-20));
#970=DIRECTION('',(1.,2.64697796016968E-23,5.42101086242752E-20));
#971=DIRECTION('',(1.,2.64697796016968E-23,5.42101086242752E-20));
#972=DIRECTION('',(-0.577350269189626,-0.577350269189626,0.577350269189626));
#973=DIRECTION('center_axis',(-0.707106781186548,-6.62382943176824E-17,
-0.707106781186548));
#974=DIRECTION('ref_axis',(2.64697796016917E-23,-1.,9.36750677027475E-17));
#975=DIRECTION('',(2.64697796016917E-23,-1.,9.36750677027475E-17));
#976=DIRECTION('',(2.64697796016917E-23,-1.,9.36750677027475E-17));
#977=DIRECTION('center_axis',(1.,2.64697796016968E-23,5.42101086242752E-20));
#978=DIRECTION('ref_axis',(-2.64697796016917E-23,1.,-9.36750677027475E-17));
#979=DIRECTION('',(-5.42101086242752E-20,9.36750677027475E-17,1.));
#980=DIRECTION('',(-2.64697796016917E-23,1.,-9.36750677027475E-17));
#981=DIRECTION('',(-5.42101086242752E-20,9.36750677027475E-17,1.));
#982=DIRECTION('center_axis',(2.64697796016917E-23,-1.,9.36750677027475E-17));
#983=DIRECTION('ref_axis',(1.,2.64697796016968E-23,5.42101086242752E-20));
#984=DIRECTION('',(5.42101086242752E-20,-9.36750677027475E-17,-1.));
#985=DIRECTION('',(1.,2.64697796016968E-23,5.42101086242752E-20));
#986=DIRECTION('center_axis',(-1.,-2.64697796016968E-23,-5.42101086242752E-20));
#987=DIRECTION('ref_axis',(2.64697796016917E-23,-1.,9.36750677027475E-17));
#988=DIRECTION('',(5.42101086242752E-20,-9.36750677027475E-17,-1.));
#989=DIRECTION('',(2.64697796016917E-23,-1.,9.36750677027475E-17));
#990=DIRECTION('center_axis',(2.64697796016917E-23,-1.,9.36750677027475E-17));
#991=DIRECTION('ref_axis',(1.,2.64697796016968E-23,5.42101086242752E-20));
#992=DIRECTION('',(-5.42101086242752E-20,9.36750677027475E-17,1.));
#993=DIRECTION('',(1.,2.64697796016968E-23,5.42101086242752E-20));
#994=DIRECTION('center_axis',(-1.,-2.64697796016968E-23,-5.42101086242752E-20));
#995=DIRECTION('ref_axis',(2.64697796016917E-23,-1.,9.36750677027475E-17));
#996=DIRECTION('',(5.42101086242752E-20,-9.36750677027475E-17,-1.));
#997=DIRECTION('',(2.64697796016917E-23,-1.,9.36750677027475E-17));
#998=DIRECTION('center_axis',(-2.64697796016917E-23,1.,-9.36750677027475E-17));
#999=DIRECTION('ref_axis',(-1.,-2.64697796016968E-23,-5.42101086242752E-20));
#1000=DIRECTION('',(-5.42101086242752E-20,9.36750677027475E-17,1.));
#1001=DIRECTION('',(-1.,-2.64697796016968E-23,-5.42101086242752E-20));
#1002=DIRECTION('center_axis',(-5.42101086242752E-20,9.36750677027475E-17,
1.));
#1003=DIRECTION('ref_axis',(1.,2.64697796016968E-23,5.42101086242752E-20));
#1004=DIRECTION('center_axis',(-5.42101086242752E-20,9.36750677027475E-17,
1.));
#1005=DIRECTION('ref_axis',(1.,2.64697796016968E-23,5.42101086242752E-20));
#1006=DIRECTION('center_axis',(5.42101086242752E-20,-9.36750677027475E-17,
-1.));
#1007=DIRECTION('ref_axis',(-2.64697796016917E-23,1.,-9.36750677027475E-17));
#1008=DIRECTION('',(2.64697796016917E-23,-1.,9.36750677027475E-17));
#1009=DIRECTION('',(-1.,-2.64697796016968E-23,-5.42101086242752E-20));
#1010=DIRECTION('',(-2.64697796016917E-23,1.,-9.36750677027475E-17));
#1011=DIRECTION('',(-1.,-2.64697796016968E-23,-5.42101086242752E-20));
#1012=DIRECTION('',(-2.64697796016917E-23,1.,-9.36750677027475E-17));
#1013=DIRECTION('',(1.,2.64697796016968E-23,5.42101086242752E-20));
#1014=DIRECTION('center_axis',(-2.64697796016917E-23,1.,-9.36750677027475E-17));
#1015=DIRECTION('ref_axis',(-1.,-2.64697796016968E-23,-5.42101086242752E-20));
#1016=DIRECTION('',(-5.42101086242752E-20,9.36750677027475E-17,1.));
#1017=DIRECTION('',(-5.42101086242752E-20,9.36750677027475E-17,1.));
#1018=DIRECTION('center_axis',(1.,2.64697796016968E-23,5.42101086242752E-20));
#1019=DIRECTION('ref_axis',(-2.64697796016917E-23,1.,-9.36750677027475E-17));
#1020=DIRECTION('',(5.42101086242752E-20,-9.36750677027475E-17,-1.));
#1021=DIRECTION('center_axis',(-2.64697796016917E-23,1.,-9.36750677027475E-17));
#1022=DIRECTION('ref_axis',(-1.,-2.64697796016968E-23,-5.42101086242752E-20));
#1023=DIRECTION('',(-5.42101086242752E-20,9.36750677027475E-17,1.));
#1024=DIRECTION('center_axis',(-1.,-2.64697796016968E-23,-5.42101086242752E-20));
#1025=DIRECTION('ref_axis',(2.64697796016917E-23,-1.,9.36750677027475E-17));
#1026=DIRECTION('center_axis',(2.64697796016917E-23,-1.,9.36750677027475E-17));
#1027=DIRECTION('ref_axis',(1.,2.64697796016968E-23,5.42101086242752E-20));
#1028=DIRECTION('',(5.42101086242752E-20,-9.36750677027475E-17,-1.));
#1029=DIRECTION('center_axis',(1.,2.64697796016968E-23,5.42101086242752E-20));
#1030=DIRECTION('ref_axis',(-2.64697796016917E-23,1.,-9.36750677027475E-17));
#1031=DIRECTION('center_axis',(-5.42101086242752E-20,9.36750677027475E-17,
1.));
#1032=DIRECTION('ref_axis',(1.,2.64697796016968E-23,5.42101086242752E-20));
#1033=DIRECTION('center_axis',(-5.42101086242752E-20,9.36750677027475E-17,
1.));
#1034=DIRECTION('ref_axis',(1.,2.64697796016968E-23,5.42101086242752E-20));
#1035=DIRECTION('',(5.42101086242752E-20,-9.36750677027475E-17,-1.));
#1036=DIRECTION('center_axis',(-5.42101086242752E-20,9.36750677027475E-17,
1.));
#1037=DIRECTION('ref_axis',(2.64697796016917E-23,-1.,9.36750677027475E-17));
#1038=DIRECTION('',(1.,2.64697796016968E-23,5.42101086242752E-20));
#1039=DIRECTION('',(2.64697796016917E-23,-1.,9.36750677027475E-17));
#1040=DIRECTION('',(-1.,-2.64697796016968E-23,-5.42101086242752E-20));
#1041=DIRECTION('',(-2.64697796016917E-23,1.,-9.36750677027475E-17));
#1042=DIRECTION('center_axis',(-1.87158873185321E-20,-0.93834311681711,
0.345705358827356));
#1043=DIRECTION('ref_axis',(1.,2.64697796016968E-23,5.42101086242752E-20));
#1044=DIRECTION('',(0.326732019606536,0.326732019606536,0.886844053217739));
#1045=DIRECTION('',(-0.326732019606536,0.326732019606536,0.886844053217739));
#1046=DIRECTION('center_axis',(0.93834311681711,3.23839977310907E-17,0.345705358827356));
#1047=DIRECTION('ref_axis',(-2.64697796016917E-23,1.,-9.36750677027475E-17));
#1048=DIRECTION('',(-0.326732019606536,-0.326732019606536,0.886844053217739));
#1049=DIRECTION('center_axis',(-1.87655627895179E-20,0.93834311681711,0.345705358827356));
#1050=DIRECTION('ref_axis',(-1.,-2.64697796016968E-23,-5.42101086242752E-20));
#1051=DIRECTION('',(0.326732019606536,-0.326732019606536,0.886844053217739));
#1052=DIRECTION('center_axis',(-0.93834311681711,3.23839480556197E-17,0.345705358827356));
#1053=DIRECTION('ref_axis',(2.64697796016917E-23,-1.,9.36750677027475E-17));
#1054=DIRECTION('center_axis',(1.,0.,0.));
#1055=DIRECTION('ref_axis',(0.,-0.665881666000833,0.746057375061701));
#1056=DIRECTION('center_axis',(1.,0.,0.));
#1057=DIRECTION('ref_axis',(0.,-0.665881666000833,0.746057375061701));
#1058=DIRECTION('center_axis',(1.,0.,0.));
#1059=DIRECTION('ref_axis',(0.,-0.665881666000833,0.746057375061701));
#1060=DIRECTION('',(1.,0.,0.));
#1061=DIRECTION('center_axis',(0.,-0.665881666000835,0.746057375061699));
#1062=DIRECTION('ref_axis',(0.,-0.746057375061699,-0.665881666000835));
#1063=DIRECTION('',(0.,-0.746057375061699,-0.665881666000835));
#1064=DIRECTION('',(0.,-0.746057375061699,-0.665881666000835));
#1065=DIRECTION('',(1.,0.,0.));
#1066=DIRECTION('center_axis',(0.,0.0436193873653361,0.999048221581858));
#1067=DIRECTION('ref_axis',(0.,-0.999048221581858,0.0436193873653361));
#1068=DIRECTION('',(0.,-0.999048221581858,0.0436193873653361));
#1069=DIRECTION('',(0.,-0.999048221581858,0.0436193873653361));
#1070=DIRECTION('',(1.,0.,0.));
#1071=DIRECTION('center_axis',(0.,1.,4.46325549931811E-16));
#1072=DIRECTION('ref_axis',(0.,-4.46325549931811E-16,1.));
#1073=DIRECTION('',(0.,-4.46325549931811E-16,1.));
#1074=DIRECTION('',(1.,0.,0.));
#1075=DIRECTION('',(0.,-4.46325549931811E-16,1.));
#1076=DIRECTION('center_axis',(0.,0.,-1.));
#1077=DIRECTION('ref_axis',(0.,1.,0.));
#1078=DIRECTION('',(0.,-1.,0.));
#1079=DIRECTION('',(0.,-1.,0.));
#1080=DIRECTION('center_axis',(1.,0.,0.));
#1081=DIRECTION('ref_axis',(0.,0.,-1.));
#1082=DIRECTION('center_axis',(1.,0.,0.));
#1083=DIRECTION('ref_axis',(0.,0.,-1.));
#1084=CARTESIAN_POINT('',(0.,0.,0.));
#1085=CARTESIAN_POINT('Origin',(-94.9399200000292,-39.3991482915132,10.086841385454));
#1086=CARTESIAN_POINT('',(-94.9399200000292,-39.6010159061847,7.2));
#1087=CARTESIAN_POINT('',(-76.5399200000292,-39.6010159061847,7.2));
#1088=CARTESIAN_POINT('',(-94.9399200000292,-39.6010159061847,7.2));
#1089=CARTESIAN_POINT('',(-76.5399200000292,-39.3991482915132,10.086841385454));
#1090=CARTESIAN_POINT('',(-76.5399200000292,-39.3991482915132,10.086841385454));
#1091=CARTESIAN_POINT('',(-94.9399200000292,-39.3991482915132,10.086841385454));
#1092=CARTESIAN_POINT('',(-94.9399200000292,-39.3991482915132,10.086841385454));
#1093=CARTESIAN_POINT('',(-94.9399200000292,-39.3991482915132,10.086841385454));
#1094=CARTESIAN_POINT('Origin',(-94.9399200000292,-42.0006919848584,11.1));
#1095=CARTESIAN_POINT('',(-94.9399200000292,-42.0006919848584,11.1));
#1096=CARTESIAN_POINT('',(-76.5399200000292,-42.0006919848584,11.1));
#1097=CARTESIAN_POINT('',(-94.9399200000292,-42.0006919848584,11.1));
#1098=CARTESIAN_POINT('',(-94.9399200000292,-39.2446813921416,11.1));
#1099=CARTESIAN_POINT('',(-94.9399200000292,-39.2446813921416,11.1));
#1100=CARTESIAN_POINT('',(-76.5399200000292,-39.2446813921416,11.1));
#1101=CARTESIAN_POINT('',(-94.9399200000292,-39.2446813921416,11.1));
#1102=CARTESIAN_POINT('',(-76.5399200000292,-39.2446813921416,11.1));
#1103=CARTESIAN_POINT('Origin',(-94.9399200000292,-33.1186468496096,9.64766594221502));
#1104=CARTESIAN_POINT('Origin',(-76.5399200000292,-33.1186468496096,9.64766594221502));
#1105=CARTESIAN_POINT('Origin',(-94.9399200000292,-33.1186468496096,9.64766594221502));
#1106=CARTESIAN_POINT('Ctrl Pts',(-78.2940250728788,-37.944225662005,6.6));
#1107=CARTESIAN_POINT('Ctrl Pts',(-78.2940250728788,-37.944225662005,17.063766399337));
#1108=CARTESIAN_POINT('Ctrl Pts',(-78.3004683861203,-35.4682377166771,6.6));
#1109=CARTESIAN_POINT('Ctrl Pts',(-78.3004683861203,-35.4682377166771,17.063766399337));
#1110=CARTESIAN_POINT('Ctrl Pts',(-78.3078121300908,-32.9571969574339,6.6));
#1111=CARTESIAN_POINT('Ctrl Pts',(-78.3078121300908,-32.9571969574339,17.063766399337));
#1112=CARTESIAN_POINT('Ctrl Pts',(-78.3244665839627,-28.0070348411097,6.6));
#1113=CARTESIAN_POINT('Ctrl Pts',(-78.3244665839627,-28.0070348411097,17.063766399337));
#1114=CARTESIAN_POINT('Ctrl Pts',(-78.334031449738,-25.4907220725041,6.6));
#1115=CARTESIAN_POINT('Ctrl Pts',(-78.334031449738,-25.4907220725041,17.063766399337));
#1116=CARTESIAN_POINT('Ctrl Pts',(-78.3450814278219,-23.0148683568,6.6));
#1117=CARTESIAN_POINT('Ctrl Pts',(-78.3450814278219,-23.0148683568,17.063766399337));
#1118=CARTESIAN_POINT('',(-78.2940250728788,-37.944225662005,8.19991473861578));
#1119=CARTESIAN_POINT('',(-78.3450814278219,-23.0148683568,8.19991473861578));
#1120=CARTESIAN_POINT('Ctrl Pts',(-78.2940250728788,-37.944225662005,8.19991473861578));
#1121=CARTESIAN_POINT('Ctrl Pts',(-78.3004617827195,-35.4707752218669,8.19991473861578));
#1122=CARTESIAN_POINT('Ctrl Pts',(-78.3077969663443,-32.9623869258324,8.19991473861578));
#1123=CARTESIAN_POINT('Ctrl Pts',(-78.3244467775592,-28.0122411175272,8.19991473861578));
#1124=CARTESIAN_POINT('Ctrl Pts',(-78.334020105913,-25.4932637654456,8.19991473861578));
#1125=CARTESIAN_POINT('Ctrl Pts',(-78.3450814278219,-23.0148683568,8.19991473861578));
#1126=CARTESIAN_POINT('',(-78.3450814278219,-23.0148683568,7.2));
#1127=CARTESIAN_POINT('',(-78.3450814278219,-23.0148683568,6.6));
#1128=CARTESIAN_POINT('',(-78.2940250728788,-37.944225662005,7.2));
#1129=CARTESIAN_POINT('Ctrl Pts',(-78.3450814278219,-23.0148683568,7.2));
#1130=CARTESIAN_POINT('Ctrl Pts',(-78.334031449738,-25.4907220725041,7.2));
#1131=CARTESIAN_POINT('Ctrl Pts',(-78.3244665839627,-28.0070348411097,7.2));
#1132=CARTESIAN_POINT('Ctrl Pts',(-78.3161480316567,-30.4795375604955,7.2));
#1133=CARTESIAN_POINT('Ctrl Pts',(-78.3078121300908,-32.9571969574339,7.2));
#1134=CARTESIAN_POINT('Ctrl Pts',(-78.3004683861203,-35.4682377166771,7.2));
#1135=CARTESIAN_POINT('Ctrl Pts',(-78.2940250728788,-37.944225662005,7.2));
#1136=CARTESIAN_POINT('',(-78.2940250728788,-37.944225662005,6.6));
#1137=CARTESIAN_POINT('Origin',(-93.1558069279313,-37.9442256620029,6.6));
#1138=CARTESIAN_POINT('',(-93.1558069279313,-37.9442256620029,8.19991473861578));
#1139=CARTESIAN_POINT('',(-89.4402495464802,-37.9442256620029,8.19991473861578));
#1140=CARTESIAN_POINT('',(-93.1558069279313,-37.9442256620029,7.2));
#1141=CARTESIAN_POINT('',(-94.0478634639802,-37.9442256620029,7.2));
#1142=CARTESIAN_POINT('',(-93.1558069279313,-37.9442256620029,6.6));
#1143=CARTESIAN_POINT('Origin',(-78.3450814278219,-23.0148683567975,6.6));
#1144=CARTESIAN_POINT('',(-93.1047505721781,-23.0148683568,8.19991473861578));
#1145=CARTESIAN_POINT('',(-82.0348867964255,-23.0148683567975,8.19991473861578));
#1146=CARTESIAN_POINT('',(-93.1047505721781,-23.0148683568,7.2));
#1147=CARTESIAN_POINT('',(-93.1047505721781,-23.0148683568,6.6));
#1148=CARTESIAN_POINT('',(-86.6425007139255,-23.0148683567975,7.2));
#1149=CARTESIAN_POINT('Ctrl Pts',(-93.1047505721781,-23.0148683568,6.6));
#1150=CARTESIAN_POINT('Ctrl Pts',(-93.1047505721781,-23.0148683568,17.063766399337));
#1151=CARTESIAN_POINT('Ctrl Pts',(-93.115800550739,-25.4907221793967,6.6));
#1152=CARTESIAN_POINT('Ctrl Pts',(-93.115800550739,-25.4907221793967,17.063766399337));
#1153=CARTESIAN_POINT('Ctrl Pts',(-93.1253654168702,-28.0070350600575,6.6));
#1154=CARTESIAN_POINT('Ctrl Pts',(-93.1253654168702,-28.0070350600575,17.063766399337));
#1155=CARTESIAN_POINT('Ctrl Pts',(-93.1420198705469,-32.9571971756865,6.6));
#1156=CARTESIAN_POINT('Ctrl Pts',(-93.1420198705469,-32.9571971756865,17.063766399337));
#1157=CARTESIAN_POINT('Ctrl Pts',(-93.1493636141573,-35.468237823377,6.6));
#1158=CARTESIAN_POINT('Ctrl Pts',(-93.1493636141573,-35.468237823377,17.063766399337));
#1159=CARTESIAN_POINT('Ctrl Pts',(-93.1558069271212,-37.944225662005,6.6));
#1160=CARTESIAN_POINT('Ctrl Pts',(-93.1558069271212,-37.944225662005,17.063766399337));
#1161=CARTESIAN_POINT('Ctrl Pts',(-93.1047505721781,-23.0148683568,8.19991473861578));
#1162=CARTESIAN_POINT('Ctrl Pts',(-93.115800550739,-25.4907221793967,8.19991473861578));
#1163=CARTESIAN_POINT('Ctrl Pts',(-93.1253654168702,-28.0070350600575,8.19991473861578));
#1164=CARTESIAN_POINT('Ctrl Pts',(-93.1336839694377,-30.479537885783,8.19991473861578));
#1165=CARTESIAN_POINT('Ctrl Pts',(-93.1420198705469,-32.9571971756865,8.19991473861578));
#1166=CARTESIAN_POINT('Ctrl Pts',(-93.1493636141573,-35.468237823377,8.19991473861578));
#1167=CARTESIAN_POINT('Ctrl Pts',(-93.1558069271212,-37.944225662005,8.19991473861578));
#1168=CARTESIAN_POINT('Ctrl Pts',(-93.1558069271212,-37.944225662005,7.2));
#1169=CARTESIAN_POINT('Ctrl Pts',(-93.1493636141573,-35.468237823377,7.2));
#1170=CARTESIAN_POINT('Ctrl Pts',(-93.1420198705469,-32.9571971756865,7.2));
#1171=CARTESIAN_POINT('Ctrl Pts',(-93.1336839694377,-30.479537885783,7.2));
#1172=CARTESIAN_POINT('Ctrl Pts',(-93.1253654168702,-28.0070350600575,7.2));
#1173=CARTESIAN_POINT('Ctrl Pts',(-93.115800550739,-25.4907221793967,7.2));
#1174=CARTESIAN_POINT('Ctrl Pts',(-93.1047505721781,-23.0148683568,7.2));
#1175=CARTESIAN_POINT('Origin',(-85.7246921650292,-30.5769389336536,8.19991473861578));
#1176=CARTESIAN_POINT('',(-93.0246921650292,-37.8769389336536,8.19991473861578));
#1177=CARTESIAN_POINT('',(-78.4246921650292,-37.8769389336536,8.19991473861578));
#1178=CARTESIAN_POINT('',(-89.3746921650292,-37.8769389336536,8.19991473861578));
#1179=CARTESIAN_POINT('',(-78.4246921650292,-23.2769389336536,8.19991473861578));
#1180=CARTESIAN_POINT('',(-78.4246921650292,-34.2269389336536,8.19991473861578));
#1181=CARTESIAN_POINT('',(-93.0246921650292,-23.2769389336536,8.19991473861578));
#1182=CARTESIAN_POINT('',(-82.0746921650292,-23.2769389336536,8.19991473861578));
#1183=CARTESIAN_POINT('',(-93.0246921650292,-26.9269389336537,8.19991473861578));
#1184=CARTESIAN_POINT('Origin',(-85.4321921650292,-29.8419389336536,8.34991473861578));
#1185=CARTESIAN_POINT('',(-84.8396921650292,-29.6919389336536,8.19991473861578));
#1186=CARTESIAN_POINT('',(-83.3746921650292,-29.6919389336536,8.19991473861578));
#1187=CARTESIAN_POINT('',(-85.4321921650292,-29.6919389336536,8.19991473861578));
#1188=CARTESIAN_POINT('',(-83.5846921650292,-29.9019389336536,8.40991473861578));
#1189=CARTESIAN_POINT('',(-83.3746921650292,-29.6919389336536,8.19991473861578));
#1190=CARTESIAN_POINT('',(-85.0496921650292,-29.9019389336536,8.40991473861578));
#1191=CARTESIAN_POINT('',(-85.2859421650292,-29.9019389336536,8.40991473861578));
#1192=CARTESIAN_POINT('',(-84.8396921650292,-29.6919389336536,8.19991473861578));
#1193=CARTESIAN_POINT('Origin',(-84.6996921650292,-31.3119389336536,8.34991473861578));
#1194=CARTESIAN_POINT('',(-83.3746921650292,-31.4619389336536,8.19991473861578));
#1195=CARTESIAN_POINT('',(-84.8396921650292,-31.4619389336536,8.19991473861578));
#1196=CARTESIAN_POINT('',(-84.6996921650292,-31.4619389336536,8.19991473861578));
#1197=CARTESIAN_POINT('',(-85.0496921650292,-31.2519389336536,8.40991473861578));
#1198=CARTESIAN_POINT('',(-84.8396921650292,-31.4619389336536,8.19991473861578));
#1199=CARTESIAN_POINT('',(-83.5846921650292,-31.2519389336536,8.40991473861578));
#1200=CARTESIAN_POINT('',(-84.1871921650292,-31.2519389336536,8.40991473861578));
#1201=CARTESIAN_POINT('',(-83.6746921650292,-31.1619389336536,8.49991473861578));
#1202=CARTESIAN_POINT('Origin',(-84.9896921650292,-30.8694389336536,8.34991473861578));
#1203=CARTESIAN_POINT('',(-84.8396921650292,-32.9269389336536,8.19991473861578));
#1204=CARTESIAN_POINT('',(-84.8396921650292,-30.8694389336536,8.19991473861578));
#1205=CARTESIAN_POINT('',(-85.0496921650292,-32.7169389336537,8.40991473861578));
#1206=CARTESIAN_POINT('',(-84.8396921650292,-32.9269389336536,8.19991473861578));
#1207=CARTESIAN_POINT('',(-85.0496921650292,-31.0156889336536,8.40991473861577));
#1208=CARTESIAN_POINT('Origin',(-85.4321921650292,-32.7769389336537,8.34991473861578));
#1209=CARTESIAN_POINT('',(-86.6096921650292,-32.9269389336536,8.19991473861578));
#1210=CARTESIAN_POINT('',(-85.4321921650292,-32.9269389336536,8.19991473861578));
#1211=CARTESIAN_POINT('',(-86.3996921650292,-32.7169389336537,8.40991473861578));
#1212=CARTESIAN_POINT('',(-86.6096921650292,-32.9269389336536,8.19991473861578));
#1213=CARTESIAN_POINT('',(-85.2859421650292,-32.7169389336537,8.40991473861578));
#1214=CARTESIAN_POINT('Origin',(-86.4596921650292,-31.6019389336536,8.34991473861578));
#1215=CARTESIAN_POINT('',(-86.3996921650292,-31.2519389336536,8.40991473861578));
#1216=CARTESIAN_POINT('',(-86.3996921650292,-32.1144389336536,8.40991473861577));
#1217=CARTESIAN_POINT('',(-86.6096921650292,-31.4619389336536,8.19991473861578));
#1218=CARTESIAN_POINT('',(-86.6096921650292,-31.6019389336536,8.19991473861578));
#1219=CARTESIAN_POINT('',(-86.6096921650292,-31.4619389336536,8.19991473861578));
#1220=CARTESIAN_POINT('Origin',(-86.0171921650292,-31.3119389336536,8.34991473861578));
#1221=CARTESIAN_POINT('',(-87.8646921650292,-31.2519389336536,8.40991473861578));
#1222=CARTESIAN_POINT('',(-86.1634421650292,-31.2519389336536,8.40991473861578));
#1223=CARTESIAN_POINT('',(-88.0746921650292,-31.4619389336536,8.19991473861578));
#1224=CARTESIAN_POINT('',(-86.0171921650292,-31.4619389336536,8.19991473861578));
#1225=CARTESIAN_POINT('',(-88.0746921650292,-31.4619389336536,8.19991473861578));
#1226=CARTESIAN_POINT('Origin',(-87.9246921650292,-30.8694389336536,8.34991473861578));
#1227=CARTESIAN_POINT('',(-87.8646921650292,-29.9019389336536,8.40991473861578));
#1228=CARTESIAN_POINT('',(-87.8646921650292,-31.0156889336536,8.40991473861578));
#1229=CARTESIAN_POINT('',(-88.0746921650292,-29.6919389336536,8.19991473861578));
#1230=CARTESIAN_POINT('',(-88.0746921650292,-30.8694389336536,8.19991473861578));
#1231=CARTESIAN_POINT('',(-88.0746921650292,-29.6919389336536,8.19991473861578));
#1232=CARTESIAN_POINT('Origin',(-86.7496921650292,-29.8419389336536,8.34991473861578));
#1233=CARTESIAN_POINT('',(-86.3996921650292,-29.9019389336536,8.40991473861578));
#1234=CARTESIAN_POINT('',(-87.2621921650292,-29.9019389336536,8.40991473861578));
#1235=CARTESIAN_POINT('',(-86.6096921650292,-29.6919389336536,8.19991473861578));
#1236=CARTESIAN_POINT('',(-86.7496921650292,-29.6919389336536,8.19991473861578));
#1237=CARTESIAN_POINT('',(-86.6096921650292,-29.6919389336536,8.19991473861578));
#1238=CARTESIAN_POINT('Origin',(-83.5246921650292,-30.2844389336537,8.34991473861578));
#1239=CARTESIAN_POINT('',(-83.3746921650292,-30.2844389336537,8.19991473861578));
#1240=CARTESIAN_POINT('',(-83.5846921650292,-30.1381889336536,8.40991473861578));
#1241=CARTESIAN_POINT('Origin',(-86.4596921650292,-30.2844389336537,8.34991473861578));
#1242=CARTESIAN_POINT('',(-86.3996921650292,-28.4369389336536,8.40991473861578));
#1243=CARTESIAN_POINT('',(-86.3996921650292,-30.1381889336536,8.40991473861577));
#1244=CARTESIAN_POINT('',(-86.6096921650292,-28.2269389336536,8.19991473861578));
#1245=CARTESIAN_POINT('',(-86.6096921650292,-30.2844389336537,8.19991473861578));
#1246=CARTESIAN_POINT('',(-86.6096921650292,-28.2269389336536,8.19991473861578));
#1247=CARTESIAN_POINT('Origin',(-86.0171921650292,-28.3769389336536,8.34991473861578));
#1248=CARTESIAN_POINT('',(-85.0496921650292,-28.4369389336536,8.40991473861578));
#1249=CARTESIAN_POINT('',(-86.1634421650292,-28.4369389336536,8.40991473861578));
#1250=CARTESIAN_POINT('',(-84.8396921650292,-28.2269389336536,8.19991473861578));
#1251=CARTESIAN_POINT('',(-86.0171921650292,-28.2269389336536,8.19991473861578));
#1252=CARTESIAN_POINT('',(-84.8396921650292,-28.2269389336536,8.19991473861578));
#1253=CARTESIAN_POINT('Origin',(-84.9896921650292,-29.5519389336536,8.34991473861578));
#1254=CARTESIAN_POINT('',(-85.0496921650292,-29.0394389336536,8.40991473861577));
#1255=CARTESIAN_POINT('',(-84.8396921650292,-29.5519389336536,8.19991473861578));
#1256=CARTESIAN_POINT('Origin',(-86.3996921650292,-29.9919389336536,8.19991473861578));
#1257=CARTESIAN_POINT('',(-86.3996921650292,-28.4369389336536,12.8999147386158));
#1258=CARTESIAN_POINT('',(-86.3996921650292,-28.4369389336536,8.19991473861578));
#1259=CARTESIAN_POINT('',(-86.3996921650292,-29.9019389336536,12.8999147386158));
#1260=CARTESIAN_POINT('',(-86.3996921650292,-30.2844389336537,12.8999147386158));
#1261=CARTESIAN_POINT('',(-86.3996921650292,-29.9019389336536,8.19991473861578));
#1262=CARTESIAN_POINT('Origin',(-86.3096921650292,-28.4369389336536,8.19991473861578));
#1263=CARTESIAN_POINT('',(-85.0496921650292,-28.4369389336536,12.8999147386158));
#1264=CARTESIAN_POINT('',(-85.0496921650292,-28.4369389336536,8.19991473861578));
#1265=CARTESIAN_POINT('',(-86.0171921650292,-28.4369389336536,12.8999147386158));
#1266=CARTESIAN_POINT('Origin',(-85.0496921650292,-28.5269389336536,8.19991473861578));
#1267=CARTESIAN_POINT('',(-85.0496921650292,-29.9019389336536,12.8999147386158));
#1268=CARTESIAN_POINT('',(-85.0496921650292,-29.9019389336536,8.19991473861578));
#1269=CARTESIAN_POINT('',(-85.0496921650292,-29.5519389336536,12.8999147386158));
#1270=CARTESIAN_POINT('Origin',(-85.1396921650292,-29.9019389336536,8.19991473861578));
#1271=CARTESIAN_POINT('',(-83.5846921650292,-29.9019389336536,12.8999147386158));
#1272=CARTESIAN_POINT('',(-83.5846921650292,-29.9019389336536,8.19991473861578));
#1273=CARTESIAN_POINT('',(-85.4321921650292,-29.9019389336536,12.8999147386158));
#1274=CARTESIAN_POINT('Origin',(-83.5846921650292,-29.9919389336536,8.19991473861578));
#1275=CARTESIAN_POINT('',(-83.5846921650292,-31.2519389336536,12.8999147386158));
#1276=CARTESIAN_POINT('',(-83.5846921650292,-31.2519389336536,8.19991473861578));
#1277=CARTESIAN_POINT('',(-83.5846921650292,-30.2844389336537,12.8999147386158));
#1278=CARTESIAN_POINT('Origin',(-83.6746921650292,-31.2519389336536,8.19991473861578));
#1279=CARTESIAN_POINT('',(-85.0496921650292,-31.2519389336536,12.8999147386158));
#1280=CARTESIAN_POINT('',(-85.0496921650292,-31.2519389336537,8.19991473861578));
#1281=CARTESIAN_POINT('',(-84.6996921650292,-31.2519389336536,12.8999147386158));
#1282=CARTESIAN_POINT('Origin',(-85.7246921650292,-30.5769389336536,8.19991473861578));
#1283=CARTESIAN_POINT('',(-88.5246921650292,-30.5769389336536,8.19991473861578));
#1284=CARTESIAN_POINT('Origin',(-85.7246921650292,-30.5769389336536,8.19991473861578));
#1285=CARTESIAN_POINT('Origin',(-85.7246921650292,-30.5769389336536,12.8999147386158));
#1286=CARTESIAN_POINT('',(-85.0496921650292,-32.7169389336537,12.8999147386158));
#1287=CARTESIAN_POINT('',(-85.0496921650292,-30.8694389336536,12.8999147386158));
#1288=CARTESIAN_POINT('',(-86.3996921650292,-32.7169389336537,12.8999147386158));
#1289=CARTESIAN_POINT('',(-85.4321921650292,-32.7169389336536,12.8999147386158));
#1290=CARTESIAN_POINT('',(-86.3996921650292,-31.2519389336536,12.8999147386158));
#1291=CARTESIAN_POINT('',(-86.3996921650292,-31.6019389336536,12.8999147386158));
#1292=CARTESIAN_POINT('',(-87.8646921650292,-31.2519389336536,12.8999147386158));
#1293=CARTESIAN_POINT('',(-86.0171921650292,-31.2519389336536,12.8999147386158));
#1294=CARTESIAN_POINT('',(-87.8646921650292,-29.9019389336536,12.8999147386158));
#1295=CARTESIAN_POINT('',(-87.8646921650292,-30.8694389336536,12.8999147386158));
#1296=CARTESIAN_POINT('',(-86.7496921650292,-29.9019389336536,12.8999147386158));
#1297=CARTESIAN_POINT('Origin',(-86.3096921650292,-31.2519389336536,8.19991473861578));
#1298=CARTESIAN_POINT('',(-87.8646921650292,-31.2519389336536,8.19991473861578));
#1299=CARTESIAN_POINT('',(-86.3996921650292,-31.2519389336536,8.19991473861578));
#1300=CARTESIAN_POINT('Origin',(-86.3996921650292,-32.6269389336536,8.19991473861578));
#1301=CARTESIAN_POINT('',(-86.3996921650292,-32.7169389336537,8.19991473861578));
#1302=CARTESIAN_POINT('Origin',(-85.1396921650292,-32.7169389336537,8.19991473861578));
#1303=CARTESIAN_POINT('',(-85.0496921650292,-32.7169389336537,8.19991473861578));
#1304=CARTESIAN_POINT('Origin',(-85.0496921650292,-31.1619389336536,8.19991473861578));
#1305=CARTESIAN_POINT('Origin',(-87.7746921650292,-29.9019389336536,8.19991473861578));
#1306=CARTESIAN_POINT('',(-87.8646921650292,-29.9019389336536,8.19991473861578));
#1307=CARTESIAN_POINT('Origin',(-87.8646921650292,-31.1619389336536,8.19991473861578));
#1308=CARTESIAN_POINT('Origin',(-85.7246921650292,-30.5769389336536,8.19991473861578));
#1309=CARTESIAN_POINT('',(-88.5246921650292,-30.5769389336536,13.8999147386158));
#1310=CARTESIAN_POINT('Origin',(-85.7246921650292,-30.5769389336536,13.8999147386158));
#1311=CARTESIAN_POINT('',(-88.5246921650292,-30.5769389336536,8.19991473861578));
#1312=CARTESIAN_POINT('Origin',(-85.7246921650292,-30.5769389336536,13.8999147386158));
#1313=CARTESIAN_POINT('',(-90.9246921650292,-35.7769389336536,13.8999147386158));
#1314=CARTESIAN_POINT('',(-80.5246921650292,-35.7769389336536,13.8999147386158));
#1315=CARTESIAN_POINT('',(-90.9246921650292,-35.7769389336536,13.8999147386158));
#1316=CARTESIAN_POINT('',(-90.9246921650292,-25.3769389336536,13.8999147386158));
#1317=CARTESIAN_POINT('',(-90.9246921650292,-25.3769389336536,13.8999147386158));
#1318=CARTESIAN_POINT('',(-80.5246921650292,-25.3769389336536,13.8999147386158));
#1319=CARTESIAN_POINT('',(-80.5246921650292,-25.3769389336536,13.8999147386158));
#1320=CARTESIAN_POINT('',(-80.5246921650292,-35.7769389336536,13.8999147386158));
#1321=CARTESIAN_POINT('Origin',(-93.0246921650292,-37.8769389336536,8.19991473861578));
#1322=CARTESIAN_POINT('',(-93.0246921650292,-37.8769389336536,8.19991473861578));
#1323=CARTESIAN_POINT('',(-78.4246921650292,-37.8769389336536,8.19991473861578));
#1324=CARTESIAN_POINT('Origin',(-78.4246921650292,-37.8769389336536,8.19991473861578));
#1325=CARTESIAN_POINT('',(-78.4246921650292,-23.2769389336536,8.19991473861578));
#1326=CARTESIAN_POINT('Origin',(-78.4246921650292,-23.2769389336536,8.19991473861578));
#1327=CARTESIAN_POINT('',(-93.0246921650292,-23.2769389336536,8.19991473861578));
#1328=CARTESIAN_POINT('Origin',(-93.0246921650292,-23.2769389336536,8.19991473861578));
#1329=CARTESIAN_POINT('Origin',(-94.9399200000292,-33.1186468496096,9.64766594221502));
#1330=CARTESIAN_POINT('',(-94.9399200000292,-39.1115818436171,16.3621823177703));
#1331=CARTESIAN_POINT('Origin',(-94.9399200000292,-33.1186468496096,9.64766594221502));
#1332=CARTESIAN_POINT('',(-76.5399200000292,-39.1115818436171,16.3621823177703));
#1333=CARTESIAN_POINT('Origin',(-76.5399200000292,-33.1186468496096,9.64766594221502));
#1334=CARTESIAN_POINT('',(-94.9399200000292,-39.1115818436171,16.3621823177703));
#1335=CARTESIAN_POINT('Origin',(-94.9399200000292,-38.1006612113899,17.2644634790904));
#1336=CARTESIAN_POINT('',(-94.9399200000292,-38.1006612113899,17.2644634790904));
#1337=CARTESIAN_POINT('',(-94.9399200000292,-38.1006612113899,17.2644634790904));
#1338=CARTESIAN_POINT('',(-76.5399200000292,-38.1006612113899,17.2644634790904));
#1339=CARTESIAN_POINT('',(-76.5399200000292,-38.1006612113899,17.2644634790904));
#1340=CARTESIAN_POINT('',(-94.9399200000292,-38.1006612113899,17.2644634790904));
#1341=CARTESIAN_POINT('Origin',(-94.9399200000292,-21.7343390000001,16.5498944193966));
#1342=CARTESIAN_POINT('',(-94.9399200000292,-21.7343390000001,16.5498944193966));
#1343=CARTESIAN_POINT('',(-94.9399200000292,-21.7343390000001,16.5498944193966));
#1344=CARTESIAN_POINT('',(-76.5399200000292,-21.7343390000001,16.5498944193966));
#1345=CARTESIAN_POINT('',(-76.5399200000292,-21.7343390000001,16.5498944193966));
#1346=CARTESIAN_POINT('',(-94.9399200000292,-21.7343390000001,16.5498944193966));
#1347=CARTESIAN_POINT('Origin',(-94.9399200000292,-21.7343390000001,6.6));
#1348=CARTESIAN_POINT('',(-76.5399200000292,-21.7343390000001,7.2));
#1349=CARTESIAN_POINT('',(-76.5399200000292,-21.7343390000001,6.6));
#1350=CARTESIAN_POINT('',(-94.9399200000292,-21.7343390000001,7.2));
#1351=CARTESIAN_POINT('',(-94.9399200000292,-21.7343390000001,7.2));
#1352=CARTESIAN_POINT('',(-94.9399200000292,-21.7343390000001,6.6));
#1353=CARTESIAN_POINT('Origin',(-94.9399200000292,-39.6429719933508,7.2));
#1354=CARTESIAN_POINT('',(-94.9399200000292,-35.75524374289,7.2));
#1355=CARTESIAN_POINT('',(-76.5399200000292,-35.75524374289,7.2));
#1356=CARTESIAN_POINT('Origin',(-76.5399200000292,-31.8675154924292,11.9322317395452));
#1357=CARTESIAN_POINT('Origin',(-94.9399200000292,-31.8675154924292,11.9322317395452));
#1358=UNCERTAINTY_MEASURE_WITH_UNIT(LENGTH_MEASURE(0.01),#1362,
'DISTANCE_ACCURACY_VALUE',
'Maximum model space distance between geometric entities at asserted c
onnectivities');
#1359=UNCERTAINTY_MEASURE_WITH_UNIT(LENGTH_MEASURE(0.01),#1362,
'DISTANCE_ACCURACY_VALUE',
'Maximum model space distance between geometric entities at asserted c
onnectivities');
#1360=(
GEOMETRIC_REPRESENTATION_CONTEXT(3)
GLOBAL_UNCERTAINTY_ASSIGNED_CONTEXT((#1358))
GLOBAL_UNIT_ASSIGNED_CONTEXT((#1362,#1363,#1364))
REPRESENTATION_CONTEXT('','3D')
);
#1361=(
GEOMETRIC_REPRESENTATION_CONTEXT(3)
GLOBAL_UNCERTAINTY_ASSIGNED_CONTEXT((#1359))
GLOBAL_UNIT_ASSIGNED_CONTEXT((#1362,#1363,#1364))
REPRESENTATION_CONTEXT('','3D')
);
#1362=(
LENGTH_UNIT()
NAMED_UNIT(*)
SI_UNIT(.MILLI.,.METRE.)
);
#1363=(
NAMED_UNIT(*)
PLANE_ANGLE_UNIT()
SI_UNIT($,.RADIAN.)
);
#1364=(
NAMED_UNIT(*)
SI_UNIT($,.STERADIAN.)
SOLID_ANGLE_UNIT()
);
#1365=SHAPE_DEFINITION_REPRESENTATION(#1366,#1367);
#1366=PRODUCT_DEFINITION_SHAPE('',$,#1369);
#1367=SHAPE_REPRESENTATION('',(#827),#1360);
#1368=PRODUCT_DEFINITION_CONTEXT('part definition',#1373,'design');
#1369=PRODUCT_DEFINITION('Bottom Row 1u','Bottom Row 1u',#1370,#1368);
#1370=PRODUCT_DEFINITION_FORMATION('',$,#1375);
#1371=PRODUCT_RELATED_PRODUCT_CATEGORY('Bottom Row 1u','Bottom Row 1u',
(#1375));
#1372=APPLICATION_PROTOCOL_DEFINITION('international standard',
'automotive_design',2009,#1373);
#1373=APPLICATION_CONTEXT(
'Core Data for Automotive Mechanical Design Process');
#1374=PRODUCT_CONTEXT('part definition',#1373,'mechanical');
#1375=PRODUCT('Bottom Row 1u','Bottom Row 1u',$,(#1374));
#1376=PRESENTATION_STYLE_ASSIGNMENT((#1378));
#1377=PRESENTATION_STYLE_ASSIGNMENT((#1379));
#1378=SURFACE_STYLE_USAGE(.BOTH.,#1380);
#1379=SURFACE_STYLE_USAGE(.BOTH.,#1381);
#1380=SURFACE_SIDE_STYLE('',(#1382));
#1381=SURFACE_SIDE_STYLE('',(#1383));
#1382=SURFACE_STYLE_FILL_AREA(#1384);
#1383=SURFACE_STYLE_FILL_AREA(#1385);
#1384=FILL_AREA_STYLE('Stahl - satiniert',(#1386));
#1385=FILL_AREA_STYLE('Farbe - Emaille gl\X\E4nzend (Wei\X\DF)',(#1387));
#1386=FILL_AREA_STYLE_COLOUR('Stahl - satiniert',#1388);
#1387=FILL_AREA_STYLE_COLOUR('Farbe - Emaille gl\X\E4nzend (Wei\X\DF)',
#1389);
#1388=COLOUR_RGB('Stahl - satiniert',0.627450980392157,0.627450980392157,
0.627450980392157);
#1389=COLOUR_RGB('Farbe - Emaille gl\X\E4nzend (Wei\X\DF)',0.964705882352941,
0.964705882352941,0.952941176470588);
ENDSEC;
END-ISO-10303-21;
